<?xml version="1.0" encoding="UTF-8"?>
<svg id="Layer_2" data-name="Layer 2" xmlns="http://www.w3.org/2000/svg" viewBox="0 0 190 130">
  <defs>
    <style>
      .cls-1 {
        fill: none;
      }

      .cls-1, .cls-2 {
        stroke-width: 0px;
      }

      .cls-2 {
        fill: #d5d5d5;
      }

    </style>
  </defs>
  <g id="Layer_1-2" data-name="Layer 1">
    <rect class="cls-1" width="190" height="130"/>
    <g>
      <path class="cls-2" d="m69.03,6.48c.95-.2,3.61-.19,4.84.23.92.32,2.84,1.04,6.05,2.19,8.14,2.91,21.75,7.79,29.61,10.4l1.36.63-3.18.67c-24.52,6.36-31.6,9.79-33.06,10.39-1.61.67-1.86,3.41-1.51,6.51h0c.3,2.71,3.18,49.47,4.06,63.73l.1.47-37.78-28.82-.02-.35c-.03-.51-2.6-49.49-2.93-52.45-.34-3.08-.09-4.42,2.02-5.74,3.01-1.89,22.06-6.06,30.44-7.87m-28.04,66.81l34.6,26.39c-1.78-28.92-3.72-59.92-3.95-62.01-.34-3.05-.47-6.39,2.28-7.54,1.39-.58,18.43-6.6,33.28-10.23-8.02-2.72-19.99-7.05-27.32-9.68-3.2-1.15-6.03-2.26-6.95-2.58-.96-.33-3.15-.07-3.82.08-17.03,3.69-27.79,6.69-29.71,7.9-1.34.85-1.65,1.38-1.33,4.3.32,2.9,2.67,48.51,2.92,53.36Z"/>
      <path class="cls-2" d="m109.04,40.85c.1-.04.29-.35.3-.47.17-1.26-.21-3.93-.47-5.13-.03-.13-.36-.32-.5-.28-2.9.78-6.32,1.58-7.62,2.08-.46.18-.61.8-.61.99-.03.76.35,3.05.45,4.65.01.18.57.71.67.67.37-.14,6.73-2.11,7.78-2.51Z"/>
      <path class="cls-2" d="m109.55,48.46c.1-.04.29-.35.3-.47.17-1.26-.21-3.93-.47-5.13-.03-.13-.36-.32-.5-.28-2.9.78-6.32,1.58-7.62,2.08-.46.18-.61.8-.61.99-.03.76.35,3.05.45,4.65.01.18.57.71.67.67.37-.14,6.73-2.11,7.78-2.51Z"/>
      <path class="cls-2" d="m81.76,38.71c-.57.05-1.08-.46-1.13-1.13s.38-1.26.95-1.31,1.08.46,1.13,1.13-.38,1.26-.95,1.31Zm-.12-1.63c-.19.02-.33.21-.32.44s.19.39.38.38.33-.21.32-.44-.19-.39-.38-.38Z"/>
      <path class="cls-2" d="m85.25,104.97c-.57.05-1.08-.46-1.13-1.13s.38-1.26.95-1.31,1.08.46,1.13,1.13-.38,1.26-.95,1.31Zm-.12-1.63c-.19.02-.33.21-.32.44s.19.39.38.38.33-.21.32-.44-.19-.39-.38-.38Z"/>
      <path class="cls-2" d="m117.23,28.07c-.57.05-1.08-.46-1.13-1.13s.38-1.26.95-1.31,1.08.46,1.13,1.13-.38,1.26-.95,1.31Zm-.12-1.63c-.19.02-.33.21-.32.44s.19.39.38.38.33-.21.32-.44-.19-.39-.38-.38Z"/>
      <path class="cls-2" d="m42.51,65.11c-.57.05-1.08-.46-1.13-1.13s.38-1.26.95-1.31c.57-.05,1.08.46,1.13,1.13s-.38,1.26-.95,1.31Zm-.12-1.63c-.19.02-.33.21-.32.44s.19.39.38.38.33-.21.32-.44-.19-.39-.38-.38Z"/>
      <path class="cls-2" d="m120.59,91.86c-.57.05-1.08-.46-1.13-1.13s.38-1.26.95-1.31c.57-.05,1.08.46,1.13,1.13s-.38,1.26-.95,1.31Zm-.12-1.63c-.19.02-.33.21-.32.44s.19.39.38.38.33-.21.32-.44-.19-.39-.38-.38Z"/>
      <path class="cls-2" d="m94.6,45.66c-.78.07-1.48-.63-1.55-1.55s.51-1.74,1.3-1.81c.78-.07,1.48.63,1.55,1.55s-.51,1.74-1.3,1.81Zm-.17-2.24c-.26.02-.45.29-.43.6s.25.54.51.52.45-.29.43-.6-.25-.54-.51-.52Z"/>
      <path class="cls-2" d="m88.97,46.99c-.78.07-1.48-.63-1.55-1.55s.51-1.74,1.3-1.81,1.48.63,1.55,1.55-.51,1.74-1.3,1.81Zm-.17-2.24c-.26.02-.45.29-.43.6s.25.54.51.52.45-.29.43-.6-.25-.54-.51-.52Z"/>
      <path class="cls-2" d="m49.6,15.31c-.05.6-.84,1.06-1.76,1.03s-1.64-.54-1.6-1.14.84-1.06,1.76-1.03,1.64.54,1.6,1.14Zm-2.24-.07c-.02.2.22.37.53.38s.57-.14.59-.34-.22-.37-.53-.38-.57.14-.59.34Z"/>
      <path class="cls-2" d="m71.7,9.98c-.05.6-.84,1.06-1.76,1.03s-1.64-.54-1.6-1.14.84-1.06,1.76-1.03,1.64.54,1.6,1.14Zm-2.24-.07c-.02.2.22.37.53.38s.57-.14.59-.34-.22-.37-.53-.38-.57.14-.59.34Z"/>
      <path class="cls-2" d="m66.57,17.86c-.05.6-.84,1.06-1.76,1.03s-1.64-.54-1.6-1.14.84-1.06,1.76-1.03,1.64.54,1.6,1.14Zm-2.24-.07c-.02.2.22.37.53.38s.57-.14.59-.34-.22-.37-.53-.38-.57.14-.59.34Z"/>
      <path class="cls-2" d="m72.64,32.79c-.08,0-.17-.02-.25-.06l-28.73-14.31c-.28-.14-3.5-1.73-3.36-2.01.14-.28.48-.39.76-.25l31.83,15.57c.28.14.39.48.25.76-.1.2-.3.31-.51.31Z"/>
      <path class="cls-2" d="m71.97,35.81c-.08,0-.17-.02-.25-.06l-25.72-13.66c-.28-.14-3.5-1.73-3.37-2.01.14-.28.48-.4.76-.26l28.82,14.92c.28.14.4.48.26.76-.1.2-.3.32-.51.32Z"/>
      <path class="cls-2" d="m95.2,63.15c.02-.24,0-.47-.03-.7-.09-1.96-1.29-3.52-2.89-3.59-1.75-.08-3.29,1.66-3.44,3.89s1.14,4.1,2.89,4.18c1.4.06,2.66-1.05,3.18-2.64.15-.35.25-.73.28-1.14Zm-1.1-1.91c.41.46.62,1.15.57,1.88-.09,1.28-.96,2.29-1.93,2.25-.39-.02-.74-.2-1.03-.52-.41-.46-.62-1.15-.57-1.88.09-1.26.92-2.25,1.87-2.25.02,0,.04,0,.06,0,.39.02.74.2,1.03.52Zm-4.16,1.58c.11-1.59,1.21-2.84,2.46-2.78.23.01.45.07.66.16-1.23-.03-2.34,1.18-2.44,2.74-.06.87.2,1.69.71,2.26.26.29.57.48.9.59-.07,0-.14.02-.21.02-1.25-.06-2.18-1.39-2.07-2.99Z"/>
      <g>
        <path class="cls-2" d="m88.08,65.5c-.24-.62-.39-1.3-.42-2.02l-1.21.18c.06.88.25,1.73.58,2.49l1.05-.65Z"/>
        <path class="cls-2" d="m87.66,62.77s0-.08,0-.11c.05-.68.19-1.33.41-1.92l-1.12-.45c-.27.71-.44,1.48-.5,2.29,0,.06,0,.11,0,.17l1.22.03Z"/>
        <path class="cls-2" d="m89.58,58.43l-.67-1.02c-.64.54-1.19,1.24-1.61,2.06l1,.7c.33-.69.77-1.28,1.28-1.74Z"/>
        <path class="cls-2" d="m88.4,66.17l-.9.85c.18.28.37.55.59.8.24.27.51.51.79.72l.6-1.08c-.17-.14-.33-.28-.48-.45-.22-.25-.42-.53-.59-.83Z"/>
        <path class="cls-2" d="m93.38,56.44l-.24,1.22c.52.2,1,.52,1.41.99.05.05.08.11.13.16l.69-1.06c-.57-.62-1.26-1.06-1.99-1.31Z"/>
        <path class="cls-2" d="m92.37,56.23c-.06,0-.11-.01-.17-.02-.87-.04-1.72.19-2.48.62l.46,1.14c.56-.35,1.18-.55,1.82-.55.05,0,.1,0,.14,0,.08,0,.16.03.23.04v-1.24Z"/>
      </g>
      <g>
        <path class="cls-2" d="m90.01,84.03c-.34-.85-.53-1.8-.58-2.79l-1.66.25c.08,1.22.34,2.38.79,3.43l1.45-.89Z"/>
        <path class="cls-2" d="m89.42,80.27c0-.05,0-.1,0-.16.06-.94.26-1.83.56-2.65l-1.55-.62c-.37.98-.61,2.04-.69,3.16,0,.08,0,.15,0,.23l1.68.04Z"/>
        <path class="cls-2" d="m92.07,74.29l-.93-1.4c-.88.75-1.64,1.71-2.22,2.84l1.39.97c.45-.95,1.06-1.77,1.76-2.4Z"/>
        <path class="cls-2" d="m90.45,84.96l-1.25,1.17c.24.39.51.76.81,1.1.33.38.7.7,1.09.99l.83-1.49c-.23-.19-.45-.39-.66-.63-.31-.35-.58-.74-.81-1.15Z"/>
        <path class="cls-2" d="m97.31,71.54l-.33,1.68c.71.28,1.38.72,1.95,1.36.06.07.12.15.18.22l.96-1.47c-.79-.85-1.73-1.46-2.75-1.8Z"/>
        <path class="cls-2" d="m95.93,71.25c-.08,0-.16-.02-.23-.02-1.21-.06-2.37.26-3.42.86l.63,1.57c.77-.48,1.62-.75,2.51-.75.07,0,.13,0,.2,0,.11,0,.21.04.32.05v-1.71Z"/>
      </g>
      <g>
        <path class="cls-2" d="m97.18,62.64c-.23-.59-.37-1.25-.4-1.94l-1.16.18c.05.84.24,1.65.55,2.38l1.01-.62Z"/>
        <path class="cls-2" d="m96.78,60.03s0-.07,0-.11c.04-.65.18-1.27.39-1.84l-1.08-.43c-.25.68-.42,1.42-.48,2.19,0,.05,0,.11,0,.16l1.16.03Z"/>
        <path class="cls-2" d="m98.61,55.88l-.64-.97c-.61.52-1.14,1.19-1.54,1.97l.96.67c.31-.66.74-1.23,1.22-1.67Z"/>
        <path class="cls-2" d="m97.49,63.29l-.87.81c.17.27.35.53.56.77.23.26.49.49.75.69l.58-1.03c-.16-.13-.32-.27-.46-.43-.21-.24-.4-.51-.56-.8Z"/>
        <path class="cls-2" d="m102.26,53.96l-.23,1.17c.5.19.96.5,1.35.95.04.05.08.1.12.15l.66-1.02c-.55-.59-1.2-1.01-1.91-1.25Z"/>
        <path class="cls-2" d="m101.29,53.76c-.05,0-.11-.01-.16-.02-.84-.04-1.65.18-2.37.6l.44,1.09c.54-.33,1.13-.52,1.74-.52.05,0,.09,0,.14,0,.08,0,.15.03.22.03v-1.19Z"/>
      </g>
      <path class="cls-2" d="m129.92,124.02c-5.99,0-9.02-1.06-9.68-3.32-.5-1.72.53-3.61,3.28-5.85-.64-.18-1.2-.39-1.65-.65-1.63-.93-1.8-2.22-1.75-2.91.14-2.1,2.26-5.29,17.49-11.42.63-.25,1.25-.5,1.87-.74-1.54-5.14-10.76-9.59-15.9-12.07-.85-.41-1.61-.78-2.24-1.1-.74-.38-1.04-1.29-.66-2.03.38-.74,1.29-1.04,2.03-.66.62.32,1.36.67,2.19,1.07,5.89,2.84,15.33,7.39,17.41,13.72,11.26-4.15,19.34-5.68,25.15-5.82,1.03-4.6.57-9.47-1.01-13.53-.3-.78.58-.48,1.36-.78.78-.3,1.15-1.09,1.46-.32,1.71,4.41,2.25,9.66,1.26,14.69,7.31.49,10.02,3.47,10.92,4.96,2.14,3.55.82,8.14-3.36,11.69-9.68,8.23-26.07,13.81-43.82,14.92-1.59.1-3.03.15-4.33.15Zm-6.78-4.16s.98,1.61,10.92.99c16.87-1.05,32.98-6.5,42.05-14.21,3-2.55,4.07-5.62,2.73-7.83-1.26-2.09-4.54-3.34-9.12-3.53-1.44,4.34-4.14,8.34-8.35,11.24-8.25,5.7-24.13,9.23-33.49,8.89-4.79,3.15-4.74,4.43-4.74,4.44h0Zm0-8.44c.14.12.62.45,1.97.7.58.11,1.23.18,1.95.23,1.07-.67,2.26-1.37,3.59-2.11,4.82-2.67,7.73-5.29,8.68-7.82-.2.08-.41.16-.61.24-13.93,5.61-15.43,8.28-15.58,8.75Zm19.55-10.28c-.26,3.87-3.34,7.51-9.38,11.07,8.49-.77,19.8-3.64,26.34-8.16,3.3-2.28,5.53-5.35,6.85-8.73-6.35.36-14.49,2.35-23.81,5.82Z"/>
      <path class="cls-2" d="m147.52,53.52s0,0,0,0c-.12-.16-.46-.55-.95-.88-.62-.42-1.53-.93-2.65-1.34-1.11-.41-2.43-.69-3.74-.75-1.33-.06-.35-.15-1.42-.2h0c-.13,0-.24.1-.25.23h0c-.04,1.04-.08,1.87-.1,2.48-.01.38-.03.85-.04,1.42h0c0,.14.1.26.24.26,1.05.03.14.1,1.6.13.7.03,1.41.11,2.08.27.67.16,1.34.41,1.83.77h.01s.05.02.08.04c.64.4.98,1.05,1.39,1.08l.3-.3s.38-.49.41-.51c.37-.3.41-.1.71-.35.08-.06.15-.12.22-.18.08-.06.16-.16.2-.24.09-.18,1.09-.76,1.17-.87.06-.1-1.09-1.06-1.09-1.06Zm-.59.72c-.05.15-.09.33-.23.48-.31.25-.91.7-1.45,1.11-.38-.04-1.61-1.3-3.55-1.54-.64-.08-1.9-.09-2.66-.12.01-.35.02-.71.04-1.09.01-.49.03-1.21.05-2.17.95.01,1.72-.1,4.6.83,1.07.35,2.06,1.03,2.67,1.4.19.12.48.51.67.7,0,0,0,.02-.01.02-.04.1-.08.23-.12.38Z"/>
      <path class="cls-2" d="m138.09,50.58c-.06-.05-.13-.1-.13-.1,0,0-.21-.02-.57-.02-.36,0-6.11-.07-6.69.03-.57.1-.57.21-1.19.49-.25.11-.52.29-.67.66-.03.06-.11,1.69.03,1.8.35.25.81.64,1.48.82.67.19,6.7.39,7.45.4h0c.1,0,.19-.08.19-.19,0-.05.46-.06.46-.11.01-1.38.08-2.94.08-3.56,0-.17-.34-.21-.46-.22Zm-.8,3.12c-2.77-.23-6.74.16-8-.56,0,0-.02-1.23,0-1.34.01-.14.28-.33.38-.38.54-.3.46-.31.98-.44.52-.13,5.31.04,5.64.02,0,0,1.25-.15,1.26-.15-.05.27-.12.72-.25,2.85Z"/>
      <path class="cls-2" d="m145.26,63.5s.07.02.09.04h0c.2.29.51.65.87,1.05.36.39.8.8,1.26,1.19.92.79,2.54,1.88,3.16,2.34,0,0-1.19,1.3-1.24,1.48-.03.1-.14.21-.24.23-.05.02-.08.02-.12.02h-.06s-.03,0-.03,0c-.08,0-.15,0-.24-.02-.35-.04-.95-1.22-1.33-1.36-.76-.27-1.15-.44-1.67-1.09-.53-.64-.82-1.38-.93-1.92-.06-.27-.08-.51-.09-.66,0-.15-.01-.24-.01-.24,0,0,.18.1.21.25.02.15.12.35.21.61.16.52.35,1.08.89,1.65.54.57.83.79,1.53.99.35.1.93,1.27,1.23,1.28.05,0,.1,0,.15,0,0-.06.12-.88.12-.97,0-.04,0-.08.02-.13-1.41-1.06-2.39-1.95-3.05-2.67-.65-.71-.97-1.25-1.17-1.6-.09.5,0,.57,0,.57,0,0-.15-.25-.14-.68,0-.06.5-.37.56-.37Z"/>
      <path class="cls-2" d="m171.28,74.34c-1.04-1.37-2.08-2.66-3.17-3.8-1.09-1.15-2.18-2.19-3.27-3.15-2.18-1.91-4.29-3.5-6.22-4.94-.96-.71-1.88-1.39-2.76-2.04-.43-.32-.86-.64-1.27-.95-.41-.3-.83-.65-1.15-1.02-.66-.75-1.13-1.58-1.51-2.36-.37-.77-.66-1.52-.91-2.22-.23-.24-.42-.2-.61-.21-.18,0-.33.03-.51.12-.18.08-.34.16-.51.25-.33.17-.64.36-.94.54-.59.37-1.13.73-1.62,1.08-.49.34-.95.65-1.31,1-.36.35-.65.71-.87,1.06-.44.71-.87,1.46-.91,2.01-.04.55.2.89.24,1.2l.04.17c.08.32.32.76.42.99,0,0,0,0,0,0,0,0,.01.02.02.03.01.03.03.07.04.08,0,0,0,0,0,0,.07.15.16.32.29.54.33.56.8,1.4,1.59,2.25.8.84,1.88,1.73,3.18,2.59,1.32.82,3.17,1.8,4.92,2.3.91.19,1.57.09,2.49.44.23.09.46.19.67.32.22.14.39.31.58.48.36.35,1.82,2.84,2.24,3.77.38.96,1.35,3.43,1.35,3.43l.24.49c.16.32.29.81.48,1.12.37.6.84,1.02,1.37,1.41.27.19.56.3.85.25.15-.02.29-.08.41-.15.11-.06.24-.19.37-.3.51-.46,1.01-.91,1.5-1.35,1.92-1.71,3.61-3.22,4.97-4.43-.26-.36-.5-.69-.72-.98Zm-1.2.54c-1.32,1.17-2.15,2.1-4.02,3.75-.47.41-1.37,1.11-1.57,1.14-.05,0-.24.04-.3.02-1.03-.51-2.82-4.93-3.15-5.79-.38-.87-1.77-3.35-2.01-3.74-.75-1.17-3.24-1.18-4.09-1.37,0,0-.73-.14-.73-.14-1.66-.51-2.74-1.16-3.99-1.97-1.23-.84-2.11-1.45-2.85-2.27-.74-.82-1.13-1.44-1.43-1.97-.15-.26-.36-.28-.42-.42-.03-.07-.09-.06-.15-.04-.16-.44-.56-1.53-.6-1.64-.05-.13.57-1.49,1.1-2.2.27-.35.6-.69.98-1.01.4-.3.95-.65,1.39-.96.44-.31,2.47-1.36,2.57-1.32.25.14.53,1.77,1.18,2.8.33.51.55,1.11,1,1.52.45.4,1.16,1.35,1.67,1.74,2.08,1.52,3.77,2.49,5.77,4.05,2,1.55,3.83,3.15,5.35,4.7,1.53,1.53,2.7,3.04,3.58,4.19.23.3.41.1.76.59.07.1.05.24-.04.32Z"/>
      <path class="cls-2" d="m104.2,60.5c.03-.46-.03-.91-.17-1.31-.28-1.68-1.39-2.96-2.83-3.02-1.75-.08-3.29,1.66-3.44,3.89-.15,2.23,1.14,4.1,2.89,4.18,1.2.05,2.29-.76,2.91-1.98.35-.47.59-1.08.63-1.75Zm-1.1-1.91c.41.46.62,1.15.57,1.88-.09,1.28-.97,2.29-1.93,2.25-.39-.02-.74-.2-1.03-.52-.41-.46-.62-1.15-.57-1.88.09-1.26.92-2.25,1.87-2.25.02,0,.04,0,.06,0,.39.02.74.2,1.03.52Zm-4.24,1.54c.11-1.59,1.21-2.84,2.46-2.78.27.01.51.09.74.2-1.24-.03-2.34,1.18-2.45,2.74-.06.87.2,1.69.71,2.26.23.25.5.43.79.55-.06,0-.12.02-.18.01-1.25-.06-2.18-1.39-2.07-2.99Z"/>
      <path class="cls-2" d="m82.36,109.41c-.11,0-.22-.02-.32-.07-.34-.15-3.34-1.53-4.24-2.27-.12-.1-.24-.19-.36-.28-.75-.58-1.78-1.38-1.62-2.89-.15-2.44-3.87-63.21-4.21-66.23-.25-2.21-.7-6.32,2.3-7.56,1.59-.66,20.52-7.62,36.22-11.02.98-.21,3.01-.34,4.26.23.73.33,1.43.59,2.1.85,2.19.82,4.25,1.6,4.56,4.24.05.42-.24.8-.65.86-.41.07-.81-.2-.89-.62-.1-.47-.29-.83-.54-.99-.14-.09-.3-.12-.48-.08-13.46,2.91-29.65,8.53-35.74,10.65-1.41.49-2.35.82-2.73.93-1.5.45-1.72,1.24-1.29,4.69,3.38,27.18,3.97,65.35,3.99,67.04.09.54.21.79.28.89.09.13.14.29.14.45v.41c0,.26-.14.51-.37.65-.13.08-.27.12-.42.12Zm29.4-89.57c-.32,0-.63.03-.87.08-15.6,3.38-34.27,10.17-35.85,10.83-1.59.66-2.22,3.65-1.87,6.74.34,3.1,4.06,63.79,4.22,66.38,0,.05,0,.1,0,.15-.08.61.21.91,1.01,1.53.13.1.27.21.4.31.36.3,1.4.85,2.4,1.34,0-.05-.02-.09-.02-.14,0-.03,0-.07,0-.11,0-.39.33-36.82-3.98-66.92-.4-2.8-.68-5.47,2.4-6.38.35-.1,1.32-.44,2.66-.91,6.57-2.28,22.53-7.78,35.91-10.74-.42-.19-3.14-1.23-3.92-1.58-.58-.27-1.84-.59-2.48-.59Z"/>
      <path class="cls-2" d="m113.02,97.59c-.11.04-.23.08-.34.13.11-.04.23-.08.34-.13Z"/>
      <path class="cls-2" d="m76.61,103.92s-.06.17-.16-1.51l-36.19-27.6,1.26,2.95,35.75,27.86c-.44-.43-.75-.93-.65-1.69Z"/>
      <g>
          <path class="cls-2" d="m84.12,108.3s.07-.02.1-.04c-.03.01-.07.03-.1.04Z"/>
          <path class="cls-2" d="m83.9,108.38s.05-.02.07-.03c-.02,0-.05.02-.07.03Z"/>
          <path class="cls-2" d="m84.36,108.21c.05-.02.11-.04.17-.06-.06.02-.12.04-.17.06Z"/>
          <path class="cls-2" d="m83.72,108.45s.05-.02.08-.03c-.03.01-.06.02-.08.03Z"/>
          <path class="cls-2" d="m85.03,107.96c.07-.03.14-.05.21-.08-.07.03-.14.05-.21.08Z"/>
          <path class="cls-2" d="m84.66,108.1c.07-.03.14-.05.22-.08-.08.03-.15.06-.22.08Z"/>
          <path class="cls-2" d="m82.89,108.61s.03,0,.04.01c-.01,0-.03,0-.04-.01Z"/>
          <path class="cls-2" d="m83.27,108.61s-.05,0-.07.01c.02,0,.05,0,.07-.01Z"/>
          <path class="cls-2" d="m83.61,108.49s.02,0,.02,0c0,0-.02,0-.02,0Z"/>
          <path class="cls-2" d="m82.59,108.45s.06.04.08.06c-.03-.02-.06-.04-.08-.06Z"/>
          <path class="cls-2" d="m82.36,108.63v-.41s.03.03.05.04c-.12-.16-.23-.37-.31-.65-.09.24-.15.51-.21.79.29.14.48.22.48.22Z"/>
      </g>
      <g>
        <path class="cls-2" d="m86.19,107.53s.03-.01.04-.02c-.01,0-.03.01-.04.02Z"/>
        <path class="cls-2" d="m85.3,107.86h0c.07-.03.14-.05.22-.08-.07.03-.15.06-.22.08Z"/>
      </g>
      <path class="cls-2" d="m98.79,80.55c.07-1.02-.23-1.99-.83-2.65-.25-.28-.54-.48-.85-.62-.47-.47-1.05-.75-1.68-.77-1.66-.09-3.1,1.53-3.24,3.58-.1,1.44.48,2.75,1.47,3.42-.21.78-.42,1.56-.52,1.96-.19.73-.12,1.25.19,1.49.12.09.26.14.42.14.21,0,.47-.08.75-.24.67-.38,1.58-1.81,2.29-3.26,1.07-.41,1.9-1.6,1.99-3.04Zm-5.92-.42c.11-1.64,1.2-2.94,2.44-2.94.03,0,.05,0,.08,0,.04,0,.09.01.13.02-1.12.37-2.01,1.59-2.11,3.08-.05.79.13,1.53.49,2.14l-.09.33c-.65-.57-1.02-1.57-.94-2.64Zm1.33,6.18c-.33.18-.47.17-.5.15-.05-.04-.12-.3.03-.85.25-.96,1-3.61,1-3.61l-.06-.12c-.23-.44-.34-.97-.3-1.52.09-1.28.92-2.32,1.9-2.32h0c.31.01.59.14.85.39l.23.22c.06.46.1,1.28-.17,2.28-.46,1.72-2.15,4.9-2.99,5.38Zm3.05-3.72c.24-.56.43-1.08.54-1.5.19-.7.24-1.31.24-1.8.12.37.18.78.15,1.21-.06.86-.42,1.61-.93,2.09Z"/>
      <path class="cls-2" d="m105.86,82.73c-1.17-.73-1.86-2.35-1.64-4.19.29-2.45,2.1-4.37,4.02-4.28l.93.22s.91.49,2.25,1.22l-.35-.71c-.78-1.58-2.12-2.52-3.67-2.59-2.69-.13-5.22,2.51-5.61,5.87-.22,1.88.26,3.66,1.31,4.89.78.92,1.83,1.45,2.97,1.5.06,0,.12,0,.18,0,.73,0,1.46-.2,2.16-.59l.45-.25c-1.11-.38-2.14-.75-2.99-1.09Zm.26.79c-.83-.04-1.57-.42-2.15-1.1-.84-.99-1.23-2.46-1.05-4.03.31-2.72,2.23-4.87,4.3-4.87.04,0,.09,0,.13,0,.29.01.58.07.85.17-2.19-.04-4.22,2.07-4.54,4.78-.24,2.01.51,3.86,1.9,4.73l.09.04c.21.09.44.18.68.27-.07,0-.14,0-.21,0Z"/>
      <path class="cls-2" d="m123.39,81.8c-.22-.26-.48-.47-.77-.61-.04-.04-.08-.07-.14-.1-1.05-.49-12.98-6.93-13.1-7-.04-.02-.07-.03-.11-.04l-.93-.22s-.05-.01-.08-.01c-2.14-.09-4.17,2-4.49,4.68-.24,1.96.49,3.78,1.85,4.62.02.01.04.03.07.03,3.18,1.3,8.67,2.89,12.3,3.94.86.25,1.62.47,2.2.64.23.09.48.16.73.17.03,0,.07,0,.1,0,1.5,0,2.87-1.47,3.1-3.33.13-1.07-.14-2.08-.73-2.78Zm-17.19.31c-1.04-.67-1.72-1.91-1.53-3.51.26-2.2,1.85-3.93,3.52-3.88l.83.19c1,.33,5.72,2.55,11.5,5.86.1.06.37.24.46.29-1.51.46-2.28,1.76-2.46,3.21-.09.77.03,1.5.32,2.12-.19-.06-.38-.11-.59-.17-3.6-1.04-8.53-2.32-12.05-4.12Zm17.28,2.39c-.19,1.58-1.31,2.83-2.53,2.76-.47-.02-.89-.24-1.22-.62-.48-.56-.69-1.4-.58-2.29.19-1.55,1.28-2.77,2.45-2.77.03,0,.05,0,.08,0,.47.02.89.24,1.22.62.48.56.69,1.4.58,2.29Z"/>
      <path class="cls-2" d="m72.32,92.5c-.15,0-.49-.4-.63-.5l-6.36-4.3c-.34-.24-.42-.71-.18-1.05.24-.34.71-.42,1.05-.18l6.55,4.65c.34.24.42.71.18,1.05-.15.21-.38.32-.62.32Z"/>
      <path class="cls-2" d="m71.89,87.88c-.15,0-.3-.04-.44-.14l-6.36-4.3c-.34-.24-.42-.71-.18-1.05.24-.34.71-.42,1.05-.18l6.55,4.65c.34.24.42.71.18,1.05-.15.21-.57-.04-.81-.04Z"/>
      <path class="cls-2" d="m71.64,83.62c-.15,0-.3-.05-.44-.14l-6.36-4.3c-.34-.24-.42-.71-.18-1.05.24-.34.71-.42,1.05-.18l6.55,4.65c.34.24.42.71.18,1.05-.15.21-.57-.04-.81-.04Z"/>
      <path class="cls-2" d="m71.4,79.36c-.15,0-.3-.05-.44-.14l-6.36-4.3c-.34-.24-.42-.71-.18-1.05.24-.34.71-.42,1.05-.18l6.55,4.65c.34.24.42.71.18,1.05-.15.21-.57-.04-.81-.04Z"/>
      <path class="cls-2" d="m71.25,75.22c-.15,0-.3-.05-.44-.14l-6.46-4.42c-.34-.24-.42-.71-.18-1.05.24-.34.71-.42,1.05-.18l6.55,4.65c.34.24.32.48.08.82-.15.21-.38.32-.62.32Z"/>
      <path class="cls-2" d="m71,70.96c-.15,0-.3-.05-.44-.14l-6.46-4.42c-.34-.24-.42-.71-.18-1.05.24-.34.71-.42,1.05-.18l6.55,4.65c.34.24.32.48.08.82-.15.21-.38.32-.62.32Z"/>
      <path class="cls-2" d="m62.87,85.66c-.15,0-.3-.04-.44-.14l-6.46-4.42c-.34-.24-.42-.71-.18-1.05.24-.34.71-.42,1.05-.18l6.55,4.65c.34.24.32.48.08.82-.15.21-.38.32-.62.32Z"/>
      <path class="cls-2" d="m62.63,81.4c-.15,0-.3-.05-.44-.14l-6.46-4.42c-.34-.24-.42-.71-.18-1.05.24-.34.71-.42,1.05-.18l6.55,4.65c.34.24.32.48.08.82-.15.21-.38.32-.62.32Z"/>
      <path class="cls-2" d="m62.38,77.14c-.15,0-.3-.05-.44-.14l-6.46-4.42c-.34-.24-.42-.71-.18-1.05.24-.34.71-.42,1.05-.18l6.55,4.65c.34.24.32.48.08.82-.15.21-.38.32-.62.32Z"/>
      <path class="cls-2" d="m62.14,72.87c-.15,0-.3-.05-.44-.14l-6.46-4.42c-.34-.24-.42-.71-.18-1.05.24-.34.71-.42,1.05-.18l6.55,4.65c.34.24.32.48.08.82-.15.21-.38.32-.62.32Z"/>
      <path class="cls-2" d="m61.89,68.61c-.15,0-.3-.05-.44-.14l-6.46-4.42c-.34-.24-.42-.71-.18-1.05.24-.34.71-.42,1.05-.18l6.55,4.65c.34.24.32.48.08.82-.15.21-.38.32-.62.32Z"/>
      <path class="cls-2" d="m61.65,64.35c-.15,0-.3-.05-.44-.14l-6.46-4.42c-.34-.24-.42-.71-.18-1.05.24-.34.71-.42,1.05-.18l6.55,4.65c.34.24.32.48.08.82-.15.21-.38.32-.62.32Z"/>
      <path class="cls-2" d="m70.92,66.7c-.15,0-.3-.05-.44-.14l-6.46-4.42c-.34-.24-.42-.71-.18-1.05.24-.34.71-.42,1.05-.18l6.55,4.65c.34.24.32.48.08.82-.15.21-.38.32-.62.32Z"/>
      <path class="cls-2" d="m61.57,60.09c-.15,0-.3-.05-.44-.14l-6.46-4.42c-.34-.24-.42-.71-.18-1.05.24-.34.71-.42,1.05-.18l6.55,4.65c.34.24.32.48.08.82-.15.21-.38.32-.62.32Z"/>
      <path class="cls-2" d="m112.97,31.03c-.05-.43-.43-.77-.73-.97-.25-.17-.6-.33-.94-.41l-.41,1.07c.08-.02.17-.05.25-.07,0,0-.23.07-.22.07.24,0,1.04-.1,1.18.38,1.31,10.41,2.15,32.16,2.09,45.97.37.2.64.56,1.02.76.09-13.82-.9-36.22-2.23-46.81Z"/>
      <path class="cls-2" d="m92.72,90.85c.24,0,.48.08.69.24,4.95,3.81,12.66,14.22,10.62,19.04-.5,1.18-1.71,2.45-4.63,2.45h-.01c-.54,0-1.14-.04-1.8-.14-1.49-.22-3.29-.99-5.16-1.65-.59-.21-.73-.51-.53-1.1.16-.47-1.03-1.66-.57-1.66.12,0,1.89.93,2.01.97,1.73.61,3.22,1,4.57,1.2.49.07,1.01.12,1.52.12,1.13,0,2.17-.25,2.52-1.08,1.32-3.12-4.78-12.41-9.91-16.36-.5-.38-.59-1.09-.21-1.59.22-.29.56-.44.9-.44m0-.94h0c-.65,0-1.25.29-1.64.81-.7.91-.53,2.21.38,2.9,5.1,3.92,10.67,12.76,9.62,15.25-.13.31-.75.5-1.65.5-.41,0-.88-.04-1.38-.11-1.28-.19-2.72-.56-4.39-1.15-.22-.08-.45-.12-.69-.12-.88,0-1.6-.64-1.9.19l1.04,3.49c1.93.68,3.79,1.47,5.33,1.69.69.1,1.34.15,1.94.15,3.5,0,4.93-1.65,5.51-3.03,2.29-5.41-5.88-16.27-10.91-20.15-.36-.28-.8-.43-1.26-.43h0Z"/>
      <path class="cls-2" d="m36.04,102.21c-6.03,0-10.98-1.46-14.97-4.39-7.49-5.5-11.29-16.16-11.29-31.69h.94c0,15.22,3.67,25.63,10.91,30.94,7.13,5.23,17.55,5.58,31.89,1.08,4.37-1.37,9.09-1.5,14.38-.38l-1.64-1.67c-4.74-.76-9.04-.51-13.14.78-13.9,4.37-23.94,4.08-30.7-.89-6.88-5.04-10.36-15.09-10.36-29.87h.94c0,14.46,3.36,24.25,9.98,29.11,6.51,4.77,16.27,5.02,29.87.75,4.28-1.35,8.77-1.6,13.72-.78l.15.03,4.16,4.23-1.62-.41c-5.76-1.46-10.82-1.46-15.45,0-6.73,2.11-12.62,3.17-17.75,3.17Z"/>
      <path class="cls-2" d="m43.12,77.11l-2.87-2.3s-.2-5.02-.49-10.55c-.83-1.14-1.74-1.78-2.63-1.78-.95,0-4.99.71-6.02,1.65-1.64,1.23-2.21,5.78-1.27,10.94,1.07,5.82,3.67,10.22,5.81,9.83.42.24,4.7-1.39,5.06-1.57,1.72-.85,2.56-2.41,2.4-6.21Zm-6.13.41l-1.1.22c-.27-.08-1.09-1.24-1.48-3.61-.4-2.41.02-3.85.22-4l.98-.35c.45,1.08.84,2.38,1.09,3.81.25,1.42.34,2.77.29,3.93Zm-1.58,3.81c-1.42.27-3.16-2.76-3.87-6.77-.71-4.01-.13-7.48,1.29-7.75.71-.13,1.5.55,2.2,1.77l-.72.26c-1.39.35-1.61,3-1.2,5.49.28,1.69.94,3.74,1.98,4.45.29.2.56.26.77.26.09,0,.16,0,.23-.02l.76-.15c-.24,1.39-.73,2.32-1.44,2.45Zm4.12-5.54l2.34,2.42s-.23,2.5-2.5,3.36c-.72.27-2.19-.23-2.19-.23,0,0,.55-1.17.7-2.26s.08-2.81-.23-5-1.01-3.98-1.64-5.54-2.19-2.81-2.81-2.65c-.62.16-1.87-.16-2.42,2.34s-.08,7.88-.08,7.88l-.39-1.8c-.33-1.53-.33-4.35-.17-6.12.03-.31.06-.59.09-.82.23-1.56,1.25-2.81,1.95-3.12s4.29-1.17,4.92-1.17,1.64,1.09,1.64,1.09l.78,11.63Z"/>
      <path class="cls-2" d="m116.4,30.11c-.07-.47-.51-.92-.91-1.18-.27-.18-.68-.38-1.06-.29-11,2.71-23.85,7.29-29.11,9.34-1.89.73-2.35,3.16-2.37,3.77-.03.76.24,3.59.64,7.86,1.1,11.83,3.15,33.84,2.75,50.46-.01.52.39.99.76,1.25.29.21.6.32.87.32.11,0,.22-.02.32-.06l7.64-2.88c.4-.15.82-.31,1.26-.47-.21-.28-.43-.55-.65-.82-.37.14-.73.27-1.07.4l-7.53,2.68c-.16-.04-.44-.29-.48-.42.4-16.68-1.65-38.73-2.76-50.57-.38-4.08-.66-7.03-.63-7.72.02-.55.46-2.29,1.65-2.76,5.23-2.03,17.98-6.58,28.91-9.28.19.06.58.38.63.52,1.64,10.96,2.74,34.55,2.69,49.09.39.21.77.41,1.13.6.08-14.55-1.04-38.72-2.7-49.86Z"/>
      <path class="cls-2" d="m94.64,95.26c-.24-.25-.49-.5-.73-.74-.83.29-1.61.56-2.26.81l-3.47,1.3c-.76.31-.67-1.33-.66-1.63l-.81,1.22c.25.62.3,1.1.62,1.32.16.11.31.15.44.15.1,0,.46-.06.52-.08l3.74-1.4c.79-.3,1.68-.62,2.62-.95Z"/>
      <g>
        <path class="cls-2" d="m105.19,101.38c-.26-.48-.53-.97-.84-1.47-.88.33-1.76.65-2.63.97.29.49.56.98.82,1.47.91-.34,1.79-.66,2.65-.98Z"/>
        <path class="cls-2" d="m121.09,24.34c-.18-.9-.62-1.62-1.24-2.02-.51-.33-1.09-.44-1.7-.31-13.55,2.93-29.23,8.37-35.93,10.7-1.34.47-2.32.8-2.66.91-3.12.93-2.87,3.61-2.43,6.43,4.36,28.22,3.98,66.53,3.98,66.92v.11c.18,1.13.56,1.85,1.18,2.19.19.1.45.2.78.2.24,0,.51-.05.81-.18.26-.11,3.95-1.48,8.67-3.23l1.27-.55s.07.03.1.04c1.89-.7,3.89-1.44,5.88-2.18.21-.08.41-.15.62-.23-.26-.48-.53-.97-.84-1.47-.12.04-.24.09-.36.13-9.72,3.6-15.7,5.81-16.01,5.94-.07.03-.12.04-.13.05-.04-.04-.2-.24-.31-.92-.03-1.74-.62-39.88-3.99-67.04-.45-3.63-.16-4.21,1.26-4.63.38-.11,1.32-.44,2.73-.93,6.09-2.11,22.28-7.73,35.73-10.64.17-.04.31-.01.44.07.24.16.43.5.52.96,2.36,11.55,3.85,40.9,3.6,57.79.35.55.51,1.27.42,2.04-.07.55-.25,1.05-.51,1.48-.09,2.63-.06,4.22-.27,5.76-.1.73-.58,1.49-1.55,1.91l-.18.08c-.41.18-7.15,2.68-14.48,5.39.29.49.56.98.82,1.47,8.36-3.1,13.9-5.15,14.33-5.34l.18-.08c1-.43,2.13-1.48,2.36-3.18,1.49-11.03-.11-53.11-3.09-67.66Z"/>
      </g>
      <g>
        <path class="cls-2" d="m118.51,84.27c-.09.77.03,1.5.32,2.12-.19-.06-.38-.11-.59-.17-.13-.04-.26-.08-.39-.11-.04.97-.09,1.85-.15,2.59-.03.24-.47.96-.63,1.07-1.58.6-4.96,1.96-8.78,3.34-1.55.56-3.16,1.15-4.75,1.73.22.28.44.55.65.83,1.53-.56,3.08-1.12,4.56-1.66,3.83-1.39,7.13-2.59,8.72-3.19.61-.23,1.31-1.47,1.36-2.04.13-1.56.21-3.68.25-6.19-.29.49-.49,1.05-.57,1.67Z"/>
        <path class="cls-2" d="m98.77,96.6c.22.27.43.55.64.83.82-.3,1.69-.62,2.57-.94-.22-.28-.43-.55-.66-.83-.88.32-1.73.64-2.55.94Z"/>
      </g>
      <g>
        <path class="cls-2" d="m99.49,93.58c-.23-.24-.46-.48-.7-.71-.86.29-1.7.57-2.52.84.23.24.46.49.68.74.82-.28,1.68-.58,2.53-.87Z"/>
        <path class="cls-2" d="m114.03,85.11c-.03.51-.03.82-.06,1.26-.03.23-.13,1.07-.56,1.29-1.98.94-4.12,1.54-7.91,2.92-1.34.49-2.82,1-4.33,1.51.21.22.43.47.64.7,1.04-.36,2.08-.73,3.09-1.09,3.81-1.38,9.05-3.38,9.05-3.38.61-.23.95-1.28.99-1.84.03-.37.06-.77.08-1.19-.37-.11-.6-.06-.98-.17Z"/>
      </g>
      <g>
        <path class="cls-2" d="m97.9,110.19c.79.11,1.68.18,2.43.05-2.9-.71-6.03-2.01-9.33-3.53l2.82-1.21c2.99,1.32,5.79,2.36,8.28,2.81,0-.3-.02-.62-.07-.97-2.05-.4-4.49-1.23-7.83-2.7l-.37-.17-.38.16-2.82,1.21-1.93.83,1.91.88c1.56.72,3.16,1.42,4.75,2.05.9.25,1.76.45,2.54.57Z"/>
        <path class="cls-2" d="m98.75,88.58c-.37-.28-.8-.43-1.26-.43-.65,0-1.25.3-1.64.81-.34.44-.48.98-.41,1.53.07.55.35,1.04.79,1.37,5.1,3.92,10.67,12.76,9.62,15.25-.13.3-.7.48-1.54.5.03.32.04.63.02.94,1.07-.02,2.04-.27,2.38-1.07,1.32-3.12-4.78-12.41-9.91-16.36-.5-.38-.59-1.09-.21-1.59.22-.29.56-.44.9-.44.24,0,.48.08.69.24,4.95,3.81,12.66,14.22,10.62,19.04-.5,1.18-1.71,2.45-4.63,2.45h-.02c-.15,0-.34-.03-.49-.04-.21.31-.49.61-.86.87.46.05.93.11,1.35.11,3.5,0,4.93-1.65,5.51-3.03,2.29-5.42-5.88-16.28-10.91-20.15Z"/>
      </g>
      <path class="cls-2" d="m92.47,110.31c-.51-2.14-1.21-3.54-2.05-4.36-1.64.61-3.06,1.13-4.19,1.55.21-.08.43-.16.66-.24.16,1.74.36,3.98.43,5.31.06,1.22-.22,1.78-.67,1.96,0-.16,0-.32,0-.49-.08-1.53-.33-4.25-.52-6.26l-.02-.22s.05-.02.08-.03c-.03.01-.06.02-.08.03l-.08-.86-1.02.38c-1.65.61-1.75.66-1.8.68-.07.03-.12.04-.12.05,0,0-.02-.02-.04-.05l-1.49-2.16-.02,1.73c-1.1-.53-2.32-1.17-2.72-1.5-.13-.11-.26-.21-.4-.31-.6-.46-.96-.77-1-1.21l-.06-.6-5.23-2.56,2.19,3.34c.62.95,6.06,9.32,7.08,10.47.01.02.86.96,1.92,1.54,1.06,2,2.46,3.26,3.69,3.09.36.16,4.02-1.62,4.33-1.74,1.92-.72,2.03-3.76,1.13-7.53Zm-14.2-2.84c1.21.76,3.46,1.79,3.75,1.92l1.17.07c.23-.02.46-.07.7-.18.06-.03.3-.12.7-.27.15,1.65.34,3.83.41,5.1.05.94-.15,1.15-.14,1.15-.27.1-1.39-.52-2.2-1.42-.51-.57-2.55-3.61-4.38-6.38Zm11.65-.53s1.14,1.82,1.77,4.11.62,3.49.42,4.22-.52,1.46-.99,1.61-3.54,1.41-3.85,1.56-1.3-.26-1.46-.47-.83-1.14-.83-1.14c0,0,2.5-.62,3.17-1.56.68-.94.42-2.86.42-2.86l-.42-4.63,1.77-.83Z"/>
      <path class="cls-2" d="m122.98,98.89c-.5-2.07-1.16-3.45-1.97-4.28-.64.25-2.22.84-4.38,1.64l-.08-.86-8.19,3.04.59.88c2.41,3.59,2.83,4.07,2.97,4.22.01.02.86.96,1.92,1.54,1.06,2,2.46,3.26,3.69,3.09.36.16,4.02-1.62,4.33-1.74,1.92-.72,2.03-3.76,1.13-7.53Zm-12.06.37l4.18-1.55c.15,1.61.33,3.73.4,4.99.05.94-.15,1.15-.14,1.15-.28.1-1.39-.52-2.2-1.42-.16-.18-.67-.84-2.24-3.17Zm6.25,3.84c0-.16,0-.32,0-.49-.08-1.6-.35-4.53-.51-6.13l-.02-.22c.27-.1.54-.2.79-.29.16,1.72.35,3.89.42,5.19.06,1.22-.22,1.78-.67,1.96Zm3.41-7.62s1.51,2.91,1.72,5.2.1,3.43-.05,3.85-1.2,1.09-1.2,1.09c0,0-2.5,1.04-3.07,1.25-.57.21-1.04.31-1.51.05-.47-.26-1.56-1.82-1.56-1.82,0,0,1.35.05,2.45-.42s1.2-1.14,1.46-1.98l.26-.83-.57-5.41,2.08-.99Z"/>
    </g>
  </g>
</svg>