<?xml version="1.0" encoding="UTF-8"?>
<svg id="Layer_2" data-name="Layer 2" xmlns="http://www.w3.org/2000/svg" xmlns:xlink="http://www.w3.org/1999/xlink" viewBox="0 0 3543.31 2970.36">
  <defs>
    <style>
      .cls-1 {
        fill: #e6e6e6;
      }

      .cls-1, .cls-2, .cls-3, .cls-4, .cls-5 {
        stroke-width: 0px;
      }

      .cls-2, .cls-4 {
        fill-rule: evenodd;
      }

      .cls-3 {
        fill: none;
      }

      .cls-4 {
        fill: #fff;
      }

      .cls-6 {
        clip-path: url(#clippath);
      }

      .cls-7 {
        fill: #d3c4a6;
        stroke: #1d1d1b;
        stroke-miterlimit: 10;
        stroke-width: .96px;
      }

      .cls-5 {
        fill: #1d1d1b;
      }
    </style>
    <clipPath id="clippath">
      <circle class="cls-3" cx="1675.68" cy="1460.71" r="1364.14"/>
    </clipPath>
  </defs>
  <g id="menImage">
    <circle class="cls-7" cx="1699.26" cy="1485.18" r="1484.7"/>
    <circle class="cls-1" cx="1675.68" cy="1460.71" r="1364.14"/>
    <g class="cls-6">
      <g>
        <path class="cls-4" d="m1363.93,1483.54c18.29,36.57,159.02,139.36,184.65,141.68,25.63,2.32,23.35-45.68,57.64-77.68,34.29-32,105.14-70.86,150.86-43.43,45.71,27.43,176,114.29,173.72,100.57-2.29-13.71,8.92-32.15,33.03-14.93,24.11,17.22,42.4,24.07,42.4,69.79s16,198.86,41.14,292.57c25.14,93.72,9.14,123.43-25.14,180.57-34.29,57.14-100.57,59.43-125.72,54.86-25.14-4.57-146.29-116.57-157.72-189.72-11.43-73.14,13.71-198.86,11.43-228.57s-96-27.43-109.72-4.57c-13.71,22.86,22.86,32,0,50.29-22.86,18.29-11.43,29.71-6.86,48,4.57,18.29-5.39,42.12-20.57-9.14-15.18-51.26-20.57-73.14-32-93.72-11.43-20.57-36.57-98.29-36.57-98.29l18.29,118.86-27.18,62.54-169.39-192.83,112,219.43,61.72,59.43-22.86,390.86-224-742.87,57.14,29.71,13.71-123.43Z"/>
        <path class="cls-4" d="m1581.07,1332.68c94.96,29.99,157.72,18.29,180.57,2.29s96-48,114.29-89.14c18.29-41.14,18.29-114.29,27.43-73.14,9.14,41.14,27.43,116.57-4.57,169.14-32,52.57-92.41,104.33-92.41,104.33l126.7,110.53s-123.43-22.86-146.29-61.72c-22.86-38.86-25.14-50.29-48-45.71-22.86,4.57-54.86,6.86-84.57-11.43-29.71-18.29-22.86-16-43.43-9.14-20.57,6.86-66.53-37.9-66.53-37.9l126.3,24.22s4.23-18.32-34.63-25.18c-38.86-6.86-118.86-29.71-134.86-59.43-16-29.71-16-89.14-16-89.14,0,0,9.14,64,96,91.43Z"/>
        <path class="cls-4" d="m1526.21,1186.39c48.2-4.55,91.4,18.48,139.43,13.71,45.69-4.53,91.57-22.74,134.46-33.99-6.54,90.22-150.14,159.52-221.95,96.39-21.75-19.12-25.4-57.24-51.94-76.11Z"/>
        <path class="cls-4" d="m1450.79,468.67c-16.99,10.72-37.61,21.44-51.36,38.23-14.28,17.44-17.69,37.31-26.41,57.25-15.91,36.39-54.6,57.14-66.51,95.18-3.7,11.82-3.4,30.76,1.42,42.48,6.57,15.98,7.96,8.52,20.57,18.29,16.3,12.64,20.33,33.29,13.81,54-4.16,13.21-13.12,26.67-14.75,40.86-1.49,12.95-18.35,46.94-20.77,60.57,42.21,15.67,118.76-54.5,162.29-57.14,34.96-2.12,73.11,12.22,107.43,9.21,23.11-2.03,37.17-2.43,48.28,19.36,24.49,48.04-36.93,72.42-82.57,90.29-51.3,20.09-84.17,2.17-134.86,16-80.71,22.01-82.54,173.27,8.8,196.87,1.35,27.68,5.35,71.39,18.93,95.99,5.6,10.15,33.27,44.99,46.9,43.1,17.9-2.48,20.6-41.1,24.17-55.09,13.56-53.23,44.93-93.36,78.77-135.63,17.33-21.64,13.65-3.31,32.72-24.11,14.47,45.27,97.45,38.42,112-6.86,5.36,18.03,18.29-14.09,36.57-11.43,58.86,8.57,95.63,51.08,121.14,38.86,76.53-36.66,32.9-182.82,29.71-189.96-15.09-33.79-197.89,30.69-205.78-4.78-9.78-43.97-23.72-95.51,22.98-126.33,33.35-22.02,156.98,6.6,189.66-15.18,10.61-7.08-19.15-26.61-22.86-40.9-6.91-26.6-88.96-19.14-109.81-21.09-28.36-2.65-58.18-6.74-84.08-18.17-10.77-55.17,108.27-34.91,132.53-36.11,16.97-.84,14.38,5.07,27.21-10.42,27.54-33.24,19.97-116.06,13.23-155.25-16.23-94.39-179.84-74.19-245.77-56.75-50.33,13.31-91.81,43.87-140.26,59.57-10.72,3.47-35.38,13.22-43.34-10.94Z"/>
        <path class="cls-2" d="m1780.17,1081.83c-5.38.18-12.91,3.18-11.44,12.98,2.63,7.35,15.71-1.87,18.3,6.06-9.26,8.88-22.29,12.89-34.31,18.17-36.39,15.98-79.48,27.93-126.56,30.28-63.29,3.16-107.53-9.67-162.02-10.38,3.17-6.08,7.36-8.88,12.96-14.71,2.97-3.09,13.87-9.54,12.96-14.71-1.55-8.85-11.2-1.96-13.72,0-4.75,3.7-8.39,7.91-10.67,12.98-2.65,5.88-1.27,18.01-10.67,16.44.32-9.73,8.34-10.73,9.91-19.03-7.79-9.61-15.17-.14-18.3,6.06-3.98,7.89-5.36,20.31-5.34,30.28.08,34.91,10.3,66.66,15.25,94.29,2.63-7.39-.98-16.49-1.52-25.09-1.51-23.84-1.46-51.29-1.52-76.99,5,4.9,13.43,5.89,19.09,10.03.49.41.98.81,1.49,1.21,5.15,4.09,14.85,9.25,16.01,10.38,36.38,35.43,67.33,81.54,128.48,86.51,18.02,1.46,38.96-.14,52.61-4.33,2.75-.84,19.57-8.44,33.49-16.14,46.05-22.3,81.68-63.33,102.98-116.22,2.61,5.84,7.18,13.41,8.39,21.63.51,3.48-2.55,8.83,1.52,10.38,16.21-30.19-19.68-70.68-37.36-70.07Zm-196.7,114.19c-27.87-11.04-28.74-5.93-55.64-16.15-1.28-.49-12.89-18.19-19.94-26.73,31.55,5.92,41.38,10,76.35,11.74,67.69,3.38,137.57-15.6,183.09-36.43l-7.73,29.51c-32.12,18.91-158.67,45.93-176.11,38.06Zm160.99-3.58l-16,14.86s-26.29,14.86-38.86,22.86c-12.57,8-33.14,10.29-65.14,9.14s-75.43-26.29-75.43-26.29c96,19.43,195.43-20.57,195.43-20.57Z"/>
        <g>
          <path class="cls-2" d="m1827.84,522.32c-47.06-22.36-85.14,15.33-119.38,27.68,18.34-18.84,45.3-46.59,82.18-47.58,14.5-.39,37.6,3.68,37.2,19.9Z"/>
          <path class="cls-2" d="m1583.02,574.22c-1.04,7.76-12.91,9.89-21.63,12.98-15.87,5.62-37.67,8.25-56.23,8.65,21.13-6.3,46.97-20.78,70.07-25.95,1.27-.28,7.11.51,7.79,4.33Z"/>
          <path class="cls-2" d="m1322.62,625.26c-3.16-3.05,2.1-6.72,4.33-10.38,5.04-8.31,9.79-16.71,18.17-23.36,3.11-2.47,18.64-13.09,19.9-4.33.59,4.14-17.48,12.84-19.9,14.71-11.13,8.61-15.77,14.46-22.49,23.36Z"/>
          <path class="cls-2" d="m1670.39,587.2c-31.37,14.48-70.84,20.86-117.65,19.9,35.75-9.23,80.14-9.83,112.46-22.49,2.63-.04,3.36,1.83,5.19,2.6Z"/>
          <path class="cls-2" d="m1455.85,618.34c-21.1.75-41.08-5.14-62.29-4.33-40.8,1.57-68.93,20.59-84.78,47.58,8.13-39.93,53.05-58.08,105.54-54.5,14.76,1.01,33.25,2.68,41.52,11.25Z"/>
          <path class="cls-2" d="m1892.72,697.07c-7.88,6.18-16.24-1.84-20.76-6.06-9.51-8.89-19.3-22.49-28.55-30.28-27.48,12.89-68.86,26.19-106.41,17.3-3.46-.82-6.97-4.07-10.38-4.33-2.99-.23-6.44,2.44-10.38,2.6-2.31.09-4.1-2.42-6.06-2.6-2.79-.24-9.1.74-9.52.87-10.11,2.93-12.72,15.67-19.9,20.76-4.8-1.87,1.48-10.62.87-16.44-5.94-12.46,3.58-29.89,8.65-39.79-1.48-1.98-4.87-2.05-7.79-2.6,2.2,11.61-7.02,18.8-10.38,27.68-1.24-6.82-1.71-24.63,6.06-29.41,39.78,2.09,91.95,9.43,129.76,0,7.65-1.91,19.98-9.37,27.68-6.06,2.5,1.08,12.05,14.44,14.71,17.3,11.26,12.11,19.23,21.27,29.41,32.87,4.61,5.26,12.27,9.33,12.98,18.17Z"/>
          <path class="cls-2" d="m1530.25,679.76c-5.98-5.88-17.98-20.64-19.9-36.33,8.07.92,12.68,9.76,20.76,17.3,6.84,6.38,23.91,14.38,16.44,24.22-5.78,2.53-11.49-.73-14.71-3.46.24,2.41-.15,8.94-3.46,10.38-3.34-.12-7.6.68-8.65-1.73-30.63,15.99-82.71,15.77-129.76,12.98-12.5-.74-27.79-6.7-32.87-6.06-5.21.66-15.02,11.76-19.9,15.57-7.27,5.69-15.13,9.36-21.63,13.84-6.46,4.46-11.35,12.64-19.9,16.44,8.71-30.51,26.7-59.23,51.91-76.13,2.72.45,4.83,1.52,6.92,2.6,34.27-5.53,78.73-.86,109.87-9.52,2.84-.62,2.91-4.01,6.06-4.33,8.28,4.01,12.29-3.91,19.03-3.46,4.7.31,13.86,8.68,19.9,12.98,8.14,5.79,13.76,11.76,19.9,14.71Z"/>
          <path class="cls-2" d="m1736.14,732.54c-.16-.74.34-.82.87-.87,38.38,4.58,72.13,13.8,106.41,22.49-6.55,8.35-19.42,5.57-28.55,4.33-28.56-3.88-57.52-15.52-78.72-25.95Z"/>
          <path class="cls-2" d="m1715.37,734.27c6.53,13.95-8.76,22.11-19.9,26.82,3.62-13.39,5.32-24.38,19.9-26.82Z"/>
          <path class="cls-2" d="m1596.86,896.04c1.11-17.54-3.29-34.47-5.19-54.5-1.4-14.73-.63-28.61-5.19-38.93-6.36-14.38-23.32-19.38-25.95-34.6.84-.02.67-1.06.87-1.73.7-.16.86-.87,1.73-.87,11.68,9.94,25.77,14.18,33.74,27.68,15.8,26.78.04,70.26,0,102.95Z"/>
          <path class="cls-2" d="m1687.69,998.12c-4.97-4.25-2.09-9.1-3.46-17.3-3.78-22.65-13.31-50.5-18.17-80.45-5.02-31.02-8.39-61.4-6.92-90.83.83-16.69,5.02-34.25,15.57-42.39,2.13-1.64,8.84-3.42,10.38,2.6,1.43,5.61-7.95,12.49-9.52,16.44-9.79,24.75-3.78,66.78,0,96.89,5.23,41.61,13.83,75.8,12.11,115.06Z"/>
          <path class="cls-2" d="m1461.04,797.42c6.66-6.35,15.12-12.95,24.22-18.17,8.03-4.6,18.5-12.63,29.41-8.65-.46,11.67-13.06,15.29-21.63,19.03-9.32,4.07-20.88,6.62-32.01,7.79Z"/>
          <path class="cls-2" d="m1514.67,776.66c11.83,2.34,25.83,7,23.36,20.76-12.7,1.32-20.41-9.48-23.36-20.76Z"/>
          <path class="cls-2" d="m1981.82,797.42c-10.24,15.14-16.27,34.48-25.09,51.04-3.67-17.65,6.07-63.27,21.63-66.61,4.63-1,8.65.06,11.25,1.73,3.85,2.47,14.77,31.74,2.6,32.87-8.61.8-6.32-13.28-10.38-19.03Z"/>
          <path class="cls-2" d="m1691.15,828.56c1-4.42,15.75-.16,20.76-2.59,3.23-1.57,7.5,3.1,7.79,5.19.64,4.68-5.05,8.8-9.52,9.52-9.26,1.48-14.81-10.5-19.03-12.11Z"/>
          <path class="cls-2" d="m1833.03,850.19c-5.59,21.44-32.83,23.6-58.83,21.63-16.18-1.23-28.47-8.44-40.66-13.84-4.62-2.04-11.27-1-12.11-6.92,32.25,5.21,75.58,18.39,104.68.87,1.58-.95,2.93-2.44,6.92-1.73Z"/>
          <path class="cls-2" d="m1234.38,991.2c-2.98-5.39-4.5-12.23-8.65-16.44-1.26,1.34-4.43.76-6.92.87-13.34-12.46-29.62-30.76-52.77-27.68.99-16.05,26.65-13.92,35.47-6.06-9.3-17.52-22.37-38.76-37.2-53.64-5.15,3.73-3.61,9.93-9.52,9.52-12.13-.85-.7-21.93,1.73-23.36,14.46-8.49,26.32,9.79,33.74,20.76,6.16,9.11,10.43,16.18,15.57,25.09,14.3,24.77,22.13,44.28,28.55,70.94Z"/>
          <path class="cls-2" d="m1514.67,877.87c-4.95,20.4-31.88,35.26-57.1,37.2-7.05.54-15.84-.31-22.49-.87,10.96-7.8,25.16-10.43,38.06-15.57,14.38-5.72,23.64-14.42,34.6-22.49.76-.56,5.15-.29,6.92,1.73Z"/>
          <path class="cls-2" d="m1726.62,1067.33c3.2-27.23,2.36-59.74-7.79-78.72-1.01-1.87-5.88.12-6.06-2.6-.04-5.39,2.41-7.34,6.06-7.79,16.15-1.99,28.42,54.92,18.17,76.13-2.5,5.18-8.53,9.37-10.38,12.98Z"/>
          <path class="cls-2" d="m1181.61,1025.8c-3.16-4.49-16.81-20.01-12.98-32.01,1.65-5.16,10.17-8.86,14.71-2.6-.7,9.22-.84,27.55-1.73,34.6Z"/>
          <path class="cls-2" d="m1217.08,1046.56c-7.88-4.58-22.27-39.85-3.46-44.12,12.32-2.79,27.02,13.15,19.9,25.95-8.25-.12-8.19-8.54-14.71-10.38.2,7.3,3.3,11.7,6.92,15.57,3.92-.69,6.7-2.53,12.11-1.73,12.46,7.9,11.57,37.22-1.73,39.79-13.11,2.54-33.92-14.78-42.39-25.95-3.35-4.43-4.78-9.91-8.65-12.98,12.18-3.54,23.73,7.79,32.01,13.84Zm14.71,8.65v-7.79c-3.52,2.29-11.75-.25-12.98,0,4.3,2.62,7.94,5.9,12.98,7.79Z"/>
          <path class="cls-2" d="m1578.69,1015.42c-1.26,1.34-4.43.76-6.92.87-12.31,14.59,2,39.74-2.6,59.69-8.95-3.26-16.41-22.41-16.44-39.79-.04-19.98,15.07-42.24,25.95-20.76Z"/>
          <path class="cls-2" d="m1690.29,1023.21c.44,18.3-17.2,44.18-40.66,40.66,1.09-4,5.16-5.15,7.79-7.79,9.43-9.46,16.57-21.67,24.22-32.87,1.49-2.89,6.83-1.64,8.65,0Z"/>
          <path class="cls-2" d="m1819.19,1085.49c-12.62-2.59-29-7.01-42.39-19.03-11.01-9.88-24.78-22.86-19.9-39.79h1.73c7.98,5.75,11.51,14.75,18.17,21.63,13.04,13.46,30.02,23.06,42.39,37.2Z"/>
          <path class="cls-2" d="m1646.17,1069.06c-20.69,3.75-37.49-15.39-35.47-37.2h1.73c7.41,2.16,12.3,11.77,19.9,19.03,4.83,4.63,18.9,8.71,13.84,18.17Z"/>
          <path class="cls-2" d="m1714.51,1056.08c-17.23-8.91-20.07,11.41-35.47,12.11-5.02-21.9,36.83-40.28,35.47-12.11Z"/>
          <path class="cls-2" d="m1547.55,1044.83c-5.23,23.89-26.11,32.13-47.58,39.79-1.62-3.44,4.94-6.27,8.65-9.52,10.74-9.4,24.08-22.94,33.74-32.87,2.63-.04,3.36,1.83,5.19,2.6Z"/>
          <path class="cls-2" d="m1577.83,1076.84c1.05-12.81,10.17-24.48,25.95-23.36,6.64.47,18.84,6.32,17.3,14.71-2.16,11.77-10.97-.5-18.17-.87-10.64-.54-13.05,9.63-25.09,9.52Z"/>
          <path class="cls-2" d="m1651.36,1124.42c8.43-1.38,15.74-3.86,22.49-6.92,3.69-7.02-4.56-20.67,5.19-21.63,7.04,6.92,11.06,24.59,2.6,32.01-9.42,8.25-20.56.27-30.28-3.46Z"/>
          <path class="cls-2" d="m1863.31,1206.61c-.93-25.17,7.04-64.6-3.46-83.05-3.05-5.36-26.22-18.65-10.38-22.49,5.37-1.3,14.31,4.79,17.3,7.79,20.89,20.89,7.56,74.07-3.46,97.76Z"/>
          <path class="cls-2" d="m1737.87,1280.14c-.1,14.02-16.22,18.49-26.82,22.49-23.03,8.7-54.88,12.98-84.78,7.79-19.57-3.4-35.38-9.99-53.64-15.57,49.75,7.65,123.56,7.14,155.72-16.44,2.77-2.03,6.8-2.53,9.52,1.73Z"/>
          <path class="cls-2" d="m1363.28,1334.64c5.2-2.16,8.34,3.85,12.11,6.06,13.51,7.91,28.03,14.76,41.52,23.36,42.8,27.25,85.84,58.66,141.01,74.4,4.73,1.35,13.55,3.76,17.3,4.33,9.04,1.36,14.91-1.69,15.57,5.19,1.05,10.89-29.66,4.41-33.74,3.46-52.91-12.26-99.56-43.55-138.41-70.94-20.41-14.38-34.59-31.25-55.37-45.85Z"/>
          <path class="cls-2" d="m1635.79,1381.35c6.51,7.38-3.95,14.82-8.65,19.03,2.91-5.43-3.04-20.39,8.65-19.03Z"/>
          <path class="cls-2" d="m1747.38,1428.93c-9.86-11.32,8.02-30.88,11.25-15.57,1.5,7.12-6.74,12.12-11.25,15.57Z"/>
          <path class="cls-2" d="m1771.61,1412.5c3.08,8.4-2.97,14.81-10.38,15.57-2.98-8.28.74-20.05,10.38-15.57Z"/>
          <path class="cls-2" d="m1529.38,1557.83c2.07-.52,3.95-1.24,6.92-.87,21.76-38.79,57.68-63.43,92.56-89.1-6.91-3.48-17.18-8.19-19.03-13.84,13.64-3.2,26.76,1.46,34.6,6.92,10.1-3.46,23.04-2.76,32.01,0,1.39,5.71-4.42,6.98-6.92,10.38-6.47,8.8-6.95,20.71-12.98,30.28-4.38-10.42-4.86-26.28,2.6-33.74-49.53,18.24-74.96,60.57-118.52,84.78,6.09,4.87,13.2,8.71,14.71,18.17-4.86.92-11.72-3.14-15.57-6.06-8.62,25.12-14.81,52.67-25.95,75.26,8.03,2.36,15.03,4.84,16.44,12.11,2.75,14.23-12.15,20.28-19.9,26.82,2.95-7.43,4.65-16.11,7.79-23.36-.75-4.16-5.37-4.43-7.79-6.92-4.99,3.09-3.26,12.89-9.52,14.71,4.09-5.49,2.8-12.65,3.46-22.49,2.13-31.76,15.38-58.76,25.09-83.05Z"/>
          <path class="cls-2" d="m1691.15,1459.21c37.73,9.37,74.64,28.85,104.68,46.71,32.18,19.14,62.12,38.64,87.37,59.69-35.24-10.05-63.78-31.06-93.43-48.45-22.24-13.04-45.72-24.96-67.48-38.93-10.58-6.8-18.81-13.78-31.14-19.03Z"/>
          <path class="cls-2" d="m1513.81,1591.57c-14.97-.31-20.96-9.61-28.55-17.3.2-1.25,2.58-.3,2.6-1.73-18.66-24.31-28.71-57.23-44.12-84.78,11,12.28,20.2,25.84,29.41,39.79,8.97,13.59,18.6,28.31,22.49,46.71,6.99,3.93,26.42,6.45,18.17,17.3Z"/>
          <path class="cls-2" d="m1608.1,1570.81c54.04,2.94,114.87,18.96,162.64,33.74,8.22,2.54,16.32,5.49,24.22,8.65,7.11,2.84,16.2,4.99,19.9,12.11-18.08,1.52-34.83-6.33-51.91-11.25-50.31-14.49-105.61-22.4-153.12-41.52-1.47.32-1.63-.68-1.73-1.73Z"/>
          <path class="cls-2" d="m1916.94,1678.08c-6.89-4.71-11.5-9.75-18.17-17.3-4.49-5.09-14.97-15.44-13.84-21.63.67-3.71,3.65-6.18,8.65-5.19,5.99,1.19,10.43,13.08,13.84,19.9,4.67,9.31,8.39,16.44,9.52,24.22Z"/>
          <path class="cls-2" d="m1755.17,1698.84c-24.28.79-46.52-8-68.34-13.84-21.83-5.85-43.84-10.62-64.88-18.17h-10.38v-2.6c.7-.16.86-.87,1.73-.87,35.6-2.2,63.6,5.59,89.97,13.84,18.79,5.88,38.36,9.9,51.91,21.63Z"/>
          <path class="cls-2" d="m1760.36,1665.97c1.21,16.39-26.97,12-37.2,11.25,8.87-6.16,23.27-18.55,37.2-11.25Z"/>
          <path class="cls-2" d="m1870.23,1704.03c-7.39-11.06-23.2-13.72-34.6-20.76.03-11.67,11.47-9.68,17.3-5.19,7.04,5.42,14.43,20.08,17.3,25.95Z"/>
          <path class="cls-2" d="m1795.83,1703.17c14.46,11.24,41.42,14.48,44.12,34.6-23.22.42-28.15-24.9-44.12-34.6Z"/>
          <path class="cls-2" d="m1608.1,1743.83c8.15,5.69,13.39,14.3,17.3,24.22-10.85-2.99-14.86-12.82-17.3-24.22Z"/>
          <path class="cls-2" d="m1313.11,1399.52c3.16-51.08-1.93-107.3-.87-153.12-12.46-33.39-22.55-69.15-32.01-105.54-20.09,11.62-50.4.48-64.88-12.98-22.08-20.52-40.71-62.89-52.77-91.7-16.52-15.33-29.13-41.23-39.79-71.8-9.9-28.36-17.97-65.71-6.92-94.29,7.56-19.57,26.68-42.56,55.37-33.74-1.05-9.05-9.68-18-10.38-30.28-12.87-11.43-21.8-23.25-20.76-48.45.33-8.05,3.87-16.98,3.46-25.09-.48-9.44-8.6-19.46-12.98-27.68-11.51-21.6-12.95-48.47-2.6-74.4,1.58-3.96,4.79-8.43,5.19-12.11.87-7.9-2.73-17.82-3.46-25.95-4.17-46.15,4.38-91.62,16.44-126.3,4.96-14.27,12.35-26.19,17.3-39.79,7.01-19.28,9.3-40.92,32.87-48.45,8.33-6.95,14.74-15.83,24.22-21.63,22.25-67.46,64.08-119.8,125.44-152.26,19.77-10.45,43.47-22.99,67.48-25.09,7.02-.61,14.36,2.28,21.63,1.73,6.63-.51,14.82-6.19,21.63-8.65,34.79-12.59,91.52-15.53,133.22-6.92,15.73,3.25,28.37,10.6,44.12,15.57,16.02,5.06,31.1,4.73,44.98,9.52,12.51,4.31,24.17,11.04,36.33,18.17,23.58,13.81,47.93,22.86,70.94,37.2,43.93,27.39,81.07,63.48,102.95,114.19,34.18,16.79,64.96,47.07,83.91,84.78,7.68,15.27,19.61,34.81,11.25,51.91,6,12.46,9.85,27.06,12.11,43.25,11.58,15.58,2.44,53.75-3.46,75.26-1.78,6.47-5.27,13.5-5.19,18.17.25,14.17,17.5,27.15,16.44,43.25-.67,10.13-9,15.89-16.44,21.63,1.97,4.85,4.51,10.34,5.19,16.44,1.72,15.34-4.04,29.15-11.25,37.2,42.13,7.32,51.1,56.81,43.25,103.81-5.91,35.41-19.17,69.09-28.55,95.16-.12,4.73,5.18,4.05,5.19,8.65-.96,14.32,1.28,28.65,0,42.39-2.32,24.92-21.35,47.86-39.79,48.45-9.77.31-12.05-7.17-19.03-6.06,3.78-7.94,13.15-6.98,19.9-10.38,8.22-4.14,17.23-13.52,20.76-23.36,4.67-12.99.89-31.19,3.46-48.45.71-4.76,4.1-6.73,6.06-11.25,7.38-17.06,7.97-41.66,11.25-62.29,3.6-22.71,8.56-45.71,8.65-64.88.12-25.7-11.17-55.94-30.28-57.1-16.89-1.02-21.26,16.09-29.41,25.95-5.96.49-6.06-2.67-10.38,0,2.91,28.78-4.55,60.39,2.6,84.78,3.62-10.4,7.91-18.05,16.44-25.95,2.15-1.99,8.53-8.11,12.98-8.65,7.73-.93,13.26,2.3,12.11,8.65-.86,4.76-9.55,5.93-13.84,8.65-9.7,6.15-19.18,17.66-26.82,25.09,2.73,14.58,4.19,30.41,4.33,47.58-1.22-13.4,20.29-31.53,22.49-8.65,1-.26,8.1-2.03,9.52,1.73,4.48,15.19-5.47,28.38-10.38,38.93-4.92,10.57-9.14,20.73-23.36,12.98-.19,14.24-7.64,28.66-8.65,42.39-1.15,15.6.91,31.52,0,47.58-.83,14.54-2.86,29.51-4.33,44.12-2.91,28.97-10.3,57.14-12.98,84.78-1.92,19.88-.62,40.6-1.73,60.56-3.03,54.22-5.73,109.17-9.52,161.77-.21,2.93-3.75,7.99,1.73,9.52,1.45-3.32-3.26-12.24,4.33-13.84,10.17-2.15,23.12,30.8,26.82,37.2,9.49,16.39,17.08,28.4,21.63,41.52,3.22-.29,3.53-5.26,9.52-5.19,8.09.1,25.55,23.87,31.14,29.41,29.76,29.48,66.31,58.4,96.89,82.18,16.59,1,25,10.18,32.01,20.76,47.47,18.87,91.27,45.45,137.55,68.34,91.32,45.16,189.13,84.78,285.48,126.3,47.14,20.31,133.59,79.3,127.17,81.32,1.37,4.11,10.36,44.66,14.71,59.69,3.59,12.43,218.47,660.5,215.01,674.32-89.54,358.14-245.87,220.53-340.18,280.5-81.66,51.93-1967.31,112.09-2036.15,53.94-11-9.29-82.86-881.72-94.84-893.7-9.88-9.88-25.18-24.56-24.22-38.06.89-12.58,16.47-23.67,23.36-32.87,8.99-12,13.66-23,20.76-34.6.73-4.57-3.11-3.61-2.6-8.65.64-6.31,8.87-9.29,13.84-12.11-3.45-26-5.72-65.59-.87-89.1-.71.62-5.6,2.71-3.46.87,3.67-1.23,6.17-3.63,7.79-6.92,17.63-4.47,30.82-15.68,46.71-24.22,137.99-74.16,302.6-126.61,454.17-189.45,26.53-11,54.1-23.59,81.32-35.47,27.69-12.09,57.61-22.18,80.45-36.33,12.68-7.86,23.47-21.89,35.47-32.87,29.63-27.13,58.52-51.73,89.97-78.72,5.95-5.11,15.21-11.04,18.17-15.57,8.27-12.66,6.2-36.8,27.68-37.2ZM1654.82,190.99c-2.12-3.66-8.79-7.34-12.98-6.06,5.04.9,8.68,7.24,12.98,6.06Zm32.87,40.66c-3.61,11.75-23.44,2.77-35.47-.87-9.56-2.89-17.67-5.87-25.95-8.65-19.35-6.49-39.96-15.9-59.69-18.17,4.05,10.16,34.51,20.28,21.63,36.33-45.76,4.79-68.62-20.76-112.46-20.76,3.81,8.01,17.05,6.6,14.71,20.76,8.99,1.97,16.65,7.16,14.71,17.3-.78,4.06-6.68,6.73-5.19,8.65,17.24,2.83,32.18,11.22,44.12,19.03,3.9,2.56,8.02,6.97,12.11,6.06,0-7.61-11.55-15.56-8.65-26.82,3.67-14.25,21.98-4.02,32.87,0,7.9,2.91,15.38,7.95,21.63,6.92-3.07-7.78-13.14-3.24-14.71-11.25-3.33-16.96,19.9-7.77,30.28-5.19,21.68,5.38,52.14,12.94,67.48,19.03-11.01-21.72,13.3-15.71,28.55-11.25,25.28,7.39,45.74,20.48,54.5,38.06,4.25.36,6.23,3,8.65,5.19-17.46-53.77-59.2-83.26-105.54-108.14,2.34,11.42,21.2,18.22,16.44,33.74Zm65.75,4.33c-3.45-1.47-7.43-6.96-10.38-6.06,4.1.82,6.19,8.2,10.38,6.06Zm-282.88,31.14c-12.86-8.21-34.82-12.53-55.37-8.65-7.74,1.46-16.45,1.94-20.76,6.92,11.93,11.94,41.18,7.83,45.85,25.09,6.77,25.05-19.98,19.08-38.06,19.9-47.66,2.17-89.82,23.92-108.14,51.91,12.42,1.29,11.32-11.43,21.63-10.38,3.81.39,7.56,4.8,7.79,8.65.51,8.63-11.63,16.75-14.71,30.28-2.27,10.01-.73,17.6-1.73,25.09,5.15-8.74,9.13-20.69,17.3-33.74,7.47-11.93,20.29-36.17,32.87-21.63,8.02-10.67,21.37-27.09,40.66-18.17,18.36-6.15,45.34-3.68,66.61-6.92-4.84-3.25-10.86-4.39-10.38-11.25,1.22-17.43,46.33,3.42,51.04,6.06,4.1-2.43,8.93-6.11,15.57-3.46-2.82-10.19-15.46-14.68-13.84-25.95,1.74-12.1,17.67-5.96,27.68-6.06-20.4-10.16-36.8-24.34-64.02-27.68Zm3.46,124.57c-5.75-3.96-11.68-7.73-17.3-11.25-4.11-2.57-9.17-7.72-14.71-6.06,6.34,4.48,23.44,7.41,21.63,17.3-2.42,13.18-27.58-6.36-36.33-8.65.46,1.89,2.09,5.6-.87,6.06-7.04,2.28-17,.39-22.49-1.73-13.5,11.34-30.15,18.69-39.79,35.47-6.83,11.87-10.7,27.9-15.57,41.52-5.27,14.74-10.71,28.75-16.44,41.52-15.39,34.34-41.82,57.21-91.7,47.58-5.29,41.6-7.44,94.99-3.46,140.14,2.18-6.83,3.66-23.84,12.98-20.76,10.12,3.34-7.7,40.19-5.19,46.71.7.11,7.5-2.21,9.52.87,3.49,13.22-3.45,28.85-3.46,44.12,15.19-4.49,8.84,13.94,6.06,29.41-1.81,10.05-3.18,19.31-4.33,27.68-3.4,24.87-11.15,43.95-11.25,64.02-.11,22.98,1.65,48.36,4.33,70.94,3.69,31.17,23.83,68.75,37.2,90.83,13.83,22.85,29.61,46.62,45.85,65.75,2.36,2.78,5.19,7.52,6.92,6.06.27-7.23-1.57-16.56,4.33-18.17,9.33,9.94,10.23,26.51,12.98,40.66,7.1,36.51,13.81,76.16,24.22,109.87,1.82,5.9,8.33,13.83,2.6,19.9-16.23-46.63-38.62-87.1-43.25-145.34-27.5-27.08-56.07-52.65-74.4-89.1-19.67-39.12-35.02-84.87-35.47-141.87-1.31,1.29-3.8,1.39-6.06,1.73-1.01,6.89-2.91,13.57-9.52,12.98-6.46-.58-9.04-19.17-12.11-25.09-4.37-8.43-11.07-17.12-15.57-21.63-5.68-5.68-16.52-13.73-27.68-12.11-15.54,2.25-26.08,26.72-27.68,43.25-5.01,51.75,26.31,96.55,39.79,137.55,34.06,32.44,39.66,109.25,109,95.16-3.39-9.93-6.83-21.39-10.38-32.87-3.27-10.59-10.24-24.25-3.46-33.74,9.11,6.31,12.85,18.24,16.44,28.55,3.83,11.02,7.05,23.15,10.38,34.6,17.04,58.61,35.8,117.83,51.04,174.75,3.17,11.83,7.79,23.39,8.65,35.47-3.95-22-16.43-35.48-24.22-53.64,3.22,46.49,5.5,106-2.6,148.8,30.32,51.65,82.73,84.52,127.17,121.11,5.83,4.8,16.89,9.18,16.44,17.3-59.58-29.24-111.67-65.96-147.93-118.52-1.12-3.12-3.58.47-4.33-2.6-.72-9.27-11.64-18.8-1.73-25.95-7.89,1.92-9.34,11.9-8.65,19.9-8.21,11.14-9.98,25.26-14.71,42.39-2.39,8.65-11.41,26.08-11.25,32.87.23,9.8,19.06,34.51,23.36,41.52,42.01,68.54,93.76,123.82,143.61,180.8,15.22,17.4,28.95,36.68,44.12,52.77,4.84,5.14,12.57,11.07,12.11,19.03-10.08-8.51-18.59-18.13-28.55-26.82-70.22-61.26-128.35-134.48-181.67-211.95,57.55,264.26,143.08,500.55,228.38,737.06,3.19-108.81,15.77-222.02,32.01-320.95,3.04-18.51,4.33-38.92,14.71-44.98-23.77-31.89-43.51-67.79-55.37-111.6-.68-2-4.76,4.35-6.92.87,1.89-36.2,19.04-64.58,38.06-86.51-12.02-14.1-8.46-35.17-5.19-50.18-16.31,9.49-34.56-2.35-40.66-13.84,17.15,2.2,37.61,9.03,46.71-7.79,4.33-8,5.27-19.27,8.65-28.55,9.37-25.73,22.65-55.62,40.66-70.94,23.06-19.61,15.28,30.29,7.79,36.33,1.23-5.77-.06-14.96-4.33-19.9-9.22,8.3,2.41,19.47,3.46,30.28-5.97-3.83-8.03-11.58-11.25-18.17-20.07,31.54-29.67,73.56-45.85,109,7.19,19.34,16.36,36.7,21.63,57.96,3.82-32.17,11.88-63.72,23.36-88.24,3.61-7.71,8.04-19.18,18.17-19.9,3.3,3.45.76,8.73,0,12.98,6.96,4.29,18.41,31.02,3.46,29.41-7.72-.83-6.45-11.01-9.52-18.17-13.99,35.9-22.61,77.16-34.6,115.06,18.38,23.72,30.15,54.05,38.93,87.37,4.09,1.68,7.44,4.09,12.11,5.19,18.58-18.23,21.27-56.33,18.17-93.43-5.53-.07-16.38,10.41-25.09,4.33,9.9-11.15,25.4-16.71,32.87-30.28-3.37-5.86-10.3-8.16-16.44-11.25,20.27.2,47.93,12.55,70.07,19.03,5.91,1.73,22.04,2.26,21.63,8.65-.48,7.41-14.16,3.94-17.3,5.19,6.52,4.23,13.44,8.38,19.9,12.98,6.06,4.31,14.95,8.63,16.44,17.3-8.24,7.13-19.94-2.1-26.82-6.92-7.54-5.3-16.29-12.5-21.63-19.03-3.58-4.38-5.21-11.55-12.11-11.25,4.47,28.75,6.23,62.29,10.38,89.97,3.8,25.34,8.22,49.54,13.84,72.67,27.9,114.78,91.03,200.15,143.61,289.81,10.68,18.22,19.9,37.45,32.01,55.37,43.02-20.04,72.16-57.47,99.49-96.89,27.32-39.41,55.98-86.45,70.94-137.55-46.36-113.11-68.29-250.63-76.13-402.27.26,2.28-1.2,2.84-3.46,2.6,1.87-16.9.79-39.3-1.73-57.1-3.67-25.95-28.47-28.22-39.79-44.98.12-2.76,3.86-1.91,5.19-3.46-42.7-33.64-77.53-74.99-116.79-110.73-16.88-15.37-31.52-33.25-50.18-44.98-7.24,5.83-27.22.09-39.79-2.6-33.22-7.1-68.03-16.36-91.7-29.41-2.28,17.08-50.16,9.12-68.34,7.79-5.07,23.88-42.75,11.53-44.12-4.33,10.52-.17,24.48,9.86,32.01,1.73-12.26-2.45-23.18-6.24-32.01-12.11-18.48,21.18,11.1,40.71,27.68,51.91,16.25,10.98,31.71,19.89,42.39,29.41-3.49-2.2-7.09-3.88-11.25-5.19-23.39-7.36-46.89-15.11-63.15-32.01-12.73-13.24-20.73-36.83-4.33-48.45,25.16-.26,48.76,6.25,73.53,7.79,14.85.92,30.37-.49,45.85.87,23.24,2.04,45.72,8.19,67.48,13.84,22.18,5.76,44.59,9.49,63.15,18.17.37,1.93,4.26.35,6.06.87,2.61,3.16,6.06,5.47,10.38,6.92.93-4.26,4.67-5.71,7.79-7.79,22.53-29.3,48.02-56.03,70.94-83.91,7.58-9.22,15-20.15,25.95-25.95,10.21,4.77-.4,15.94-5.19,22.49-12.5,17.09-24.98,32.29-37.2,45.85-19.42,21.55-40.55,37.67-59.69,51.91,19.44,10.62,37.27,23.63,53.64,38.06,16.23,14.31,30.41,31.29,46.71,43.25,3.71-9.92,8.6-19.42,13.84-30.28,4.23-8.76,11.83-21.26,12.98-31.14.98-8.49-2.17-18.86-2.6-28.55-2.14-48.52,2.43-98.97,1.73-142.74-3.77,9.5-5.63,20.9-10.38,29.41,8.88-34.88,13.79-73.24,19.03-111.6,5.32-38.91,9.98-78.71,12.11-117.65-5.17,10.98-10.96,21.34-18.17,30.28-1.06,22.87-6.42,41.45-12.98,58.83-2.54-14.91-2-37.83-.87-54.5.38-5.61-1.6-12.51,4.33-14.71,4.81-1.48,6.18,3.57,8.65,1.73,17.94-46.2,33.12-101.06,30.28-163.5-1.13-24.78-12.53-60.02-3.46-79.59-6.18-43.31-6.42-86.05-15.57-125.44-3.25-13.99-14.72-25.85-10.38-41.52,3.65-1.24,7.26,7.12,6.06,2.6-1.13-7.03-13.85-22.34-11.25-30.28,1.49-4.55,5.31-1.81,6.92-3.46-6.3-9.97-30.27-43.25-2.6-43.25-1.49-33.71-3.73-74.11-12.98-102.95,3.98-1.28,6.75,6.55,7.79,2.6-3.42-33.97-21.23-54.21-39.79-73.53-14.82-15.43-34.15-25.92-46.71-41.52,4.96-.33,11.27,3.19,12.11-2.6-12.43-2.28-28.31-1.1-34.6-9.52-1.21-4.67,2.34-4.58,2.6-7.79-4.52-.38-7.33-2.47-8.65-6.06-3.56.19-3.68,3.82-7.79,3.46-15.19-13.94-39.11-19.14-59.69-27.68.61,2.28,5.53,8.36,2.6,14.71,11.11,2.73,23.04,4.64,28.55,12.98-36.6-5.23-79.81-9.75-120.25-15.57,5.64,5.75,17.32,5.32,27.68,6.92,9.89,1.53,22.33.48,26.82,7.79-8.61,12.01-34.22,2.6-48.45,1.73,1.07,2.45,1.07,5.34,0,7.79-18.17,15.41-50.94-.22-69.21-5.19,2.77,8.78,20.46,12.39,18.17,21.63-2.8,11.28-17.29-3.36-25.95-2.6.11,8.72,14.07,5.98,12.98,13.84-1.26,9.05-15.11,2.07-19.9-.87-7.44-4.56-11.82-10.31-17.3-12.11,2.79,4.91,4.97,17.7-2.6,19.03-3.24-4.08-4.65-10.95-8.65-15.57-9.45-10.92-39.5-28.98-56.23-30.28-14.79-1.15-34.79,1.04-50.18,3.46,32.32-.19,64.47,4.05,82.18,18.17,5.56,4.43,14.6,13.26,9.52,22.49-5.74-3.2-14.43-8.06-19.9-8.65,2.81,1.51,6.87,9.05,2.6,12.11-6.65,1.49-12.18-5.12-17.3-8.65Zm150.53-35.47c-.84,3.14,4.83,1.84,4.33,0-2.15-.09-2.68-1.62-4.33,0Zm-223.19,1.73c-4.77,2.97,7.03.43,8.65-.87-3.46-.29-4.8,1.54-8.65.87Zm545.01,77.86c-7.24-9.49-15.89-17.56-24.22-25.95-13.03,13.35-24.34-6.12-32.87-16.44-8.16-9.87-14.94-18.49-21.63-23.36-4.35,3.72-6.89,9.26-12.11,12.11,9.99,5.22,24.72,10.75,33.74,17.3,27.31,19.84,49.34,51.02,69.21,80.45,5.02,7.44,21.14,28.52,16.44,43.25-4.15,12.99-18.27-.9-23.36-3.46-7.36-3.71-12.66-4.3-19.9-6.06,6.94,17.28,19.75,28.7,19.9,52.77,3.58,2.43,8.8,9.65,12.98,6.06-3.34-12.89,4.23-30.61,17.3-19.03-.27-5.15-3.79-18.76,2.6-19.9,7.12.95,6.31,9.84,10.38,13.84-12.35-31.81-28.82-61.41-45.85-87.37-5.62-8.56-13.57-18.46-12.11-29.41,4.27-3.09,7.01,6.59,9.52,5.19Zm-747.44-38.93c-9.49,12.5-16.11,22.27-17.3,41.52-.97,15.55,1.29,38.97-6.06,48.45-3.55-8.56-10.89-13.34-11.25-25.09-19.39,38.86-22.75,93.75-26.82,147.93.52,1.58,5.16-4.54,7.79-.87,1.46,13.91-8.55,23.71-10.38,37.2,1.85,1.9,6.16,1.34,6.06,5.19,1.83,3.12.41,8.77.87,12.98,4.15,38.11,45.3,54.88,48.45,83.91,1.26,11.63-3.18,16.42-10.38,19.9,11.37,13.14,25.92,23.1,36.33,37.2-1.62-12.83-14.71-19.78-16.44-34.6-.81-6.95,1.94-13.18,2.6-19.9,1.84-18.99-4.28-34.12-12.11-47.58-15.73-5.68-32.99-24.41-35.47-44.98-4.4-36.51,28.49-11.28,37.2-4.33,2.43,1.94,5.09,5.73,7.79,4.33-5.47-26.82-30.48-34.11-42.39-54.5,8.22,2.45,19.64,1.69,25.09,6.92-7.08-13.1-21.37-19-27.68-32.87.29-3.46,2.36-5.14,3.46-7.79-2.8-.67-3.92-3.37-4.33-6.06-.76-5.06,2.26-4.85,2.6-6.92.46-2.85-1.48-5.5-.87-6.92,6.22-14.4,39,8.57,56.23,6.06,4.59-.67,9.74-3.03,12.98-7.79-25.76-10.2-63.67-20.49-61.42-52.77,13.86.02,17.48,14.76,27.68,15.57-4.27-3.59-22.68-35.29-3.46-36.33,3.93-.21,4.89,2.79,9.52,3.46.52-28.61,4.19-54.06,9.52-77.86-3.86.11-5.59-1.91-7.79-3.46Zm4.33,83.91c-2.67-1.27-1.82-7.02-.87-9.52-3.4.64-2.85,5.23-3.46,8.65,2.02-.74,3.73,3.03,4.33.87Zm755.22,149.66c5.98-6.46,3.7-15.87,5.19-26.82-16.86-.73-19.28-15.9-30.28-22.49-2.2,20.19,17.71,32.96,25.09,49.31Zm-18.17,36.33c2.35,9.76,7.88,16.34,13.84,22.49-2.75-13.7,7.19-14.72,9.52-23.36-5.87-3.93-9.94-9.67-10.38-19.03-4.99,5.97-1.2,20.72-12.98,19.9Zm-705.05,106.41c-.9-3.54,2.66-7.07,0-9.52.49,3.13-2.57,7.17,0,9.52Zm715.43,191.19c2.81-.5,4.02.59,6.06.87,1.15-4.34,4.12-11.43,1.73-16.44-1.89,3.29-5.96.77-7.79-.87v16.44ZM476.56,1979.13c1.11-1.48,1.79-3.4,4.33-3.46.18-2.49-.22-4.39-1.73-5.19.14,3.35-3.89,7.02-2.6,8.65Zm1243.14,343.44c11.53-33.68,27.89-73.73,43.25-107.27,5.45-11.9,11.55-38.19,25.09-35.47-34.96-58.76-70.53-116.9-93.43-187.72,12.01,106.5,21.19,215.85,25.09,330.46Zm297.59-162.64c-24.21,42.73-48.87,83.15-83.91,115.06-20.77,18.91-45.66,39.97-78.72,38.93,3.88,10.7,10.98,19.83,16.44,29.41,5.61,9.86,9.33,20.61,16.44,29.41,99.58-43.45,148.26-137.8,187.72-241.36-10.39-11.81-16.79-27.62-25.95-40.66-6.63,23.37-19.35,46.86-32.01,69.21Z"/>
          <path class="cls-2" d="m1874.55,586.34c-20.84-15.34-47.69-31.2-84.78-28.55-20.68,1.48-42.88,9.81-58.83,11.25,35.17-29.77,124.61-26.53,143.61,17.3Z"/>
          <path class="cls-2" d="m1948.08,1634.83c13.55,27.12,16.8,69.13,17.3,106.41-4.58-2.81-2.64-10.53-3.46-14.71-3.25-16.46-9.48-33.73-13.84-51.04-4.16-16.52-8.52-34.85-18.17-45.85-7.18-8.19-17.03-12.62-25.95-17.3-8.23-4.32-19.04-8.39-24.22-19.03,22.86,1.65,37.53,11.5,51.91,21.63.96-2.4-4.86-8.19-1.73-12.98,11.99,1.87,21.39,26.76,25.09,40.66.57,2.14-2.06-5.2-6.92-7.79Z"/>
          <path class="cls-2" d="m463.59,1859.75c-2.97,2.22-6.44,3.94-10.38,5.19,2.97-2.22,6.44-3.94,10.38-5.19Z"/>
          <path class="cls-2" d="m1710.18,793.96c7.71-6.03,19.17-11.16,31.14-15.57,29.51-10.88,92.53-12.58,119.38,3.46,3.4,2.03,6.7,5.45,6.92,9.52-15.44-1.29-27.25-6.2-43.25-6.92,7.97,3.87,16.31,8.72,23.36,13.84,6.44,4.69,15.5,10.23,15.57,20.76-5.03,6.47-12.31.49-16.44-3.46-26.99,15.55-78.71,23.6-114.19,10.38,9.94-8.75,24.06.05,38.93-1.73-4.69-4.65-11.91-1.77-17.3-3.46-9.93-3.11-14.94-12.17-16.44-23.36-19.49,4.46-27.29,25.17-43.25,30.28,8.06-12.31,7.3-28.16,20.76-34.6,1.75-4.09-2.28,1.75-5.19.87Zm115.06,21.63c4.14-1.83,12.53-7.96,12.98-12.11,1.33-12.45-26.5-19.02-35.47-16.44,6.72,11.85.36,28.61-7.79,33.74,9.24-2.14,21.24-1.2,30.28-5.19Z"/>
          <path class="cls-2" d="m1460.17,861.43c12.32-2.39,15.78-13.63,32.87-11.25-17.25,31.45-89.3,41.66-121.98,17.3-6.87,3.22-12.58,7.61-19.03,11.25,2.59-12.15,11.26-25.62,19.9-34.6-12.08.08-24.61,4.16-32.01,6.06,38.61-21.97,97.72-43.18,166.1-38.93,8,.5,25.95,2.47,25.95,8.65,0,9.48-26.79,4.3-33.74,4.33-3.14,0-8.44,1.39-11.25.87,6.63,2.92,49.28,11.99,45.85,25.09-.63,2.4-4.85,5.42-8.65,3.46-4.35,5.95-13.03,9.21-20.76,6.06-5.6-2.29-6.03-9.43-9.52-10.38,5.97-2.08,13.26,4.58,18.17-.87-10.64-8.69-25.22-13.42-40.66-17.3,1.65,15.49-4.95,22.74-11.25,30.28Zm-71.8-20.76c-.53,12.45-11.26,14.69-14.71,24.22,15.17.12,29.85,5.33,44.98,2.6-10.11-3.01-19.08-20.19-10.38-31.14-6.94,1.13-13.03,3.12-19.9,4.33Z"/>
        </g>
      </g>
    </g>
    <polygon class="cls-4" points="0 2031.51 33.79 2757.91 2001.82 2707.23 2065.17 2538.3 3526.41 2504.51 3543.31 1989.28 0 2031.51"/>
    <g>
      <path class="cls-5" d="m280.35,2225.5l82.21-96.11c.92-.92,3.84-1.38,8.76-1.38,4.46,0,7.84.31,10.15.92,1.08.23,2.21.48,3.4.75,1.19.27,2.09.54,2.71.81.62.27.92.63.92,1.09l-120.14,162.6c-2.15,0-4.77-.73-7.84-2.19-3.08-1.46-5.42-2.69-7.03-3.69-.92-.69-2.19-1.34-3.8-1.96-1.61-.61-2.86-1.17-3.75-1.67-.88-.5-1.36-1.02-1.44-1.56l19.83-81.93-74.14,103.83c-9.38-1.92-17.87-7.18-25.48-15.79,2.38-7.61,5.5-18.51,9.34-32.73,3.84-14.21,7.69-27.56,11.53-40.04,3.84-12.48,7.99-24.04,12.45-34.69,4.46-10.64,9.38-20.07,14.76-28.29,1.23-.92,2.81-1.38,4.73-1.38,1.15,0,1.94.04,2.36.12.42.08,1.21.16,2.36.23,1.15.08,2.27.19,3.34.35.54,0,1.29-.06,2.25-.17s1.94-.21,2.94-.29c1-.08,1.81-.13,2.42-.17.62-.04,1.54-.06,2.77-.06,2.15,0,3.5.39,4.04,1.15l-41.05,97.95c2.15-2.69,4.88-6.41,8.19-11.18,3.31-4.76,6.25-9.01,8.82-12.73,2.57-3.73,5.48-7.7,8.7-11.93,10.07-13.6,19.77-26.14,29.11-37.62,9.34-11.48,16.77-20.24,22.31-26.27,5.54-6.03,8.69-9.2,9.46-9.51,4.76-1.54,8.57-2.57,11.41-3.11.84,0,2.92-.23,6.22-.69,3.31-.46,6.19-.69,8.65-.69l-31.48,88.04Z"/>
      <path class="cls-5" d="m414.05,2118.1c2.77,0,4.15.31,4.15.92.54.23.81.81.81,1.73,0,3.23-2.32,9.74-6.97,19.53-4.65,9.79-10.97,22.43-18.96,37.91-7.99,15.48-12.1,23.91-12.33,25.29,1.61-1,4.99-3.26,10.14-6.8,5.15-3.53,9.49-6.11,13.02-7.72,3.53-1.61,7.07-2.42,10.6-2.42,5.45,0,10.79,2.19,16.02,6.57,3,2.61,4.49,5.99,4.49,10.14,0,3.07-.56,6.26-1.67,9.56-1.11,3.3-2.56,6.91-4.32,10.83-1.77,3.92-3.73,8.3-5.88,13.14-11.06,28.04-20.82,50.93-29.27,68.68-1.38,0-2.57-.16-3.57-.46-1-.31-2.07-.81-3.23-1.5s-1.96-1.25-2.42-1.67c-.46-.42-1.15-1.02-2.07-1.79-3.3-1.69-5.76-3.23-7.38-4.61s-2.54-3-2.77-4.84c.92-2.38,2.61-6.55,5.07-12.5,2.46-5.95,5.11-12,7.95-18.15,2.46-5.84,4.72-10.95,6.8-15.33s4.01-8.39,5.82-12.04c1.8-3.65,3.65-7.47,5.53-11.47,1.88-3.99,3.78-8.14,5.7-12.45-9.3,2-17.02,5.53-23.16,10.6-6.15,5.07-11.47,11.41-15.96,19.01s-10.12,18.78-16.88,33.53c-6.76,14.75-12.33,26.35-16.71,34.8-2.38,0-4.36-.46-5.94-1.38-1.58-.92-2.9-2-3.98-3.23-1.08-1.23-2.04-2.34-2.88-3.34-1.61-1.08-3.3-2.23-5.07-3.46-1.77-1.23-2.88-2.77-3.34-4.61,2.46-5.15,5.63-12.18,9.51-21.09,3.88-8.91,7.51-17.19,10.89-24.83,3.38-7.64,6.3-14.08,8.76-19.3,2.46-5.22,4.92-10.22,7.38-14.98,2.61-5.38,7.32-15.29,14.12-29.73,6.8-14.44,11.77-24.93,14.92-31.46,3.15-6.53,6.53-13.21,10.14-20.05,3.61-6.84,5.8-10.45,6.57-10.83.08-.15.29-.52.63-1.09s.75-1.09,1.21-1.56.96-.69,1.5-.69c1.07,0,2.11.73,3.11,2.19,1.15,1.54,2.3,2.3,3.46,2.3.61,0,1.61-.23,3-.69,1.38-.46,2.54-.69,3.46-.69Z"/>
      <path class="cls-5" d="m427.96,2292.45c-2.69-4.22-4.03-9.72-4.03-16.48,0-8.76,2.11-18.26,6.34-28.52,4.22-10.26,10.2-19.92,17.92-28.98,7.72-9.06,17.07-16.5,28.06-22.3,10.99-5.8,22.89-8.7,35.72-8.7,7.3.46,13.14,3.19,17.52,8.17,4.38,4.99,6.57,10.9,6.57,17.73,0,5.37-1.42,10.48-4.26,15.31-4.76,7.52-12.41,13.89-22.93,19.11-6.91,3.99-15.94,7.73-27.08,11.22-11.14,3.49-21.47,5.51-31,6.04-1.38,4.99-2.07,8.21-2.07,9.67,0,3.84,2.11,6.75,6.34,8.75,1.84.77,4.53,1.15,8.07,1.15,7.99,0,16.48-2.29,25.47-6.88,8.99-4.59,15.83-11.09,20.51-19.5.69.54,1.04,3,1.04,7.38.15.46,1.09,1.44,2.82,2.94,1.73,1.5,2.59,2.55,2.59,3.17-1.84,6.53-5.86,12.47-12.04,17.8-6.19,5.34-13.56,9.6-22.13,12.79-8.57,3.19-16.77,4.78-24.6,4.78-14.6,0-24.2-4.88-28.81-14.63Zm84.93-79.05c-1.54-2-4.46-3-8.76-3-2.84,0-6.15.62-9.91,1.84-7.99,3-14.87,6.8-20.63,11.41-5.76,4.61-11.06,10.72-15.9,18.32,2.54-.46,7.66-1.67,15.38-3.63,7.72-1.96,13.35-3.48,16.88-4.55,7.53-2.84,13.43-5.82,17.69-8.93,4.26-3.11,6.4-5.97,6.4-8.59,0-.77-.39-1.73-1.15-2.88Z"/>
      <path class="cls-5" d="m628.55,2176.87c-.15,0,4.07-.21,12.68-.63,8.6-.42,15.33-.75,20.17-.98-.08.77-.17,1.67-.29,2.71s-.54,2.27-1.27,3.69c-.73,1.42-1.71,2.59-2.94,3.51-.77.77-1.15,1.69-1.15,2.77.08.62.13,1.17.17,1.67.04.5.06,1.13.06,1.9,0,1.23-.42,2.34-1.27,3.34-8.14.31-15.6.86-22.36,1.67-6.76.81-11.49,1.48-14.17,2.02-1.15,2.23-3.28,6.38-6.4,12.45-3.11,6.07-7.22,14.1-12.33,24.08-5.11,9.99-10.56,20.86-16.36,32.61-5.8,11.75-12.5,25.54-20.11,41.37-.92.31-1.58.46-1.96.46-1.61,0-3.02-.71-4.21-2.13-1.19-1.42-2.32-3.21-3.4-5.36-1.08-2.15-1.77-3.42-2.07-3.8-.62-1-2.5-1.5-5.65-1.5s-4.96-.84-5.42-2.54c3.61-8.3,7.05-15.71,10.31-22.24,3.26-6.53,6.95-13.52,11.06-20.97,4.11-7.45,8.39-15.06,12.85-22.82,4.45-7.76,9.87-17.55,16.25-29.39-.85,0-10.45.88-28.81,2.65-2.15,0-3.23-.38-3.23-1.15,0-.38.59-1.59,1.79-3.63,1.19-2.04,1.79-3.75,1.79-5.13-.23-.46-.77-1.48-1.61-3.05-.85-1.57-1.27-2.67-1.27-3.28,0-1.3.61-2.65,1.84-4.03,7.53-1.46,14.81-2.38,21.84-2.77,7.03-.38,13.62-1.04,19.76-1.96.69-1.15,1.54-2.65,2.54-4.49,1-1.84,2.82-5.07,5.47-9.68,2.65-4.61,4.47-7.76,5.47-9.45,2.15-3.38,4.53-7.39,7.15-12.04,2.61-4.65,4.53-8.12,5.76-10.43,1.84-.92,3.99-1.57,6.45-1.96,2.46-.38,3.99-.65,4.61-.81,2.3,0,4.59.37,6.86,1.1,2.27.73,3.86,1.79,4.78,3.17-1.61,2.92-3.84,7.11-6.68,12.56-2.84,5.46-5.74,11.1-8.7,16.94-2.96,5.84-5.63,11.02-8.01,15.56Z"/>
      <path class="cls-5" d="m707.69,2118.1c2.77,0,4.15.31,4.15.92.54.23.81.81.81,1.73,0,3.23-2.32,9.74-6.97,19.53-4.65,9.79-10.97,22.43-18.96,37.91-7.99,15.48-12.1,23.91-12.33,25.29,1.61-1,4.99-3.26,10.14-6.8,5.15-3.53,9.49-6.11,13.02-7.72,3.53-1.61,7.07-2.42,10.6-2.42,5.45,0,10.79,2.19,16.02,6.57,3,2.61,4.49,5.99,4.49,10.14,0,3.07-.56,6.26-1.67,9.56-1.11,3.3-2.56,6.91-4.32,10.83-1.77,3.92-3.73,8.3-5.88,13.14-11.06,28.04-20.82,50.93-29.27,68.68-1.38,0-2.57-.16-3.57-.46-1-.31-2.07-.81-3.23-1.5s-1.96-1.25-2.42-1.67c-.46-.42-1.15-1.02-2.07-1.79-3.3-1.69-5.76-3.23-7.38-4.61s-2.54-3-2.77-4.84c.92-2.38,2.61-6.55,5.07-12.5,2.46-5.95,5.11-12,7.95-18.15,2.46-5.84,4.72-10.95,6.8-15.33s4.01-8.39,5.82-12.04c1.8-3.65,3.65-7.47,5.53-11.47,1.88-3.99,3.78-8.14,5.7-12.45-9.3,2-17.02,5.53-23.16,10.6-6.15,5.07-11.47,11.41-15.96,19.01s-10.12,18.78-16.88,33.53c-6.76,14.75-12.33,26.35-16.71,34.8-2.38,0-4.36-.46-5.94-1.38-1.58-.92-2.9-2-3.98-3.23-1.08-1.23-2.04-2.34-2.88-3.34-1.61-1.08-3.3-2.23-5.07-3.46-1.77-1.23-2.88-2.77-3.34-4.61,2.46-5.15,5.63-12.18,9.51-21.09,3.88-8.91,7.51-17.19,10.89-24.83,3.38-7.64,6.3-14.08,8.76-19.3,2.46-5.22,4.92-10.22,7.38-14.98,2.61-5.38,7.32-15.29,14.12-29.73,6.8-14.44,11.77-24.93,14.92-31.46,3.15-6.53,6.53-13.21,10.14-20.05,3.61-6.84,5.8-10.45,6.57-10.83.08-.15.29-.52.63-1.09s.75-1.09,1.21-1.56.96-.69,1.5-.69c1.07,0,2.11.73,3.11,2.19,1.15,1.54,2.3,2.3,3.46,2.3.61,0,1.61-.23,3-.69,1.38-.46,2.54-.69,3.46-.69Z"/>
      <path class="cls-5" d="m721.6,2292.45c-2.69-4.22-4.03-9.72-4.03-16.48,0-8.76,2.11-18.26,6.34-28.52,4.22-10.26,10.2-19.92,17.92-28.98,7.72-9.06,17.07-16.5,28.06-22.3,10.99-5.8,22.89-8.7,35.72-8.7,7.3.46,13.14,3.19,17.52,8.17,4.38,4.99,6.57,10.9,6.57,17.73,0,5.37-1.42,10.48-4.26,15.31-4.76,7.52-12.41,13.89-22.93,19.11-6.91,3.99-15.94,7.73-27.08,11.22-11.14,3.49-21.47,5.51-31,6.04-1.38,4.99-2.07,8.21-2.07,9.67,0,3.84,2.11,6.75,6.34,8.75,1.84.77,4.53,1.15,8.07,1.15,7.99,0,16.48-2.29,25.47-6.88,8.99-4.59,15.83-11.09,20.51-19.5.69.54,1.04,3,1.04,7.38.15.46,1.09,1.44,2.82,2.94,1.73,1.5,2.59,2.55,2.59,3.17-1.84,6.53-5.86,12.47-12.04,17.8-6.19,5.34-13.56,9.6-22.13,12.79-8.57,3.19-16.77,4.78-24.6,4.78-14.6,0-24.2-4.88-28.81-14.63Zm84.93-79.05c-1.54-2-4.46-3-8.76-3-2.84,0-6.15.62-9.91,1.84-7.99,3-14.87,6.8-20.63,11.41-5.76,4.61-11.06,10.72-15.9,18.32,2.54-.46,7.66-1.67,15.38-3.63,7.72-1.96,13.35-3.48,16.88-4.55,7.53-2.84,13.43-5.82,17.69-8.93,4.26-3.11,6.4-5.97,6.4-8.59,0-.77-.39-1.73-1.15-2.88Z"/>
      <path class="cls-5" d="m881.35,2207.75c4.46-4.15,11.25-9.05,20.36-14.69,9.11-5.65,16.09-9.31,20.94-11.01,1.54.61,2.63,1.4,3.29,2.36.65.96,1.15,2.09,1.5,3.39s.79,2.92,1.33,4.83c.31.69,1.04,1.69,2.19,2.99,1.15,1.3,1.98,2.36,2.48,3.16.5.81.75,1.59.75,2.36,0,.92-.15,1.61-.46,2.07-13.31,6.13-23.4,10.95-30.28,14.44-6.88,3.49-13.17,7.34-18.86,11.56-5.69,4.22-10.31,8.67-13.84,13.34-5.38,8.89-14.76,29.71-28.15,62.46-3-.31-5.4-1.34-7.21-3.1-1.81-1.76-3.02-3.22-3.63-4.37-.69-.77-2.06-1.46-4.1-2.07-2.04-.61-3.29-1.05-3.75-1.32-.46-.27-.69-.98-.69-2.13,1.08-3.91,3.08-10.33,6-19.26s6.84-19.38,11.77-31.34c3.85-9.2,8.71-20.09,14.59-32.66,5.88-12.57,8.94-18.86,9.17-18.86,1.08-.84,2.27-1.27,3.58-1.27,1.15,0,2.4.02,3.75.06,1.35.04,2.94.1,4.79.17.69-.15,2.25-1.02,4.67-2.59,2.42-1.57,4.48-2.36,6.17-2.36,1.31,0,2.58.35,3.81,1.04-2.54,5.07-5.92,12.68-10.15,22.82Z"/>
      <path class="cls-5" d="m1091.65,2128.93l.92,1.15c.46-.31,1.27-.69,2.42-1.15,1.15-.46,2.46-.69,3.92-.69,3.3.46,5.97,3.44,8.01,8.93,2.03,5.49,3.05,11.39,3.05,17.69,0,4.23-.52,7.8-1.56,10.72-1.04,2.92-2.55,4.72-4.55,5.42-2.15,0-4.46-.84-6.91-2.54-2.46-1.69-4.63-4.4-6.51-8.12-1.88-3.72-3.05-8.12-3.51-13.19-1.61,1.54-3.42,3.25-5.42,5.13-2,1.88-4.32,4.48-6.97,7.78-2.65,3.3-5.01,6.76-7.09,10.37-2.07,3.61-4.26,8.37-6.57,14.29l23.85-1.96,4.03,4.72,4.26,3.34-.46,6.34c-.23,0-14.02,3.07-41.37,9.22.23,0-8.95,18.63-27.54,55.89-2.23,4.61-4.88,10.1-7.95,16.48-3.07,6.38-5.82,12.04-8.24,17s-4.21,8.66-5.36,11.12c-1.92-.16-3.46-.73-4.61-1.73s-2.27-2.32-3.34-3.98c-1.08-1.65-1.88-2.71-2.42-3.17-.31-.31-2.25-1.17-5.82-2.59-3.57-1.42-5.47-2.71-5.7-3.86,2.23-4.53,4.44-9.05,6.63-13.54s4.4-9.01,6.63-13.54l-1.5,3c-.15.46-.25.73-.29.81-.04.08-.1.15-.17.23.38,0,4.28-7.09,11.7-21.26,7.41-14.17,13.58-25.99,18.5-35.44-1.69.16-4.8,1.21-9.33,3.17-4.53,1.96-8.11,2.94-10.72,2.94-2.3-3.61-3.46-6.41-3.46-8.41-.15-1.31-.85-2.25-2.07-2.82-1.23-.58-2.32-1.21-3.28-1.9-.96-.69-1.48-2.04-1.56-4.03,9.52-4.07,17.9-7.01,25.12-8.82,7.22-1.8,12.41-2.98,15.56-3.51,2.92-7.61,7.51-16.46,13.77-26.56,6.26-10.1,12.89-18.78,19.88-26.04,6.99-7.26,13.06-10.89,18.21-10.89,3.15,0,5.76,1.35,7.84,4.03Z"/>
      <path class="cls-5" d="m1138.52,2147.37c.46-.46,1.08-.69,1.84-.69,1.08,0,3.46.77,7.15,2.3,1-.08,2.57-.67,4.72-1.79,2.15-1.11,3.8-1.67,4.96-1.67,1.23,0,2.31.39,3.23,1.15-2.15,4-5.67,10.77-10.54,20.34-4.88,9.56-10.53,21.01-16.94,34.34-6.42,13.33-11.77,25.37-16.08,36.13-3,7.53-6.28,16.44-9.85,26.74-3.57,10.3-6.47,18.86-8.7,25.7-2.23,6.84-3.84,11.79-4.84,14.87-3.3-.15-7.01-1-11.12-2.54-4.11-1.54-7.16-3.03-9.16-4.49-.85-.77-2.09-1.38-3.75-1.84s-2.82-.84-3.51-1.15c-.69-.31-1.04-.88-1.04-1.73,0-.23.15-.81.46-1.73,2-5.38,3.67-9.78,5.01-13.2,1.34-3.42,2.73-6.76,4.15-10.03,1.42-3.26,4.01-8.62,7.78-16.08,3.76-7.45,7.95-15.75,12.56-24.89,18.97-37.95,33.53-64.53,43.67-79.75Z"/>
      <path class="cls-5" d="m1203.37,2230.69c-.23.23-.39.37-.46.4-.08.04-.16.06-.23.06,0-.15,1.71-2.34,5.13-6.57,3.42-4.22,6.97-8.6,10.66-13.14,3.69-4.53,6.84-8.41,9.45-11.64,2.61-3.23,4.57-5.61,5.88-7.15,1.61-1.07,4.3-1.61,8.07-1.61,4.84,0,7.57.46,8.18,1.38.84,1.08,1.73,1.94,2.65,2.59.92.65,1.98,1.27,3.17,1.84,1.19.58,2.02,1.08,2.48,1.5.46.42.69.98.69,1.67-3.84,5.15-10.62,14.14-20.34,26.97-9.72,12.83-18.21,23.99-25.47,33.48-7.26,9.49-12.66,16.23-16.19,20.22-1.84,2-7.74,9.26-17.69,21.78-9.95,12.52-19.42,24.49-28.41,35.9-8.99,11.41-15.6,19.8-19.82,25.18-2-.23-3.32-.9-3.98-2.02-.65-1.12-1.33-2.77-2.02-4.96s-1.42-3.63-2.19-4.32c-4.92-1.31-7.38-3.3-7.38-5.99,0-.85.23-1.61.69-2.3l35.95-53.12c-2.69-12.6-4.03-36.19-4.03-70.76,0-13.37.23-23.43.69-30.19.15-.23.44-.5.86-.81.42-.31.98-.46,1.67-.46,3.07,0,6.8,3.15,11.18,9.45.92.46,1.77.69,2.54.69.69,0,1.79-.27,3.28-.81,1.5-.54,2.63-.81,3.4-.81,1.77,0,3.34,1.11,4.72,3.34l-2.88,70.29c2.15-2.92,5.17-6.99,9.05-12.21,3.88-5.22,7.76-10.45,11.64-15.67,3.88-5.22,6.89-9.29,9.05-12.21Z"/>
      <path class="cls-5" d="m1272.75,2250.51c-2.38,5.76-4.21,10.26-5.48,13.48-1.27,3.23-2.88,7.39-4.85,12.5-1.96,5.11-4.04,10.24-6.23,15.38-2.19,5.15-4.13,9.6-5.83,13.37-1.08.31-1.81.46-2.19.46-2.08,0-4.36-.88-6.86-2.65-2.5-1.77-4.56-3.53-6.17-5.3-5.92-2.92-8.88-6.26-8.88-10.03,6.38-13.37,14.57-29.46,24.57-48.28,3.46-6.53,7.34-13.64,11.65-21.32,4.31-7.68,7.73-13.5,10.27-17.46,2.54-3.96,4.27-6.24,5.19-6.86.69-.46,1.5-.69,2.42-.69.85,0,2,.27,3.46.81,1.46.54,2.57.85,3.35.92.92,0,2.23-.33,3.92-.98,1.69-.65,3.08-.98,4.15-.98,1.23,0,2.23.58,3,1.73-1.23,2.54-3.42,7.16-6.58,13.89-3.15,6.72-6.63,14.33-10.44,22.82-3.81,8.49-6.63,14.88-8.48,19.19Zm18.03-72.48c-2.07-2.84-3.1-6.38-3.1-10.6,0-4.69,1.26-9.06,3.79-13.14,2.52-4.07,5.74-6.84,9.64-8.3l3.79-.46c6.42,1.08,9.64,4.61,9.64,10.6,0,3.23-.98,6.65-2.93,10.26-1.95,3.61-4.46,6.65-7.52,9.1-3.06,2.46-6,3.69-8.84,3.69-1.46,0-2.95-.38-4.47-1.15Z"/>
      <path class="cls-5" d="m1355.3,2303.63c-1.92,0-3.5-.75-4.72-2.25-1.23-1.5-2.5-2.48-3.8-2.94-1.31-.61-2.92-1-4.84-1.15-1.92-.15-3.28-.5-4.09-1.04-.81-.54-1.21-1.54-1.21-3,.23-4.69,1.8-10.58,4.72-17.69,2.92-7.11,7.43-16.79,13.54-29.04,6.11-12.25,10.33-20.86,12.68-25.81,2.34-4.96,3.9-9.43,4.67-13.42-4.53,1.15-9.03,3.37-13.48,6.67-4.46,3.3-8.8,7.18-13.02,11.67-4.23,4.48-7.66,8.38-10.31,11.67s-5.93,7.43-9.85,12.42c-1.54,3.83-4.69,10.71-9.45,20.64-4.76,9.92-10.99,21.48-18.67,34.66-2.3,0-3.94-.33-4.9-.98-.96-.65-1.77-1.69-2.42-3.1-.65-1.42-1.29-2.47-1.9-3.16-1.15-.84-2.65-1.51-4.49-2.01-1.84-.5-3.21-1.09-4.09-1.78-.88-.69-1.33-1.88-1.33-3.57.77-1.61,2.86-5.98,6.28-13.11,3.42-7.13,6.55-13.67,9.39-19.61,2.84-5.94,5.82-11.98,8.93-18.12s5.7-11.16,7.78-15.07c7.76-16.41,12.62-26.57,14.58-30.48,1.96-3.91,3.48-6.71,4.55-8.4.61-.84,1.23-1.27,1.84-1.27,1,0,2.4.75,4.21,2.25,1.8,1.5,3.01,2.25,3.63,2.25.84-.08,2.3-.48,4.38-1.21,2.07-.73,3.61-1.09,4.61-1.09,1.31,0,2.23.39,2.77,1.15-.69,2.84-1.52,5.15-2.48,6.92-.96,1.77-2.63,4.72-5.01,8.87,2.23-1.38,4.76-3.01,7.61-4.9,2.84-1.88,5.65-3.57,8.41-5.07,2.77-1.5,5.55-2.69,8.35-3.57,2.8-.88,5.51-1.33,8.12-1.33,4.45,0,8.8,1.5,13.02,4.5,4.84,3.76,7.26,9.14,7.26,16.13,0,10.53-5.8,26.31-17.4,47.36-4.69,8.53-8.3,15.5-10.83,20.92s-4.59,9.85-6.17,13.31c-1.58,3.46-3.86,7.72-6.86,12.79Z"/>
      <path class="cls-5" d="m1505.52,2189.31c1.31,0,3.25-.27,5.82-.81,2.58-.54,4.44-.81,5.59-.81,1.23,0,2.15.31,2.77.92-1,2.77-5.29,11.99-12.86,27.66-7.57,15.67-14.86,30.56-21.86,44.66-7,14.1-11.23,22.34-12.69,24.72-1.92,3.54-5.37,10.81-10.32,21.84s-8.65,19.05-11.07,24.08c-2.42,5.03-5.59,10.81-9.51,17.34-3.92,6.53-7.42,10.95-10.5,13.25-3.54,2.61-7.69,3.92-12.46,3.92-5.15,0-10.42-1.52-15.8-4.55-5.38-3.04-9.8-6.88-13.27-11.52-3.46-4.65-5.19-9.12-5.19-13.42,0-4.53,1.89-8.22,5.67-11.06,1.62-.46,3.2-.69,4.74-.69,4.47,0,8.27,1.94,11.39,5.82,3.12,3.88,5.95,9.16,8.5,15.84,6.61-8.45,12.76-18.9,18.45-31.34,2.54-5.46,4.94-10.33,7.21-14.63,2.27-4.3,4.98-9.64,8.13-16.02-5.31,6.22-11.28,11.47-17.9,15.73-6.62,4.26-12.82,6.4-18.59,6.4-2.77,0-5.41-.63-7.91-1.9-2.5-1.27-4.74-3.32-6.7-6.17-1.96-2.84-3.56-6.53-4.79-11.06,0-5.3,1.19-12.25,3.58-20.86,2.38-8.6,6.59-17.94,12.63-28,6.04-10.06,14.63-19.78,25.78-29.16,11.15-9.37,24.95-16.94,41.41-22.7,2.69,0,6.11.29,10.27.86s6.5,1.86,7.04,3.86c.15,0,.86-.77,2.13-2.3,1.27-1.54,2.29-2.8,3.06-3.8,1.61,0,3.08.62,4.38,1.84,1.31,1.23,2.27,1.92,2.88,2.07Zm-36.52,22.47c-5.92,2.3-12.96,7.18-21.15,14.64-8.18,7.45-15.27,15.63-21.26,24.54-5.99,8.91-8.99,16.48-8.99,22.7,0,2.69.54,4.88,1.61,6.57,3.3,0,8.35-2.75,15.15-8.24,6.8-5.49,14.13-12.46,22.01-20.92,7.87-8.45,14.31-16.31,19.3-23.57,4.99-7.26,7.49-12.66,7.49-16.19,0-1.08-.15-1.88-.46-2.42-.62-.61-1.58-.92-2.88-.92-1.08,0-2.25.21-3.51.63-1.27.42-2.77,1.04-4.49,1.84s-2.67,1.25-2.82,1.33Z"/>
      <path class="cls-5" d="m1579.46,2302.11c-11.91-6.07-17.86-16.59-17.86-31.57,0-7.22,1.5-14.94,4.49-23.16s7.2-16.26,12.62-24.14,11.81-15.11,19.19-21.72c7.38-6.6,15.48-12.06,24.32-16.36,4.69-2.38,9.49-3.57,14.4-3.57,5.22,0,9.99,1.42,14.29,4.26,4.3,2.84,7.82,6.55,10.54,11.12,2.73,4.57,4.36,9.04,4.9,13.42,0,8.6-1.94,18.51-5.82,29.73-3.88,11.22-9.09,21.94-15.61,32.15-6.53,10.22-14,18.57-22.41,25.07-8.41,6.49-16.92,9.74-25.53,9.74-6.15,0-11.98-1.66-17.52-4.98Zm58.54-94.82c-1.08-.61-2.3-.92-3.69-.92-5.07,0-10.97,3.3-17.69,9.9-6.72,6.6-12.16,12.89-16.31,18.87-4.23,6.37-7.72,13.19-10.49,20.48-2.77,7.29-4.15,13.5-4.15,18.64s1.42,8.13,4.26,9.43c6.45,0,12.52-2.28,18.21-6.85,5.68-4.56,11.71-11.64,18.09-21.23,2.3-3.6,4.55-8.05,6.74-13.35,2.19-5.29,3.94-10.43,5.24-15.42,1.31-4.99,1.96-9.2,1.96-12.66,0-3.68-.73-5.98-2.19-6.91Z"/>
      <path class="cls-5" d="m1718.23,2207.75c4.46-4.15,11.25-9.05,20.36-14.69,9.11-5.65,16.09-9.31,20.94-11.01,1.54.61,2.63,1.4,3.29,2.36.65.96,1.15,2.09,1.5,3.39s.79,2.92,1.33,4.83c.31.69,1.04,1.69,2.19,2.99,1.15,1.3,1.98,2.36,2.48,3.16.5.81.75,1.59.75,2.36,0,.92-.15,1.61-.46,2.07-13.31,6.13-23.4,10.95-30.28,14.44-6.88,3.49-13.17,7.34-18.86,11.56-5.69,4.22-10.31,8.67-13.84,13.34-5.38,8.89-14.76,29.71-28.15,62.46-3-.31-5.4-1.34-7.21-3.1-1.81-1.76-3.02-3.22-3.63-4.37-.69-.77-2.06-1.46-4.1-2.07-2.04-.61-3.29-1.05-3.75-1.32-.46-.27-.69-.98-.69-2.13,1.08-3.91,3.08-10.33,6-19.26s6.84-19.38,11.77-31.34c3.85-9.2,8.71-20.09,14.59-32.66,5.88-12.57,8.94-18.86,9.17-18.86,1.08-.84,2.27-1.27,3.58-1.27,1.15,0,2.4.02,3.75.06,1.35.04,2.94.1,4.79.17.69-.15,2.25-1.02,4.67-2.59,2.42-1.57,4.48-2.36,6.17-2.36,1.31,0,2.58.35,3.81,1.04-2.54,5.07-5.92,12.68-10.15,22.82Z"/>
      <path class="cls-5" d="m1946.39,2119.94c1.77-1,3.03-1.61,3.8-1.84.77-.23,1.67-.44,2.71-.63,1.04-.19,2.59-.52,4.67-.98,1.23-.31,2.3-.46,3.23-.46,2.15,0,4.03.27,5.65.81,1.61.54,2.65,1.27,3.11,2.19l-83.32,187.38c-1.23,0-2.48-.35-3.75-1.04-1.27-.69-2.5-1.58-3.69-2.66-1.19-1.08-2.25-1.97-3.17-2.67-4.38,0-6.91-.62-7.61-1.85.23-1.39.52-2.76.86-4.11s.81-2.76,1.38-4.22,1.13-2.91,1.67-4.34c.54-1.43.96-3.14,1.27-5.15-17.29,18.21-31.42,27.31-42.41,27.31-8.22,0-14.37-5.38-18.44-16.13-.92-2.54-1.38-5.76-1.38-9.68,0-9.06,2.5-19.65,7.49-31.75,4.99-12.1,12.29-23.95,21.9-35.55,9.6-11.6,21.16-21.09,34.69-28.46,13.52-7.38,28.5-11.06,44.94-11.06l26.39-55.08Zm-37.22,74.91c-12.6,2.15-24.41,8.21-35.44,18.18-11.02,9.98-19.92,21.12-26.68,33.43-6.76,12.31-10.14,22.19-10.14,29.63,0,2.99.54,5.1,1.61,6.33,3.69,0,7.95-1.88,12.79-5.64,4.84-3.76,9.08-7.75,12.73-11.97,3.65-4.22,8.07-9.63,13.25-16.23,5.19-6.6,8.7-10.86,10.54-12.77,2.92-5.29,6.89-12.62,11.93-21.98,5.03-9.36,8.16-15.69,9.39-18.99Z"/>
      <path class="cls-5" d="m1979.49,2207.75c4.46-4.15,11.25-9.05,20.36-14.69,9.11-5.65,16.09-9.31,20.94-11.01,1.54.61,2.63,1.4,3.29,2.36.65.96,1.15,2.09,1.5,3.39s.79,2.92,1.33,4.83c.31.69,1.04,1.69,2.19,2.99,1.15,1.3,1.98,2.36,2.48,3.16.5.81.75,1.59.75,2.36,0,.92-.15,1.61-.46,2.07-13.31,6.13-23.4,10.95-30.28,14.44-6.88,3.49-13.17,7.34-18.86,11.56-5.69,4.22-10.31,8.67-13.84,13.34-5.38,8.89-14.76,29.71-28.15,62.46-3-.31-5.4-1.34-7.21-3.1-1.81-1.76-3.02-3.22-3.63-4.37-.69-.77-2.06-1.46-4.1-2.07-2.04-.61-3.29-1.05-3.75-1.32-.46-.27-.69-.98-.69-2.13,1.08-3.91,3.08-10.33,6-19.26s6.84-19.38,11.77-31.34c3.85-9.2,8.71-20.09,14.59-32.66,5.88-12.57,8.94-18.86,9.17-18.86,1.08-.84,2.27-1.27,3.58-1.27,1.15,0,2.4.02,3.75.06,1.35.04,2.94.1,4.79.17.69-.15,2.25-1.02,4.67-2.59,2.42-1.57,4.48-2.36,6.17-2.36,1.31,0,2.58.35,3.81,1.04-2.54,5.07-5.92,12.68-10.15,22.82Z"/>
      <path class="cls-5" d="m2055.5,2250.51c-2.38,5.76-4.21,10.26-5.48,13.48-1.27,3.23-2.88,7.39-4.85,12.5-1.96,5.11-4.04,10.24-6.23,15.38-2.19,5.15-4.13,9.6-5.83,13.37-1.08.31-1.81.46-2.19.46-2.08,0-4.36-.88-6.86-2.65-2.5-1.77-4.56-3.53-6.17-5.3-5.92-2.92-8.88-6.26-8.88-10.03,6.38-13.37,14.57-29.46,24.57-48.28,3.46-6.53,7.34-13.64,11.65-21.32,4.31-7.68,7.73-13.5,10.27-17.46,2.54-3.96,4.27-6.24,5.19-6.86.69-.46,1.5-.69,2.42-.69.85,0,2,.27,3.46.81,1.46.54,2.57.85,3.35.92.92,0,2.23-.33,3.92-.98,1.69-.65,3.08-.98,4.15-.98,1.23,0,2.23.58,3,1.73-1.23,2.54-3.42,7.16-6.58,13.89-3.15,6.72-6.63,14.33-10.44,22.82-3.81,8.49-6.63,14.88-8.48,19.19Zm18.03-72.48c-2.07-2.84-3.1-6.38-3.1-10.6,0-4.69,1.26-9.06,3.79-13.14,2.52-4.07,5.74-6.84,9.64-8.3l3.79-.46c6.42,1.08,9.64,4.61,9.64,10.6,0,3.23-.98,6.65-2.93,10.26-1.95,3.61-4.46,6.65-7.52,9.1-3.06,2.46-6,3.69-8.84,3.69-1.46,0-2.95-.38-4.47-1.15Z"/>
      <path class="cls-5" d="m2080.43,2299.83c0-4.46.84-16.19,2.54-35.21,1.69-19.01,3.19-34.92,4.49-47.71,1.31-12.79,2.34-22.76,3.11-29.9,1.69-.77,3.26-1.15,4.73-1.15,1.23,0,2.42.33,3.57.98,1.15.65,2.34,1.33,3.57,2.02,1.08.54,2.71.86,4.9.98s3.88.58,5.07,1.38c1.19.81,2.02,2.48,2.48,5.01,0,3.15-.14,7.72-.4,13.71-.27,5.99-.75,11.26-1.44,15.79-1.08,6.99-2.06,13.14-2.94,18.44-.88,5.3-1.63,9.91-2.25,13.83.84-.84,4.47-4.86,10.89-12.04,6.41-7.18,13.71-15.19,21.9-24.03,8.18-8.83,15.79-16.73,22.82-23.68,7.03-6.95,11.93-11.08,14.69-12.39,1.15-.46,2.5-.69,4.03-.69h7.49c1.15,0,2.8-.4,4.96-1.21,2.15-.81,3.73-1.21,4.72-1.21,1.84,0,3.03,1.04,3.57,3.11l-104.52,119.39c-.62.31-1.08.46-1.38.46-.69,0-1.84-.54-3.46-1.61-1.61-1.08-2.84-1.65-3.69-1.73-3-.15-5.07-.35-6.22-.58s-2.23-.88-3.23-1.96Z"/>
      <path class="cls-5" d="m2212.16,2250.51c-2.38,5.76-4.21,10.26-5.48,13.48-1.27,3.23-2.88,7.39-4.85,12.5-1.96,5.11-4.04,10.24-6.23,15.38-2.19,5.15-4.13,9.6-5.83,13.37-1.08.31-1.81.46-2.19.46-2.08,0-4.36-.88-6.86-2.65-2.5-1.77-4.56-3.53-6.17-5.3-5.92-2.92-8.88-6.26-8.88-10.03,6.38-13.37,14.57-29.46,24.57-48.28,3.46-6.53,7.34-13.64,11.65-21.32,4.31-7.68,7.73-13.5,10.27-17.46,2.54-3.96,4.27-6.24,5.19-6.86.69-.46,1.5-.69,2.42-.69.85,0,2,.27,3.46.81,1.46.54,2.57.85,3.35.92.92,0,2.23-.33,3.92-.98,1.69-.65,3.08-.98,4.15-.98,1.23,0,2.23.58,3,1.73-1.23,2.54-3.42,7.16-6.58,13.89-3.15,6.72-6.63,14.33-10.44,22.82-3.81,8.49-6.63,14.88-8.48,19.19Zm18.03-72.48c-2.07-2.84-3.1-6.38-3.1-10.6,0-4.69,1.26-9.06,3.79-13.14,2.52-4.07,5.74-6.84,9.64-8.3l3.79-.46c6.42,1.08,9.64,4.61,9.64,10.6,0,3.23-.98,6.65-2.93,10.26-1.95,3.61-4.46,6.65-7.52,9.1-3.06,2.46-6,3.69-8.84,3.69-1.46,0-2.95-.38-4.47-1.15Z"/>
      <path class="cls-5" d="m2294.71,2303.63c-1.92,0-3.5-.75-4.72-2.25-1.23-1.5-2.5-2.48-3.8-2.94-1.31-.61-2.92-1-4.84-1.15-1.92-.15-3.28-.5-4.09-1.04-.81-.54-1.21-1.54-1.21-3,.23-4.69,1.8-10.58,4.72-17.69,2.92-7.11,7.43-16.79,13.54-29.04,6.11-12.25,10.33-20.86,12.68-25.81,2.34-4.96,3.9-9.43,4.67-13.42-4.53,1.15-9.03,3.37-13.48,6.67-4.46,3.3-8.8,7.18-13.02,11.67-4.23,4.48-7.66,8.38-10.31,11.67s-5.93,7.43-9.85,12.42c-1.54,3.83-4.69,10.71-9.45,20.64-4.76,9.92-10.99,21.48-18.67,34.66-2.3,0-3.94-.33-4.9-.98-.96-.65-1.77-1.69-2.42-3.1-.65-1.42-1.29-2.47-1.9-3.16-1.15-.84-2.65-1.51-4.49-2.01-1.84-.5-3.21-1.09-4.09-1.78-.88-.69-1.33-1.88-1.33-3.57.77-1.61,2.86-5.98,6.28-13.11,3.42-7.13,6.55-13.67,9.39-19.61,2.84-5.94,5.82-11.98,8.93-18.12s5.7-11.16,7.78-15.07c7.76-16.41,12.62-26.57,14.58-30.48,1.96-3.91,3.48-6.71,4.55-8.4.61-.84,1.23-1.27,1.84-1.27,1,0,2.4.75,4.21,2.25,1.8,1.5,3.01,2.25,3.63,2.25.84-.08,2.3-.48,4.38-1.21,2.07-.73,3.61-1.09,4.61-1.09,1.31,0,2.23.39,2.77,1.15-.69,2.84-1.52,5.15-2.48,6.92-.96,1.77-2.63,4.72-5.01,8.87,2.23-1.38,4.76-3.01,7.61-4.9,2.84-1.88,5.65-3.57,8.41-5.07,2.77-1.5,5.55-2.69,8.35-3.57,2.8-.88,5.51-1.33,8.12-1.33,4.45,0,8.8,1.5,13.02,4.5,4.84,3.76,7.26,9.14,7.26,16.13,0,10.53-5.8,26.31-17.4,47.36-4.69,8.53-8.3,15.5-10.83,20.92s-4.59,9.85-6.17,13.31c-1.58,3.46-3.86,7.72-6.86,12.79Z"/>
      <path class="cls-5" d="m2444.93,2189.31c1.31,0,3.25-.27,5.82-.81,2.58-.54,4.44-.81,5.59-.81,1.23,0,2.15.31,2.77.92-1,2.77-5.29,11.99-12.86,27.66-7.57,15.67-14.86,30.56-21.86,44.66-7,14.1-11.23,22.34-12.69,24.72-1.92,3.54-5.37,10.81-10.32,21.84s-8.65,19.05-11.07,24.08c-2.42,5.03-5.59,10.81-9.51,17.34-3.92,6.53-7.42,10.95-10.5,13.25-3.54,2.61-7.69,3.92-12.46,3.92-5.15,0-10.42-1.52-15.8-4.55-5.38-3.04-9.8-6.88-13.27-11.52-3.46-4.65-5.19-9.12-5.19-13.42,0-4.53,1.89-8.22,5.67-11.06,1.62-.46,3.2-.69,4.74-.69,4.47,0,8.27,1.94,11.39,5.82,3.12,3.88,5.95,9.16,8.5,15.84,6.61-8.45,12.76-18.9,18.45-31.34,2.54-5.46,4.94-10.33,7.21-14.63,2.27-4.3,4.98-9.64,8.13-16.02-5.31,6.22-11.28,11.47-17.9,15.73-6.62,4.26-12.82,6.4-18.59,6.4-2.77,0-5.41-.63-7.91-1.9-2.5-1.27-4.74-3.32-6.7-6.17-1.96-2.84-3.56-6.53-4.79-11.06,0-5.3,1.19-12.25,3.58-20.86,2.38-8.6,6.59-17.94,12.63-28,6.04-10.06,14.63-19.78,25.78-29.16,11.15-9.37,24.95-16.94,41.41-22.7,2.69,0,6.11.29,10.27.86s6.5,1.86,7.04,3.86c.15,0,.86-.77,2.13-2.3,1.27-1.54,2.29-2.8,3.06-3.8,1.61,0,3.08.62,4.38,1.84,1.31,1.23,2.27,1.92,2.88,2.07Zm-36.52,22.47c-5.92,2.3-12.96,7.18-21.15,14.64-8.18,7.45-15.27,15.63-21.26,24.54-5.99,8.91-8.99,16.48-8.99,22.7,0,2.69.54,4.88,1.61,6.57,3.3,0,8.35-2.75,15.15-8.24,6.8-5.49,14.13-12.46,22.01-20.92,7.87-8.45,14.31-16.31,19.3-23.57,4.99-7.26,7.49-12.66,7.49-16.19,0-1.08-.15-1.88-.46-2.42-.62-.61-1.58-.92-2.88-.92-1.08,0-2.25.21-3.51.63-1.27.42-2.77,1.04-4.49,1.84s-2.67,1.25-2.82,1.33Z"/>
      <path class="cls-5" d="m2449.52,2305.71c-1.92-1.15-3.46-2.94-4.61-5.36s-1.73-4.86-1.73-7.32c0-3.15.69-5.76,2.07-7.84,1.92-2.92,3.99-5.26,6.22-7.03,2.23-1.77,4.59-3.03,7.09-3.8,2.5-.77,5.24-1.15,8.24-1.15,3.99.16,7.2,1.13,9.62,2.94,2.42,1.81,4.05,3.32,4.9,4.55,1.77,3.07,2.65,6.61,2.65,10.6,0,6.84-2.36,13.71-7.09,20.63-4.72,6.91-10.74,12.71-18.03,17.4-7.3,4.68-14.33,7.03-21.09,7.03-2.15,0-4.3-.23-6.45-.69,0-1.61,1.04-3.38,3.11-5.3,2.07-1.92,4.82-4.19,8.24-6.8,3.42-2.61,6.09-4.94,8.01-6.97,1.92-2.04,2.88-3.94,2.88-5.7,0-2-1.35-3.73-4.03-5.19Z"/>
      <path class="cls-5" d="m2574.84,2216.63c4.38-10.2,10.22-21.88,17.52-35.04,7.3-13.16,14.27-24.82,20.92-34.99,6.64-10.17,10.66-15.25,12.04-15.25,1.84.31,3.34.46,4.5.46,1.3,0,3.19-.15,5.65-.46,2.46-.31,4.26-.46,5.42-.46,1.92,0,3.34.15,4.26.46l-79.74,173.66c-5.53-.54-9.43-1.67-11.7-3.39-2.27-1.73-5.36-5.24-9.28-10.53,4.46-11.82,8.24-21.73,11.35-29.75,3.11-8.02,5.45-13.79,7.03-17.32,1.57-3.53,3.38-7.59,5.42-12.2,2.03-4.6,4.24-9.67,6.63-15.19Z"/>
      <path class="cls-5" d="m2776.21,2189.08c.46-.69,1.38-1.69,2.77-3,1.38-1.3,2.27-2.34,2.65-3.11,4.46,0,8.14.16,11.06.46,2.15,0,3.69.31,4.61.92.92.62,1.5,1.12,1.73,1.5l-54.51,119.16c-.69.46-1.46.69-2.3.69-.62,0-1.48-.16-2.59-.46-1.11-.31-2.04-.65-2.77-1.04-.73-.38-1.63-.81-2.71-1.27-.85.16-2.4.69-4.67,1.61-2.27.92-3.86,1.38-4.78,1.38-1.38,0-2.08-.69-2.08-2.07,0-2.77,2.27-7.87,6.8-15.33-2.3,3-6.55,6.36-12.73,10.08-6.18,3.73-11.39,6.09-15.61,7.09-1.54.31-2.88.46-4.03.46-3,0-6.19-.63-9.57-1.9-3.38-1.27-6.28-3.05-8.7-5.36s-3.78-4.76-4.09-7.38c-.77-2.84-1.15-5.92-1.15-9.22,0-5.45,1.34-11.62,4.03-18.5,2.69-6.88,7.53-15.23,14.52-25.06,9.83-13.98,21.49-25.87,34.97-35.67,13.48-9.79,27.1-14.69,40.85-14.69,2.69,0,5.45.23,8.3.69Zm-9.91,17.98c-9.37,1.31-19.44,6.57-30.19,15.79-10.76,9.22-19.78,19.78-27.08,31.69-7.3,11.91-10.95,21.9-10.95,29.96,4.45-.15,8.78-1.36,12.96-3.63,4.19-2.26,8.16-5.32,11.93-9.16,3.76-3.84,7.07-7.74,9.91-11.7,2.84-3.96,6.41-9.24,10.72-15.85,12.68-19.36,20.24-31.73,22.7-37.11Z"/>
      <path class="cls-5" d="m2848.09,2147.37c.46-.46,1.08-.69,1.84-.69,1.08,0,3.46.77,7.14,2.3,1-.08,2.57-.67,4.73-1.79,2.15-1.11,3.8-1.67,4.96-1.67,1.23,0,2.3.39,3.23,1.15-2.15,4-5.67,10.77-10.54,20.34-4.88,9.56-10.53,21.01-16.94,34.34-6.42,13.33-11.77,25.37-16.08,36.13-3,7.53-6.28,16.44-9.85,26.74-3.57,10.3-6.47,18.86-8.7,25.7-2.23,6.84-3.84,11.79-4.84,14.87-3.3-.15-7.01-1-11.12-2.54-4.11-1.54-7.16-3.03-9.16-4.49-.85-.77-2.09-1.38-3.75-1.84s-2.82-.84-3.51-1.15c-.69-.31-1.04-.88-1.04-1.73,0-.23.15-.81.46-1.73,2-5.38,3.67-9.78,5.01-13.2,1.34-3.42,2.73-6.76,4.15-10.03,1.42-3.26,4.01-8.62,7.78-16.08,3.76-7.45,7.95-15.75,12.56-24.89,18.97-37.95,33.53-64.53,43.67-79.75Z"/>
      <path class="cls-5" d="m2909.36,2194.04c.69-.31,1.57-.46,2.65-.46,1.23,0,2.51.25,3.86.75,1.34.5,2.32.75,2.94.75,6.45-2.54,10.64-3.8,12.56-3.8,1.69,0,2.61.54,2.77,1.61l-11.52,75.02c.54-.54,3.21-4.13,8.01-10.77,4.8-6.64,11.79-15.96,20.97-27.95,9.18-11.99,16.82-21.55,22.93-28.69,6.11-7.14,10.5-11.33,13.19-12.56.61-.61,1.42-.92,2.42-.92.92,0,2.5.6,4.72,1.79,2.23,1.19,3.65,1.79,4.26,1.79.61-.08,1.65-.61,3.11-1.61,1.46-1,2.77-1.5,3.92-1.5,1.84,0,3.8.88,5.88,2.65l-90.35,114.9c-2.38,0-5.11-1.34-8.18-4.04-3.07-2.69-5.07-4.11-5.99-4.26-.85,0-1.79.02-2.82.06-1.04.04-2.21.1-3.51.17-3,0-4.96-.46-5.88-1.38-.38,0-.58-1.73-.58-5.19,0-1,1.25-7.47,3.75-19.42,2.5-11.95,5.51-24.91,9.05-38.89-3,4.3-5.88,8.35-8.64,12.16s-5.07,7.03-6.91,9.68-3.48,4.96-4.9,6.92c-1.42,1.96-2.79,3.94-4.09,5.93-1.31,1.92-5.61,7.53-12.91,16.82-7.3,9.3-13.37,16.98-18.21,23.05-2.3,0-4.19-.44-5.65-1.33-1.46-.88-2.81-1.96-4.03-3.23-1.23-1.27-2.11-1.94-2.65-2.02-1.23,0-2.25.02-3.05.06-.81.04-1.67.1-2.59.17-1.84,0-3.11-.61-3.8-1.84l17.06-105.33c1.54-1.08,3.11-1.61,4.72-1.61,1.3,0,3.34.54,6.11,1.61.08,0,1.36-.42,3.86-1.27,2.5-.84,4.51-1.27,6.05-1.27,1.38,0,2.42.31,3.11.92l-12.1,70.76c.31-.23,3.61-4.67,9.91-13.31,6.3-8.64,14.13-19.32,23.51-32.04,9.37-12.71,15.06-20.34,17.06-22.87Z"/>
      <path class="cls-5" d="m3076.08,2189.08c.46-.69,1.38-1.69,2.77-3,1.38-1.3,2.27-2.34,2.65-3.11,4.46,0,8.14.16,11.06.46,2.15,0,3.69.31,4.61.92.92.62,1.5,1.12,1.73,1.5l-54.51,119.16c-.69.46-1.46.69-2.3.69-.62,0-1.48-.16-2.59-.46-1.11-.31-2.04-.65-2.77-1.04-.73-.38-1.63-.81-2.71-1.27-.85.16-2.4.69-4.67,1.61-2.27.92-3.86,1.38-4.78,1.38-1.38,0-2.08-.69-2.08-2.07,0-2.77,2.27-7.87,6.8-15.33-2.3,3-6.55,6.36-12.73,10.08-6.18,3.73-11.39,6.09-15.61,7.09-1.54.31-2.88.46-4.03.46-3,0-6.19-.63-9.57-1.9-3.38-1.27-6.28-3.05-8.7-5.36s-3.78-4.76-4.09-7.38c-.77-2.84-1.15-5.92-1.15-9.22,0-5.45,1.34-11.62,4.03-18.5,2.69-6.88,7.53-15.23,14.52-25.06,9.83-13.98,21.49-25.87,34.97-35.67,13.48-9.79,27.1-14.69,40.85-14.69,2.69,0,5.45.23,8.3.69Zm-9.91,17.98c-9.37,1.31-19.44,6.57-30.19,15.79-10.76,9.22-19.78,19.78-27.08,31.69-7.3,11.91-10.95,21.9-10.95,29.96,4.45-.15,8.78-1.36,12.96-3.63,4.19-2.26,8.16-5.32,11.93-9.16,3.76-3.84,7.07-7.74,9.91-11.7,2.84-3.96,6.41-9.24,10.72-15.85,12.68-19.36,20.24-31.73,22.7-37.11Z"/>
      <path class="cls-5" d="m3149.1,2230.69c-.23.23-.38.37-.46.4-.08.04-.15.06-.23.06,0-.15,1.71-2.34,5.13-6.57,3.42-4.22,6.97-8.6,10.66-13.14,3.69-4.53,6.84-8.41,9.45-11.64,2.61-3.23,4.57-5.61,5.88-7.15,1.61-1.07,4.3-1.61,8.07-1.61,4.84,0,7.57.46,8.18,1.38.84,1.08,1.73,1.94,2.65,2.59.92.65,1.98,1.27,3.17,1.84,1.19.58,2.02,1.08,2.48,1.5.46.42.69.98.69,1.67-3.84,5.15-10.62,14.14-20.34,26.97-9.72,12.83-18.21,23.99-25.47,33.48-7.26,9.49-12.66,16.23-16.19,20.22-1.84,2-7.74,9.26-17.69,21.78-9.95,12.52-19.42,24.49-28.41,35.9-8.99,11.41-15.6,19.8-19.82,25.18-2-.23-3.32-.9-3.98-2.02-.65-1.12-1.33-2.77-2.02-4.96s-1.42-3.63-2.19-4.32c-4.92-1.31-7.38-3.3-7.38-5.99,0-.85.23-1.61.69-2.3l35.95-53.12c-2.69-12.6-4.03-36.19-4.03-70.76,0-13.37.23-23.43.69-30.19.15-.23.44-.5.86-.81.42-.31.98-.46,1.67-.46,3.07,0,6.8,3.15,11.18,9.45.92.46,1.77.69,2.54.69.69,0,1.79-.27,3.28-.81,1.5-.54,2.63-.81,3.4-.81,1.77,0,3.34,1.11,4.72,3.34l-2.88,70.29c2.15-2.92,5.17-6.99,9.05-12.21,3.88-5.22,7.76-10.45,11.64-15.67,3.88-5.22,6.89-9.29,9.05-12.21Z"/>
      <path class="cls-5" d="m3202.89,2222.48c0-8.55,4.32-16.06,12.96-22.53,8.64-6.47,21.53-11.4,38.66-14.79,3.07-.69,6.68-1.04,10.83-1.04,4.45,0,8.85.42,13.19,1.27,4.34.85,8.1,2.04,11.29,3.57,3.19,1.54,5.24,3.15,6.17,4.84,1.23,1.31,2.73,3.05,4.49,5.22,1.77,2.16,2.65,3.75,2.65,4.75,0,1.16-.17,3-.52,5.51-.35,2.51-.63,4.5-.86,5.97-4.07,4.08-7.59,7.29-10.54,9.64-2.96,2.35-6.42,4.27-10.37,5.77-3.96,1.5-8.24,2.25-12.85,2.25-3-2-4.49-5.62-4.49-10.85,0-2.92.38-4.88,1.15-5.89,2.54-2,5.45-3.56,8.76-4.67,3.3-1.12,6.22-2.25,8.76-3.4-6.15-1.54-12.06-2.31-17.75-2.31-7.07,0-13.39,1.15-18.96,3.46-5.57,2.31-9.93,5.08-13.08,8.31,0,4.31,1.67,7.92,5.01,10.85,3.34,2.92,8.93,6.73,16.77,11.42,7.84,4.69,13.67,8.92,17.52,12.69,3.84,3.77,5.76,8.43,5.76,13.96-1,5.92-4.26,11.49-9.79,16.72-5.53,5.23-12.25,9.8-20.17,13.72-5.07,2.61-11.33,4.61-18.78,6-7.45,1.38-14.4,2.08-20.86,2.08-4.23,0-7.88-.23-10.95-.69-7.22-1.31-12.91-3.96-17.06-7.96-4.15-4-6.22-8.92-6.22-14.76,0-2.77.46-5.69,1.38-8.77,1-3.15,2.94-6.19,5.82-9.11,2.88-2.92,6.28-5.36,10.2-7.32s7.61-2.94,11.06-2.94c6.84,0,11.33,3.5,13.48,10.5-4.92,1.92-8.35,3.46-10.31,4.62s-3.44,2.71-4.44,4.67c-1,1.96-1.5,4.83-1.5,8.6.61,1.92,3.11,2.88,7.49,2.88,7.07,0,15.34-1.85,24.83-5.54,9.49-3.69,15.38-7.62,17.69-11.77,0-4-1.75-7.24-5.24-9.7-3.5-2.46-9.14-5.7-16.94-9.71-7.8-4-13.7-7.87-17.69-11.61-4-3.73-6.19-8.38-6.57-13.92Z"/>
      <path class="cls-5" d="m239.95,2478.75c3.77-2.84,11.36-5.22,22.75-7.15,2.54-.46,4.89-.69,7.05-.69,7.16,0,12.42,2.02,15.76,6.05,3.35,4.03,5.03,9.58,5.03,16.65,0,5.23-.9,11-2.71,17.34-1.81,6.34-4.34,12.73-7.61,19.19-3.27,6.45-7.2,12.91-11.81,19.36-4.61,6.45-9.49,12.14-14.64,17.05-6.53,6.07-14.52,11.75-23.97,17.06-9.45,5.3-17.82,7.95-25.12,7.95-5.69,0-10.26-1.8-13.71-5.39l-29.04,52.76c-1.61-.23-2.94-.65-3.98-1.27-1.04-.62-2-1.48-2.88-2.59-.88-1.11-1.67-1.94-2.36-2.48-.77-.92-2.11-1.38-4.03-1.38-.61,0-1.57.08-2.88.23-1.31.15-2.23.23-2.77.23-.77,0-1.15-.73-1.15-2.19l77.81-158.34c.61,0,4.95-.69,13.01-2.07,2.07-.46,4.26-.69,6.56-.69,2.07,0,3.41.31,4.03.92-.08.92-.37,2.33-.86,4.21-.5,1.88-1.33,3.63-2.48,5.24Zm-9.85,30.45c-11.35,20.39-20.7,38.28-28.07,53.67,1.92,1.54,4.29,2.31,7.13,2.31,3.91,0,8.32-1.36,13.23-4.1,4.91-2.73,9.8-6.42,14.67-11.08,4.87-4.66,8.92-9.45,12.14-14.37,9.28-14.7,13.92-25.7,13.92-33.01,0-4.92-2.61-7.39-7.82-7.39-4.68,0-9.26,1.35-13.74,4.04-4.49,2.69-8.3,6-11.44,9.93Z"/>
      <path class="cls-5" d="m334.02,2490.96c4.46-4.15,11.25-9.05,20.36-14.69,9.11-5.65,16.09-9.31,20.94-11.01,1.54.61,2.63,1.4,3.29,2.36.65.96,1.15,2.09,1.5,3.39s.79,2.92,1.33,4.83c.31.69,1.04,1.69,2.19,2.99,1.15,1.3,1.98,2.36,2.48,3.16.5.81.75,1.59.75,2.36,0,.92-.15,1.61-.46,2.07-13.31,6.13-23.4,10.95-30.28,14.44-6.88,3.49-13.17,7.34-18.86,11.56-5.69,4.22-10.31,8.67-13.84,13.34-5.38,8.89-14.76,29.71-28.15,62.46-3-.31-5.4-1.34-7.21-3.1-1.81-1.76-3.02-3.22-3.63-4.37-.69-.77-2.06-1.46-4.1-2.07-2.04-.61-3.29-1.05-3.75-1.32-.46-.27-.69-.98-.69-2.13,1.08-3.91,3.08-10.33,6-19.26s6.84-19.38,11.77-31.34c3.85-9.2,8.71-20.09,14.59-32.66,5.88-12.57,8.94-18.86,9.17-18.86,1.08-.84,2.27-1.27,3.58-1.27,1.15,0,2.4.02,3.75.06,1.35.04,2.94.1,4.79.17.69-.15,2.25-1.02,4.67-2.59,2.42-1.57,4.48-2.36,6.17-2.36,1.31,0,2.58.35,3.81,1.04-2.54,5.07-5.92,12.68-10.15,22.82Z"/>
      <path class="cls-5" d="m369.42,2575.66c-2.69-4.22-4.03-9.72-4.03-16.48,0-8.76,2.11-18.26,6.34-28.52,4.22-10.26,10.2-19.92,17.92-28.98,7.72-9.06,17.07-16.5,28.06-22.3,10.99-5.8,22.89-8.7,35.72-8.7,7.3.46,13.14,3.19,17.52,8.17,4.38,4.99,6.57,10.9,6.57,17.73,0,5.37-1.42,10.48-4.26,15.31-4.76,7.52-12.41,13.89-22.93,19.11-6.91,3.99-15.94,7.73-27.08,11.22-11.14,3.49-21.47,5.51-31,6.04-1.38,4.99-2.07,8.21-2.07,9.67,0,3.84,2.11,6.75,6.34,8.75,1.84.77,4.53,1.15,8.07,1.15,7.99,0,16.48-2.29,25.47-6.88,8.99-4.59,15.83-11.09,20.51-19.5.69.54,1.04,3,1.04,7.38.15.46,1.09,1.44,2.82,2.94,1.73,1.5,2.59,2.55,2.59,3.17-1.84,6.53-5.86,12.47-12.04,17.8-6.19,5.34-13.56,9.6-22.13,12.79-8.57,3.19-16.77,4.78-24.6,4.78-14.6,0-24.2-4.88-28.81-14.63Zm84.93-79.05c-1.54-2-4.46-3-8.76-3-2.84,0-6.15.62-9.91,1.84-7.99,3-14.87,6.8-20.63,11.41-5.76,4.61-11.06,10.72-15.9,18.32,2.54-.46,7.66-1.67,15.38-3.63,7.72-1.96,13.35-3.48,16.88-4.55,7.53-2.84,13.43-5.82,17.69-8.93,4.26-3.11,6.4-5.97,6.4-8.59,0-.77-.39-1.73-1.15-2.88Z"/>
      <path class="cls-5" d="m587.99,2412.14l.92,1.15c.46-.31,1.27-.69,2.42-1.15,1.15-.46,2.46-.69,3.92-.69,3.3.46,5.97,3.44,8.01,8.93,2.03,5.49,3.05,11.39,3.05,17.69,0,4.23-.52,7.8-1.56,10.72-1.04,2.92-2.55,4.72-4.55,5.42-2.15,0-4.46-.84-6.91-2.54-2.46-1.69-4.63-4.4-6.51-8.12-1.88-3.72-3.05-8.12-3.51-13.19-1.61,1.54-3.42,3.25-5.42,5.13-2,1.88-4.32,4.48-6.97,7.78-2.65,3.3-5.01,6.76-7.09,10.37-2.07,3.61-4.26,8.37-6.57,14.29l23.85-1.96,4.03,4.72,4.26,3.34-.46,6.34c-.23,0-14.02,3.07-41.37,9.22.23,0-8.95,18.63-27.54,55.89-2.23,4.61-4.88,10.1-7.95,16.48-3.07,6.38-5.82,12.04-8.24,17s-4.21,8.66-5.36,11.12c-1.92-.16-3.46-.73-4.61-1.73s-2.27-2.32-3.34-3.98c-1.08-1.65-1.88-2.71-2.42-3.17-.31-.31-2.25-1.17-5.82-2.59-3.57-1.42-5.47-2.71-5.7-3.86,2.23-4.53,4.44-9.05,6.63-13.54s4.4-9.01,6.63-13.54l-1.5,3c-.15.46-.25.73-.29.81-.04.08-.1.15-.17.23.38,0,4.28-7.09,11.7-21.26,7.41-14.17,13.58-25.99,18.5-35.44-1.69.16-4.8,1.21-9.33,3.17-4.53,1.96-8.11,2.94-10.72,2.94-2.3-3.61-3.46-6.41-3.46-8.41-.15-1.31-.85-2.25-2.07-2.82-1.23-.58-2.32-1.21-3.28-1.9-.96-.69-1.48-2.04-1.56-4.03,9.52-4.07,17.9-7.01,25.12-8.82,7.22-1.8,12.41-2.98,15.56-3.51,2.92-7.61,7.51-16.46,13.77-26.56,6.26-10.1,12.89-18.78,19.88-26.04,6.99-7.26,13.06-10.89,18.21-10.89,3.15,0,5.76,1.35,7.84,4.03Z"/>
      <path class="cls-5" d="m569.98,2575.66c-2.69-4.22-4.03-9.72-4.03-16.48,0-8.76,2.11-18.26,6.34-28.52,4.22-10.26,10.2-19.92,17.92-28.98,7.72-9.06,17.07-16.5,28.06-22.3,10.99-5.8,22.89-8.7,35.72-8.7,7.3.46,13.14,3.19,17.52,8.17,4.38,4.99,6.57,10.9,6.57,17.73,0,5.37-1.42,10.48-4.26,15.31-4.76,7.52-12.41,13.89-22.93,19.11-6.91,3.99-15.94,7.73-27.08,11.22-11.14,3.49-21.47,5.51-31,6.04-1.38,4.99-2.07,8.21-2.07,9.67,0,3.84,2.11,6.75,6.34,8.75,1.84.77,4.53,1.15,8.07,1.15,7.99,0,16.48-2.29,25.47-6.88,8.99-4.59,15.83-11.09,20.51-19.5.69.54,1.04,3,1.04,7.38.15.46,1.09,1.44,2.82,2.94,1.73,1.5,2.59,2.55,2.59,3.17-1.84,6.53-5.86,12.47-12.04,17.8-6.19,5.34-13.56,9.6-22.13,12.79-8.57,3.19-16.77,4.78-24.6,4.78-14.6,0-24.2-4.88-28.81-14.63Zm84.93-79.05c-1.54-2-4.46-3-8.76-3-2.84,0-6.15.62-9.91,1.84-7.99,3-14.87,6.8-20.63,11.41-5.76,4.61-11.06,10.72-15.9,18.32,2.54-.46,7.66-1.67,15.38-3.63,7.72-1.96,13.35-3.48,16.88-4.55,7.53-2.84,13.43-5.82,17.69-8.93,4.26-3.11,6.4-5.97,6.4-8.59,0-.77-.39-1.73-1.15-2.88Z"/>
      <path class="cls-5" d="m729.73,2490.96c4.46-4.15,11.25-9.05,20.36-14.69,9.11-5.65,16.09-9.31,20.94-11.01,1.54.61,2.63,1.4,3.29,2.36.65.96,1.15,2.09,1.5,3.39s.79,2.92,1.33,4.83c.31.69,1.04,1.69,2.19,2.99,1.15,1.3,1.98,2.36,2.48,3.16.5.81.75,1.59.75,2.36,0,.92-.15,1.61-.46,2.07-13.31,6.13-23.4,10.95-30.28,14.44-6.88,3.49-13.17,7.34-18.86,11.56-5.69,4.22-10.31,8.67-13.84,13.34-5.38,8.89-14.76,29.71-28.15,62.46-3-.31-5.4-1.34-7.21-3.1-1.81-1.76-3.02-3.22-3.63-4.37-.69-.77-2.06-1.46-4.1-2.07-2.04-.61-3.29-1.05-3.75-1.32-.46-.27-.69-.98-.69-2.13,1.08-3.91,3.08-10.33,6-19.26s6.84-19.38,11.77-31.34c3.85-9.2,8.71-20.09,14.59-32.66,5.88-12.57,8.94-18.86,9.17-18.86,1.08-.84,2.27-1.27,3.58-1.27,1.15,0,2.4.02,3.75.06,1.35.04,2.94.1,4.79.17.69-.15,2.25-1.02,4.67-2.59,2.42-1.57,4.48-2.36,6.17-2.36,1.31,0,2.58.35,3.81,1.04-2.54,5.07-5.92,12.68-10.15,22.82Z"/>
      <path class="cls-5" d="m924.7,2472.29c.46-.69,1.38-1.69,2.77-3,1.38-1.3,2.27-2.34,2.65-3.11,4.45,0,8.14.16,11.06.46,2.15,0,3.69.31,4.61.92.92.62,1.5,1.12,1.73,1.5l-54.51,119.16c-.69.46-1.46.69-2.3.69-.62,0-1.48-.16-2.59-.46-1.11-.31-2.04-.65-2.77-1.04-.73-.38-1.63-.81-2.71-1.27-.85.16-2.4.69-4.67,1.61-2.27.92-3.86,1.38-4.78,1.38-1.38,0-2.07-.69-2.07-2.07,0-2.77,2.27-7.87,6.8-15.33-2.3,3-6.55,6.36-12.73,10.08-6.19,3.73-11.39,6.09-15.61,7.09-1.54.31-2.88.46-4.03.46-3,0-6.19-.63-9.56-1.9-3.38-1.27-6.28-3.05-8.7-5.36s-3.78-4.76-4.09-7.38c-.77-2.84-1.15-5.92-1.15-9.22,0-5.45,1.35-11.62,4.03-18.5,2.69-6.88,7.53-15.23,14.52-25.06,9.83-13.98,21.49-25.87,34.97-35.67s27.1-14.69,40.85-14.69c2.69,0,5.45.23,8.3.69Zm-9.91,17.98c-9.37,1.31-19.44,6.57-30.19,15.79-10.76,9.22-19.78,19.78-27.08,31.69-7.3,11.91-10.95,21.9-10.95,29.96,4.46-.15,8.78-1.36,12.96-3.63,4.19-2.26,8.16-5.32,11.93-9.16,3.76-3.84,7.07-7.74,9.91-11.7,2.84-3.96,6.41-9.24,10.72-15.85,12.68-19.36,20.24-31.73,22.7-37.11Z"/>
      <path class="cls-5" d="m1017.86,2431.04c12.14-5.84,21.59-9.76,28.35-11.75,6.76-2,16.9-4.38,30.42-7.14,3.99-.61,7.38-.92,10.14-.92,5.07,0,10.56.6,16.48,1.79,5.92,1.19,11.37,2.9,16.36,5.12,4.99,2.23,9.33,5.01,13.02,8.35,3.69,3.34,6.07,7.04,7.14,11.11,1.46,5.84,2.19,11.06,2.19,15.66,0,7.14-1.5,13.07-4.5,17.79-3,4.72-6.99,8.58-11.95,11.57-4.97,2.99-10.95,5.76-17.96,8.29-7.01,2.53-13.82,4.99-20.44,7.37,9.18,6.84,16.16,13.22,20.94,19.14,4.78,5.92,7.17,12.38,7.17,19.37,0,5.54-1.58,11.26-4.73,17.18-4.53,8.61-12,15.88-22.41,21.8-10.41,5.92-21.95,8.88-34.63,8.88-11.6,0-22.78-2.43-33.53-7.3-1.23-.54-1.92-1.82-2.07-3.82-.15-2.01-.58-3.2-1.27-3.59-.54,1.08-1.86,3.16-3.98,6.25-2.11,3.09-3.73,5.5-4.84,7.23-1.11,1.74-1.94,3.49-2.48,5.26-2-.31-3.32-.96-3.98-1.96-.65-1-1.31-2.16-1.96-3.47-.65-1.31-1.9-2.35-3.75-3.12-.92-.77-2.06-1.87-3.4-3.3-1.35-1.43-2.02-2.37-2.02-2.84,2.15-9.6,5.97-21.67,11.47-36.23,5.49-14.55,11.5-29.16,18.03-43.83,6.53-14.67,11.62-25.78,15.27-33.35,3.65-7.56,6.36-13.15,8.12-16.76-2.61.46-4.92.98-6.91,1.56-2,.58-5.13,1.67-9.39,3.28-4.26,1.61-7.24,2.73-8.93,3.34-.15-.84-.33-1.67-.52-2.48-.19-.81-.29-1.56-.29-2.25,0-1.46.27-3.21.81-5.24.54-2.03.82-3.36.86-3.98.04-.61-.1-1.69-.4-3.23-.31-1.54-.46-2.8-.46-3.8Zm24.51,79.91c-4.29,8.75-7.84,16.25-10.64,22.51-2.8,6.26-5.77,13.37-8.91,21.35,3.23-3.3,6.74-6.01,10.54-8.12,3.8-2.11,7.2-3.17,10.2-3.17,2.15,0,3.88.39,5.19,1.17-.15,1-.71,1.9-1.67,2.71-.96.81-2.54,1.88-4.73,3.22-2.19,1.34-3.51,2.29-3.98,2.82-1.31,1.61-1.96,2.88-1.96,3.8,0,1.46,1.34,2.96,4.02,4.49,8.97,0,16.92-1.25,23.86-3.74,6.94-2.49,12.36-6.45,16.27-11.86,3.91-5.41,5.86-12.26,5.86-20.55-3.07-3.91-6.17-6.85-9.32-8.81-3.14-1.96-7.5-3.42-13.06-4.38-5.56-.96-12.79-1.44-21.68-1.44Zm42.67-77.83c-2.23.46-4.61,1.27-7.15,2.42-2.54,1.15-4.23,1.84-5.07,2.07l-20.97,47.2c13.06-1.3,24.66-3.89,34.8-7.77,10.14-3.88,18-8.71,23.57-14.51,5.57-5.79,8.35-11.95,8.35-18.48-1.15-2.22-3.27-4.22-6.34-5.98-3.07-1.76-6.49-3.11-10.26-4.03-3.77-.92-7.45-1.38-11.06-1.38-1.61,0-3.57.16-5.88.46Z"/>
      <path class="cls-5" d="m1178.77,2490.96c4.46-4.15,11.25-9.05,20.36-14.69,9.11-5.65,16.09-9.31,20.94-11.01,1.54.61,2.63,1.4,3.29,2.36.65.96,1.15,2.09,1.5,3.39s.79,2.92,1.33,4.83c.31.69,1.04,1.69,2.19,2.99,1.15,1.3,1.98,2.36,2.48,3.16.5.81.75,1.59.75,2.36,0,.92-.15,1.61-.46,2.07-13.31,6.13-23.4,10.95-30.28,14.44-6.88,3.49-13.17,7.34-18.86,11.56-5.69,4.22-10.31,8.67-13.84,13.34-5.38,8.89-14.76,29.71-28.15,62.46-3-.31-5.4-1.34-7.21-3.1-1.81-1.76-3.02-3.22-3.63-4.37-.69-.77-2.06-1.46-4.1-2.07-2.04-.61-3.29-1.05-3.75-1.32-.46-.27-.69-.98-.69-2.13,1.08-3.91,3.08-10.33,6-19.26s6.84-19.38,11.77-31.34c3.85-9.2,8.71-20.09,14.59-32.66,5.88-12.57,8.94-18.86,9.17-18.86,1.08-.84,2.27-1.27,3.58-1.27,1.15,0,2.4.02,3.75.06,1.35.04,2.94.1,4.79.17.69-.15,2.25-1.02,4.67-2.59,2.42-1.57,4.48-2.36,6.17-2.36,1.31,0,2.58.35,3.81,1.04-2.54,5.07-5.92,12.68-10.15,22.82Z"/>
      <path class="cls-5" d="m1254.77,2533.71c-2.38,5.76-4.21,10.26-5.48,13.48-1.27,3.23-2.88,7.39-4.85,12.5-1.96,5.11-4.04,10.24-6.23,15.38-2.19,5.15-4.13,9.6-5.83,13.37-1.08.31-1.81.46-2.19.46-2.08,0-4.36-.88-6.86-2.65-2.5-1.77-4.56-3.53-6.17-5.3-5.92-2.92-8.88-6.26-8.88-10.03,6.38-13.37,14.57-29.46,24.57-48.28,3.46-6.53,7.34-13.64,11.65-21.32,4.31-7.68,7.73-13.5,10.27-17.46,2.54-3.96,4.27-6.24,5.19-6.86.69-.46,1.5-.69,2.42-.69.85,0,2,.27,3.46.81,1.46.54,2.57.85,3.35.92.92,0,2.23-.33,3.92-.98,1.69-.65,3.08-.98,4.15-.98,1.23,0,2.23.58,3,1.73-1.23,2.54-3.42,7.16-6.58,13.89-3.15,6.72-6.63,14.33-10.44,22.82-3.81,8.49-6.63,14.88-8.48,19.19Zm18.03-72.48c-2.07-2.84-3.1-6.38-3.1-10.6,0-4.69,1.26-9.06,3.79-13.14,2.52-4.07,5.74-6.84,9.64-8.3l3.79-.46c6.42,1.08,9.64,4.61,9.64,10.6,0,3.23-.98,6.65-2.93,10.26-1.95,3.61-4.46,6.65-7.52,9.1-3.06,2.46-6,3.69-8.84,3.69-1.46,0-2.95-.38-4.47-1.15Z"/>
      <path class="cls-5" d="m1291.11,2505.69c0-8.55,4.32-16.06,12.96-22.53,8.64-6.47,21.53-11.4,38.66-14.79,3.07-.69,6.68-1.04,10.83-1.04,4.45,0,8.85.42,13.19,1.27,4.34.85,8.1,2.04,11.29,3.57,3.19,1.54,5.24,3.15,6.17,4.84,1.23,1.31,2.73,3.05,4.49,5.22,1.77,2.16,2.65,3.75,2.65,4.75,0,1.16-.17,3-.52,5.51-.35,2.51-.63,4.5-.86,5.97-4.07,4.08-7.59,7.29-10.54,9.64-2.96,2.35-6.42,4.27-10.37,5.77-3.96,1.5-8.24,2.25-12.85,2.25-3-2-4.49-5.62-4.49-10.85,0-2.92.38-4.88,1.15-5.89,2.54-2,5.45-3.56,8.76-4.67,3.3-1.12,6.22-2.25,8.76-3.4-6.15-1.54-12.06-2.31-17.75-2.31-7.07,0-13.39,1.15-18.96,3.46-5.57,2.31-9.93,5.08-13.08,8.31,0,4.31,1.67,7.92,5.01,10.85,3.34,2.92,8.93,6.73,16.77,11.42,7.84,4.69,13.67,8.92,17.52,12.69,3.84,3.77,5.76,8.43,5.76,13.96-1,5.92-4.26,11.49-9.8,16.72-5.53,5.23-12.25,9.8-20.17,13.72-5.07,2.61-11.33,4.61-18.78,6-7.45,1.38-14.4,2.08-20.86,2.08-4.23,0-7.88-.23-10.95-.69-7.22-1.31-12.91-3.96-17.06-7.96-4.15-4-6.22-8.92-6.22-14.76,0-2.77.46-5.69,1.38-8.77,1-3.15,2.94-6.19,5.82-9.11,2.88-2.92,6.28-5.36,10.2-7.32,3.92-1.96,7.61-2.94,11.06-2.94,6.84,0,11.33,3.5,13.48,10.5-4.92,1.92-8.35,3.46-10.31,4.62-1.96,1.15-3.44,2.71-4.44,4.67-1,1.96-1.5,4.83-1.5,8.6.61,1.92,3.11,2.88,7.49,2.88,7.07,0,15.34-1.85,24.83-5.54,9.49-3.69,15.38-7.62,17.69-11.77,0-4-1.75-7.24-5.24-9.7-3.5-2.46-9.14-5.7-16.94-9.71-7.8-4-13.7-7.87-17.69-11.61-4-3.73-6.19-8.38-6.57-13.92Z"/>
      <path class="cls-5" d="m1477.07,2460.08c-.15,0,4.07-.21,12.68-.63,8.6-.42,15.33-.75,20.17-.98-.08.77-.17,1.67-.29,2.71s-.54,2.27-1.27,3.69c-.73,1.42-1.71,2.59-2.94,3.51-.77.77-1.15,1.69-1.15,2.77.08.62.13,1.17.17,1.67.04.5.06,1.13.06,1.9,0,1.23-.42,2.34-1.27,3.34-8.14.31-15.6.86-22.36,1.67-6.76.81-11.49,1.48-14.17,2.02-1.15,2.23-3.28,6.38-6.4,12.45-3.11,6.07-7.22,14.1-12.33,24.08-5.11,9.99-10.56,20.86-16.36,32.61-5.8,11.75-12.5,25.54-20.11,41.37-.92.31-1.58.46-1.96.46-1.61,0-3.02-.71-4.21-2.13-1.19-1.42-2.32-3.21-3.4-5.36-1.08-2.15-1.77-3.42-2.07-3.8-.62-1-2.5-1.5-5.65-1.5s-4.96-.84-5.42-2.54c3.61-8.3,7.05-15.71,10.31-22.24,3.26-6.53,6.95-13.52,11.06-20.97,4.11-7.45,8.39-15.06,12.85-22.82,4.45-7.76,9.87-17.55,16.25-29.39-.85,0-10.45.88-28.81,2.65-2.15,0-3.23-.38-3.23-1.15,0-.38.59-1.59,1.79-3.63,1.19-2.04,1.79-3.75,1.79-5.13-.23-.46-.77-1.48-1.61-3.05-.85-1.57-1.27-2.67-1.27-3.28,0-1.3.61-2.65,1.84-4.03,7.53-1.46,14.81-2.38,21.84-2.77,7.03-.38,13.62-1.04,19.76-1.96.69-1.15,1.54-2.65,2.54-4.49,1-1.84,2.82-5.07,5.47-9.68,2.65-4.61,4.47-7.76,5.47-9.45,2.15-3.38,4.53-7.39,7.15-12.04,2.61-4.65,4.53-8.12,5.76-10.43,1.84-.92,3.99-1.57,6.45-1.96,2.46-.38,3.99-.65,4.61-.81,2.3,0,4.59.37,6.86,1.1,2.27.73,3.86,1.79,4.78,3.17-1.61,2.92-3.84,7.11-6.68,12.56-2.84,5.46-5.74,11.1-8.7,16.94-2.96,5.84-5.63,11.02-8.01,15.56Z"/>
      <path class="cls-5" d="m1481.54,2585.32c-11.91-6.07-17.86-16.59-17.86-31.57,0-7.22,1.5-14.94,4.49-23.16s7.2-16.26,12.62-24.14,11.81-15.11,19.19-21.72c7.38-6.6,15.48-12.06,24.32-16.36,4.69-2.38,9.49-3.57,14.4-3.57,5.22,0,9.99,1.42,14.29,4.26,4.3,2.84,7.82,6.55,10.54,11.12,2.73,4.57,4.36,9.04,4.9,13.42,0,8.6-1.94,18.51-5.82,29.73-3.88,11.22-9.09,21.94-15.61,32.15-6.53,10.22-14,18.57-22.41,25.07-8.41,6.49-16.92,9.74-25.53,9.74-6.15,0-11.98-1.66-17.52-4.98Zm58.54-94.82c-1.08-.61-2.3-.92-3.69-.92-5.07,0-10.97,3.3-17.69,9.9-6.72,6.6-12.16,12.89-16.31,18.87-4.23,6.37-7.72,13.19-10.49,20.48-2.77,7.29-4.15,13.5-4.15,18.64s1.42,8.13,4.26,9.43c6.45,0,12.52-2.28,18.21-6.85,5.68-4.56,11.71-11.64,18.09-21.23,2.3-3.6,4.55-8.05,6.74-13.35,2.19-5.29,3.94-10.43,5.24-15.42,1.31-4.99,1.96-9.2,1.96-12.66,0-3.68-.73-5.98-2.19-6.91Z"/>
      <path class="cls-5" d="m1631.66,2430.58c.46-.46,1.08-.69,1.84-.69,1.08,0,3.46.77,7.15,2.3,1-.08,2.57-.67,4.72-1.79,2.15-1.11,3.8-1.67,4.96-1.67,1.23,0,2.31.39,3.23,1.15-2.15,4-5.67,10.77-10.54,20.34-4.88,9.56-10.53,21.01-16.94,34.34-6.42,13.33-11.77,25.37-16.08,36.13-3,7.53-6.28,16.44-9.85,26.74-3.57,10.3-6.47,18.86-8.7,25.7-2.23,6.84-3.84,11.79-4.84,14.87-3.3-.15-7.01-1-11.12-2.54-4.11-1.54-7.16-3.03-9.16-4.49-.85-.77-2.09-1.38-3.75-1.84s-2.82-.84-3.51-1.15c-.69-.31-1.04-.88-1.04-1.73,0-.23.15-.81.46-1.73,2-5.38,3.67-9.78,5.01-13.2,1.34-3.42,2.73-6.76,4.15-10.03,1.42-3.26,4.01-8.62,7.78-16.08,3.76-7.45,7.95-15.75,12.56-24.89,18.97-37.95,33.53-64.53,43.67-79.75Z"/>
      <path class="cls-5" d="m1657.06,2586.38c-1.84-.84-3.4-2.69-4.67-5.53-1.27-2.84-1.9-6.03-1.9-9.57,0-4.92,1.21-9.35,3.63-13.31,2.42-3.96,6.09-6.55,11.01-7.78,1.54-.31,2.73-.46,3.57-.46,6.84,0,10.75,5.53,11.75,16.59-.62,5.84-2.57,10.83-5.88,14.98-3.3,4.15-7.22,6.22-11.75,6.22-1.69,0-3.61-.38-5.76-1.15Zm13.25-51.05c0-9.14,1.63-21.8,4.9-37.97,3.26-16.17,7.66-31.71,13.19-46.61,5.53-14.9,11.37-25.81,17.52-32.73,2.46,0,4.38.25,5.76.75,1.38.5,2.8,1.23,4.26,2.19,1.46.96,2.61,1.56,3.46,1.79,1.38,0,2.96-.08,4.73-.23,1.77-.15,2.96-.23,3.57-.23,2.38,0,4.34,1.04,5.88,3.11l-52.89,113.28c-1.38-.15-3.04-1.19-4.96-3.11-3.3,0-5.11-.08-5.42-.23Z"/>
    </g>
  </g>
</svg>