<?xml version="1.0" encoding="UTF-8"?>
<svg id="Layer_2" data-name="Layer 2" xmlns="http://www.w3.org/2000/svg" viewBox="0 0 190 130">
  <defs>
    <style>
      .cls-1 {
        fill: none;
      }

      .cls-2 {
        fill: #d5d5d5;
      }
    </style>
  </defs>
  <g id="Layer_1-2" data-name="Layer 1">
    <g>
      <g>
        <path class="cls-2" d="m52.1,90.02h-.02c-.44-.01-.8-.02-1.1-.03-2.69-.04-8.22.33-11.89.38l-.86-.29c-.18,0-.28,1.26-.28,1.44,0,.05.02.11.04.15.84,1.52,1.58,3.38,1.58,3.38,0,0,5.9.02,10.11.52.02,0,.05,0,.07,0,1.17-.06,1.91-.88,2.34-1.59.44-.74.62-2.63.61-3.38,0-.33-.27-.59-.59-.6Zm-2.39,4.45c-3.98-.28-8.32-.25-9.86-.22-.08-.53-.54-1.41-.84-2.12,3.74.32,9.32.19,12,.23.15,0,.32-.23.47-.23-.22,1.1-1.07,2.33-1.76,2.34Z"/>
        <path class="cls-2" d="m124.38,87.75h-.02c-.44-.01-.8-.02-1.1-.03-2.69-.04-7.64.14-11.32.19l-1.2.12c-.18,0-.55-.08-.54.1,0,.05.02.11.04.15.11.2.22.41.32.62v.07s.02,0,.03,0c.65,1.35,1.11,2.76,1.11,2.76l.39.93c1.45.2,6.33-.02,9.87.4.02,0,.05,0,.07,0,1.17-.06,1.91-.88,2.34-1.59.44-.74.63-2.38.62-3.13,0-.33-.27-.59-.59-.6Zm-13.89.41s0-.03,0-.04v.07s0-.02,0-.03Zm11.49,3.79c-6.7-.46-9.08-.37-9.9-.28-.16-.44-.35-1.36-.78-2.28,3.77.32,9.37.41,11.96.45.15,0,.28,0,.43,0-.22,1.1-1.03,2.09-1.71,2.1Z"/>
        <path class="cls-2" d="m98.12,39.02c.28-.12.42-.3.5-.47.12-.14.22-.27.22-.27,0,0-.06-.03-.14-.07,0-.21-.04-.36-.04-.36,0,0-.82-.07-1.04.02.23.52.36.84.5,1.15h0Z"/>
        <path class="cls-2" d="m115.98,47.05c-.06-.09-.14-.19-.25-.29-.11-.06-.28-.28-.77-.09-.04.02-.08.05-.14.09l-.02.02c-.26.21-.31.59-.1.85.09.11.21.19.34.21.09.02.23.01.39,0,.02,0,.04,0,.06,0,.03,0,.05-.02.08-.02.26-.03.5-.08.5-.08,0,0-.02-.04-.05-.1.05-.07.07-.15.04-.2-.02-.08-.05-.13-.05-.13,0,0-.01,0-.04,0-.03-.02.13-.07.09-.07.01-.03-.04-.1-.1-.19Z"/>
        <path class="cls-2" d="m118.33,44.69c.03-.09.02-.16-.03-.2-.05-.07-.09-.1-.09-.1,0,0-.01,0-.03.01-.04,0,.09-.1.06-.1,0-.03-.07-.08-.16-.15-.09-.06-.19-.13-.34-.19-.12-.02-.37-.16-.76.18-.03.03-.06.07-.1.13v.02c-.19.28-.11.66.18.84.12.08.26.11.4.09.09-.01.23-.07.37-.14.02,0,.04,0,.06-.02.09-.03.18-.09.26-.15.14-.08.26-.14.26-.14,0,0-.05-.04-.08-.08Z"/>
        <path class="cls-2" d="m112.98,49.03c-.19-.04-.34-.06-.34-.06,0,0,0,.07.01.16-.18.1-.29.22-.29.22,0,0,.34.74.54.89.34-.46.55-.73.75-1.01-.25-.18-.47-.22-.66-.2Z"/>
        <path class="cls-2" d="m106.28,48.59h-.02c-.07-.02-.11-.03-.16-.03-.52.03-.6.3-.67.4-.07.13-.09.26-.11.37-.02.11-.03.19-.01.22,0,0,.02,0,.03.01.04.26.17.44.17.44,0,0,.78-.17.99-.33.27-.2.32-.58.12-.85-.09-.12-.21-.19-.34-.23Z"/>
        <path class="cls-2" d="m102.22,47.53c-.05.09-.1.17-.09.2,0,0,.02.02.03.02-.05.26,0,.47,0,.47,0,0,.79.1,1.04.02.32-.1.5-.43.41-.75-.04-.14-.13-.25-.24-.33h-.02c-.06-.05-.1-.07-.14-.09-.49-.15-.66.07-.77.14-.11.1-.18.21-.23.31Zm.81.65h0s0,.01,0,0Z"/>
        <path class="cls-2" d="m109.83,49.46l-.13-.26c-.1-.2-.34-.27-.54-.17-.08.04-.14.11-.18.19-.15.35-.29.73-.29.73,0,0,.1-.02.23-.04-.04.12-.06.21-.06.29-.08.05-.13.09-.13.09,0,0,.11.17.25.38,0,.02.01.05.02.06h.02c.07.1.15.21.23.31.15.2.44.24.64.09.11-.08.17-.2.18-.32l.03-.29c.02-.2.03-.39,0-.5-.02-.13-.13-.36-.25-.58Z"/>
        <path class="cls-2" d="m98.5,41.53s0,.02,0,.03c-.2.16-.3.37-.3.37,0,0,.54.59.77.69.31.13.66,0,.8-.31.06-.13.06-.27.03-.4v-.03c-.03-.07-.04-.11-.06-.15-.28-.43-.56-.37-.68-.38-.15,0-.27.05-.37.08-.1.04-.18.07-.19.1Z"/>
        <path class="cls-2" d="m104.68,30.25c.19.04.34.06.34.06,0,0,0-.07-.01-.16.18-.1.29-.22.29-.22,0,0-.34-.74-.54-.89-.34.46-.55.73-.75,1.01.25.18.47.22.66.2Z"/>
        <path class="cls-2" d="m107.83,29.82l.13.26c.1.2.35.27.54.17.08-.04.15-.11.18-.19.16-.35.29-.73.29-.73,0,0-.1.02-.23.04.04-.12.06-.21.06-.29.08-.05.13-.09.13-.09,0,0-.11-.18-.25-.39,0-.02-.01-.04-.02-.06h-.02c-.07-.1-.15-.21-.23-.32-.15-.2-.44-.24-.64-.09-.11.08-.17.2-.18.32l-.03.29c-.02.2-.02.39,0,.5.02.13.13.36.25.58Z"/>
        <path class="cls-2" d="m101.72,32.24c.19-.03.35-.06.35-.06,0,0-.03-.06-.07-.15.14-.15.2-.31.2-.31,0,0-.58-.58-.81-.65-.13.43-.26.85-.36,1.2.29.09.52.05.69-.04Z"/>
        <path class="cls-2" d="m99.61,35.12c.17-.09.3-.18.3-.18,0,0-.05-.05-.11-.12.08-.19.08-.36.08-.36,0,0-.74-.35-.98-.33.03.57.05.91.07,1.25.3-.02.5-.13.64-.27Z"/>
        <path class="cls-2" d="m117.89,36.97c-.06.13-.06.27-.03.4v.02c.02.07.04.11.06.15.29.44.56.37.68.38.15,0,.27-.05.37-.08.1-.04.18-.06.19-.1,0,0,0-.02,0-.03.21-.16.3-.37.3-.37,0,0-.53-.59-.77-.69-.31-.13-.66,0-.8.31Zm.89-.14h0s0-.02,0,0Z"/>
        <path class="cls-2" d="m116.55,34.46c.04.06.08.09.11.12.42.31.65.15.77.12.14-.06.24-.14.32-.21.08-.07.15-.12.15-.16,0,0-.01-.02-.02-.03.14-.22.16-.45.16-.45,0,0-.71-.36-.97-.38-.33-.02-.62.24-.64.57,0,.14.04.28.11.39v.02Z"/>
        <path class="cls-2" d="m114.29,32.11h.02c.06.05.1.07.14.09.49.15.66-.07.76-.14.11-.1.18-.21.23-.31.05-.09.1-.17.09-.2,0,0-.02-.02-.03-.02.05-.26,0-.47,0-.47,0,0-.79-.1-1.04-.03-.32.1-.5.43-.41.75.04.14.13.25.24.33Zm.35-1.01h0s0-.02,0,0Z"/>
        <path class="cls-2" d="m111.38,30.69h.02c.07.02.12.03.16.03.51-.03.6-.3.67-.4.07-.13.09-.26.11-.36.02-.1.03-.19.01-.22,0,0-.02,0-.04-.01-.04-.26-.17-.44-.17-.44,0,0-.77.17-.98.32-.27.2-.33.58-.13.85.09.12.21.19.34.23Z"/>
        <path class="cls-2" d="m119.48,41.14c0-.09-.04-.16-.1-.18-.07-.05-.12-.07-.12-.07,0,0,0,0-.03.02-.04.01.05-.13.02-.11-.01-.03-.1-.05-.2-.08-.1-.03-.23-.06-.38-.06-.12.02-.4-.02-.65.43-.02.04-.03.09-.05.15v.03c-.07.33.14.65.47.71.14.03.28,0,.4-.06.08-.04.19-.15.3-.26.01-.01.03-.02.04-.03.07-.06.14-.14.19-.22.1-.12.19-.23.19-.23,0,0-.04-.02-.1-.05Z"/>
        <path class="cls-2" d="m104.45,44.07c1.58,1.68,3.87,2.02,5.12,1.83,1-.12,2.31-.54,3.43-1.59.56-.51,1.05-1.17,1.41-1.92.35-.73.54-1.65.61-2.39v-.05s0-.04,0-.04c-.1-1.86-1.05-3.57-2.24-4.65-1.17-1.08-2.56-1.49-3.52-1.52-.71-.46-1.15-.74-1.15-.74,0,0,.43.33,1.12.87.95.11,2.25.64,3.25,1.74,1.02,1.09,1.72,2.7,1.7,4.3-.22,1.52-.95,2.77-1.93,3.55-.95.81-2.07,1.09-2.78,1.18-2.38.28-4.24-1.04-5.08-2.5-.87-1.49-.85-3.06-.5-4.21v-.02h-.01s0,0,.01,0h0s0,0,0,0h0s0-.02,0-.02v-.04s.05-.1.05-.1l.06-.16.13-.32c.1-.22.18-.37.31-.57.2-.36.46-.65.67-.95.61-.6,1.13-.95,1.6-1.21.09-.06.26-.12.32-.23l.18-.27c.09-.15.18-.29.26-.42.11-.2.2-.36.27-.48.08-.13.12-.16.11-.15-.08.03-.36.33-.82.83-.09.09-.3.34-.31.3-.21.08-.42.17-.64.27-.46.2-.95.55-1.4.91l-.02.02-.02.02c-.56.57-1.19,1.35-1.57,2.32l.22.51v.02c-.07-.17-.15-.34-.22-.51-.38,1.04-.51,2.2-.26,3.37.24,1.15.83,2.23,1.62,3.03Zm-.79-6.68v.04s0-.02,0-.02v-.02Z"/>
        <path class="cls-2" d="m109.24,33.88s-.01,0-.02-.01c-.02,0-.04,0-.06-.01l.08.03Z"/>
        <path class="cls-2" d="m57.31,14.63c0,.19-.59,2.23-.41,2.22l.82-.3c2.19-.09,5.06-.1,6.73-.17.16,0,.07-1.84.06-2l-.13-.43c-.1-2.18.02-3.01.12-3.92.05-.48.63-1,1.09-1.09,4.29-.8,14.48-1.6,26.32-1.23.86.03,1.48,1.42,1.49,1.86.04,1.59-.15,2.25-.1,3.8,0,.29.18,1.95.18,1.95,2-.06,6.83.04,6.82-.27h0c-.05-1.59-.16-5.04-.2-6.51-.04-.76-.01-1.4-.09-2.22-.05-.35-.07-.68-.16-1.04-.13-.38-.25-.75-.38-1.11-.63-1.35-1.66-2.35-2.77-2.97-1.1-.68-2.31-.78-3.33-.82-4.72.19-12.7.5-21.43.85-2.13.09-4.3.18-6.48.27l-1.62.07-.85.04-.8.11c-.26.02-.54.1-.82.21-.28.1-.57.19-.83.31-.49.3-1.01.55-1.4.97-.87.73-1.46,1.73-1.8,2.76l-.21.79c-.06.26-.05.54-.07.8-.05.55,0,1.03.01,1.52.08,1.96.16,3.82.24,5.56Zm1.47-7.98c.36-.88.15-1.47.97-2.06.36-.36.72-.98,1.15-1.25.49-.13,1.26-.28,1.82-.3,1.01-.16,7.22-.3,9.33-.34,8.55-.18,16.55-.37,21.37-.53,1.3-.04,2.55.4,3.49,1.15.95.76,1.56,1.78,1.79,2.86l.12.87.03.92c.02.61.05,1.21.07,1.81.04.99.15,4.15.19,5.09-1.61.06-3.17.12-4.67.18-.08-1.99-.24-6.09-.32-7.9l.18.82c-.01-.28-.8-1.89-1.95-1.89-16.75-.08-24.49,1.03-27.42,1.19-1.05.06-1.58.82-1.59,1.84,0,1.42.04,3.49.07,5.34,0,.06.1,1.75.03,1.76-.59.01-4.58,0-4.58,0-.29-1.32-.29-4.29-.29-4.29-.03-1.69-.18-4.36.17-5.27Z"/>
        <path class="cls-2" d="m121.12,69.36c-.12-.04-.27-.05-.4-.07-.13-.01-.2-.02-.36-.02-.45,0-.88,0-1.28,0-1.67,0-3.13,0-4.16.03-.35.01-.62.3-.61.65h0s0,.04,0,.05c.12,3.41.25,6.18.39,8.43.04.59.04,1.04.12,1.64.11.59.38,1.09.73,1.47.7.76,1.64,1.01,2.37.94h.04s.03-.01.05-.02c.66-.27,1.21-.51,1.67-.71.11,0,.21,0,.33-.02.25-.01.51-.03.78-.04l.23-.02c.1-.02.22-.04.3-.06.18-.05.35-.13.51-.23.65-.39,1.08-1.16,1.03-1.94v-.03s0-.06-.02-.08c-.16-.53-.32-1.07-.49-1.62.27-1.57.62-3.56.95-5.48h0s0-.04,0-.04c.02-1-.56-2.03-1.48-2.53-.23-.12-.47-.23-.72-.29Zm1.47,2.83c-.15,1.69-.3,3.4-.42,4.84-.92-3.04-1.81-6-1.81-6,0,0,.79,4.29,1.6,8.34-.01.15-.03.29-.04.42-.1.31-.33.57-.6.69-.09.04-.18.07-.27.09-.05.01-.08,0-.11.02-.05,0-.16,0-.17,0-.28,0-.54,0-.79-.01-1.02-.01-1.9,0-2.56.02-.19,0-.35.01-.53.02-.11-2.79-.25-5-.38-6.71-.04-.41-.07-.83-.11-1.27v-.15s.02-.05-.06-.06c0,0,0,0,0,0,.05.02.01-.02.05-.05.06-.08.18-.17.31-.24.52-.3,1.06-.46,1.47-.6.85-.27,1.35-.42,1.62-.52.28-.1.34-.15.34-.15,0,0-.59,0-1.51.12-.46.06-1.02.14-1.63.32-.31.1-.63.19-.98.44-.13.09-.31.28-.37.55-.01-.69-.03-1.28-.04-1.76.87-.04,2.05-.1,3.53-.17.41-.02.83-.05,1.28-.07h.29c.08.01.14,0,.23.03.17.03.34.09.5.16.65.3,1.12.99,1.17,1.72Z"/>
        <path class="cls-2" d="m111.54,70.01c-.23-.12-.47-.23-.72-.29-.12-.04-.27-.05-.4-.07-.13-.01-.2-.02-.36-.02-.45,0-.88,0-1.28,0-1.67,0-3.14,0-4.16.03-.35.01-.62.3-.61.65h0s0,.03,0,.05c.12,3.41.25,6.18.39,8.43.04.59.04,1.04.13,1.64.11.59.38,1.09.73,1.47.7.76,1.64,1.01,2.37.94h.04s.03-.01.05-.02c.66-.27,1.21-.51,1.67-.71.11,0,.21,0,.33-.02.25-.01.51-.03.78-.04l.23-.02c.1-.02.22-.04.3-.06.18-.05.35-.13.51-.22.65-.39,1.08-1.16,1.03-1.94v-.03s0-.06-.02-.08c-.16-.52-.32-1.07-.49-1.62.27-1.57.62-3.56.95-5.48h0s0-.04,0-.04c.02-1-.56-2.03-1.48-2.53Zm.12,9.72c-.01.14-.02.28-.04.4-.1.32-.33.58-.6.71-.09.04-.18.07-.27.09-.05.01-.08,0-.11.02-.06,0-.16,0-.18,0-.28,0-.54,0-.79-.01-1.02-.01-1.91,0-2.56.02-.19,0-.35.01-.53.02-.12-2.79-.25-5-.38-6.71-.04-.41-.07-.83-.11-1.27v-.15s.02-.05-.06-.06c0,0,0,0,0,0,.05.02.01-.02.05-.05.06-.08.18-.17.31-.24.52-.3,1.05-.46,1.47-.6.85-.27,1.35-.42,1.62-.52.28-.1.34-.15.34-.15,0,0-.59,0-1.51.12-.46.06-1.02.14-1.63.32-.31.1-.63.19-.98.44-.13.09-.32.28-.38.55-.01-.69-.03-1.28-.04-1.76.87-.04,2.05-.1,3.53-.17.41-.02.83-.05,1.28-.07h.29c.07.01.14,0,.23.03.17.03.34.09.5.16.65.3,1.12.98,1.17,1.72-.15,1.7-.3,3.4-.42,4.84-.92-3.05-1.81-6.01-1.81-6.01,0,0,.78,4.3,1.6,8.34Z"/>
        <path class="cls-2" d="m94.23,80.78c.11.59.38,1.09.73,1.47.7.76,1.65,1.01,2.38.93h.04s.03-.01.05-.02c.66-.27,1.21-.51,1.67-.71.11,0,.21,0,.33-.02.25-.01.51-.03.78-.04l.23-.02c.1-.02.22-.04.3-.07.18-.05.35-.13.52-.22.65-.39,1.07-1.16,1.02-1.94v-.03s0-.06-.02-.08c-.16-.52-.32-1.07-.49-1.62.27-1.57.62-3.56.95-5.48h0s0-.04,0-.04c.02-1-.56-2.03-1.47-2.53-.23-.12-.47-.23-.72-.29-.12-.04-.27-.05-.4-.07-.13-.01-.2-.02-.36-.02-.45,0-.88,0-1.28,0-1.66,0-3.13,0-4.16.03-.35.01-.62.3-.61.65h0s0,.04,0,.05c.12,3.41.25,6.18.39,8.43.04.59.04,1.04.13,1.64Zm4.29-9.71c.41-.02.83-.05,1.28-.07h.29c.08.01.14,0,.23.03.17.03.34.09.5.16.65.3,1.12.99,1.17,1.72-.15,1.7-.3,3.4-.42,4.84-.91-3.05-1.81-6-1.81-6,0,0,.79,4.29,1.6,8.34-.01.14-.02.28-.04.4-.1.32-.33.58-.6.7-.09.04-.18.07-.27.09-.05.01-.08,0-.11.02-.06,0-.16,0-.18,0-.28,0-.54,0-.79-.01-1.02-.01-1.9,0-2.56.02-.19,0-.35.01-.53.02-.11-2.79-.25-5-.38-6.71-.04-.41-.07-.83-.11-1.27v-.15s.02-.05-.06-.07c0,0,0,0,0,0,.05.02.01-.02.05-.05.06-.08.18-.17.3-.24.52-.3,1.05-.46,1.47-.6.85-.27,1.35-.42,1.62-.52.28-.1.34-.15.34-.15,0,0-.59,0-1.51.12-.46.06-1.02.14-1.63.32-.31.1-.63.19-.98.44-.13.09-.32.28-.38.55-.01-.69-.03-1.28-.04-1.77.87-.04,2.05-.1,3.53-.17Z"/>
        <path class="cls-2" d="m83.93,81.14c.11.59.38,1.09.73,1.47.7.76,1.64,1.01,2.37.93h.04s.03-.01.05-.02c.66-.27,1.21-.51,1.67-.71.11,0,.21,0,.33-.02.25-.01.51-.03.78-.04l.23-.02c.1-.02.22-.04.3-.07.18-.05.35-.13.52-.23.65-.39,1.08-1.16,1.03-1.94v-.03s0-.06-.02-.08c-.16-.53-.32-1.07-.49-1.62.27-1.57.62-3.56.95-5.47h0s0-.04,0-.04c.02-1-.56-2.03-1.48-2.53-.23-.12-.47-.23-.72-.29-.12-.04-.27-.05-.4-.07-.13-.01-.2-.02-.36-.02-.45,0-.88,0-1.28,0-1.67,0-3.13,0-4.16.03-.35.01-.62.3-.61.65h0s0,.03,0,.05c.12,3.41.25,6.18.39,8.43.04.59.04,1.04.13,1.64Zm4.29-9.71c.41-.02.84-.05,1.28-.07h.29c.08.01.14,0,.23.03.17.03.34.09.5.16.65.3,1.12.98,1.17,1.72-.15,1.69-.3,3.4-.43,4.83-.92-3.04-1.81-6-1.81-6,0,0,.79,4.29,1.6,8.33-.01.16-.03.3-.04.43-.1.31-.33.56-.6.68-.09.04-.18.08-.28.09-.05.01-.08,0-.11.02-.05,0-.16,0-.17,0-.28,0-.54,0-.78-.01-1.02-.01-1.91,0-2.56.02-.19,0-.35.01-.53.02-.11-2.79-.25-5-.38-6.71-.04-.41-.07-.83-.11-1.27v-.15s.02-.05-.06-.06c0,0,0,0,0,0,.05.02.01-.02.05-.05.06-.08.18-.17.31-.24.52-.3,1.05-.46,1.47-.6.85-.27,1.35-.42,1.62-.52.28-.1.34-.15.34-.15,0,0-.59,0-1.51.12-.47.06-1.02.14-1.63.32-.31.1-.63.19-.98.44-.13.09-.31.28-.37.55-.01-.69-.03-1.28-.04-1.76.87-.04,2.05-.1,3.53-.17Z"/>
        <path class="cls-2" d="m59.79,31.59c.25.31.61.74,1.31.75h.03s.02,0,.02,0c11.7-1.42,14.6-2.25,15.28-2.51,0,.06-.01.11-.01.11,0,0,0-.05.02-.12.15-.06.19-.09.19-.09,0,0-.07,0-.17.01.06-.29.18-.94.35-1.82,0-.16-.27-.35-.52-.48-.27-.14-.57-.25-.89-.35-.65-.2-1.38-.38-2.16-.49-1.59-.09-3.32-.07-5.06-.1-1.89-.01-3.64-.02-4.97-.03-.85,0-1.56,0-2.12.01-.09,0-.47,0-.72.14-.23.13-.4.28-.52.43-.25.3-.39.57-.5.83-.17.43-.29.81-.33,1.3-.05.48.08.95.22,1.31.14.38.32.74.57,1.08Zm.7-3.2c.08-.18.18-.38.3-.52.06-.08.12-.11.15-.14.01,0,.02,0,0,0-.03,0,.13,0,.19-.01.61-.03,1.33-.06,2.13-.1,1.43-.08,3.16-.17,4.98-.27,1.71-.08,3.52-.23,4.99-.25.75.05,1.48.17,2.11.31.32.07.61.16.87.26.24.08.45.27.43.27-.1.89-.17,1.52-.2,1.81-1.34.12-10.29.94-15.38,1.4.02.03-.27-.18-.41-.46-.17-.28-.28-.6-.36-.88-.15-.45.04-1.02.2-1.42Z"/>
        <path class="cls-2" d="m76.81,27.92s0,0,0,.01c0,0,0,0,0,0v-.02Z"/>
        <path class="cls-2" d="m77.12,33.85s0,.02,0,.03c0,0,.02,0,.03,0l-.02-.03Z"/>
        <path class="cls-2" d="m60.79,39.53c.1.05.31.1.38.11h.09s.02,0,.02,0h.12s.05,0,.05,0l.36-.03.71-.07c1.58-.16,3.18-.32,4.88-.49,2.8-.31,4.76-.57,6.11-.79,1.8-.29,2.54-.49,2.85-.6,0,.07-.01.12-.01.12,0,0,.01-.05.02-.12.15-.05.19-.08.19-.08,0,0-.06,0-.18.01.09-.45.34-1.73.66-3.4.03,0,.07,0,.1,0-.03-.03-.05-.06-.08-.09.01-.07.03-.14.04-.22-.08,0-.17,0-.24,0-.02-.02-.04-.04-.06-.06,0,.02,0,.04,0,.06-2.59-.03-5.79-.07-8.47-.11-1.69,0-3.21,0-4.37-.01-.74,0-1.36.01-1.85.02-.31,0-.57.01-.8.02-.08,0-.1,0-.21,0-.13.01-.25.04-.35.08-.21.08-.36.2-.48.3-.61.62-.78,1.23-.94,1.87-.18.71,0,1.43.23,1.96.26.55.5,1.1,1.24,1.51Zm.33-4.42s.08-.06.08-.06c0,0,0,0,0,0,0,0,.11,0,.16,0,.25-.01.51-.02.8-.03.54-.03,1.16-.05,1.86-.09,1.25-.06,2.76-.14,4.38-.23,2.77-.16,5.89-.34,8.37-.48-.2,1.69-.34,2.94-.39,3.38-.85.05-4.37.25-8.13.46-2.35.14-4.77.29-6.8.41-.2,0-.13.01-.28-.11-.12-.12-.24-.29-.33-.48-.19-.37-.33-.82-.34-1.11,0-.63.38-1.45.63-1.66Z"/>
        <path class="cls-2" d="m61.05,46.84c.1.05.31.1.38.11h.09s.12,0,.12,0h.02s.05,0,.05,0l.36-.03.71-.06c1.58-.16,3.18-.32,4.88-.49,2.8-.31,4.76-.57,6.11-.79,1.8-.29,2.54-.49,2.85-.6,0,.07-.01.12-.01.12,0,0,.01-.05.02-.12.15-.05.19-.08.19-.08,0,0-.06,0-.18.01.09-.45.34-1.73.66-3.4.03,0,.07,0,.1,0-.03-.03-.05-.06-.08-.09.01-.07.03-.14.04-.22-.08,0-.17,0-.24,0-.02-.02-.04-.04-.06-.06,0,.02,0,.04,0,.06-2.59-.03-5.79-.07-8.47-.11-1.69,0-3.21,0-4.37-.01-.74,0-1.36.01-1.85.02-.31,0-.57.01-.8.02-.08,0-.1,0-.21,0-.13.01-.25.04-.35.08-.22.08-.36.2-.48.3-.61.62-.78,1.23-.94,1.87-.18.71,0,1.43.23,1.96.26.55.5,1.1,1.24,1.51Zm.33-4.42s.08-.06.08-.06c0-.01,0,0,0,0,0,0,.11,0,.16,0,.25-.01.51-.02.8-.03.54-.03,1.16-.05,1.86-.09,1.25-.07,2.76-.14,4.38-.23,2.77-.16,5.89-.33,8.37-.47-.2,1.69-.34,2.94-.39,3.38-.85.05-4.37.25-8.13.46-2.35.14-4.77.29-6.8.41-.2,0-.13.01-.28-.11-.12-.12-.24-.29-.33-.48-.19-.37-.33-.82-.34-1.11,0-.63.38-1.45.63-1.66Z"/>
        <path class="cls-2" d="m77.37,41.16s0,.02,0,.03c0,0,.02,0,.03,0l-.02-.03Z"/>
        <path class="cls-2" d="m77.63,48.47s0,.02,0,.03c0,0,.02,0,.03,0l-.02-.03Z"/>
        <path class="cls-2" d="m61.31,54.15c.1.05.31.1.38.1h.09s.12,0,.12,0h.02s.05,0,.05,0l.36-.03.71-.07c1.58-.16,3.18-.32,4.88-.49,2.8-.31,4.76-.57,6.11-.79,1.8-.29,2.54-.49,2.85-.59,0,.07-.01.12-.01.12,0,0,.01-.05.02-.12.15-.05.19-.08.19-.08,0,0-.06,0-.18.01.09-.45.34-1.73.66-3.4.03,0,.07,0,.1,0-.03-.03-.05-.06-.08-.09.01-.07.03-.14.04-.22-.08,0-.17,0-.24,0-.02-.02-.04-.04-.06-.06,0,.02,0,.04,0,.06-2.59-.03-5.79-.07-8.47-.11-1.69,0-3.21,0-4.37-.01-.74,0-1.36.01-1.85.02-.31,0-.57.01-.8.02-.08,0-.1,0-.21,0-.12.01-.25.04-.35.08-.22.08-.36.2-.48.3-.61.62-.78,1.23-.94,1.87-.18.71,0,1.43.23,1.96.26.55.5,1.1,1.24,1.51Zm.32-4.42s.08-.06.08-.06c0-.01,0,0,0,0,0,0,.11,0,.16,0,.25-.01.51-.02.8-.03.54-.03,1.16-.05,1.86-.09,1.25-.07,2.76-.14,4.38-.23,2.77-.16,5.89-.33,8.36-.47-.2,1.68-.34,2.94-.39,3.38-.85.05-4.37.25-8.13.46-2.35.14-4.77.29-6.8.41-.2,0-.13.01-.29-.11-.12-.12-.24-.29-.33-.48-.19-.37-.33-.82-.34-1.11,0-.63.38-1.45.63-1.66Z"/>
        <path class="cls-2" d="m77.88,55.78s0,.02,0,.03c0,0,.02,0,.03,0l-.02-.03Z"/>
        <path class="cls-2" d="m61.56,61.46c.1.05.31.1.38.1h.09s.12,0,.12,0h.02s.05,0,.05,0l.36-.03.71-.06c1.58-.16,3.18-.32,4.88-.49,2.8-.31,4.76-.57,6.11-.79,1.8-.29,2.54-.49,2.85-.59,0,.07-.01.12-.01.12,0,0,.01-.05.02-.12.15-.05.19-.08.19-.08,0,0-.06,0-.18.01.09-.45.34-1.73.66-3.4.03,0,.07,0,.1,0-.03-.03-.05-.06-.08-.09.01-.07.03-.14.04-.22-.08,0-.17,0-.24,0-.02-.02-.04-.04-.06-.06,0,.02,0,.04,0,.06-2.59-.03-5.79-.07-8.47-.11-1.69,0-3.21,0-4.37-.01-.74,0-1.36.01-1.85.02-.31,0-.57.01-.8.02-.08,0-.1,0-.21,0-.12.01-.25.04-.35.08-.22.08-.36.2-.48.3-.61.62-.78,1.23-.94,1.87-.18.71,0,1.43.23,1.96.26.55.5,1.1,1.24,1.51Zm.33-4.42s.08-.06.08-.06c0-.01,0,0,0,0,0,0,.11,0,.16,0,.25-.01.51-.02.8-.03.54-.03,1.16-.05,1.86-.09,1.25-.07,2.76-.14,4.38-.23,2.77-.16,5.89-.33,8.37-.47-.2,1.69-.34,2.94-.39,3.38-.85.05-4.37.25-8.13.46-2.35.14-4.77.29-6.8.41-.2,0-.13.01-.28-.11-.12-.12-.24-.29-.33-.48-.19-.37-.33-.82-.34-1.11,0-.63.38-1.45.63-1.66Z"/>
        <path class="cls-2" d="m54.39,27.33s0,.02,0,.03c0,0,.02,0,.03,0l-.02-.03Z"/>
        <path class="cls-2" d="m38.07,33.01c.1.05.32.1.38.1h.09s.12,0,.12,0h.02s.05,0,.05,0l.36-.03.71-.07c1.58-.16,3.18-.32,4.87-.49,2.8-.31,4.75-.57,6.11-.79,1.8-.29,2.54-.49,2.85-.6,0,.07-.01.12-.01.12,0,0,.01-.05.02-.12.14-.05.19-.08.19-.08,0,0-.06,0-.18.01.09-.45.34-1.73.66-3.4.03,0,.07,0,.1,0-.03-.03-.05-.06-.08-.09.01-.07.03-.14.04-.22-.08,0-.17,0-.24,0-.02-.02-.04-.04-.06-.06,0,.02,0,.04,0,.06-2.59-.03-5.79-.07-8.47-.11-1.69,0-3.21,0-4.37-.01-.74,0-1.36.01-1.85.02-.31,0-.57.01-.8.02-.08,0-.1,0-.21,0-.12.01-.25.04-.35.08-.22.08-.36.2-.48.3-.61.62-.78,1.23-.94,1.87-.18.71,0,1.43.23,1.96.26.55.5,1.1,1.24,1.51Zm.33-4.42s.08-.06.08-.06c0-.01,0,0,0,0,.01,0,.11,0,.16,0,.25-.01.51-.02.8-.03.54-.03,1.16-.05,1.86-.09,1.25-.06,2.76-.14,4.38-.23,2.77-.16,5.89-.34,8.36-.47-.19,1.68-.34,2.94-.39,3.38-.84.05-4.37.25-8.13.46-2.35.14-4.77.29-6.8.41-.2,0-.13.01-.28-.11-.12-.12-.24-.29-.33-.48-.19-.37-.33-.82-.34-1.11,0-.63.38-1.45.63-1.66Z"/>
        <path class="cls-2" d="m54.65,34.64s0,.02,0,.03c0,0,.02,0,.03,0l-.02-.03Z"/>
        <path class="cls-2" d="m54.4,34.66s-.04-.04-.06-.06c0,.02,0,.04,0,.06-2.59-.03-5.79-.07-8.47-.11-1.69,0-3.21,0-4.37-.01-.74,0-1.36.01-1.85.02-.31,0-.57.01-.8.02-.07,0-.1,0-.21,0-.13.01-.25.04-.35.08-.22.08-.36.2-.48.31-.61.62-.78,1.23-.94,1.87-.18.71,0,1.43.23,1.96.26.55.5,1.1,1.24,1.51.1.05.31.1.38.11h.09s.12,0,.12,0h.02s.04,0,.04,0l.36-.03.71-.07c1.58-.16,3.18-.32,4.88-.49,2.8-.31,4.76-.57,6.11-.79,1.8-.29,2.54-.49,2.85-.6,0,.07-.01.12-.01.12,0,0,.01-.05.02-.12.14-.05.19-.08.19-.08,0,0-.06,0-.18.01.09-.45.34-1.73.66-3.4.03,0,.07,0,.1,0-.03-.03-.05-.06-.08-.09.01-.07.03-.14.04-.22-.08,0-.17,0-.24,0Zm-.5,3.72c-.84.05-4.37.25-8.13.46-2.35.14-4.77.29-6.8.41-.2,0-.13.01-.28-.11-.12-.12-.24-.29-.33-.48-.19-.37-.33-.82-.34-1.11,0-.63.38-1.45.63-1.66.04-.04.08-.06.08-.06,0-.01,0,0,0,0,.01,0,.11,0,.16,0,.25-.01.51-.02.8-.03.54-.03,1.16-.05,1.86-.09,1.25-.06,2.76-.14,4.38-.23,2.77-.16,5.89-.34,8.36-.48-.19,1.69-.34,2.94-.39,3.38Z"/>
        <path class="cls-2" d="m54.9,41.95s0,.02,0,.03c0,0,.02,0,.03,0l-.02-.03Z"/>
        <path class="cls-2" d="m54.65,41.97s-.04-.04-.06-.06c0,.02,0,.04,0,.06-2.59-.03-5.79-.07-8.47-.11-1.69,0-3.21,0-4.37-.01-.74,0-1.36.01-1.85.02-.31,0-.57.01-.8.02-.08,0-.1,0-.21,0-.13.01-.25.04-.35.08-.22.08-.36.2-.48.3-.61.62-.78,1.23-.94,1.87-.18.71,0,1.43.23,1.96.26.55.49,1.1,1.24,1.51.1.05.31.1.38.11h.09s.12,0,.12,0h.02s.04,0,.04,0l.36-.03.71-.06c1.58-.16,3.18-.32,4.88-.49,2.8-.31,4.76-.57,6.11-.79,1.8-.29,2.54-.49,2.85-.6,0,.07-.01.12-.01.12,0,0,.01-.05.02-.12.14-.05.19-.08.19-.08,0,0-.06,0-.18.01.09-.45.34-1.73.66-3.4.03,0,.07,0,.1,0-.03-.03-.05-.06-.08-.09.01-.07.03-.14.04-.22-.08,0-.17,0-.24,0Zm-.5,3.72c-.84.05-4.37.25-8.13.46-2.35.14-4.77.29-6.8.41-.2,0-.13.01-.28-.11-.12-.12-.24-.29-.33-.48-.19-.37-.33-.82-.34-1.11,0-.63.38-1.45.63-1.66.04-.04.08-.06.08-.06,0-.01,0,0,0,0,.01,0,.11,0,.16,0,.25-.01.51-.02.8-.03.54-.03,1.16-.05,1.86-.09,1.25-.07,2.76-.14,4.38-.23,2.77-.16,5.89-.33,8.36-.47-.2,1.69-.34,2.94-.39,3.38Z"/>
        <path class="cls-2" d="m55.16,49.26s0,.02,0,.03c0,0,.02,0,.03,0l-.02-.03Z"/>
        <path class="cls-2" d="m38.84,54.93c.1.05.32.1.38.11h.09s.12,0,.12,0h.02s.05,0,.05,0l.36-.03.71-.07c1.58-.16,3.18-.32,4.87-.49,2.8-.31,4.75-.57,6.11-.79,1.8-.29,2.54-.49,2.85-.6,0,.07-.01.12-.01.12,0,0,.01-.05.02-.12.14-.05.19-.08.19-.08,0,0-.06,0-.18.01.09-.45.34-1.73.66-3.4.03,0,.07,0,.1,0-.03-.03-.05-.06-.08-.09.01-.07.03-.14.04-.22-.08,0-.17,0-.24,0-.02-.02-.04-.04-.06-.06,0,.02,0,.04,0,.06-2.59-.03-5.79-.07-8.47-.11-1.69,0-3.21,0-4.37-.01-.74,0-1.36.01-1.85.02-.31,0-.57.01-.8.02-.08,0-.1,0-.21,0-.12.01-.25.04-.35.08-.22.08-.36.2-.48.3-.61.62-.78,1.23-.94,1.87-.18.71,0,1.43.23,1.96.26.55.5,1.1,1.24,1.51Zm.33-4.42s.08-.06.08-.06c0-.01,0,0,0,0,.01,0,.11,0,.16,0,.25-.01.51-.02.8-.03.54-.03,1.16-.05,1.86-.09,1.25-.07,2.76-.14,4.38-.23,2.77-.16,5.89-.33,8.36-.47-.19,1.68-.34,2.94-.39,3.38-.84.05-4.37.25-8.13.46-2.35.14-4.77.29-6.8.41-.2,0-.13.01-.28-.11-.12-.12-.24-.29-.33-.48-.19-.37-.33-.82-.34-1.11,0-.63.38-1.45.63-1.66Z"/>
        <path class="cls-2" d="m55.17,56.59s-.04-.04-.06-.06c0,.02,0,.04,0,.06-2.59-.03-5.79-.07-8.47-.11-1.69,0-3.21,0-4.37-.01-.74,0-1.36.01-1.85.02-.31,0-.57.01-.8.02-.07,0-.1,0-.21,0-.12.01-.25.04-.35.08-.22.08-.36.2-.48.31-.61.62-.78,1.23-.94,1.87-.18.71,0,1.43.23,1.96.26.55.49,1.1,1.24,1.51.1.05.32.1.38.11h.09s.12,0,.12,0h.02s.05,0,.05,0l.36-.03.71-.06c1.58-.16,3.18-.32,4.88-.49,2.8-.31,4.76-.57,6.11-.79,1.8-.29,2.54-.49,2.85-.6,0,.07-.01.12-.01.12,0,0,.01-.05.02-.12.14-.05.19-.08.19-.08,0,0-.06,0-.18.01.09-.45.34-1.73.66-3.4.03,0,.07,0,.1,0-.03-.03-.05-.06-.08-.09.01-.07.03-.14.04-.22-.08,0-.17,0-.24,0Zm-.5,3.72c-.84.05-4.37.25-8.13.46-2.35.14-4.77.29-6.8.41-.2,0-.13.01-.28-.11-.12-.12-.24-.29-.33-.48-.19-.37-.33-.82-.34-1.11,0-.63.38-1.45.63-1.66.04-.04.08-.06.08-.06,0-.01,0,0,0,0,.01,0,.11,0,.16,0,.25-.01.51-.02.8-.03.54-.03,1.16-.05,1.86-.09,1.25-.07,2.76-.14,4.38-.23,2.77-.16,5.89-.33,8.36-.47-.19,1.69-.34,2.94-.39,3.38Z"/>
        <path class="cls-2" d="m55.41,56.56s0,.02,0,.03c0,0,.02,0,.03,0l-.02-.03Z"/>
        <path class="cls-2" d="m101.15,50.79c1.54,1.27,3.23,2.16,4.94,2.62.86.23,1.69.35,2.54.37.76,0,1.61-.06,2.32-.18,2.98-.5,5.25-1.84,6.84-3.25,1.6-1.43,2.57-2.92,3.19-4.2,1.2-2.6,1.2-4.27,1.21-5.12-.04-.88-.09-1.07-.09-1.07h0c0-.06.01-.71-.15-1.83-.17-1.17-.61-2.85-1.61-4.67-1-1.8-2.58-3.73-4.75-5.22-2.15-1.49-4.93-2.51-7.82-2.46h-.04c-1.37.1-2.87.42-4.17.88l-.04.02c-1.26.51-2.52,1.23-3.55,2.01l-.03.03c-1.54,1.23-2.82,2.77-3.66,4.32-.86,1.59-1.26,3.07-1.75,4.3-.03.08-.04.16-.04.24v.02c.03.63.08,1.18.15,1.68.81,5.06,3.46,9.01,6.5,11.55Zm-2.62-16.57c.67-1.29,1.64-2.55,2.95-3.67.91-.71,1.83-1.28,2.94-1.78,1.15-.45,2.23-.71,3.51-.87,2.4-.12,4.8.64,6.71,1.86,1.94,1.21,3.4,2.85,4.35,4.41.96,1.57,1.41,3.05,1.61,4.1.19,1.02.21,1.62.21,1.65,0,.03-.04.46-.1,1.21-.11.78-.33,1.89-.88,3.15-.54,1.26-1.43,2.66-2.73,3.88-1.28,1.23-2.98,2.27-4.91,2.81-1.92.54-4.06.65-5.97-.04-1.92-.66-3.58-1.92-4.88-3.33-.63-.69-1.17-1.4-1.63-2.13.17.08.68.33.89.34.33.02.62-.24.64-.57,0-.14-.03-.28-.11-.38v-.02c-.06-.06-.09-.09-.12-.13-.42-.31-.65-.15-.77-.12-.14.06-.24.14-.32.21-.08.07-.15.12-.15.16,0,0,.01.02.02.03-.1.16-.13.31-.15.39-1.45-2.27-2.15-4.61-2.38-6.27-.05-.35-.09-.74-.12-1.27.41-1.07.76-2.39,1.39-3.61Zm1.92,11.46s0,0,0,0c0,0,0,.03,0,0Z"/>
        <path class="cls-2" d="m132.98,77.2c-.7-18.48-.68-34.26-1.15-46.82-.12-3.14-.67-5.28-.75-7.78-.1-2.94-.38-3.45-.64-4.54-.26-1.1-1.57-3.7-4.99-3.73-2.23-.02-3.86.04-4.74.08-8.63.28-46.99,1.51-86.14,2.77h0s-.04,0-.04,0c-.39.06-.74.11-1.14.19.03.23.09,1.09.13,1.73l-.14-1.73s-.06.01-.1.02l.18,2.34h0s-.18-2.34-.18-2.34c-2.02.49-3.82,1.79-4.92,3.54-.55.88-1.94,1.89-2.12,2.91-.2,1.03-.11,2.07-.08,3.01.13,3.87.25,7.72.38,11.52.25,7.61.49,15,.72,21.97.23,6.97.45,13.51.65,19.38.07,1.5.05,2.84.19,4.34.21,1.49,1.25,3.65,2.12,4.75,1.73,2.23,4.99,2.41,7.32,2.3,10.55-.38,26.4-.96,44.27-1.61,8.91-.33,18.32-.68,27.82-1.03,4.75-.18,9.51-.36,14.25-.53.59-.03,1.18-.03,1.8-.09.64-.07,1.24-.21,1.83-.42,1.18-.42,2.25-1.12,3.11-2.02.86-.9,1.51-1.99,1.87-3.17.39-1.16.58-3.92.5-5.04Zm-3.11,6.05c-.79.82-1.57,2.1-2.64,2.48-1.08.4-2.93.64-4.13.66-4.75.14-8.79.49-13.53.63-9.53.28-18.95.57-27.83.83-18.02.57-33.81,1.08-44.28,1.41-1.88.08-3.71-.04-5.03-1.31-1.33-1.26-2.12-3.01-2.18-4.83-.14-3.88-.27-7.66-.4-11.35-.26-7.38-.52-14.39-.75-21.04-.24-6.64-.42-11.53-.64-17.47-.06-1.48-.11-2.94-.16-4.38-.03-.72-.05-1.43-.08-2.13-.02-.66.07-1.31.23-1.94.65-2.53,2.74-4.49,5.12-5.06v-.15c0,.06,0,.12,0,.15.34-.08.75-.14,1.11-.19,48.54-1.83,74.24-2.63,84.42-3.13,1.3.02,4.73.07,5.56.04,1.03-.04,5.02.63,5.03,7.25,0,2.51.23,3.83.32,6.97.36,12.6.81,27.67,1.34,46.1.24,2.29.14,4.8-1.49,6.44Z"/>
        <path class="cls-2" d="m33.37,17.32h0s0,.04,0,.04c0,0,0,0,0,0,0-.01,0-.03,0-.04Z"/>
      </g>
      <g>
        <path class="cls-2" d="m141.74,101.45h0s-.02,0,0,0Z"/>
        <path class="cls-2" d="m163.39,74.96c-.37-.49-.83-.97-1.37-1.4-.55-.43-1.33-.91-1.94-1.34-.61-.43-3.45-1.9-3.6-1.84-.35.2-.74,2.47-1.65,3.91-.46.72-.77,1.55-1.4,2.13-.63.56-1.62,1.89-2.33,2.43-2.9,2.13-5.27,3.47-8.06,5.65-2.79,2.17-5.36,4.4-7.47,6.56-2.13,2.14-3.77,4.24-5,5.86-.32.42-.57.14-1.06.83-.1.14-.07.33.05.45,1.85,1.63,3,2.93,5.62,5.24.65.57,1.92,1.55,2.19,1.59.07.01.34.06.41.02,1.45-.71,3.94-6.88,4.4-8.09.53-1.22,2.47-4.68,2.81-5.22,1.04-1.63,4.53-1.65,5.72-1.92,0,0,1.02-.2,1.03-.2,2.32-.71,3.83-1.62,5.57-2.75,1.72-1.17,2.94-2.03,3.99-3.17,1.03-1.15,1.57-2.01,1.99-2.76.21-.37.5-.38.59-.59.09-.2.36.06.36.06,0,0,.3-.04.21.17-.09.2-.24.51-.46.87-.43.74-1.06,1.85-2.11,2.98-1.06,1.11-2.49,2.3-4.21,3.43-1.74,1.09-4.2,2.39-6.51,3.05-1.2.25-2.08.12-3.3.58-.3.12-.6.25-.89.43-.29.19-.52.42-.77.64-.48.46-2.41,3.75-2.96,4.99-.5,1.28-1.79,4.55-1.79,4.55l-.31.65c-.22.43-.39,1.08-.64,1.48-.5.8-1.11,1.35-1.82,1.86-.36.25-.75.4-1.12.33-.2-.03-.38-.1-.55-.2-.14-.08-.32-.25-.49-.4-.68-.61-1.34-1.2-1.99-1.78-2.54-2.26-4.78-4.27-6.58-5.87.34-.48.66-.91.96-1.3,1.38-1.82,2.76-3.52,4.19-5.03,1.44-1.52,2.89-2.9,4.33-4.17,2.88-2.53,5.68-4.64,8.24-6.54,1.27-.94,2.49-1.85,3.65-2.71.57-.43,1.13-.85,1.68-1.26.54-.39,1.1-.86,1.52-1.35.88-1,1.49-2.09,2-3.13.49-1.02.87-2.01,1.21-2.95.31-.32.56-.26.81-.28.24,0,.43.04.67.16.23.1.46.21.68.33.44.23.85.47,1.24.72.78.49,1.49.97,2.15,1.42.65.46,1.26.86,1.73,1.32.48.46.86.94,1.16,1.4.59.94,1.16,1.94,1.2,2.66.05.73-.26,1.18-.32,1.58l-.05.22c-.13.51-.32.75-.37.93-.04.15-.4-.16-.4-.16,0,0,.61-1.83.69-2.01.07-.19-.79-2.08-1.54-3.07Z"/>
        <path class="cls-2" d="m172.32,65.41c0-.17-.15-.31-.33-.3h0c-1.42.06-.12.19-1.88.27-1.73.08-3.48.45-4.95.99-1.48.53-2.69,1.22-3.51,1.77-.82.55-1.33,1.26-1.33,1.26,0,0-.04.55.26.51.22-.03.78-.89,1.13-1.1.84-.51,2.2-1.45,3.67-1.93,3.97-1.28,5.02-1.13,6.32-1.14.03,1.32.05,2.31.07,2.98.02.53.04,1.04.06,1.54-1.06.04,1.05-.09.09-.05-1.03.05-2.85.06-3.75.17-2.67.33-4.36,2.05-4.88,2.11-.75-.56-1.57-1.18-2-1.52-.18-.2-.25-.46-.31-.66-.06-.21-.11-.38-.17-.52-.11-.28-.24-.39-.3-.43-.09-.05-.12-.06-.12-.06,0,0-1.52,1.27-1.44,1.4.1.15,1.42.92,1.55,1.16.06.12.16.23.26.32.09.08.19.16.3.24.41.33.45.07.94.47.04.03.49.68.54.68l.39.39c.54-.04,1-.9,1.84-1.43.03-.02.07-.02.1-.04h.01c.65-.49,1.54-.81,2.42-1.03.9-.22,1.84-.33,2.76-.36,1.94-.05.74-.14,2.13-.18.18,0,.32-.16.32-.34h0s0,0,0,0c-.02-.75-.04-1.37-.06-1.88-.03-.8-.08-1.9-.13-3.27h0Z"/>
        <path class="cls-2" d="m184.24,65.92c-.82-.37-.81-.53-1.57-.66-.76-.13-8.39-.03-8.86-.03-.47,0-.75.02-.75.02,0,0-.52.31-.05.35.47.04,8.91,0,9.64.18.73.18.62.2,1.37.61.15.08.51.33.53.54.01.15-.01,1.87-.01,1.87-1.76,1-7.25.89-11.13,1.22-.28-4.44-.47-4.63-.47-4.63,0,0-.67.02-.66.29,0,.83.09,2.89.11,4.72,0,.07.6.08.6.15,0,.14.11.25.25.25h.01c1-.01,8.99-.27,9.87-.52.89-.25,1.5-.76,1.96-1.09.19-.14.08-2.3.04-2.39-.2-.48-.56-.72-.89-.87Z"/>
        <path class="cls-2" d="m163.39,82.51s-.09.02-.11.06h-.01c-.27.38-.67.86-1.15,1.39-.48.52-1.06,1.06-1.67,1.58-1.22,1.05-3.36,2.49-4.18,3.09,0,0,1.58,1.72,1.64,1.96.03.13.19.28.31.31.07.03.11.02.16.03h.08s.04,0,.04,0c.1,0,.2-.01.32-.03.46-.05,1.26-1.62,1.77-1.81,1.01-.36,1.52-.58,2.21-1.44.7-.85,1.08-1.82,1.23-2.54.08-.36.11-.67.12-.87.01-.2.02-.31.02-.31,0,0-.24.13-.27.33-.03.2-.16.46-.27.8-.21.69-.46,1.43-1.18,2.18-.71.76-1.09,1.05-2.03,1.31-.47.14-1.24,1.68-1.63,1.7-.06,0-.13,0-.19,0,.01-.08-.15-1.16-.16-1.28,0-.05-.01-.11-.03-.17,1.86-1.41,3.16-2.59,4.03-3.54.86-.95,1.29-1.65,1.56-2.12.12.66-.01.76-.01.76,0,0,.2-.33.19-.91,0-.08-.66-.49-.74-.49Z"/>
      </g>
      <path class="cls-2" d="m29.28,67.08l.69,7.03c-10.51,1.91-19.22,11.03-18.95,18.95.62,17.83,8.64,7.63,25.43,21.58,16.79,13.95,44.3,6.83,49.79,6.19,5.49-.63,21.77-1.2,31-8.13,9.23-6.93,13.64-13.25,13.64-13.25l4.67,4.56s-14.13,14.72-21.49,18.5-16.21,2.77-25.85,4.21c-9.99,1.49-13.75,3.78-29.43,2.57-15.68-1.21-19.06-3.3-23.63-7.99s-16.13-7.59-21.08-10.72-7.6-5.75-8.8-12.25c-4.35-23.64,24.03-31.24,24.03-31.24Zm39.92,61.08c4.85-.17,8.12-.83,11.91-1.6,2.1-.43,4.27-.86,6.89-1.26,3.23-.48,6.34-.69,9.34-.89,5.86-.4,11.39-.77,16.07-3.17,5.97-3.07,16.83-13.85,20.13-17.21l-2.51-2.45c-1.8,2.25-6.04,7.07-12.94,12.25-8.36,6.28-21.84,7.5-29.09,8.15-1.02.09-1.9.17-2.6.25-.63.07-1.6.24-2.84.46-3.54.62-9.47,1.65-16.14,1.88-13.52.47-24.24-2.51-31.88-8.85-6.76-5.62-12.1-7.21-16-8.36-6.27-1.86-9.56-3.34-9.94-14.26-.3-8.51,8.37-17.65,18.83-20.12l-.39-4.02c-2.42.84-7.18,2.75-11.62,6.06-8.18,6.09-11.46,13.84-9.77,23.05,1.1,5.96,3.4,8.3,8.16,11.31,1.81,1.14,4.66,2.3,7.69,3.53,4.99,2.02,10.64,4.31,13.65,7.4,4.02,4.12,6.86,6.33,22.73,7.56,3.94.3,7.31.4,10.31.3h0Z"/>
      <path class="cls-2" d="m38.59,87.62c-1.59,0-3.17-.25-4.38-1.38-1.36-1.27-2.17-3.05-2.23-4.89l-1.94-53.04c-.02-.67.06-1.33.24-1.97.64-2.47,2.75-4.52,5.26-5.12l.08.34-.08-.34c.26-.06.57-.11.87-.15l.23-.04c21.77-.81,38.7-1.41,51.56-1.86,14.44-.51,23.97-.84,29.14-1.09,1.37.02,4.55.06,5.31.04.37-.01,2.3,0,3.87,1.52,1.29,1.25,1.95,3.14,1.96,5.62,0,1.26.06,2.18.14,3.26.06.92.13,1.92.17,3.29.16,5.36.36,11.43.58,18.08.27,8.04.57,16.93.84,26.42.2,1.82.15,3.98-1.72,5.84l-.35-.36.36.35-.36-.35.29.42c-.81.82-2.02,2.07-3.13,2.45-1.07.4-2.17.42-3.33.44l-58.53,1.75-24.06.75c-.26,0-.53.02-.79.02Zm-3.31-65.5l-.09.02c-2.15.51-3.39,2.32-3.94,4.45-.15.56-.22,1.12-.2,1.69l2.47,52.16c.05,1.58.75,3.11,1.92,4.19,1.07,1.01,2.55,1.17,4.44,1.09l81.98-2.45c1.17-.02,2.19-.04,3.11-.38.9-.31,1.65-.83,2.35-1.54l.48-.74c1.27-1.26,1.68-1.9,1.43-4.23-.28-9.53-.58-18.42-.84-26.46-.22-6.65-.43-12.72-.58-18.08-.04-1.35-.11-2.34-.17-3.25-.07-1.09-.14-2.03-.14-3.32,0-2.2-.56-3.85-1.65-4.9-1.31-1.27-3.63-1.53-3.81-1.52-.76.03-3,.26-4.67.24-5.14.25-14.25.41-28.69.92-12.86.45-30.8,1.17-52.51,1.97l-.18.03c-.23.04-.48.07-.7.12Z"/>
    </g>
    <rect class="cls-1" width="190" height="130"/>
  </g>
</svg>