<?xml version="1.0" encoding="UTF-8"?>
<svg id="Layer_2" data-name="Layer 2" xmlns="http://www.w3.org/2000/svg" viewBox="0 0 190 130">
  <defs>
    <style>
      .cls-1 {
        fill: none;
      }

      .cls-2 {
        fill: #141414;
      }
    </style>
  </defs>
  <g id="Layer_1-2" data-name="Layer 1">
    <g>
      <path class="cls-2" d="m71.63,23.68c-1.16.29-1.99.92-1.99,1.51,0,.27-.2.45-.82.74-.45.21-1.21.66-1.68,1.01-.47.35-.9.63-.95.63-.05,0-.29-.2-.54-.47-.25-.27-.6-.47-.79-.47-.44,0-1.43.79-2.42,1.94-1.66,1.93-1.75,2.66-.47,3.57.3.22.29.25-.57,1.57-2.07,3.17-4.49,8.95-5.46,13.03l-.36,1.51-.84.31c-.47.17-1.22.45-1.69.63-.47.17-.89.43-.96.58-.13.32-.14,4.01-.02,7.34l.09,2.39,1.13.82c.62.45,1.25.89,1.38.98.23.15.22.3-.07,2.03-.38,2.22-.71,6.21-.76,9.13l-.03,2.11-.58.04c-.67.05-1.12.49-1.12,1.09,0,.23.22,1.8.49,3.47.33,2.08.57,3.13.74,3.32.14.15.63.35,1.1.44.47.09.85.18.87.2.01.02.39,1.48.83,3.24.45,1.77.91,3.41,1.04,3.65.13.25.48.67.79.94.31.27,2.16,1.98,4.13,3.81,3.6,3.34,5.17,4.67,6.13,5.17.93.49,3.3,1.36,4.11,1.52.44.09.85.21.92.28.07.07.03,1.01-.07,2.09-.22,2.23-.19,2.34.78,2.64,1.29.4,1.93-.51,2.16-3.07l.11-1.26,1.09-.17c1.44-.23,2.63-.8,3.32-1.58.64-.73,1.44-2.55,1.7-3.83.1-.48.19-.91.22-.94.02-.03.41.14.86.38,2.11,1.08,6.73,2.63,9.41,3.15,3.38.66,5.84.92,8.97.95,4.28.05,6.78-.33,11.09-1.7,2.36-.74,6.2-2.73,7.92-4.09,3.4-2.69,5.61-4.99,7.65-7.97,4.25-6.19,6.39-10.55,7.69-15.63,1.33-5.21,1.81-8.82,1.85-14.13.05-5.84-.78-9.89-2.87-14.02-2.63-5.2-4.16-7.52-7.32-11.1-3.05-3.45-7.71-6.05-12.84-7.15-2.68-.58-4.27-.71-7.52-.64-4.73.11-6.48.4-11.77,1.98-3.96,1.18-6.1,2.17-9.38,4.33-1.9,1.25-2.01,1.21-1.74-.82l.18-1.39-.47-.43c-.51-.47-.86-.54-1.45-.27-.42.19-.9,1.04-.9,1.62,0,.22-.05.39-.1.39-.06,0-.85-.46-1.75-1.01-.9-.55-2.14-1.26-2.74-1.56-.76-.39-1.15-.69-1.28-1-.11-.25-.45-.79-.78-1.23l-.59-.78-1.01-.04c-.58-.02-1.46.08-2.07.23h0Zm2.83,1.1l.3.42h-2.01c-1.11-.02-2.01-.07-2.01-.13,0-.06.36-.21.81-.33,1.95-.54,2.5-.53,2.91.04h0Zm37.65,0c2.28.23,5.97,1.23,7.71,2.1q.86.42-1.42-.16c-3.34-.85-8.33-1.47-10.75-1.32-4.79.29-7.74.82-11.72,2.11-4.24,1.37-8.1,3.31-9.45,4.74-.7.74-.06.58,1.09-.27,3.64-2.7,11.65-5.41,17.49-5.91,2.78-.24,7.16-.07,9.61.36,1.03.18,1.94.34,2.03.34.09,0-.09.11-.38.24-.3.13-.58.29-.63.36-.05.07-.71.06-1.49,0-.78-.07-2.24-.14-3.27-.15-1.67-.02-1.9-.05-2.21-.35-.2-.19-.65-.36-1.05-.41-.56-.07-.84,0-1.41.32-.39.22-.75.53-.8.69-.07.22-.41.35-1.46.55-.75.14-2.02.43-2.81.65-1.39.37-1.47.38-1.75.12-.23-.21-.51-.26-1.32-.21-.86.05-1.1.13-1.49.5-.25.24-.51.64-.56.87-.08.37-.3.51-1.54,1.01-2.86,1.15-6.85,3.32-7.23,3.93-.25.41.18.49.64.13,2.86-2.31,10.41-5.32,16.27-6.5,4.52-.91,9.15-.97,12.69-.17,4.38.99,9.47,3.3,11.41,5.19.87.84.71.92-.3.14-1.32-1.01-2.07-1.46-4.28-2.58-4.22-2.13-7.57-2.94-12.35-2.97-2.41-.01-3.72.15-6.97.86-3.16.69-4.58,1.12-7.43,2.24-3.69,1.45-6.34,2.92-8.54,4.74l-1.18.97-.1-.45c-.5-2.31-.87-3.4-1.63-4.76-.06-.12,3.05-2.12,4.5-2.89,1.65-.88,3.16-1.45,6.37-2.39,3.75-1.11,4.46-1.27,6.58-1.53,2.73-.34,6.48-.39,9.09-.13h0Zm-37.62,1.52c.86.26,3.32,1.47,4.42,2.18l.62.4-.55.03c-.3.02-.94.01-1.4,0l-.86-.04-1.58,1.37c-3.2,2.76-4.91,4.98-6.98,9.04-.95,1.87-1.93,4.28-2.38,5.85-.52,1.81-.79,4.01-.98,7.88-.29,5.77-.62,8.04-1.71,11.56-1.38,4.46-1.76,6.95-1.78,11.76-.03,6.28.96,12.22,2.88,17.17.47,1.22.92,2.38,1,2.59.11.29-.07.18-.75-.47-.49-.47-2.14-2.02-3.65-3.42-3.12-2.92-2.74-2.23-3.88-6.87-.83-3.38-1.69-7.6-1.93-9.5-.33-2.68.07-9.58.8-13.65.13-.73.24-2.2.25-3.28.03-3.26.35-8.69.63-10.52.45-3,2.1-7.65,4.07-11.54.86-1.7,2.96-4.82,4.38-6.53,2.16-2.59,4.01-3.8,6.26-4.1,1.44-.19,2.25-.16,3.14.11h0Zm33.56.77c.52.19.51.19-.72.36-.69.09-1.28.15-1.31.12-.1-.09.99-.67,1.25-.67.14,0,.48.09.78.19h0Zm13.17,1.02c1.03.35,2.15.8,2.49,1,.65.39,3.07,2.45,2.98,2.54-.03.03-.88-.41-1.89-.97-1.14-.63-2.55-1.25-3.69-1.61-1.71-.55-1.87-.64-2.24-1.2l-.39-.6.44.1c.24.06,1.28.39,2.31.74h0Zm-3.09-.27c.26.25.33.37.17.32-.15-.05-.69-.18-1.2-.29-1.01-.21-1-.44.02-.44.41,0,.71.12,1.01.41h0Zm-52.9.25l.33.36-.57.54c-.31.3-.92,1-1.35,1.58l-.79,1.04-.43-.33c-.28-.21-.4-.42-.35-.58.24-.69,2.34-2.97,2.73-2.96.05,0,.24.16.43.36h0Zm18.39-.01c.08.21-.18,3.5-.39,4.81-.08.48-.15.58-.46.57-.3,0-.37-.08-.37-.41,0-.75.51-4.51.66-4.87.17-.4.43-.45.56-.11h0Zm15.41,1.09c.04.07-.39.28-.97.48-.58.19-1.13.38-1.24.42-.42.15-.17-.45.32-.74.52-.31,1.74-.41,1.89-.15h0Zm16.23.19c3.28.48,5.14,1.08,8.16,2.66,2.79,1.45,4.03,2.3,5.61,3.83,2.14,2.07,5.07,6.32,6.01,8.69,1.76,4.45,2.25,8.38,1.91,15.15-.16,3.17-.33,4.46-1,7.69-.31,1.48-.56,2.75-.56,2.84,0,.09-.14-.08-.31-.36-.53-.88-1.4-.95-1.7-.15-.18.47.09.99.64,1.22.4.17.49.15.84-.17.2-.19.38-.28.38-.2,0,.74-1.92,5.67-3.14,8.07-1.26,2.49-4.51,7.57-5.62,8.79-.27.29-.68.79-.9,1.09-.82,1.11-4.62,4.58-6.16,5.63-1.39.95-4.95,2.71-6.48,3.22-3.71,1.23-6.16,1.67-9.8,1.75-6.54.16-12.46-1.01-18.76-3.71-.45-.19-.99-.49-1.21-.66l-.4-.31.2-1.33c.25-1.71.3-8.38.07-10.22l-.18-1.42.9-4.5.9-4.5-.46-.96c-.61-1.27-.74-2.17-.61-4.23.14-2.26.5-2.99,1.9-3.93l.72-.48-.06-2.23c-.05-2.03-.01-2.47.45-4.81.49-2.5.51-2.76.69-8.89.1-3.48.15-6.88.11-7.57l-.08-1.25,1.3-1.04c1.98-1.58,2.41-1.86,4.29-2.89,4.05-2.2,9.02-3.84,14.45-4.76,2.07-.35,5.58-.37,7.87-.03h0Zm-34.54.82c-.95.17-2.84.81-3.77,1.28-3.23,1.61-7.75,8.86-9.33,14.96l-.47,1.81.16,3.85c.12,3.03.11,4.11-.05,5.1-.36,2.18-1.42,6.45-1.76,7.08-.27.5-1.28,3.47-1.7,5.03-.42,1.53-.44,1.78-.47,5.27-.02,2.26.04,4.06.15,4.68.1.56.32,2.11.5,3.44.36,2.79.9,5.11,1.9,8.21,1.26,3.89,2.36,6.31,3.7,8.09.55.74.56.75.15.59-.75-.29-1.04-.5-1.87-1.33-1.16-1.17-1.5-1.79-2.62-4.67-2.07-5.33-3-10.77-2.98-17.38.02-4.6.39-7.03,1.75-11.39.9-2.88,1.32-5.28,1.54-8.73.53-8.36.64-9.21,1.45-11.59,1.93-5.65,4.89-10.28,8.52-13.33l1.33-1.12h2.26c1.61.02,2.07.06,1.59.15h0Zm.82,1.74c-.17,1.37-.22,1.49-.85,1.84-1.07.6-1.23.95-1.45,3.2-.13,1.4-.27,2.13-.46,2.4-.29.42-1.59,3.15-1.59,3.35,0,.06-.17.55-.38,1.07-1.6,4.03-3.74,11.4-4.53,15.6-.52,2.76-.82,5.86-.95,9.97-.05,1.56-.14,3.73-.2,4.85-.19,3.75.28,17.02.66,18.72.12.52.18.99.14,1.06-.14.23.35.83.94,1.15.63.34.64.4.32,1.65-.23.9-.23.93.15,1.69.31.63.37.91.28,1.48-.06.39-.17.71-.25.71-.53,0-2.25-1.37-3.12-2.49-1.15-1.48-1.86-3.02-3.2-6.97-1.11-3.27-1.74-5.86-2.05-8.47-.13-1.12-.35-2.66-.5-3.44-.19-1.06-.25-2.23-.23-4.76.03-3.12.06-3.47.46-4.93.42-1.54,1.45-4.57,1.73-5.08.2-.36,1.02-3.49,1.43-5.42.43-2.05.56-4.93.37-8.12-.14-2.19-.12-2.55.16-3.75,1.09-4.74,4.32-10.79,7.3-13.69,1.19-1.16,4.03-2.43,5.49-2.46q.44,0,.34.8h0Zm3.95,1.91c.82,1.99.96,3.67.9,10.57-.05,5.34-.24,9.43-.44,9.63-.09.08-.21-1.3-.31-3.47-.13-2.67-.34-4.84-.67-6.75-.35-2.08-.36-4.31-.03-6.68.32-2.25.33-2.17-.28-2.81-.53-.57-.54-.6-.44-1.52l.1-.94.34.4c.19.22.56.93.83,1.57h0Zm-1.89.88c.28.17.5.41.5.54,0,.74-2.1,1.05-2.92.43-.59-.44-.62-.77-.09-1.05.64-.34,1.9-.3,2.51.08h0Zm-1.33,2.33c.36,0,.87-.06,1.17-.14l.53-.15-.11,1.05c-.19,1.75-1.24,2.65-2.58,2.23-.31-.1-.74-.33-.94-.5-.35-.3-.36-.36-.25-1.78l.12-1.47.71.38c.42.22.97.38,1.35.38h0Zm-.45,4.08c.33,0,.91-.13,1.27-.31l.66-.32v1.04s-.01,1.04-.01,1.04l-.58-.1c-.32-.05-1.08-.15-1.71-.21-1.2-.12-1.18-.11-1.35-1.2l-.09-.56.61.31c.33.17.89.31,1.22.32h0Zm-2.47,1.3q.18,1.11-.44,2.73c-1.6,4.18-2.66,8.44-3.63,14.64-.14.9-.36,2.23-.49,2.96-.42,2.38-1.07,8.28-1.22,11.08-.18,3.36,0,10.43.3,12.41.13.81.39,1.92.58,2.47l.35,1-.61.84c-.34.47-.76,1.13-.95,1.5-.18.36-.38.66-.44.66-.52,0-.83-15.44-.47-23.57.36-8.18.92-11.35,3.36-19.02,1.85-5.8,3.14-9.21,3.38-8.92.06.07.19.63.29,1.23h0Zm3.82,1.01l.78.1.12.7c.39,2.35.94,10.15,1.08,15.4l.07,2.84-.47.24c-1.23.63-1.88,1.95-2.13,4.33-.22,2.07-.06,3.29.61,4.64l.43.88-1.74,8.58c-.96,4.72-1.74,8.83-1.75,9.14,0,.31-.05.6-.11.65-.11.11-2.88-.84-3.74-1.29-.49-.26-.7-.49-.9-1.02-.79-2.1-1.07-6-.92-12.68.1-4.29.22-5.76.81-10.22.27-2,1.13-7.17,1.85-11.07.49-2.64,1.41-5.88,2.57-9.01.39-1.04.7-2.04.7-2.21,0-.35-.04-.35,2.72,0h0Zm-27.73,6.4c0,.52-.02.52-.78.24l-.55-.2.55-.24c.75-.33.78-.32.78.2h0Zm-1.05,1.19l.91.28-.14,4.3c-.07,2.37-.18,4.38-.24,4.48-.07.12-.4-.05-.96-.48l-.85-.66-.09-2.02c-.05-1.11-.09-2.99-.09-4.18,0-1.98.02-2.15.27-2.07.15.04.69.21,1.18.36h0Zm80.2,19.1c.04.31,0,.36-.31.31-.25-.04-.38-.17-.42-.42-.04-.31,0-.36.31-.31.25.04.38.17.42.42h0Zm-80.5,6.42c.06.53.31,1.94.55,3.13.25,1.19.45,2.2.45,2.24,0,.12-.69.08-.91-.06-.12-.08-.38-1.24-.64-2.93-.55-3.48-.55-3.34,0-3.34.42,0,.44.04.54.96h0Zm27.86,16.77c-.56,3.73-1.24,5.72-2.26,6.66-.55.51-1.99,1.04-2.8,1.03h-.58s.11-.66.11-.66c.13-.76.2-.9.48-.9.4,0,1.04-.91,1.05-1.52.02-.96.12-1.03,1.32-1.09.61-.03,1.13-.07,1.19-.1.05-.03.14-.99.2-2.13.1-2.04.19-2.68,1.07-7.38l.43-2.34.03,3.36c.02,2.42-.05,3.84-.23,5.07h0Zm-6.03-2.77c.15.09,1.03.43,1.98.78l1.71.62.03,1.94.03,1.94-.67.09c-.37.05-.7.06-.73.03-.03-.03.03-.53.13-1.09.16-.87.15-1.11-.06-1.55-.47-.99-1.94-1.47-3.1-.99-.63.26-1.34,1.07-1.46,1.67-.1.47-.32.59-.45.25-.12-.33.64-1.76,1.8-3.35q.41-.56.78-.34h0Zm1.12,2.75c.33.17.45.35.45.66,0,.69-.38,2.91-.52,3.07-.07.08-.26,0-.45-.17-.25-.24-.55-.31-1.3-.31h-.98s.36-1.38.36-1.38c.38-1.43.56-1.77,1.1-1.98.48-.19.84-.16,1.34.11h0Zm-1.17,4.34c.64.33.9.69.68.9-.14.14-.31.12-.66-.1-.33-.2-.63-.26-1.01-.19-.67.12-.88-.18-.4-.56.43-.34.81-.36,1.39-.06h0Zm-.49,1.61c.13.08.11.64-.05,2.14-.12,1.12-.23,2.17-.23,2.36,0,.27-.09.32-.48.25-.27-.04-.47-.13-.47-.2,0-.07.12-1.09.26-2.28.26-2.23.43-2.63.97-2.27h0Zm-.65,6.01c.04.2-.05.27-.34.26-.44,0-.45-.02-.3-.39.12-.32.58-.23.64.13h0Z"/>
      <path class="cls-2" d="m63.31,34.99c-.74,1.01-.9,1.34-1.95,3.97-.85,2.13-1.74,4.92-2.12,6.61-.73,3.26-1,4.64-1.23,6.55-.15,1.2-.38,3.03-.51,4.06-.23,1.8-.39,3.88-.76,9.44-.09,1.42-.25,3.24-.35,4.06-.43,3.54-.46,9.08-.05,11.54.24,1.44.9,3.73,1.32,4.58.2.41.36.87.36,1.04,0,.17.15.5.35.75.2.25.47.71.62,1.03.26.58.29.59,1.1.59.97,0,1.76-.23,1.89-.55.05-.13-.01-.64-.14-1.12-.94-3.63-1.41-11.06-.92-14.45.09-.62.24-1.72.34-2.45.24-1.77.57-3.77.95-5.77.71-3.7,1.08-6.2,1.33-8.97.52-5.79.72-6.92,2.11-11.85.64-2.28,2.04-6.45,2.33-6.95.21-.36.18-.47-.3-1.39-.59-1.13-.69-1.18-2.63-1.36l-1.17-.11-.56.76h0Zm2.71.47c.87.15.87.5,0,.62-.62.08-.78.05-1.01-.25-.37-.45-.34-.63.08-.54.19.04.62.12.94.17h0Zm-2.1,3.11c-.8,2.29-2.62,8.43-3.18,10.74-.63,2.62-1.08,5.28-1.29,7.73-.1,1.15-.29,2.95-.42,3.98-.41,3.2-.56,4.6-.74,6.94-.1,1.25-.25,2.86-.34,3.59-.09.73-.21,2.98-.27,4.99-.1,3.36-.08,3.81.22,5.31.18.91.49,2.15.7,2.78q.42,1.28.23,1.28c-.41,0-1.45-4.1-1.68-6.63-.19-2.11-.17-5.75.04-7.74.28-2.66.49-5.16.75-9.21.14-2.18.37-4.82.5-5.85.13-1.03.36-2.89.5-4.13.29-2.44,1.21-6.77,1.97-9.28.54-1.76,2.11-5.78,2.61-6.65l.33-.58.34.49.34.49-.61,1.73h0Zm2.12,1c-2.24,6.54-3.15,10.83-3.54,16.71-.1,1.51-.25,2.64-.66,4.99-.13.73-.3,1.71-.38,2.18-.08.47-.33,1.87-.55,3.12-.22,1.25-.49,2.89-.59,3.66-.1.78-.27,1.94-.37,2.62-.25,1.68-.12,9.58.19,11.27.28,1.53.28,1.48.02,1.48-.36,0-1.04-2.36-1.4-4.82-.35-2.42-.3-3.59.47-12.28.4-4.45.61-6.51.83-7.88.09-.56.24-1.82.33-2.81.47-4.93.94-7.42,2.2-11.62.31-1.03.73-2.47.94-3.19.21-.73.72-2.36,1.14-3.62l.76-2.3h.73s.73,0,.73,0l-.84,2.46h0Zm-5.25,47.78c.16.86.07,1-.6.89-.26-.04-.4-.21-.52-.6-.09-.3-.22-.63-.28-.74-.13-.2.15-.31.84-.34.37-.01.42.06.56.78h0Z"/>
      <path class="cls-2" d="m112.66,30.34c-.58.51-.66,1.23-.2,1.75.41.46,1.4.34,1.9-.24,1.11-1.27-.42-2.64-1.7-1.51h0Zm1.4.17c.57.37-.37,1.56-1.05,1.34-.42-.14-.43-.77,0-1.18.33-.32.72-.38,1.06-.16h0Z"/>
      <path class="cls-2" d="m103.77,31.22c-.84.83-.43,2.04.69,2.05.44,0,.59-.09.86-.52.18-.28.33-.75.33-1.01,0-.41-.09-.53-.56-.73-.76-.32-.79-.32-1.33.21h0Zm1.38.45c.15.4-.31,1.06-.73,1.06-.52,0-.74-.42-.51-.92.14-.31.31-.4.66-.4.3,0,.51.1.57.27h0Z"/>
      <path class="cls-2" d="m120.34,32.42c-1.19,1.1.11,2.37,1.37,1.33.56-.47.63-1.01.18-1.47-.43-.43-.98-.39-1.55.14h0Zm1.29.38c.14.24.11.33-.2.59-.77.62-1.44.11-.77-.59.4-.42.71-.42.97,0h0Z"/>
      <path class="cls-2" d="m96.9,33.85c-.49.49-.38,1.54.19,1.87.38.22.46.22.85,0,.35-.19.44-.36.48-.91.09-1.14-.79-1.69-1.53-.96h0Zm1.06.72c.05.55-.27.9-.67.75-.15-.06-.25-.27-.25-.52,0-.87.83-1.08.91-.23h0Z"/>
      <path class="cls-2" d="m109.78,34.9c-.71.66-.82,1.17-.4,1.72.47.61,1.41.6,2.03-.02.59-.59.62-1.28.08-1.83-.52-.53-1.06-.49-1.72.12h0Zm1.36.22c.51.47.23,1.19-.55,1.38-.88.21-1.21-.75-.46-1.33.49-.38.65-.39,1.01-.05h0Z"/>
      <path class="cls-2" d="m103.08,35.42c-.14.16-.33.5-.43.78-.54,1.51,1.31,2.24,2.06.81.25-.47.27-.64.12-1.06-.28-.8-1.24-1.09-1.75-.53h0Zm1.12.38c.26.26.23.77-.07,1.19-.52.74-1.33.18-.99-.69.25-.65.69-.86,1.05-.49h0Z"/>
      <path class="cls-2" d="m117.95,36.15c-.53.53-.59,1.13-.15,1.58.6.61,1.76.23,1.93-.63.15-.7.14-.73-.21-1.08-.44-.45-1.04-.4-1.58.13h0Zm1.25.24c.25.3-.04.98-.46,1.11-.72.22-.98-.64-.34-1.14.31-.24.58-.23.8.03h0Z"/>
      <path class="cls-2" d="m127.48,37.35c-.67.45-.9,1.08-.57,1.6.34.53.9.64,1.6.3.5-.24.6-.37.65-.85.06-.62-.43-1.39-.88-1.39-.15,0-.52.16-.8.35h0Zm1.19.69c.13.51-.2.84-.82.84-.45,0-.53-.06-.53-.36,0-.42.14-.63.54-.84.41-.22.7-.09.82.37h0Z"/>
      <path class="cls-2" d="m91.03,37.43c-.51.72-.1,1.84.69,1.85.78,0,1.25-1.38.65-1.93-.4-.36-1.05-.32-1.34.08h0Zm.91.22c.31.12.31.75,0,1.01-.36.3-.76-.15-.62-.7.11-.42.21-.47.63-.31h0Z"/>
      <path class="cls-2" d="m96.75,38.64c-.29.11-.66.9-.66,1.4,0,.69.39,1.14.99,1.15.77,0,1.2-.41,1.3-1.26.07-.64.04-.75-.34-1.05-.41-.32-.87-.41-1.29-.24h0Zm.81.51c.46.18.52.7.15,1.23-.41.59-1.16.35-1.15-.37,0-.28.4-1.01.55-1.01.03,0,.23.07.45.15h0Z"/>
      <path class="cls-2" d="m108.17,40.07c-.63.27-1,.8-1,1.41,0,.76.63,1.33,1.45,1.34.51,0,1.44-.82,1.55-1.36.11-.56-.3-1.24-.88-1.44q-.55-.19-1.12.06h0Zm1.31.6c.46.47,0,1.43-.79,1.61-.49.11-1.06-.36-1.06-.88,0-.73,1.33-1.26,1.85-.74h0Z"/>
      <path class="cls-2" d="m124.26,40.29c-1.05.56-.9,1.91.22,2.02.78.08,1.09-.01,1.34-.4.65-.98-.52-2.19-1.57-1.62h0Zm1.08.64c.37.52.05.93-.67.87-.45-.04-.59-.12-.62-.39-.03-.2.1-.43.32-.58.47-.32.69-.3.97.1h0Z"/>
      <path class="cls-2" d="m102.45,41.53c-.53.41-.83,1.27-.6,1.72.19.36,1.02.79,1.55.79.43,0,.89-.49,1.08-1.16.19-.67.12-.92-.33-1.22-.64-.42-1.27-.46-1.7-.13h0Zm1.29.49c.36.2.38.74.04,1.22-.2.28-.35.33-.67.25-.56-.15-.95-.54-.84-.85.26-.72.84-.96,1.47-.62h0Z"/>
      <path class="cls-2" d="m114.64,41.65c-1.02.68-.65,1.99.57,1.99.98,0,1.58-.91,1.14-1.76-.36-.69-.91-.77-1.71-.24h0Zm1.23.64c.06.53-.22.89-.68.89-.75,0-.88-.89-.18-1.23.53-.26.81-.15.86.34h0Z"/>
      <path class="cls-2" d="m91.15,42.93c-.76.75-.34,1.96.67,1.97.54,0,.95-.42,1.06-1.1.1-.6-.19-.98-.91-1.16-.33-.08-.51-.02-.83.29h0Zm1.07.35q.28.28.06.77c-.19.42-.57.51-.88.2-.26-.26-.23-.59.08-.94.31-.34.43-.35.74-.03h0Z"/>
      <path class="cls-2" d="m131.58,44.11c-.68.67-.45,1.57.44,1.74.3.06.68.06.86,0,.31-.1.8-.81.8-1.17,0-.36-.76-.94-1.24-.94-.31,0-.62.13-.86.37h0Zm1.23.19c.31.12.31.75,0,1.01-.31.25-1.05.02-1.12-.36-.09-.5.55-.88,1.12-.65h0Z"/>
      <path class="cls-2" d="m121.27,44.23c-.92.47-1.12,1.16-.51,1.87.34.4.39.41.92.24.66-.21,1.07-.74,1.07-1.39,0-.76-.71-1.12-1.48-.73h0Zm.98.79c.1.73-.9,1.13-1.24.49-.16-.3-.13-.38.18-.63.47-.38,1-.3,1.06.14h0Z"/>
      <path class="cls-2" d="m107.69,44.69c-4.84.56-10.55,4.04-13.89,8.49-.8,1.06-2.13,3.36-2.79,4.81-1.52,3.34-2.46,7.1-2.73,11-.27,3.84-.1,5.34,1.04,8.75.52,1.58.86,2.14,2.28,3.89,1.76,2.15,3.82,3.74,6.34,4.88,3.2,1.45,4.66,1.77,8.17,1.79,2.64.02,2.79,0,4.53-.5,2.81-.8,3.74-1.34,6.5-3.73l1.74-1.51.92.62c1.13.76,1.74.74,2.53-.08.43-.46.52-.66.52-1.27,0-.69-.04-.77-.86-1.54l-.87-.81,1.04-1.45c.57-.79,1.33-1.97,1.69-2.6l.65-1.14.4.31c.22.17.46.32.54.32.08,0,.34.15.58.33.84.63,1.89-.09,1.9-1.31,0-.59-.08-.72-1.11-1.69l-1.11-1.05.18-.59c.1-.33.37-1.86.61-3.4.67-4.37.43-7.05-1.02-11.32-.8-2.35-1.72-3.81-3.49-5.55-3.71-3.63-6.6-5.14-10.77-5.61-1.65-.19-2.06-.19-3.48-.03h0Zm5.8,1.51c2.76.68,5.52,2.46,8.15,5.25,1.06,1.13,1.47,1.71,2.04,2.88,1.95,4.04,2.51,7.84,1.85,12.39-.25,1.73-.59,3.52-.68,3.65-.02.02-.28-.12-.56-.32-.28-.2-.55-.38-.58-.39-.03-.01.07-.93.22-2.02.55-3.99,0-6.75-1.96-9.83-1.52-2.38-2.23-3.31-3.34-4.35-1.44-1.35-2.86-2.08-4.62-2.4-1.17-.21-1.36-.29-2-.89-.39-.37-1.09-.83-1.57-1.06-.76-.35-.99-.38-1.89-.29-1.25.13-3.22.79-5.12,1.72-5.89,2.9-9.61,7.55-11.26,14.1-.86,3.41-.63,4.78,1.07,6.44q1.04,1.02,1.13,2.05c.05.56.24,1.47.41,2,.27.83.48,1.13,1.51,2.12.66.63,1.81,1.57,2.56,2.07.75.5,1.36.97,1.36,1.04,0,.07.52.69,1.16,1.38,1.23,1.34,2.2,1.96,4.02,2.58.72.24,1.26.33,1.74.28.66-.07.73-.04,1.36.6.92.93,1.6,1.06,2.29.44.53-.47.63-.86.43-1.71-.11-.46-.09-.47.8-.74,1.22-.37,3.3-1.33,4.2-1.94l.74-.5.56.57c.65.66.67.62-1.17,2.13-2.61,2.15-4.64,3.19-7.33,3.77-1.82.39-5.23.22-7.27-.35-3.4-.95-6.08-2.46-8.25-4.65-2.36-2.38-3.21-3.94-4.03-7.36-.29-1.23-.31-1.64-.21-4.7.09-2.81.17-3.67.53-5.29,1.21-5.58,3.41-9.93,6.67-13.2,1.52-1.52,3.39-2.95,5.09-3.9,1.21-.67,3.9-1.74,4.15-1.64.11.04.39,0,.62-.09,1.42-.57,4.55-.5,7.18.15h0Zm-2.77,4.15l.64.37-.77.11c-2.12.31-2.86.48-4.3,1.05-.86.34-1.85.75-2.21.93-1.13.56-3.36,2.28-4.43,3.43-2.03,2.17-4.21,5.92-4.74,8.15-.14.58-.33,1.24-.42,1.45-.09.21-.21,1.39-.26,2.62l-.09,2.23-.43-.42c-1.02-.99-1.25-2.51-.74-4.83,1.2-5.38,4.2-9.89,8.4-12.62,1.2-.78,4.09-2.18,5.35-2.6,1-.33,2.38-.5,2.94-.35.24.06.7.27,1.06.48h0Zm4.05,1.88c1.29.37,1.99.79,3.2,1.95l.9.86-1.01-.32c-2.6-.82-5.18-1.02-7.41-.57-3.13.63-6.59,2.9-8.75,5.73-1.69,2.21-3.25,7.15-3.55,11.22-.15,1.98.31,5.39.94,7.01.17.43-.94-.4-2.2-1.64-1.09-1.07-1.37-1.8-1.61-4.16-.42-4.05.12-7.43,1.66-10.45,1.58-3.1,3.99-5.9,6.41-7.45,1.22-.78,3.41-1.78,4.81-2.17,2-.57,4.62-.58,6.62-.01h0Zm1.07,2.95c1.9.43,3.3,1.16,4.43,2.29,2.21,2.21,3.23,5.5,2.82,9.14-.24,2.09-.28,2.24-.64,2.12-.45-.15-1.53.2-1.8.58-.28.39-.32,1.34-.08,1.87.09.21.37.5.62.64.25.15.45.36.45.47,0,.11-.36.93-.8,1.82-.82,1.65-1.91,3.25-2.21,3.25-.1,0-.4-.21-.7-.47-1-.89-2.42-.64-2.99.53-.35.72-.1,1.58.65,2.24l.54.48-.42.29c-.98.68-3.91,1.93-4.91,2.1-.5.08-.62,0-2.08-1.34-2.1-1.93-2.12-1.95-2.78-1.73-.81.27-1.35.96-1.35,1.77,0,.61.06.71.85,1.35,1.3,1.06,1.35,1.16.37.86-1.42-.43-2.51-1.09-3.51-2.14-1.7-1.78-2.31-2.98-2.83-5.53-.59-2.9-.51-5.36.3-8.82.33-1.42,1.61-4.72,2.26-5.84.61-1.05,2.93-3.36,4.23-4.21,1.1-.72,3.1-1.57,4.3-1.82,1.42-.3,3.7-.25,5.28.11h0Zm7.38,15.38c.56.45,1.4,1.14,1.88,1.54l.87.72-.26.51-.26.51-2-1.54c-1.93-1.48-2.23-1.83-2.04-2.33.17-.44.8-.23,1.81.59h0Zm-.16,2.65c.25.19.46.46.46.6,0,.52-2.9,4.96-3.23,4.97-.08,0-.3-.15-.48-.33l-.34-.33.62-.8c.34-.44,1.03-1.62,1.52-2.62.49-1,.92-1.82.95-1.83.03,0,.26.15.51.34h0Zm3.87.87c-.09.44-.45.45-.45.01,0-.2.05-.42.11-.48.17-.16.4.16.33.47h0Zm-8.22,4.72c.95.79,1.75,1.46,1.79,1.49.04.03-.04.17-.18.33-.14.15-.34.49-.46.77l-.21.5-1.9-1.64c-1.58-1.37-1.9-1.72-1.9-2.08,0-.23.09-.52.19-.62.43-.42.95-.18,2.68,1.26h0Zm-10.78,2.97l1.47,1.35-.46.38-.45.38-1.48-1.23c-.81-.67-1.48-1.35-1.48-1.49,0-.31.41-.75.72-.74.12,0,.88.61,1.69,1.35h0Zm13.95-.06c.08.56-.26.98-.77.98-.51,0-.58-.27-.29-1.02.13-.32.24-.39.59-.36.3.03.44.16.48.39h0Zm-11.7,2.88c0,.12-.14.22-.31.22-.31,0-.45-.44-.21-.67.14-.14.53.19.53.46h0Z"/>
      <path class="cls-2" d="m95.99,45.1c-.22.26-.41.67-.41.9,0,.59.53,1.4,1.01,1.52.84.21,1.49-.49,1.49-1.63,0-.52-.08-.66-.52-.95-.72-.45-1.08-.42-1.56.15h0Zm1.23.17c.48.23.53,1.02.09,1.55-.24.3-.32.32-.62.16-.65-.36-.78-1.11-.29-1.71.2-.24.31-.24.82,0h0Z"/>
      <path class="cls-2" d="m128.32,46.5c-.76.83-.32,1.84.81,1.82.37,0,.77-.13.95-.3.4-.36.4-1.07,0-1.48-.4-.41-1.4-.43-1.76-.04h0Zm1.49.52c.28.46,0,.76-.68.76-.58,0-.62-.04-.62-.45,0-.25.05-.49.11-.55.2-.19,1.02-.02,1.19.24h0Z"/>
      <path class="cls-2" d="m124.82,48.93c-.5.49-.49,1.07.02,1.47.48.38,1.26.42,1.75.09.26-.18.35-.39.35-.84,0-.45-.08-.67-.34-.85-.53-.37-1.33-.31-1.78.13h0Zm1.49.31c.24.29.16.71-.19.92-.33.21-1.11-.06-1.18-.4-.11-.59.97-1.01,1.37-.52h0Z"/>
      <path class="cls-2" d="m91.58,49.18c-.7.69-.39,1.82.57,2.05.6.15,1.22-.48,1.23-1.23,0-.47-.08-.61-.49-.87-.65-.41-.84-.4-1.3.05h0Zm1.16.48c.29.35.04,1.03-.38,1.03-.48,0-.76-.38-.64-.86.12-.45.71-.55,1.02-.17h0Z"/>
      <path class="cls-2" d="m133.86,52.03c-.66.71-.12,1.72.93,1.72,1.01,0,1.6-1.24.84-1.78-.5-.35-1.42-.32-1.77.05h0Zm1.39.26c.31.12.32.59.01.84-.5.41-1.34-.1-1.12-.67.1-.26.65-.34,1.11-.17h0Z"/>
      <path class="cls-2" d="m130.52,53.55c-.47.47-.44,1.16.07,1.57.75.6,1.91.3,2.16-.55.27-.9-1.52-1.72-2.23-1.01h0Zm1.31.33c.65.25.41,1.1-.3,1.09-.34,0-.87-.43-.87-.71,0-.24.33-.54.58-.54.1,0,.37.07.59.16h0Z"/>
      <path class="cls-2" d="m127.31,54.65c-.3.23-.41.46-.41.85,0,.67.51,1.05,1.32.99,1.09-.08,1.37-1.41.4-1.92-.59-.31-.82-.3-1.31.08h0Zm1,.31c.6.32.54,1.09-.08,1.09-.84,0-1.13-.49-.6-1.01.29-.28.31-.28.69-.08h0Z"/>
      <path class="cls-2" d="m87.75,54.91c-.75.79-.21,2.14.85,2.14.72,0,1.2-.46,1.21-1.15,0-1.17-1.3-1.8-2.06-1h0Zm1.51.63c.18.39.18.47-.06.73-.54.59-1.33.3-1.32-.48,0-.87,1.01-1.06,1.38-.26h0Z"/>
      <path class="cls-2" d="m134.39,61.01c-.46.32-.46,1.01,0,1.45.95.9,2.34-.15,1.48-1.12-.46-.52-1.03-.65-1.48-.33h0Zm1.04.53c.29.19.15.7-.21.77-.31.06-.72-.35-.71-.71,0-.23.59-.26.92-.05h0Z"/>
      <path class="cls-2" d="m128.03,61.27c-.25.25-.39.55-.39.86,0,.56.58,1.25,1.07,1.26.94,0,1.67-1,1.24-1.69-.19-.31-1.02-.8-1.37-.8-.09,0-.35.18-.56.38h0Zm1.38.53c.56.64-.42,1.45-1.02.84-.46-.46-.26-1.13.33-1.12.23,0,.55.13.68.29h0Z"/>
      <path class="cls-2" d="m131.24,61.22c-.37.36-.38.47-.14,1,.19.43.43.56,1.18.66.92.12,1.33-1.04.57-1.64-.51-.41-1.21-.41-1.61-.02h0Zm1.26.33c.4.21.37.6-.05.76-.44.16-.91-.06-.9-.44,0-.5.38-.63.95-.32h0Z"/>
      <path class="cls-2" d="m127.35,68.61c-.46.7.02,1.64.85,1.64.94,0,1.29-1.11.54-1.71-.54-.43-1.08-.41-1.39.06h0Zm1.11.3c.35.26.18.88-.24.88-.41,0-.71-.57-.46-.86.24-.28.34-.28.7-.02h0Z"/>
      <path class="cls-2" d="m130.67,68.84c-.59.65,0,1.9.91,1.91.49,0,1-.51,1.01-1.01,0-.91-1.34-1.54-1.92-.9h0Zm1.23.51c.53.6-.18,1.22-.74.65-.21-.21-.27-.42-.2-.64.13-.41.59-.41.95,0h0Z"/>
      <path class="cls-2" d="m85.87,69.26c-.86.64-.51,2.14.5,2.14.52,0,1.1-.59,1.1-1.12,0-.89-.96-1.51-1.6-1.02h0Zm1.03.77c.27.77-.62,1.29-.99.59-.14-.26-.12-.41.08-.72.31-.48.72-.42.91.13h0Z"/>
      <path class="cls-2" d="m124.39,75.82c-.55.6-.12,1.55.77,1.69.37.06.54,0,.74-.28.34-.47.32-.78-.07-1.28-.38-.49-1.06-.55-1.44-.13h0Zm1.12.54c.09.25.07.43-.08.58-.19.2-.26.19-.55-.1-.2-.2-.3-.43-.24-.58.15-.37.72-.31.87.1h0Z"/>
      <path class="cls-2" d="m127.19,76.76c-.32.35-.35.7-.1,1.19.24.45.44.58.94.58.46,0,.75-.37.76-.98,0-.75-1.12-1.31-1.6-.79h0Zm1.06.68c.19.61-.4.88-.7.32-.25-.47-.19-.64.22-.64.23,0,.41.12.47.31h0Z"/>
      <path class="cls-2" d="m129.99,78.04c-.33.37-.34.79-.02,1.25.26.38.97.47,1.28.16.31-.3.22-.98-.16-1.35-.43-.42-.76-.44-1.09-.07h0Zm.83.5c.19.36.09.62-.24.62-.25,0-.46-.54-.31-.78.15-.25.37-.18.55.16h0Z"/>
      <path class="cls-2" d="m86.89,78.94c-.58.52-.61,1.32-.07,1.83.45.42,1,.4,1.47-.07.48-.47.5-1.14.06-1.7-.4-.51-.92-.54-1.46-.06h0Zm.94.24c.43.29.4,1.19-.06,1.36-.66.25-1.1-.71-.57-1.23.28-.28.37-.3.63-.13h0Z"/>
      <path class="cls-2" d="m118.86,84.28c-.37.53-.3,1.03.23,1.56.37.38.55.45.89.37.59-.14.86-.45.86-1,0-1.06-1.41-1.73-1.98-.93h0Zm1.17.3c.19.1.29.33.29.62,0,.39-.06.46-.38.46-.67,0-1.09-.66-.68-1.07.23-.23.38-.23.76-.01h0Z"/>
      <path class="cls-2" d="m91.21,84.77c-.28.28-.39.56-.4,1,0,.83.4,1.2,1.15,1.06.67-.13,1.03-.6,1.04-1.36,0-1.01-1.05-1.43-1.79-.7h0Zm1.14.29c.48.49-.2,1.57-.84,1.32-.37-.14-.29-.98.12-1.27.42-.3.47-.3.72-.05h0Z"/>
      <path class="cls-2" d="m122.28,85.82c-.62.68.05,2.2.97,2.21.95,0,1.37-1.32.66-2.09-.45-.49-1.24-.54-1.63-.12h0Zm1.3.41c.29.35.14,1.24-.22,1.3-.52.09-1.14-1.07-.77-1.43.19-.18.8-.1.99.13h0Z"/>
      <path class="cls-2" d="m86.25,85.96c-.42.31-.63,1.01-.42,1.42.44.86,1,1.1,1.69.74.66-.35.77-1.86.17-2.18-.39-.21-1.13-.2-1.44.03h0Zm1.27.6c.25.47-.13,1.17-.63,1.17-.29,0-.41-.12-.52-.51-.1-.36-.09-.58.05-.74.29-.34.9-.29,1.1.08h0Z"/>
      <path class="cls-2" d="m113.23,87.62c-.35.39-.35,1.16,0,1.49.84.77,2.04-.27,1.51-1.31-.18-.36-.34-.45-.75-.46-.3,0-.62.12-.77.28h0Zm1.1.68c.05.47-.36.72-.7.43-.22-.18-.27-.65-.09-.82.26-.26.75-.01.79.4h0Z"/>
      <path class="cls-2" d="m97.98,88.29c-.64.57-.8,1.43-.34,1.9.57.58,1.6.43,1.98-.28.37-.7.3-1.33-.17-1.71-.55-.44-.89-.42-1.47.09h0Zm1.34.6c.11.45-.3,1.17-.67,1.17-.13,0-.38-.08-.55-.18-.25-.13-.29-.27-.21-.59.16-.59.38-.79.88-.79.34,0,.48.1.55.39h0Z"/>
      <path class="cls-2" d="m105.1,89.75c-.44.47-.3,1.44.24,1.75.37.21.47.21.84,0,.98-.54.79-1.9-.28-2-.37-.04-.61.04-.8.24h0Zm1.13.41c.37.45-.15,1.14-.7.93-.23-.09-.33-.84-.13-1.04.18-.18.63-.12.83.11h0Z"/>
      <path class="cls-2" d="m113.79,90.54c-.47.46-.48.78-.08,1.45.53.88,1.64.62,1.82-.43.07-.42.02-.65-.25-.98-.41-.53-.98-.55-1.5-.04h0Zm1.11.4c.23.26.25.38.1.7-.22.48-.56.49-.88.03-.29-.42-.29-.5.02-.8.32-.31.43-.3.77.08h0Z"/>
      <path class="cls-2" d="m94,91.59c-.62.73-.55,1.56.19,1.94.88.46,1.81-.12,1.79-1.1,0-.42-.12-.67-.42-.94-.57-.51-1.06-.48-1.56.1h0Zm1.18.27c.53.48.26,1.3-.43,1.29-.67,0-.89-.6-.44-1.22.29-.4.49-.42.87-.07h0Z"/>
      <path class="cls-2" d="m102.94,92.74c-.67.66-.12,1.87.85,1.88.95,0,1.57-1.31.9-1.92-.4-.37-1.35-.35-1.75.04h0Zm1.5.42c.16.42-.22,1-.65,1-.47,0-.75-.53-.52-.97.18-.34,1.05-.36,1.17-.02h0Z"/>
      <path class="cls-2" d="m113.48,94.24c-.76,1.07.54,2.3,1.47,1.38.4-.4.4-.78-.01-1.31-.41-.53-1.1-.57-1.46-.07h0Zm1.15.49c.14.38-.05.73-.38.73-.32,0-.58-.43-.47-.77.14-.43.69-.4.85.04h0Z"/>
      <path class="cls-2" d="m89.58,94.84c-.43.47-.4,1.36.05,1.73.43.36.92.38,1.37.06.45-.32.5-1.46.07-1.85-.39-.35-1.15-.33-1.5.05h0Zm1.29.8c.03.41-.03.59-.21.66-.42.16-.86-.18-.85-.67,0-.55.13-.67.63-.61.32.04.4.14.43.61h0Z"/>
      <path class="cls-2" d="m101.2,96.62c-1.23.33-.7,2.25.53,1.95.83-.2,1.05-1.1.44-1.8-.25-.29-.37-.31-.98-.14h0Zm.74.89c.03.36-.03.5-.24.56-.44.11-.67-.03-.67-.41,0-.81.83-.95.91-.15h0Z"/>
      <path class="cls-2" d="m71.27,44.65c-.44.21-1.03,1.29-1.02,1.87.01.64.28,1.03.97,1.38.73.38,1.1.4,1.72.09.91-.46,1.24-1.85.62-2.64-.61-.78-1.52-1.06-2.29-.7h0Zm1.12.93c.67.31.72,1.21.08,1.54-.38.2-1.25-.2-1.25-.57,0-.3.31-.88.54-1.03.21-.14.19-.14.62.06h0Z"/>
      <path class="cls-2" d="m67.1,74.58c-.36.21-.74.95-.74,1.47,0,.94.84,1.8,1.77,1.81,1.59,0,2.21-2.28.85-3.13-.54-.34-1.42-.41-1.87-.15h0Zm1.31.95c.19.1.29.32.29.59,0,.64-.21.87-.69.75-.53-.14-.81-.72-.56-1.17.2-.37.49-.42.96-.16h0Z"/>
      <path class="cls-2" d="m81.14,46.83c-1.38,1.36-1.93,4.26-2.73,14.54-1.28,16.27-1.66,22.22-1.48,23.05.36,1.69,1.74,2.34,2.78,1.31.38-.37.51-.69.67-1.6.11-.62.7-3.55,1.3-6.5s1.11-5.51,1.11-5.68c0-.17-.22-.66-.5-1.1-.47-.75-.5-.88-.49-2.2,0-.77.11-2.32.24-3.43l.23-2.02.92-.98.92-.98-.08-.83c-.06-.69-.36-7.4-.53-11.88-.04-1.16-.08-1.26-.54-1.69-.64-.58-1.23-.59-1.81-.02h0Zm1.14.71c.11.14.29,2.63.47,6.79l.3,6.57-.82.91c-.45.5-.85,1.05-.89,1.22-.15.68-.57,4.85-.58,5.76,0,1.16.17,1.84.67,2.58l.38.56-1.2,6c-1.51,7.53-1.39,7.03-1.71,7.23-.4.24-.78-.05-1.02-.77-.16-.51-.08-2.19.58-11.22.42-5.85.84-11.43.93-12.42.09-.99.24-2.81.35-4.06.38-4.57.93-7.38,1.71-8.7.42-.7.55-.77.82-.45h0Z"/>
      <path class="cls-2" d="m110.74,56.91c-.58.33-.85.81-.86,1.51-.01.87.62,1.58,1.42,1.59.67,0,1.5-.5,1.71-1.05.22-.56.08-1.42-.29-1.79-.35-.35-1.54-.51-1.98-.26h0Zm1.31,1c.27.33.13.75-.34,1-.34.19-.45.19-.66.02-.14-.12-.25-.36-.25-.56,0-.59.87-.91,1.24-.46h0Z"/>
      <path class="cls-2" d="m117.24,57.71c-.51.3-.82.83-.82,1.39,0,.16.7,1.18,1.57,2.28,1.18,1.49,1.74,2.07,2.26,2.32l.68.34.58-.33c.74-.42,1.05-1.19.79-1.96-.23-.69-3.13-4.14-3.58-4.26-.59-.16-.95-.11-1.48.21h0Zm1.12.72c.33.13,2.48,2.73,2.26,2.73-.09,0-.35.18-.56.38l-.38.38-.97-1.18c-1.2-1.46-1.39-1.89-.98-2.19.34-.25.32-.24.63-.12h0Zm3.04,3.98c0,.37-.41.59-.66.34-.24-.25-.03-.66.35-.65.22,0,.31.1.31.31h0Z"/>
      <path class="cls-2" d="m105.67,60.06c-.5.35-.82,1.03-.82,1.77,0,.58.08.7,1.21,1.74l1.22,1.12-.68,1.35c-.9,1.79-1.21,3.18-1.16,5.19l.04,1.59-1.55-1.66c-1.31-1.4-1.65-1.67-2.16-1.77-1.3-.23-2.25.78-2.05,2.17.09.6.28.85,1.67,2.23.87.86,2.05,2,2.64,2.55,1.02.95,1.09.99,1.7.91.67-.08,1.52-.79,1.52-1.27,0-.17.19-.11.72.22.96.61,2.66,1.03,3.79.92,1.97-.19,4.12-1.24,5.53-2.69.75-.76,1.62-2.36,1.93-3.53.5-1.89.16-5.64-.62-6.73-1.81-2.54-5.42-3.59-7.98-2.34l-.91.44-1.3-1.23c-1.1-1.04-1.38-1.23-1.85-1.23-.31,0-.7.1-.9.24h0Zm2.41,2c1.09,1.07,1.12,1.13.8,1.3-.19.1-.42.33-.52.51-.17.32-.23.29-1.24-.63-1.23-1.12-1.45-1.57-1.09-2.12.35-.53.73-.36,2.05.94h0Zm7.18.65c.64.24,1.16.6,1.79,1.23,1.03,1.04,1.34,1.86,1.46,3.92.19,3.15-.99,5.53-3.56,7.18-1.27.82-2.36,1.12-3.88,1.08-2.01-.06-3.43-1.02-4.33-2.95-.73-1.57-.4-4.56.73-6.79.47-.92.51-.95.78-.71.28.25.27.29-.15,1.22-.95,2.09-.95,3.95,0,5.78.94,1.8,1.9,2.46,3.57,2.47,2.33,0,4.95-2.09,5.68-4.55.59-1.98.49-3.56-.32-5.25-.37-.77-.52-.92-1.5-1.41-.99-.5-1.2-.55-2.34-.54-.69,0-1.44.08-1.66.18-.36.15-.46.12-.76-.21-.31-.33-.32-.39-.1-.47,1.66-.63,3.25-.69,4.59-.18h0Zm-5.26,1.75c.15.18.15.34.01.63-.28.6-.72.43-.77-.3-.04-.48,0-.58.26-.58.17,0,.39.11.5.24h0Zm4.95.26c1.3.57,1.8,1.77,1.69,3.99-.06,1.23-.14,1.58-.58,2.46-1.17,2.35-4.24,3.76-5.83,2.68-.3-.2-.8-.84-1.15-1.45-.6-1.07-.62-1.12-.6-2.57.01-1.3.07-1.61.47-2.46.37-.79.52-.97.83-.97.48,0,1.13-.63,1.25-1.23.11-.56.65-.75,2.13-.77.75,0,1.28.08,1.79.31h0Zm-11.26,7.57c1.35,1.46,1.69,1.9,1.49,1.98-.14.05-.38.33-.53.62l-.28.53-1.82-1.86c-1.38-1.41-1.81-1.96-1.81-2.27,0-.69.17-.89.71-.89.44,0,.7.22,2.24,1.89h0Zm2.35,2.99c.37.2.37.5,0,.84-.25.23-.3.23-.48.02-.11-.14-.15-.41-.09-.63.11-.44.15-.45.57-.22h0Z"/>
      <path class="cls-2" d="m118.24,73.63c-.67.62-.25,2.34.58,2.35,1.26,0,2.02-1.73,1.05-2.42-.47-.33-1.22-.3-1.62.08h0Zm1.06.95c0,.17-.11.31-.24.31s-.23-.14-.23-.31c0-.17.11-.31.24-.31.13,0,.23.14.23.31h0Z"/>
      <path class="cls-2" d="m101.66,76.09c-.95.54-1.05,1.93-.21,2.95.53.65,2.04.09,2.37-.88.22-.64.03-1.45-.44-1.87-.39-.36-1.26-.46-1.72-.2h0Zm1.16,1.12c.23.36.23.42,0,.78-.33.5-.62.5-.85,0-.24-.53-.23-.63.06-.92.34-.34.5-.31.79.15h0Z"/>
    </g>
    <rect class="cls-1" width="190" height="130"/>
  </g>
</svg>