<?xml version="1.0" encoding="UTF-8"?>
<svg id="Layer_2" data-name="Layer 2" xmlns="http://www.w3.org/2000/svg" viewBox="0 0 190 130">
  <defs>
    <style>
      .cls-1 {
        fill: none;
      }

      .cls-2 {
        fill: #141414;
      }
    </style>
  </defs>
  <g id="Layer_1-2" data-name="Layer 1">
    <g>
      <g>
        <path class="cls-2" d="m86.81,64.87s.02-.02.03-.03c0,0-.02.02-.03.03Z"/>
        <path class="cls-2" d="m66.55,47.72c3.55,2.41,7.05,4.93,10.97,6.68.81.47,1.5,1.11,2.25,1.67,2.65,2.32,1.76,7.57,5.88,8.47.48.7,1.3-1.17,1.69-1.45,1.24,1.27,2.78,3.4,3.95.91,5.68,5.63,24.46,24.9,30.24,30.42,2.22,2.2,4.11,4.89,6.92,6.38,3.48,1.36,2.4-2.18,1.5-4.04-3.13-4.13-21.01-20.47-24.42-24.38-3.9-3.73-7.45-7.81-11.47-11.41,2.48-1.33,1.07-2.35-.37-3.9.09-.08.19-.16.29-.23-.01-.02-.03-.03-.05-.04.71-1.26.83-2.63-.91-3.48-4.75-2.29-7.05-2.16-9.5-7.49-5.3-7.84-12.27-18.02-22.78-17.96-1.26,1.55-3.87,2.26-4.02,4.52,0,0,0,0,0,0,0,.06,0,.13.01.19,0,.02,0,.03,0,.05,0,0,0,0,0,0,0,0,0,0,0,0,0,0,0,0,0,0,0,0,0,0,0,0h0s0,0,0,0c0,0,0,0,0,0,0,0,0,0,0,0h0s0,0,0,0h0s0,0,0,0c0,0,0,0,0,0,0,0,0,0,0,0,0,0,0,0,0,0,0,0,0,0,0,0h0c-.04,1.29.63,2.36,1.24,3.45.84,1.29,1.27,2.96,2.09,4.27.99,1.77,2.1,3.54,3.43,5.08,1.04.73,2.12,1.4,3.06,2.25Zm21.73,12.49c-2.09-1.87-3.95-4.09-4.73-6.84,2.94,1.04,4.99,2.73,7.28,4.97-.11.07-.18.2-.17.33-.01.01-.03.03-.04.04-.42-.24-1.1-1.3-1.58-.84-.35.44.79.95,1.05,1.28,0,.03,0,.06.01.09-.15.15-.31.31-.46.46-.38-.26-.9-1.31-1.4-.92-.4.51.68.98.91,1.4-.14.13-.29.27-.43.4-.19-.12-.35-.24-.44-.37Zm-27.95-27.65c.41-.29.77-.65,1.05-1.09,9.35,3.3,16.2,12.98,21.41,21.01-.02.01-.03.03-.04.05-9.77-2.77-17.28-11.54-22.42-19.97Zm32.58,28.45s0,0,.01,0c-.58.51-1.14,1.13-1.59,1.77-.72-.58-1.35-1.2-2.02-1.82.58-.6,1.2-1.16,1.8-1.75.61.59,1.25,1.15,1.8,1.78Zm-2.32,2.86s-.03.02-.05.03c-.15.21-.16.12-.33.32-.61.07-1.58-1.15-2.26-1.65.33-.37.48-.69.82-1.05.64.38,1.11.97,1.7,1.43,0,0,0,0,0,.01.02.02.04.04.06.06,0,0,0,0,0,0,.34.21.44.6.07.85Zm38.56,32.87c.48,1,.92,2.04,1.02,3.16-.45-.64-1.15-1.15-1.64-1.74-.31-.32-.8.17-.48.48.55.57,1.12,1.12,1.62,1.73,0,.02-.01.04-.02.05-1.42.14-4.18-2.78-4.9-3.54-6.51-6.72-26.48-26.77-33.08-33.41.54-.74,1.14-1.44,1.83-2.05,7.46,7.25,28.16,28.08,35.66,35.31Zm-35.35-36.41c-.11.08-.22.16-.34.26-.57-.66-1.25-1.24-1.88-1.86.12-.13.23-.26.34-.39.02.01.03.02.05.04-.02.02-.04.04-.06.06,0,0,0,0,.01.01.02-.02.05-.04.07-.06,0,0,0,0,0,0,0,0,0,0,0,0h0c.36-.31.73-.63,1.12-.89,2.07,2.18,1.95,1.94.68,2.84Zm-30.38-31.66c8.51,1.94,14.06,9.68,18.84,16.41,2.63,4.93,3.44,6.04,8.7,8.09,1.04.54,2.98.87,2.75,2.39-.03.02-.06.06-.08.1-.39-.34-1.21-1.47-1.75-1.12-.15.15-.18.42.06.55.44.29.89.65,1.21,1.08-.09.07-.17.14-.26.21-.86-.9-2.86-2.08-3.3-2.38-.38-.22-.73.37-.34.59,1.07.7,2.19,1.35,3.1,2.26-.32.35-.62.71-.95,1.06-2.25-2.12-4.92-4.46-8.03-5.27,0,0,0-.02-.01-.02.35-.54-.61-1.76-.87-2.27-5.9-7.39-11.42-16.22-20.76-19.52.08-.21.13-.46.14-.73.81.3,2.43.36,2.75.54,2.29.98,4.32,2.46,6.15,4.13.18.19.43.42.68.18.6-.62-3.27-3.08-3.85-3.51-2.38-1.6-3.18-1.47-5.77-2.09-.04-.27-.11-.54-.2-.77.59.02,1.19.08,1.78.09Zm-5.54,2.56c.82-.99,2.25-1.6,2.97-2.65.01,0,.02,0,.03,0,.27.64.46,1.48.14,2.13,0,0,0,0,0,0-.56,1.35-2.19,2.12-3.63,1.86.01-.47.13-.91.49-1.34Zm-1.15,1.42s0,0,0,0c0,0,0,0,0,0Zm4.51,7.86c-.56-1.05-1.2-2.05-1.72-3.13-.71-1.34-1.78-2.6-2.07-4.12.42.06.84.04,1.25-.03.42,1.08.45,2.3,1.28,3.2.63,1.27,1.48,2.43,2.17,3.67.21.39.81.04.59-.34-1.25-2.2-2.87-4.2-3.38-6.72.11-.04.22-.09.33-.14.02.1.09.19.21.24,5.19,8.51,12.85,17.28,22.7,20.05.06.06.14.09.23.09.76,3.18,2.96,5.64,5.38,7.77-.19.19-.37.38-.54.58-.95-.8-1.93-1.56-2.68-2.58-.25-.22-.42-.78-.82-.57-.87.42,2.49,3.24,2.96,3.56.02.06.04.11.07.14-.15.17-.29.35-.43.52-.52-.31-.99-.7-1.45-1.08-.15-.12-.32-.08-.43.03-.49.55,1.09,1.25,1.44,1.59-.08.09-.16.19-.24.28-3.21.15-3.16-5.36-4.54-7.45-2.17-2.87-5.91-3.73-8.79-5.7-2.58-1.24-4.87-2.98-7.14-4.69-2.1-1.09-3.13-3.29-4.38-5.19Z"/>
        <path class="cls-2" d="m90.52,63.01s0,0,0,0c0,0,0,0,0,0Z"/>
        <polygon class="cls-2" points="56.73 32.65 56.73 32.66 56.73 32.65 56.73 32.65"/>
        <path class="cls-2" d="m72.48,36.16c-.12.12-.16.32,0,.48.31.32.8-.17.48-.48-.16-.16-.35-.11-.48,0Z"/>
        <path class="cls-2" d="m73.96,37.65c-.12.12-.16.32,0,.48.31.32.8-.17.48-.48-.16-.16-.35-.11-.48,0Z"/>
        <path class="cls-2" d="m75.31,39.24c-.12.12-.16.32,0,.48,2.28,2.25,4.09,4.95,5.81,7.63.18.5.89.26.66-.22-.67-1.07-5.49-8.53-6.47-7.89Z"/>
        <path class="cls-2" d="m83.21,49.13c-.25-.3-.61-1.07-1.07-.7-.16.16-.08.47.17.63.22.24.43.82.84.55.15-.12.17-.33.07-.48Z"/>
        <path class="cls-2" d="m87.39,53.34c-.12.12-.16.32,0,.48.31.32.8-.17.48-.48-.15-.16-.35-.11-.48,0Z"/>
        <path class="cls-2" d="m88.05,57.13c-.12.12-.16.32,0,.48.31.32.8-.17.48-.48-.15-.16-.35-.11-.48,0Z"/>
        <path class="cls-2" d="m87.32,55.94c-.31-.32-.8.17-.48.48.31.32.8-.17.48-.48Z"/>
        <path class="cls-2" d="m83.89,60.62c-.12.12-.16.32,0,.48.31.32.8-.17.48-.48-.16-.16-.35-.11-.48,0Z"/>
        <path class="cls-2" d="m63.75,40.79c-.31-.32-.8.17-.48.48.31.32.8-.17.48-.48Z"/>
        <path class="cls-2" d="m66.65,37.68c.21.22.43.68.79.43.77-.84-5.12-5.04-5.85-6.01-.32-.31-.79.17-.48.48,1.79,1.76,3.88,3.21,5.54,5.1Z"/>
        <path class="cls-2" d="m69.25,39.57c-.31-.32-.8.17-.48.48.31.32.8-.17.48-.48Z"/>
        <path class="cls-2" d="m71.02,41.79c.31.32.8-.17.48-.48-.31-.32-.8.17-.48.48Z"/>
      </g>
      <g>
        <path class="cls-2" d="m81.63,89.33c.05-.1.09-.21.14-.31-.06-.04-.12-.09-.19-.13,5.89-5.73,11.77-11.47,17.66-17.2l-.64-.63c-5.84,5.73-11.68,11.46-17.57,17.13-.19-.02-.36.13-.33.33-.15.1-.1.17-.11.33,0,.11.11.35.17.34,1.61,4.98-2.86,9.31-6.92,11.34-.96.64-2.09.54-3.2.77,1.58-2.02,4.53-6.19,4.42-6.23,1.75-1.96-1.82-4.82-3.63-5.16-2.6-.88-6.78,2.52-8.31,4.5.07-.62-.05-1.25-.07-1.87.18-.07.3-.26.18-.48.02-1.61,1.75-5.11,3-6.15,2.02-1.63,5.36-3.44,7.88-2.05.37.34,1.01.03.62-.43.28-.27.55-.55.82-.83.02,0,.05-.01.07-.02,5.76-5.69,11.59-11.32,17.42-16.95l-.5-.49c-6.14,6.02-12.27,12.03-18.46,17.95-1.55-1-4.99-.02-6.41,1-2.86,1.39-4.51,4.56-5.11,7.56-.04,0-.08,0-.12,0-.3,7.35,1.01,2.77,4.24.94.65-.5,2.8-1.66,3.16-1.73.6-.11,1.08-.34,2.07-.04.69.33,3.36,2.38,2.92,3.19-.07.4-2.27,3.79-3.17,4.93-.06,0-.12,0-.17-.01-.52.8-1.04,1.61-1.69,2.31-.15.15-.12.33-.01.45-.02.69,1.87.36,2.25.34,4.02-.98,8.09-4.03,9.69-7.94.62-1.33.39-2.75-.1-4.75,0,0,.01,0,.02,0Z"/>
        <path class="cls-2" d="m86.88,74.86c0,.19.17.36.35.36.61.57,1.33,1,1.97,1.53.16.41.61,1.08.91.37,0-.03-.01-.05-.02-.08,2.6-2.18,5.14-4.48,7.65-6.84l-.54-.52c-2.43,2.31-4.86,4.6-7.3,6.89-.14-.23-.33-.44-.55-.61,1.69-1.67,3.37-3.35,5.04-5.03.25-.39,1.17-.77.82-1.29-.47-.47-1.61,1.28-2.06,1.57-1.46,1.47-2.93,2.92-4.39,4.38-.34-.2-.64-.51-.97-.78,1.27-1.24,2.56-2.44,3.94-3.57.37-.05.5-.61.1-.73-.63,0-1.05.74-1.56,1.07-1.02.88-1.99,1.8-2.96,2.74-.15-.18-.27-.37-.36-.57.17-1.14,1.5-1.72,2.22-2.53,1.65-1.51,3.24-3.08,4.87-4.61l-.48-.47c-1.57,1.46-3.12,2.93-4.67,4.41-1.11,1.12-3.81,2.63-2.02,4.31Z"/>
        <path class="cls-2" d="m106.23,56.6c.32-.31-.17-.8-.48-.48-.16.16-.11.35,0,.48.12.12.32.16.48,0Z"/>
        <path class="cls-2" d="m104.42,58.53c.32-.31-.17-.8-.48-.48-.32.31.17.8.48.48Z"/>
        <path class="cls-2" d="m111.56,51.61c-.58-.42-.86-1.06-1.57-1.11-.09-.14-.25-.23-.45-.13-4.27,3.8-7.77,8.41-12.06,12.21-.4.35-.79.7-1.18,1.05l.5.5c4.64-4.04,8.49-8.87,12.96-13.09,0,0,0,0,0,0,.2.13.41.25.59.4-.91.58-2.53,2.73-2.86,2.99-.19.22.03.59.32.55.61-.37.98-1.09,1.52-1.58.22-.34,1.16-1.07,1.51-1.55.14.13.27.26.4.39-2.19,2.02-4.01,4.07-6.07,6.17-.32.31.17.8.48.48,1.99-2.01,3.85-4.15,5.96-6.03.13.32.5.52.69.81-.62.43-1.41,1.47-1.77,1.74-.16.16-.11.36,0,.48.4.51,1.69-1.4,2.17-1.66.05.07.08.14.13.2-4.29,4.29-8.64,8.52-13.02,12.72l.53.53c4.42-4.27,8.76-8.69,13.12-12.93.54-.18.29-.75-.08-.72-.13-.36-.56-.8-.87-1.13.09-.44-.62-.99-.96-1.3Z"/>
        <path class="cls-2" d="m71.46,84.26c-1.98.15-3.33,1.09-4.65,2.51-.16.15-.11.35,0,.47.54.61,1.79-2.22,4.54-2.28.66-.12,1.34-.29,2.01-.17.37.22.81-.15.51-.51-.72-.4-1.65-.17-2.42-.03Z"/>
        <path class="cls-2" d="m132.29,34.91c-.09-.16-.26-.26-.44-.2-1.28,1.4-3.23,6.31-5.63,4.75-.79-.51-1.45-.71-1.94-1.56-.37-1.34-.09-2.71.9-3.69.42-.54,1.39-1.61,1.57-2.18-.03-.1-.08-.17-.12-.22.31-.36-.13-.62-.47-.68-1.8-.46-3.65.55-5,1.67-4.14,3.11-3.12,5.46-3.52,8.04-7.55,7.1-15,14.38-22.45,21.68l.51.51c7.63-7.37,15.23-14.77,22.65-22.33.34-2.69-.71-4.88,4.34-8.19,1.02-.56,2.29-1.07,3.44-.67-4.09,3.01-4.17,7.35,1.13,8.68,2.19-.49,3.47-2.99,4.62-4.73.65,2.45.39,5.73-1.51,7.55.03.02.05.05.08.07-1.5,1.56-3.45,3-5.72,2.75-.06-.06-.13-.11-.19-.17-.12.12-.26.21-.36.35,0,0,0,0,0,0-7.77,7.28-15.39,14.71-23,22.17l.65.64c7.6-7.4,15.41-14.7,22.95-22.18,6,.62,10.63-6.22,7.51-12.08Z"/>
        <path class="cls-2" d="m64.19,89.22s-.01,0-.02.01c-.03.05-.06.1-.09.15.04-.05.07-.11.11-.16Z"/>
        <path class="cls-2" d="m93.24,69.15c-.32.31.17.8.48.48.32-.31-.17-.8-.48-.48Z"/>
        <path class="cls-2" d="m65.25,89.61c-.32.31.17.8.48.48.32-.31-.17-.8-.48-.48Z"/>
        <path class="cls-2" d="m65.98,88.36c-.32.31.17.8.48.48.32-.31-.17-.8-.48-.48Z"/>
      </g>
      <path class="cls-2" d="m81.04,86.21c-.03-.1.63-.63,1.18-1.09s10.18-9.54,10.77-10.15,4.9-4.47,4.9-4.47c0,0,.75-.06.3.35s-10,9.6-11.33,10.83-4.12,3.91-4.46,4.26c-.22.23-.63.53-.96.67-.19.08-.36-.29-.39-.4Z"/>
      <path class="cls-2" d="m100.59,68.13c-.59-.45.42-.93,1.22-1.61s16.72-16.38,17.59-17.28,4.01-3.77,4.01-3.77c0,0,.74-.09.08.52s-10.86,10.9-12.82,12.71-8.11,7.87-8.62,8.4-1.08,1.31-1.46,1.03Z"/>
    </g>
    <rect class="cls-1" width="190" height="130"/>
  </g>
</svg>