<?xml version="1.0" encoding="UTF-8"?>
<svg id="Layer_2" data-name="Layer 2" xmlns="http://www.w3.org/2000/svg" xmlns:xlink="http://www.w3.org/1999/xlink" viewBox="0 0 2925.33 2925.33">
  <defs>
    <style>
      .cls-1 {
        fill: #fff;
      }

      .cls-1, .cls-2 {
        fill-rule: evenodd;
      }

      .cls-3 {
        fill: #c1b191;
      }

      .cls-4 {
        fill: #e6e6e6;
      }

      .cls-5 {
        clip-path: url(#clippath);
      }

      .cls-6 {
        fill: none;
      }
    </style>
    <clipPath id="clippath">
      <circle class="cls-6" cx="1462.67" cy="1462.67" r="1364.14"/>
    </clipPath>
  </defs>
  <g id="menImage">
    <circle class="cls-3" cx="1462.67" cy="1462.67" r="1462.67"/>
    <circle class="cls-4" cx="1462.67" cy="1462.67" r="1364.14"/>
    <path class="cls-1" d="m1145.77,1651.55c21.14,42.28,183.82,161.1,213.45,163.78s26.99-52.81,66.62-89.8c39.63-36.99,121.54-81.91,174.38-50.2,52.84,31.71,203.45,132.11,200.81,116.26-2.64-15.85,10.32-37.16,38.19-17.26s49.01,27.83,49.01,80.67,18.5,229.87,47.56,338.2c29.06,108.33,10.57,142.68-29.06,208.73s-116.26,68.7-145.32,63.41c-29.06-5.28-169.1-134.75-182.31-219.3-13.21-84.55,15.85-229.87,13.21-264.22s-110.97-31.71-126.83-5.28,26.42,36.99,0,58.13c-26.42,21.14-13.21,34.35-7.93,55.49,5.28,21.14-6.23,48.69-23.78-10.57-17.55-59.26-23.78-84.55-36.99-108.33-13.21-23.78-42.28-113.61-42.28-113.61l21.14,137.39-31.42,72.29-195.81-222.9,129.47,253.65,71.34,68.7-26.42,451.82-258.94-858.71,66.05,34.35,15.85-142.68Z"/>
    <path class="cls-1" d="m1396.78,1477.17c109.77,34.66,182.31,21.14,208.73,2.64,26.42-18.5,110.97-55.49,132.11-103.05,21.14-47.56,21.14-132.11,31.71-84.55s31.71,134.75-5.28,195.52c-36.99,60.77-106.82,120.59-106.82,120.59l146.46,127.77s-142.68-26.42-169.1-71.34c-26.42-44.92-29.06-58.13-55.49-52.84-26.42,5.28-63.41,7.93-97.76-13.21-34.35-21.14-26.42-18.5-50.2-10.57-23.78,7.93-76.91-43.81-76.91-43.81l146,28s4.89-21.18-40.03-29.11c-44.92-7.93-137.39-34.35-155.89-68.7-18.5-34.35-18.5-103.05-18.5-103.05,0,0,10.57,73.98,110.97,105.69Z"/>
    <path class="cls-1" d="m1333.37,1308.07c55.72-5.26,105.66,21.36,161.17,15.85,52.81-5.24,105.85-26.29,155.43-39.29-7.57,104.29-173.55,184.4-256.57,111.42-25.15-22.11-29.36-66.16-60.04-87.98Z"/>
    <path class="cls-1" d="m1246.18,478.42c-19.64,12.39-43.48,24.79-59.36,44.19-16.51,20.16-20.45,43.13-30.53,66.18-18.39,42.06-63.12,66.06-76.88,110.02-4.28,13.66-3.93,35.55,1.64,49.1,7.6,18.47,9.2,9.84,23.78,21.15,18.84,14.61,23.5,38.48,15.96,62.42-4.81,15.27-15.16,30.83-17.05,47.23-1.72,14.97-21.21,54.26-24.01,70.02,48.8,18.12,137.28-63,187.6-66.05,40.41-2.45,84.51,14.12,124.18,10.64,26.72-2.34,42.96-2.81,55.81,22.38,28.31,55.53-42.69,83.71-95.44,104.37-59.3,23.22-97.3,2.51-155.89,18.5-93.29,25.45-95.42,200.29,10.17,227.58,1.57,31.99,6.19,82.53,21.88,110.96,6.48,11.73,38.46,52.01,54.21,49.83,20.7-2.87,23.82-47.51,27.94-63.68,15.68-61.53,51.93-107.92,91.06-156.78,20.03-25.01,15.78-3.83,37.82-27.87,16.72,52.33,112.65,44.41,129.47-7.93,6.2,20.84,21.14-16.29,42.28-13.21,68.04,9.91,110.55,59.04,140.04,44.92,88.47-42.38,38.03-211.33,34.35-219.58-17.44-39.05-228.75,35.47-237.87-5.52-11.3-50.83-27.41-110.4,26.56-146.03,38.56-25.45,181.47,7.63,219.23-17.55,12.27-8.18-22.13-30.76-26.42-47.28-7.98-30.74-102.83-22.12-126.94-24.38-32.79-3.07-67.25-7.79-97.19-21-12.45-63.78,125.16-40.36,153.2-41.74,19.62-.97,16.62,5.86,31.45-12.04,31.84-38.42,23.09-134.16,15.3-179.46-18.77-109.11-207.88-85.76-284.1-65.6-58.17,15.39-106.13,50.72-162.13,68.86-12.39,4.01-40.9,15.28-50.1-12.65Z"/>
    <path class="cls-2" d="m1660,1238.33c-6.22.21-14.93,3.67-13.22,15,3.04,8.5,18.16-2.16,21.15,7-10.71,10.26-25.77,14.9-39.66,21-42.06,18.48-91.87,32.29-146.29,35-73.16,3.65-124.3-11.17-187.29-12,3.66-7.03,8.51-10.26,14.98-17,3.43-3.57,16.03-11.03,14.98-17-1.79-10.23-12.94-2.27-15.86,0-5.49,4.27-9.69,9.14-12.34,15-3.07,6.8-1.47,20.82-12.34,19,.37-11.25,9.64-12.4,11.46-22-9-11.11-17.54-.16-21.15,7-4.6,9.12-6.19,23.48-6.17,35,.09,40.35,11.91,77.06,17.63,109,3.03-8.54-1.13-19.06-1.76-29-1.74-27.56-1.69-59.29-1.76-89,5.77,5.66,15.52,6.81,22.07,11.6.57.47,1.14.94,1.72,1.4,5.95,4.73,17.16,10.69,18.51,12,42.05,40.96,77.83,94.26,148.51,100,20.83,1.69,45.04-.16,60.81-5,3.18-.98,22.62-9.76,38.71-18.66,53.23-25.77,94.42-73.2,119.04-134.34,3.02,6.75,8.31,15.5,9.69,25,.59,4.03-2.95,10.21,1.76,12,18.74-34.9-22.75-81.7-43.18-81Zm-227.37,132c-32.22-12.76-33.22-6.85-64.32-18.67-1.48-.56-14.9-21.03-23.05-30.9,36.47,6.84,47.84,11.55,88.25,13.57,78.25,3.9,159.02-18.03,211.64-42.12l-8.94,34.12c-37.13,21.86-183.41,53.09-203.58,44Zm186.1-4.14l-18.5,17.17s-30.39,17.17-44.92,26.42c-14.53,9.25-38.31,11.89-75.3,10.57s-87.19-30.39-87.19-30.39c110.97,22.46,225.91-23.78,225.91-23.78Z"/>
    <g class="cls-5">
      <g>
        <path class="cls-2" d="m1722.22,579.33c-54.4-25.84-98.42,17.72-138,32,21.2-21.77,52.36-53.85,95-55,16.76-.45,43.46,4.26,43,23Z"/>
        <path class="cls-2" d="m1439.22,639.33c-1.2,8.97-14.93,11.44-25,15-18.35,6.49-43.54,9.54-65,10,24.42-7.28,54.29-24.02,81-30,1.47-.33,8.22.58,9,5Z"/>
        <path class="cls-2" d="m1138.22,698.33c-3.66-3.52,2.43-7.77,5-12,5.83-9.6,11.32-19.32,21-27,3.59-2.85,21.55-15.13,23-5,.69,4.79-20.21,14.84-23,17-12.87,9.96-18.23,16.71-26,27Z"/>
        <path class="cls-2" d="m1540.22,654.33c-36.26,16.74-81.88,24.12-136,23,41.33-10.67,92.64-11.36,130-26,3.04-.04,3.89,2.11,6,3Z"/>
        <path class="cls-2" d="m1292.22,690.33c-24.39.87-47.49-5.95-72-5-47.17,1.82-79.68,23.81-98,55,9.4-46.16,61.32-67.14,122-63,17.06,1.16,38.43,3.09,48,13Z"/>
        <path class="cls-2" d="m1797.22,781.33c-9.11,7.15-18.78-2.12-24-7-11-10.27-22.31-25.99-33-35-31.77,14.9-79.6,30.28-123,20-4-.95-8.06-4.7-12-5-3.46-.26-7.45,2.82-12,3-2.68.11-4.74-2.8-7-3-3.23-.28-10.51.86-11,1-11.68,3.39-14.71,18.12-23,24-5.55-2.16,1.71-12.27,1-19-6.86-14.41,4.14-34.55,10-46-1.71-2.29-5.63-2.36-9-3,2.55,13.42-8.12,21.73-12,32-1.43-7.88-1.98-28.47,7-34,45.99,2.42,106.29,10.9,150,0,8.85-2.21,23.1-10.84,32-7,2.89,1.25,13.93,16.69,17,20,13.01,14,22.23,24.58,34,38,5.33,6.08,14.18,10.79,15,21Z"/>
        <path class="cls-2" d="m1378.22,761.33c-6.91-6.79-20.78-23.86-23-42,9.33,1.06,14.66,11.29,24,20,7.91,7.38,27.64,16.63,19,28-6.68,2.92-13.28-.84-17-4,.28,2.79-.17,10.34-4,12-3.86-.14-8.78.78-10-2-35.41,18.49-95.61,18.23-150,15-14.45-.86-32.12-7.74-38-7-6.02.76-17.37,13.59-23,18-8.4,6.58-17.49,10.82-25,16-7.46,5.15-13.12,14.61-23,19,10.07-35.27,30.86-68.47,60-88,3.14.52,5.58,1.75,8,3,39.61-6.39,91-1,127-11,3.29-.71,3.37-4.63,7-5,9.58,4.63,14.21-4.51,22-4,5.43.36,16.02,10.04,23,15,9.4,6.69,15.91,13.6,23,17Z"/>
        <path class="cls-2" d="m1616.22,822.33c-.18-.85.39-.94,1-1,44.37,5.3,83.38,15.96,123,26-7.57,9.66-22.45,6.43-33,5-33.02-4.49-66.48-17.94-91-30Z"/>
        <path class="cls-2" d="m1592.22,824.33c7.55,16.12-10.12,25.55-23,31,4.19-15.48,6.15-28.18,23-31Z"/>
        <path class="cls-2" d="m1455.22,1011.33c1.28-20.28-3.81-39.85-6-63-1.61-17.03-.73-33.07-6-45-7.35-16.63-26.96-22.41-30-40,.97-.03.78-1.22,1-2,.81-.19,1-1,2-1,13.5,11.48,29.79,16.39,39,32,18.26,30.96.04,81.21,0,119Z"/>
        <path class="cls-2" d="m1560.22,1129.33c-5.75-4.91-2.42-10.52-4-20-4.37-26.19-15.39-58.37-21-93-5.81-35.86-9.69-70.98-8-105,.96-19.29,5.81-39.59,18-49,2.46-1.9,10.22-3.96,12,3,1.66,6.49-9.2,14.44-11,19-11.32,28.61-4.37,77.19,0,112,6.04,48.1,15.99,87.62,14,133Z"/>
        <path class="cls-2" d="m1298.22,897.33c7.7-7.34,17.48-14.97,28-21,9.28-5.32,21.38-14.6,34-10-.53,13.49-15.09,17.68-25,22-10.78,4.7-24.14,7.65-37,9Z"/>
        <path class="cls-2" d="m1360.22,873.33c13.67,2.7,29.85,8.09,27,24-14.68,1.52-23.59-10.96-27-24Z"/>
        <path class="cls-2" d="m1900.22,897.33c-11.84,17.5-18.81,39.85-29,59-4.24-20.4,7.02-73.14,25-77,5.35-1.15,10,.07,13,2,4.45,2.85,17.07,36.69,3,38-9.96.93-7.3-15.35-12-22Z"/>
        <path class="cls-2" d="m1564.22,933.33c1.16-5.11,18.21-.18,24-3,3.73-1.81,8.67,3.59,9,6,.74,5.41-5.83,10.17-11,11-10.7,1.71-17.12-12.14-22-14Z"/>
        <path class="cls-2" d="m1728.22,958.33c-6.46,24.78-37.95,27.28-68,25-18.7-1.42-32.91-9.76-47-16-5.34-2.36-13.03-1.16-14-8,37.28,6.02,87.36,21.26,121,1,1.83-1.1,3.39-2.82,8-2Z"/>
        <path class="cls-2" d="m1036.22,1121.33c-3.44-6.23-5.2-14.13-10-19-1.45,1.55-5.12.88-8,1-15.42-14.4-34.23-35.56-61-32,1.14-18.55,30.81-16.09,41-7-10.75-20.25-25.86-44.81-43-62-5.95,4.31-4.17,11.48-11,11-14.02-.98-.81-25.35,2-27,16.72-9.82,30.43,11.32,39,24,7.12,10.53,12.06,18.71,18,29,16.53,28.63,25.58,51.19,33,82Z"/>
        <path class="cls-2" d="m1360.22,990.33c-5.72,23.58-36.85,40.75-66,43-8.15.63-18.31-.35-26-1,12.67-9.02,29.08-12.06,44-18,16.62-6.62,27.32-16.67,40-26,.88-.65,5.95-.34,8,2Z"/>
        <path class="cls-2" d="m1605.22,1209.33c3.69-31.48,2.72-69.06-9-91-1.17-2.16-6.8.13-7-3-.04-6.23,2.79-8.48,7-9,18.67-2.3,32.85,63.48,21,88-2.89,5.98-9.87,10.84-12,15Z"/>
        <path class="cls-2" d="m975.22,1161.33c-3.65-5.19-19.43-23.13-15-37,1.9-5.97,11.76-10.24,17-3-.81,10.66-.97,31.85-2,40Z"/>
        <path class="cls-2" d="m1016.22,1185.33c-9.1-5.29-25.74-46.07-4-51,14.24-3.23,31.23,15.21,23,30-9.53-.13-9.46-9.87-17-12,.23,8.44,3.81,13.52,8,18,4.54-.8,7.74-2.93,14-2,14.4,9.14,13.38,43.02-2,46-15.16,2.93-39.21-17.09-49-30-3.88-5.12-5.53-11.46-10-15,14.08-4.09,27.43,9,37,16Zm17,10v-9c-4.07,2.64-13.59-.29-15,0,4.97,3.03,9.18,6.82,15,9Z"/>
        <path class="cls-2" d="m1434.22,1149.33c-1.45,1.55-5.12.88-8,1-14.22,16.87,2.31,45.94-3,69-10.35-3.76-18.96-25.91-19-46-.04-23.09,17.42-48.83,30-24Z"/>
        <path class="cls-2" d="m1563.22,1158.33c.51,21.16-19.88,51.06-47,47,1.26-4.63,5.96-5.95,9-9,10.9-10.94,19.16-25.04,28-38,1.72-3.34,7.9-1.89,10,0Z"/>
        <path class="cls-2" d="m1712.22,1230.33c-14.59-2.99-33.52-8.11-49-22-12.73-11.42-28.64-26.42-23-46h2c9.22,6.64,13.3,17.05,21,25,15.07,15.56,34.7,26.66,49,43Z"/>
        <path class="cls-2" d="m1512.22,1211.33c-23.92,4.34-43.33-17.79-41-43h2c8.57,2.49,14.22,13.6,23,22,5.59,5.35,21.85,10.07,16,21Z"/>
        <path class="cls-2" d="m1591.22,1196.33c-19.91-10.3-23.2,13.19-41,14-5.8-25.32,42.58-46.56,41-14Z"/>
        <path class="cls-2" d="m1398.22,1183.33c-6.05,27.62-30.19,37.15-55,46-1.88-3.97,5.71-7.25,10-11,12.41-10.87,27.83-26.52,39-38,3.04-.04,3.89,2.11,6,3Z"/>
        <path class="cls-2" d="m1433.22,1220.33c1.22-14.81,11.76-28.29,30-27,7.68.54,21.78,7.3,20,17-2.49,13.6-12.68-.58-21-1-12.3-.63-15.08,11.13-29,11Z"/>
        <path class="cls-2" d="m1518.22,1275.33c9.74-1.59,18.2-4.47,26-8,4.27-8.11-5.28-23.9,6-25,8.13,8,12.79,28.43,3,37-10.89,9.53-23.76.31-35-4Z"/>
        <path class="cls-2" d="m1763.22,1370.33c-1.08-29.1,8.14-74.67-4-96-3.53-6.2-30.31-21.55-12-26,6.21-1.51,16.54,5.54,20,9,24.14,24.14,8.74,85.62-4,113Z"/>
        <path class="cls-2" d="m1618.22,1455.33c-.12,16.2-18.75,21.38-31,26-26.63,10.05-63.43,15.01-98,9-22.62-3.93-40.9-11.54-62-18,57.5,8.84,142.83,8.26,180-19,3.2-2.35,7.87-2.92,11,2Z"/>
        <path class="cls-2" d="m1185.22,1518.33c6.02-2.49,9.64,4.45,14,7,15.62,9.15,32.4,17.06,48,27,49.47,31.5,99.23,67.81,163,86,5.47,1.56,15.67,4.35,20,5,10.45,1.57,17.23-1.96,18,6,1.21,12.59-34.28,5.09-39,4-61.17-14.18-115.08-50.34-160-82-23.59-16.63-39.99-36.12-64-53Z"/>
        <path class="cls-2" d="m1500.22,1572.33c7.52,8.53-4.57,17.13-10,22,3.37-6.28-3.52-23.57,10-22Z"/>
        <path class="cls-2" d="m1629.22,1627.33c-11.4-13.08,9.27-35.69,13-18,1.74,8.23-7.79,14.01-13,18Z"/>
        <path class="cls-2" d="m1657.22,1608.33c3.55,9.71-3.43,17.12-12,18-3.44-9.57.85-23.18,12-18Z"/>
        <path class="cls-2" d="m1377.22,1776.33c2.39-.61,4.56-1.44,8-1,25.16-44.84,66.67-73.32,107-103-7.98-4.02-19.85-9.47-22-16,15.76-3.7,30.93,1.68,40,8,11.68-4,26.63-3.19,37,0,1.6,6.6-5.11,8.07-8,12-7.48,10.17-8.03,23.94-15,35-5.06-12.05-5.62-30.38,3-39-57.25,21.08-86.65,70.02-137,98,7.04,5.63,15.26,10.07,17,21-5.62,1.07-13.54-3.63-18-7-9.97,29.03-17.12,60.88-30,87,9.28,2.73,17.37,5.6,19,14,3.18,16.45-14.05,23.45-23,31,3.41-8.59,5.38-18.62,9-27-.86-4.8-6.21-5.13-9-8-5.76,3.57-3.77,14.9-11,17,4.73-6.35,3.24-14.62,4-26,2.46-36.71,17.78-67.92,29-96Z"/>
        <path class="cls-2" d="m1564.22,1662.33c43.61,10.83,86.28,33.35,121,54,37.2,22.13,71.8,44.66,101,69-40.74-11.62-73.72-35.9-108-56-25.71-15.08-52.85-28.85-78-45-12.24-7.86-21.74-15.93-36-22Z"/>
        <path class="cls-2" d="m1359.22,1815.33c-17.3-.36-24.23-11.11-33-20,.23-1.44,2.99-.35,3-2-21.57-28.1-33.18-66.15-51-98,12.72,14.19,23.35,29.88,34,46,10.37,15.7,21.5,32.72,26,54,8.08,4.54,30.55,7.46,21,20Z"/>
        <path class="cls-2" d="m1468.22,1791.33c62.47,3.4,132.79,21.92,188,39,9.5,2.94,18.86,6.35,28,10,8.21,3.28,18.73,5.77,23,14-20.9,1.75-40.27-7.32-60-13-58.16-16.75-122.08-25.9-177-48-1.7.37-1.89-.78-2-2Z"/>
        <path class="cls-2" d="m1825.22,1915.33c-7.96-5.44-13.29-11.27-21-20-5.19-5.88-17.3-17.85-16-25,.78-4.29,4.22-7.14,10-6,6.92,1.37,12.05,15.12,16,23,5.4,10.77,9.7,19.01,11,28Z"/>
        <path class="cls-2" d="m1638.22,1939.33c-28.07.91-53.78-9.25-79-16-25.23-6.76-50.68-12.28-75-21h-12v-3c.81-.19,1-1,2-1,41.15-2.54,73.52,6.46,104,16,21.72,6.79,44.34,11.45,60,25Z"/>
        <path class="cls-2" d="m1644.22,1901.33c1.4,18.94-31.18,13.87-43,13,10.26-7.12,26.9-21.45,43-13Z"/>
        <path class="cls-2" d="m1771.22,1945.33c-8.54-12.79-26.81-15.85-40-24,.03-13.49,13.26-11.2,20-6,8.14,6.27,16.68,23.21,20,30Z"/>
        <path class="cls-2" d="m1685.22,1944.33c16.71,12.99,47.88,16.73,51,40-26.84.49-32.54-28.78-51-40Z"/>
        <path class="cls-2" d="m1468.22,1991.33c9.42,6.58,15.48,16.52,20,28-12.54-3.46-17.18-14.82-20-28Z"/>
        <path class="cls-2" d="m1127.22,1593.33c3.65-59.05-2.23-124.03-1-177-14.4-38.6-26.06-79.94-37-122-23.22,13.43-58.26.55-75-15-25.53-23.71-47.06-72.69-61-106-19.1-17.72-33.67-47.66-46-83-11.44-32.78-20.77-75.96-8-109,8.74-22.62,30.84-49.2,64-39-1.21-10.46-11.19-20.81-12-35-14.87-13.21-25.2-26.87-24-56,.38-9.3,4.47-19.62,4-29-.55-10.91-9.94-22.5-15-32-13.3-24.97-14.97-56.03-3-86,1.83-4.57,5.53-9.74,6-14,1-9.13-3.15-20.6-4-30-4.82-53.35,5.06-105.91,19-146,5.73-16.49,14.28-30.28,20-46,8.1-22.28,10.75-47.3,38-56,9.63-8.04,17.03-18.3,28-25,25.72-77.98,74.07-138.49,145-176,22.85-12.08,50.25-26.58,78-29,8.11-.71,16.6,2.64,25,2,7.67-.59,17.13-7.15,25-10,40.21-14.55,105.79-17.95,154-8,18.18,3.75,32.8,12.25,51,18,18.51,5.85,35.95,5.47,52,11,14.46,4.98,27.93,12.76,42,21,27.25,15.96,55.41,26.42,82,43,50.78,31.66,93.71,73.38,119,132,39.51,19.41,75.09,54.42,97,98,8.87,17.65,22.67,40.24,13,60,6.93,14.4,11.39,31.28,14,50,13.38,18.01,2.82,62.13-4,87-2.05,7.48-6.09,15.6-6,21,.29,16.38,20.23,31.38,19,50-.77,11.7-10.4,18.36-19,25,2.28,5.61,5.21,11.96,6,19,1.98,17.73-4.67,33.69-13,43,48.7,8.46,59.07,65.67,50,120-6.83,40.93-22.16,79.86-33,110-.14,5.47,5.99,4.68,6,10-1.11,16.55,1.48,33.11,0,49-2.68,28.81-24.67,55.32-46,56-11.29.36-13.92-8.29-22-7,4.36-9.18,15.2-8.07,23-12,9.5-4.78,19.91-15.63,24-27,5.39-15.01,1.02-36.06,4-56,.82-5.51,4.75-7.78,7-13,8.53-19.72,9.21-48.15,13-72,4.17-26.25,9.9-52.84,10-75,.14-29.71-12.91-64.67-35-66-19.52-1.18-24.58,18.6-34,30-6.89.57-7.01-3.08-12,0,3.37,33.27-5.26,69.81,3,98,4.19-12.03,9.14-20.87,19-30,2.48-2.3,9.86-9.38,15-10,8.93-1.08,15.33,2.66,14,10-1,5.51-11.04,6.85-16,10-11.21,7.11-22.17,20.42-31,29,3.15,16.85,4.85,35.15,5,55-1.41-15.49,23.45-36.44,26-10,1.16-.3,9.36-2.34,11,2,5.18,17.55-6.32,32.81-12,45-5.69,12.21-10.57,23.96-27,15-.22,16.46-8.83,33.13-10,49-1.33,18.03,1.06,36.44,0,55-.96,16.81-3.3,34.11-5,51-3.37,33.49-11.91,66.05-15,98-2.22,22.98-.71,46.93-2,70-3.5,62.68-6.63,126.19-11,187-.24,3.38-4.33,9.24,2,11,1.68-3.84-3.77-14.15,5-16,11.76-2.48,26.72,35.61,31,43,10.97,18.94,19.74,32.82,25,48,3.72-.34,4.08-6.08,11-6,9.35.11,29.54,27.6,36,34,34.4,34.08,76.65,67.51,112,95,19.18,1.15,28.9,11.76,37,24,54.88,21.81,105.5,52.54,159,79,105.57,52.21,218.62,98,330,146,54.49,23.48,109.79,46.59,156,79-8.56-3.72-1.58,12.67-9,15,1.58,4.75,3.75,8.92,5,14-6.94,1.56-13.07,14.35-18,6-1.36,4.64-3.98,8.02-7,11,5.75,18.98,31.98,20.63,37,38,4.15,14.37-8.98,34.62-17,49-24.55,44.03-55.21,83.03-84,120-41.51,53.3-84.55,97.56-129,142-91.53,91.53-190.81,172.76-291,251-99.3,77.55-208.98,154.67-318,224-94.4,60.03-197.67,118.17-298,177-14.34,8.41-28.26,19.16-42,25-15.68,6.67-36.32,8.86-48,16-116.26-76.39-237.7-148.24-357-224-117.77-74.79-235.86-151.25-356-225-118.24-72.58-240.75-143.92-367-214-90.24-50.09-183.42-105.78-263-173-12.72-10.74-24.15-21.15-38-35-11.42-11.42-29.11-28.38-28-44,1.03-14.54,19.04-27.37,27-38,10.39-13.88,15.79-26.58,24-40,.85-5.29-3.59-4.17-3-10,.74-7.29,10.25-10.74,16-14-3.98-30.05-6.61-75.82-1-103-.83.72-6.47,3.13-4,1,4.25-1.42,7.14-4.2,9-8,20.38-5.16,35.63-18.13,54-28,159.51-85.73,349.79-146.35,525-219,30.67-12.72,62.54-27.27,94-41,32.01-13.97,66.6-25.63,93-42,14.65-9.08,27.13-25.3,41-38,34.25-31.36,67.65-59.79,104-91,6.88-5.9,17.58-12.76,21-18,9.56-14.64,7.16-42.54,32-43ZM1522.22,196.33c-2.45-4.24-10.16-8.49-15-7,5.82,1.04,10.03,8.36,15,7Zm38,47c-4.17,13.58-27.1,3.21-41-1-11.05-3.34-20.43-6.79-30-10-22.36-7.51-46.2-18.38-69-21,4.68,11.75,39.89,23.44,25,42-52.89,5.54-79.32-24-130-24,4.4,9.26,19.71,7.63,17,24,10.39,2.27,19.25,8.28,17,20-.9,4.69-7.72,7.78-6,10,19.93,3.27,37.2,12.96,51,22,4.51,2.96,9.27,8.06,14,7,0-8.79-13.35-17.99-10-31,4.24-16.48,25.4-4.64,38,0,9.13,3.37,17.78,9.18,25,8-3.55-8.99-15.19-3.75-17-13-3.84-19.6,23-8.98,35-6,25.07,6.22,60.27,14.96,78,22-12.72-25.11,15.37-18.16,33-13,29.22,8.54,52.87,23.68,63,44,4.92.42,7.2,3.47,10,6-20.18-62.15-68.43-96.24-122-125,2.71,13.2,24.51,21.06,19,39Zm76,5c-3.99-1.7-8.59-8.05-12-7,4.74.95,7.16,9.48,12,7Zm-327,36c-14.87-9.5-40.25-14.48-64-10-8.94,1.69-19.02,2.24-24,8,13.79,13.81,47.61,9.05,53,29,7.83,28.95-23.09,22.05-44,23-55.1,2.5-103.82,27.65-125,60,14.35,1.49,13.08-13.21,25-12,4.41.45,8.74,5.54,9,10,.59,9.97-13.45,19.36-17,35-2.63,11.57-.85,20.34-2,29,5.95-10.1,10.55-23.91,20-39,8.63-13.79,23.45-41.81,38-25,9.28-12.33,24.71-31.31,47-21,21.22-7.11,52.42-4.25,77-8-5.6-3.76-12.56-5.07-12-13,1.41-20.15,53.55,3.95,59,7,4.75-2.81,10.33-7.06,18-4-3.26-11.77-17.87-16.97-16-30,2.01-13.99,20.43-6.89,32-7-23.59-11.75-42.54-28.13-74-32Zm4,144c-6.64-4.58-13.5-8.93-20-13-4.75-2.98-10.6-8.92-17-7,7.33,5.18,27.09,8.57,25,20-2.79,15.24-31.89-7.36-42-10,.53,2.18,2.42,6.47-1,7-8.14,2.63-19.65.45-26-2-15.61,13.1-34.85,21.6-46,41-7.89,13.73-12.37,32.25-18,48-6.09,17.04-12.38,33.23-19,48-17.79,39.69-48.34,66.13-106,55-6.12,48.08-8.6,109.8-4,162,2.52-7.89,4.23-27.56,15-24,11.7,3.86-8.9,46.46-6,54,.81.12,8.67-2.55,11,1,4.03,15.28-3.99,33.35-4,51,17.56-5.19,10.22,16.12,7,34-2.09,11.62-3.68,22.32-5,32-3.93,28.75-12.89,50.81-13,74-.13,26.56,1.91,55.91,5,82,4.27,36.03,27.55,79.47,43,105,15.99,26.42,34.23,53.9,53,76,2.73,3.22,6,8.69,8,7,.31-8.36-1.81-19.15,5-21,10.79,11.49,11.82,30.65,15,47,8.2,42.2,15.97,88.04,28,127,2.11,6.82,9.63,15.99,3,23-18.76-53.9-44.65-100.69-50-168-31.79-31.3-64.81-60.86-86-103-22.74-45.22-40.49-98.1-41-164-1.51,1.49-4.39,1.61-7,2-1.17,7.97-3.37,15.68-11,15-7.47-.67-10.45-22.16-14-29-5.05-9.74-12.79-19.79-18-25-6.57-6.57-19.09-15.87-32-14-17.96,2.6-30.15,30.89-32,50-5.79,59.82,30.42,111.61,46,159,39.37,37.5,45.84,126.29,126,110-3.91-11.47-7.9-24.72-12-38-3.78-12.24-11.84-28.04-4-39,10.53,7.29,14.85,21.08,19,33,4.43,12.74,8.15,26.77,12,40,19.7,67.75,41.38,136.2,59,202,3.66,13.67,9,27.04,10,41-4.57-25.43-18.99-41.01-28-62,3.72,53.74,6.36,122.53-3,172,35.05,59.71,95.63,97.71,147,140,6.73,5.54,19.52,10.61,19,20-68.87-33.8-129.09-76.25-171-137-1.29-3.61-4.14.54-5-3-.83-10.71-13.45-21.73-2-30-9.12,2.22-10.79,13.76-10,23-9.49,12.87-11.54,29.2-17,49-2.76,10-13.19,30.15-13,38,.27,11.32,22.03,39.89,27,48,48.56,79.23,108.38,143.13,166,209,17.59,20.11,33.46,42.4,51,61,5.6,5.94,14.53,12.79,14,22-11.66-9.84-21.49-20.96-33-31-81.17-70.81-148.36-155.46-210-245,66.52,305.47,165.39,578.61,264,852,3.69-125.78,18.23-256.64,37-371,3.51-21.4,5-44.99,17-52-27.48-36.86-50.3-78.37-64-129-.78-2.31-5.51,5.03-8,1,2.18-41.84,22-74.65,44-100-13.9-16.29-9.78-40.65-6-58-18.85,10.97-39.95-2.72-47-16,19.82,2.55,43.47,10.44,54-9,5-9.24,6.09-22.28,10-33,10.84-29.74,26.18-64.3,47-82,26.65-22.66,17.66,35.01,9,42,1.42-6.67-.07-17.29-5-23-10.66,9.59,2.79,22.5,4,35-6.9-4.43-9.28-13.39-13-21-23.2,36.46-34.3,85.03-53,126,8.31,22.36,18.91,42.43,25,67,4.41-37.19,13.73-73.66,27-102,4.17-8.91,9.29-22.17,21-23,3.81,3.99.88,10.09,0,15,8.05,4.95,21.28,35.86,4,34-8.92-.96-7.45-12.73-11-21-16.17,41.5-26.14,89.19-40,133,21.25,27.42,34.85,62.48,45,101,4.72,1.94,8.6,4.73,14,6,21.48-21.07,24.59-65.12,21-108-6.39-.08-18.94,12.04-29,5,11.45-12.89,29.36-19.31,38-35-3.89-6.78-11.9-9.43-19-13,23.43.23,55.41,14.5,81,22,6.84,2,25.48,2.61,25,10-.55,8.56-16.37,4.56-20,6,7.53,4.89,15.54,9.69,23,15,7,4.98,17.29,9.97,19,20-9.52,8.24-23.05-2.42-31-8-8.72-6.12-18.83-14.45-25-22-4.14-5.06-6.02-13.35-14-13,5.17,33.23,7.21,72,12,104,4.39,29.29,9.5,57.26,16,84,32.25,132.68,105.23,231.37,166,335,12.35,21.06,23,43.29,37,64,49.73-23.16,83.41-66.44,115-112,31.58-45.55,64.71-99.94,82-159-53.59-130.75-78.94-289.72-88-465,.3,2.63-1.38,3.28-4,3,2.16-19.54.91-45.43-2-66-4.25-30-32.91-32.62-46-52,.14-3.2,4.46-2.21,6-4-49.36-38.88-89.63-86.68-135-128-19.52-17.77-36.43-38.43-58-52-8.37,6.74-31.46.11-46-3-38.4-8.21-78.64-18.92-106-34-2.64,19.74-57.99,10.55-79,9-5.86,27.6-49.42,13.33-51-5,12.16-.2,28.29,11.4,37,2-14.17-2.83-26.79-7.21-37-14-21.36,24.48,12.83,47.06,32,60,18.79,12.69,36.65,23,49,34-4.03-2.54-8.2-4.49-13-6-27.04-8.5-54.21-17.46-73-37-14.72-15.3-23.97-42.57-5-56,29.08-.3,56.36,7.22,85,9,17.17,1.07,35.11-.57,53,1,26.86,2.35,52.85,9.47,78,16,25.64,6.66,51.55,10.98,73,21,.43,2.24,4.93.41,7,1,3.01,3.65,7.01,6.32,12,8,1.08-4.92,5.39-6.61,9-9,26.04-33.87,55.5-64.77,82-97,8.76-10.66,17.34-23.29,30-30,11.8,5.51-.46,18.42-6,26-14.45,19.75-28.88,37.33-43,53-22.45,24.91-46.88,43.55-69,60,22.47,12.28,43.08,27.32,62,44,18.76,16.54,35.15,36.17,54,50,4.29-11.46,9.94-22.45,16-35,4.89-10.13,13.68-24.58,15-36,1.13-9.81-2.51-21.81-3-33-2.47-56.09,2.81-114.41,2-165-4.36,10.98-6.51,24.16-12,34,10.26-40.32,15.94-84.66,22-129,6.15-44.97,11.53-90.99,14-136-5.97,12.69-12.67,24.67-21,35-1.23,26.44-7.42,47.91-15,68-2.93-17.23-2.31-43.73-1-63,.44-6.49-1.85-14.47,5-17,5.56-1.71,7.15,4.12,10,2,20.74-53.4,38.28-116.81,35-189-1.3-28.64-14.48-69.38-4-92-7.14-50.06-7.42-99.47-18-145-3.76-16.18-17.01-29.88-12-48,4.21-1.43,8.39,8.23,7,3-1.3-8.13-16.01-25.83-13-35,1.72-5.26,6.14-2.09,8-4-7.29-11.53-34.99-49.99-3-50-1.72-38.97-4.32-85.66-15-119,4.6-1.48,7.81,7.57,9,3-3.96-39.27-24.54-62.66-46-85-17.13-17.83-39.48-29.96-54-48,5.74-.38,13.03,3.68,14-3-14.37-2.63-32.73-1.27-40-11-1.4-5.4,2.7-5.3,3-9-5.22-.44-8.47-2.86-10-7-4.11.22-4.25,4.41-9,4-17.56-16.11-45.21-22.12-69-32,.71,2.64,6.39,9.66,3,17,12.84,3.16,26.63,5.37,33,15-42.31-6.05-92.25-11.28-139-18,6.52,6.65,20.02,6.15,32,8,11.44,1.76,25.81.56,31,9-9.96,13.88-39.56,3.01-56,2,1.23,2.83,1.23,6.17,0,9-21,17.82-58.88-.26-80-6,3.2,10.15,23.65,14.33,21,25-3.24,13.04-19.98-3.88-30-3,.13,10.08,16.27,6.91,15,16-1.46,10.46-17.47,2.39-23-1-8.6-5.27-13.66-11.91-20-14,3.23,5.68,5.75,20.46-3,22-3.75-4.72-5.38-12.66-10-18-10.92-12.62-45.66-33.5-65-35-17.1-1.33-40.22,1.2-58,4,37.36-.22,74.52,4.68,95,21,6.42,5.12,16.88,15.33,11,26-6.64-3.7-16.68-9.31-23-10,3.25,1.74,7.95,10.46,3,14-7.69,1.72-14.08-5.92-20-10Zm174-41c-.97,3.63,5.59,2.13,5,0-2.49-.11-3.1-1.87-5,0Zm-258,2c-5.51,3.43,8.13.49,10-1-4-.33-5.55,1.78-10,1Zm630,90c-8.36-10.97-18.37-20.29-28-30-15.06,15.43-28.14-7.07-38-19-9.43-11.41-17.27-21.37-25-27-5.03,4.31-7.96,10.71-14,14,11.55,6.03,28.58,12.43,39,20,31.57,22.93,57.03,58.98,80,93,5.8,8.6,24.44,32.96,19,50-4.79,15.02-21.12-1.04-27-4-8.51-4.28-14.64-4.97-23-7,8.03,19.97,22.83,33.17,23,61,4.14,2.81,10.17,11.15,15,7-3.86-14.9,4.89-35.39,20-22-.31-5.95-4.38-21.68,3-23,8.23,1.1,7.29,11.37,12,16-14.28-36.77-33.31-70.98-53-101-6.49-9.9-15.69-21.34-14-34,4.94-3.57,8.1,7.62,11,6Zm-864-45c-10.97,14.45-18.62,25.74-20,48-1.12,17.97,1.49,45.04-7,56-4.11-9.89-12.58-15.41-13-29-22.42,44.92-26.3,108.37-31,171,.61,1.82,5.97-5.25,9-1,1.69,16.08-9.88,27.41-12,43,2.14,2.2,7.12,1.55,7,6,2.12,3.61.47,10.13,1,15,4.8,44.05,52.36,63.44,56,97,1.46,13.45-3.68,18.98-12,23,13.14,15.19,29.96,26.71,42,43-1.87-14.84-17.01-22.86-19-40-.93-8.03,2.25-15.24,3-23,2.12-21.95-4.94-39.44-14-55-18.18-6.57-38.14-28.21-41-52-5.08-42.21,32.93-13.04,43-5,2.81,2.25,5.88,6.62,9,5-6.33-31.01-35.24-39.43-49-63,9.5,2.83,22.71,1.96,29,8-8.19-15.15-24.71-21.96-32-38,.33-4,2.72-5.94,4-9-3.23-.78-4.53-3.9-5-7-.88-5.85,2.62-5.6,3-8,.53-3.29-1.71-6.35-1-8,7.19-16.64,45.08,9.91,65,7,5.31-.78,11.26-3.51,15-9-29.77-11.8-73.6-23.69-71-61,16.02.02,20.21,17.06,32,18-4.93-4.15-26.21-40.8-4-42,4.54-.25,5.66,3.22,11,4,.6-33.07,4.85-62.49,11-90-4.46.13-6.46-2.2-9-4Zm5,97c-3.09-1.47-2.11-8.11-1-11-3.93.74-3.29,6.04-4,10,2.33-.86,4.31,3.5,5,1Zm873,173c6.91-7.46,4.28-18.34,6-31-19.49-.84-22.29-18.38-35-26-2.54,23.34,20.47,38.1,29,57Zm-21,42c2.71,11.29,9.11,18.89,16,26-3.17-15.84,8.32-17.02,11-27-6.79-4.55-11.49-11.18-12-22-5.77,6.9-1.38,23.95-15,23Zm-815,123c-1.04-4.1,3.08-8.18,0-11,.56,3.62-2.97,8.29,0,11Zm827,221c3.25-.58,4.65.68,7,1,1.33-5.02,4.76-13.22,2-19-2.19,3.81-6.89.89-9-1v19ZM160.22,2263.33c1.29-1.71,2.07-3.93,5-4,.21-2.87-.25-5.08-2-6,.16,3.87-4.5,8.11-3,10Zm1437,397c13.33-38.94,32.23-85.22,50-124,6.3-13.76,13.35-44.14,29-41-40.41-67.92-81.53-135.13-108-217,13.89,123.11,24.5,249.51,29,382Zm344-188c-27.98,49.4-56.49,96.11-97,133-24,21.86-52.78,46.21-91,45,4.49,12.37,12.7,22.92,19,34,6.48,11.4,10.78,23.82,19,34,115.11-50.23,171.38-159.29,217-279-12.01-13.66-19.4-31.93-30-47-7.67,27.02-22.37,54.17-37,80Z"/>
        <path class="cls-2" d="m1776.22,653.33c-24.1-17.73-55.12-36.07-98-33-23.9,1.71-49.57,11.34-68,13,40.65-34.41,144.04-30.67,166,20Z"/>
        <path class="cls-2" d="m1861.22,1865.33c15.66,31.35,19.42,79.91,20,123-5.3-3.25-3.05-12.17-4-17-3.75-19.03-10.96-38.99-16-59-4.81-19.09-9.85-40.29-21-53-8.3-9.47-19.69-14.59-30-20-9.52-5-22.01-9.7-28-22,26.43,1.9,43.38,13.29,60,25,1.11-2.77-5.62-9.46-2-15,13.86,2.16,24.72,30.93,29,47,.66,2.48-2.39-6.01-8-9Z"/>
        <path class="cls-2" d="m145.22,2125.33c-3.44,2.56-7.44,4.56-12,6,3.44-2.56,7.44-4.56,12-6Z"/>
        <path class="cls-2" d="m1586.22,893.33c8.91-6.97,22.16-12.9,36-18,34.11-12.58,106.96-14.55,138,4,3.93,2.35,7.75,6.3,8,11-17.85-1.49-31.5-7.16-50-8,9.22,4.48,18.86,10.08,27,16,7.45,5.42,17.92,11.82,18,24-5.81,7.48-14.23.57-19-4-31.2,17.97-90.98,27.28-132,12,11.49-10.12,27.81.06,45-2-5.42-5.38-13.77-2.05-20-4-11.48-3.59-17.27-14.07-19-27-22.53,5.16-31.54,29.1-50,35,9.31-14.23,8.44-32.55,24-40,2.02-4.73-2.63,2.02-6,1Zm133,25c4.79-2.11,14.49-9.2,15-14,1.54-14.39-30.63-21.99-41-19,7.77,13.7.42,33.07-9,39,10.68-2.47,24.55-1.38,35-6Z"/>
        <path class="cls-2" d="m1297.22,971.33c14.24-2.76,18.24-15.76,38-13-19.94,36.36-103.22,48.16-141,20-7.94,3.73-14.54,8.8-22,13,3-14.04,13.02-29.62,23-40-13.96.09-28.45,4.81-37,7,44.63-25.4,112.96-49.91,192-45,9.25.57,30,2.86,30,10,0,10.96-30.97,4.98-39,5-3.63.01-9.75,1.61-13,1,7.66,3.37,56.97,13.86,53,29-.73,2.78-5.61,6.27-10,4-5.02,6.87-15.07,10.65-24,7-6.48-2.65-6.97-10.9-11-12,6.9-2.4,15.33,5.3,21-1-12.29-10.04-29.16-15.51-47-20,1.91,17.91-5.72,26.28-13,35Zm-83-24c-.61,14.39-13.02,16.98-17,28,17.53.14,34.5,6.16,52,3-11.69-3.48-22.06-23.33-12-36-8.03,1.31-15.06,3.6-23,5Z"/>
      </g>
    </g>
  </g>
</svg>