<?xml version="1.0" encoding="UTF-8"?>
<svg id="Layer_2" data-name="Layer 2" xmlns="http://www.w3.org/2000/svg" viewBox="0 0 190 130">
  <defs>
    <style>
      .cls-1 {
        fill: none;
      }

      .cls-2 {
        fill: #141414;
      }
    </style>
  </defs>
  <g id="Layer_1-2" data-name="Layer 1">
    <g>
      <path class="cls-2" d="m72.24,32.16c-1.2.16-2.15.62-2.97,1.46-1.13,1.15-3.17,1.82-7.3,2.38-3.06.42-5.4.93-7.93,1.75-2.24.72-2.9.81-3.91.52-.53-.15-.79-.09-3.35.87-1.53.57-3,1.2-3.27,1.4-.38.28-.56.6-.77,1.36l-.28,1-.48-.11c-.27-.06-.93-.11-1.47-.12-.92,0-1.02.03-1.45.5-.39.43-.46.63-.46,1.35,0,.47.04.95.09,1.09.11.29,1.46,1.04,1.88,1.05q.78.02-1.16,6.72c-1.02,3.54-1.9,6.73-1.95,7.09-.15,1.03.04,1.68.72,2.46.34.39.62.79.62.89,0,.1-.15.46-.32.79-.49.93-.42,1.33.32,1.87.36.26.76.51.92.56.31.11.25.58-.25,1.86-.26.68-.27.79-.04,1.62.14.49.32,1.34.42,1.91.24,1.41.63,2.12,1.48,2.66.77.5.82.49,2.12-.15.38-.18.82-.51,1-.73l.33-.4.33.34c.19.19.4.34.49.34.09,0,4.52,1.64,9.85,3.64,5.33,2,13.17,4.94,17.41,6.52,4.24,1.59,9.29,3.48,11.21,4.21,1.93.72,5.47,2.05,7.87,2.94,2.4.89,4.46,1.7,4.57,1.79.11.09.44.63.72,1.2.28.56.6,1.11.71,1.2.39.32,4.05,1.95,4.37,1.95.33,0,1.85-1.02,1.85-1.24,0-.07,1.19-.12,2.62-.12,5.14,0,19.01-.25,19.19-.35.1-.05,1.13-.93,2.31-1.94,2.51-2.17,2.32-1.53,1.82-6.26l-.33-3.16.52-.48c.72-.66.6-1.01-.67-2.02-.16-.12-.63-4.03-.51-4.14.03-.03,1.65-1.12,3.58-2.41l3.52-2.35.4.3c.22.17.63.42.93.58l.53.28,1.09-.55,1.09-.55,3.25,1.65c1.79.91,3.42,1.65,3.62,1.65.23,0,.96-.47,1.94-1.24l1.57-1.24.11-1.91c.06-1.05.24-5.06.4-8.93l.28-7.02.59-1.25.59-1.25v-2.97c.02-3.4-.12-4.21-1.14-6.33-.91-1.89-2.44-3.4-4.58-4.52-.87-.46-1.64-.91-1.73-1.02-.08-.11-.34-.67-.56-1.23-.74-1.88-.02-1.64-10.15-3.39-4.91-.85-9.12-1.55-9.37-1.55-.53,0-7.01,2.14-8.02,2.65-.42.21-.88.62-1.15,1.01-.29.44-.56.65-.78.65-.92,0-39.22-4.34-39.42-4.46-1.1-.69-1.95-.85-3.43-.65h0Zm2.3,1.09c.17.11.09.23-.32.54-.73.56-1.27.72-2.3.72-1.44,0-1.73-.77-.46-1.2.61-.21,2.77-.25,3.08-.06h0Zm58.79,2.04c4.46.77,8.16,1.45,8.22,1.5.06.05-3.98,2.45-8.96,5.32l-9.07,5.22-6.88-1.4c-5.58-1.14-6.84-1.44-6.68-1.59.38-.35,5.63-3.93,6.15-4.19.7-.35,1.52-1.15,1.52-1.5,0-.3-.57-.96-.95-1.09-.18-.06-.18-.14.05-.48.36-.53.58-.64,2.67-1.35,2.42-.82,2.44-.82,1.8-.47-.74.4-1.51,1.18-1.62,1.63-.05.19-.07.6-.05.88.04.43.18.61.75.96.39.24,1.1.53,1.58.63.76.17,1.04.15,2.25-.14,2.53-.61,4.29-1.77,4.29-2.84,0-.57-.79-1.31-1.68-1.57-.83-.24-2.75-.3-3.78-.11-.39.07-.66.09-.61.04.09-.1,2.43-.83,2.73-.86.09,0,3.81.62,8.27,1.39h0Zm-56.28-1.27l.84.11-.14,4.1-.14,4.1.36.23c.29.18,25.03,4.39,28.16,4.79.37.05.67.15.67.23,0,.12-.27.72-.39.86-.02.03-.24-.06-.49-.19-.94-.5-2.26-.14-3.09.84-.46.54-.89,1.81-.9,2.62,0,.81.53,1.81,1.16,2.16.3.16.54.35.54.41,0,.31-.39.9-.6.9-.12,0-5.78-1.23-12.56-2.74-6.78-1.5-12.9-2.85-13.59-2.99-.69-.14-1.31-.31-1.38-.38-.07-.06-.06-3.49.03-7.63.15-6.76.19-7.51.41-7.51.14,0,.62.05,1.09.11h0Zm4.12.45c1.01.12,1.87.24,1.9.28.05.05-1.19,7.51-1.26,7.57-.02.01-.73-.09-1.59-.24l-1.56-.27v-.89c.09-6.13.12-6.68.39-6.67.15,0,1.11.11,2.12.22h0Zm-11.32.41c-.18.19-2.43,1.4-3.82,2.07-1.98.95-3.22,1.33-5.55,1.7-1.75.28-1.95.35-4.85,1.78-3.4,1.67-3.72,1.92-3.19,2.45.36.37.25.65-.29.8-.52.15-.78.71-.47,1.02.13.13,7.75,1.83,40.16,9,6.41,1.42,11.75,2.54,11.85,2.5.1-.04,1.32-2.47,2.71-5.39,1.39-2.93,2.56-5.34,2.6-5.36.07-.04,4.85.87,4.96.95.02.01-.44,1.1-1.01,2.43-.57,1.32-1.52,3.64-2.12,5.13-.59,1.49-1.37,3.45-1.72,4.32-.35.87-.76,2-.91,2.49-.15.49-.75,2.27-1.34,3.93-2.01,5.73-2.9,8.81-3.16,10.99-.59,4.8-.52,4.47-1.07,5.14-.87,1.06-1.13,1.74-1.26,3.32-.09,1.09-.17,1.43-.32,1.37-.11-.04-4.23-1.35-9.14-2.89-8.9-2.8-8.94-2.81-9.72-2.63-1.22.28-1.65.16-2.05-.55l-.34-.61-9.08-2.85-9.08-2.85-.8.27c-1.06.36-1.6.19-2.06-.66l-.33-.61-6.45-2.03c-3.55-1.12-6.58-2.03-6.75-2.03-.16,0-1.28.58-2.49,1.3l-2.19,1.3-.19-.55c-.15-.44-.15-.63.03-.97.33-.64.63-1.98.51-2.34-.06-.18-.4-.48-.76-.66q-1.06-.54-.63-1.49c.52-1.15.5-1.57-.07-1.9-.77-.44-1-1.02-.89-2.21.06-.62,1.13-4.61,2.69-10.02,2.88-9.99,2.5-9.12,3.79-8.55l.56.25-1.89,5.69c-1.04,3.13-1.95,5.97-2.03,6.31-.08.34-.09,1.75-.04,3.12.07,1.92.05,2.62-.12,3.03-.25.64-.14,1.11.28,1.11.4,0,.16.63,3.79-9.73,1.68-4.8,3.14-8.8,3.24-8.89.09-.09,2.14-1.23,4.53-2.52,2.4-1.29,4.45-2.44,4.57-2.55.21-.21,1.63-.48,4.85-.94.95-.13,2.28-.38,2.97-.55,1.34-.33,3.71-1.34,3.93-1.68.1-.16.14-.16.19,0,.03.11.03.22,0,.26h0Zm4.73,6.95c-.14,6.34-.18,7.04-.4,6.98-.14-.04-.48-.12-.76-.18-.28-.06-.51-.16-.51-.23,0-.14-1.58-11.45-1.72-12.28l-.08-.48,1.16-.16c.64-.09,1.43-.29,1.76-.45.33-.16.62-.28.64-.27.03.01-.02,3.2-.11,7.07h0Zm11.81-6.78c.62.08,1.18.18,1.23.23.11.11-1.39,7.44-1.56,7.62-.09.1-3.09-.32-3.24-.46-.04-.04.97-6.08,1.2-7.12.1-.49.35-.52,2.38-.27h0Zm40.16.74c.55.14,1.05.53.89.69-.04.04-.28-.03-.53-.15-1.18-.6-3.92-.4-5.58.41-.96.47-.96.22-.01-.37.64-.4,1.53-.67,2.72-.81.51-.06,1.81.06,2.51.24h0Zm-35.08-.16c1.11.13,2.03.27,2.07.3.04.04-1.83,7.86-1.92,8-.04.07-4.31-.68-4.4-.78-.06-.06.24-1.83.67-3.94.77-3.79.78-3.83,1.18-3.83.22,0,1.29.11,2.4.24h0Zm-20.4,6.46c.47,3.34.8,6.09.74,6.12-.1.04-3.45-.67-4.93-1.04-.28-.07-.32-.15-.2-.44.22-.56-.08-1.39-.7-1.95-.44-.39-.68-.48-1.26-.49-.66,0-.78.06-1.4.69-.38.39-.68.8-.68.93,0,.12-.1.23-.22.23-.18,0-7.61-1.61-8.62-1.87-.3-.08-.32-.13-.18-.45.12-.25.12-.51,0-.85l-.16-.49,2.85-1.37c2.65-1.27,2.95-1.38,4.32-1.54.81-.09,1.96-.3,2.56-.47,1.25-.34,4.58-1.82,5.96-2.64.52-.31.97-.53,1-.5.03.03.45,2.78.91,6.12h0Zm26.33-5.8c1.11.13,2.04.27,2.08.32.07.07-2.16,8.03-2.29,8.18-.08.1-4.57-.67-4.58-.78,0-.05.44-1.86.98-4.03.97-3.9.99-3.94,1.39-3.93.22,0,1.3.11,2.41.24h0Zm5.52.62c1.42.15,1.91.26,1.91.42,0,.27-2.51,8.14-2.63,8.26-.08.08-3.82-.45-3.96-.57-.03-.03.47-1.91,1.12-4.18.87-3.04,1.24-4.13,1.41-4.13.13,0,1.1.09,2.15.2h0Zm23.5.27c.19.17-.67.6-1.91.94-1.22.34-2.8.37-3.22.05-.29-.21-.28-.23.17-.45.52-.26,1.96-.67,2.64-.76.62-.08,2.14.06,2.31.21h0Zm17.26,1.12c.63,1.54.8,1.71,2.68,2.7,2.15,1.13,3.21,2.14,4.13,3.93.98,1.93,1.16,2.83,1.15,6v2.75s-.59,1.1-.59,1.1l-.58,1.1-.21,5.43c-.12,2.98-.24,5.52-.28,5.63-.05.15-.19.11-.53-.14-.4-.3-.52-.32-.86-.17-.57.25-.78.91-.5,1.52.34.72.81.78,1.37.18l.45-.48v1.42c-.02,1.59-.15,2.42-.37,2.28-.3-.19-.94.13-1.23.61-.43.7-.4,1.44.08,1.92l.4.41-.52.44c-.28.24-.58.44-.66.45-.08,0-.09-.88-.03-2.07.2-3.62.24-12.6.06-12.78-.1-.1-.44-.17-.79-.18h-.62s.07-.88.07-.88c.22-2.62.35-6.64.25-7.63-.26-2.5-1.07-4.58-2.39-6.1-.84-.97-1.82-1.52-3.28-1.84q-1.06-.23-2.22.24c-.98.4-1.36.68-2.48,1.81-2.26,2.28-3.94,5.16-4.99,8.59-.86,2.79-1.31,6.8-1.08,9.5.07.81.14,1.66.16,1.87.02.25-.51,1.34-1.42,2.94-.89,1.56-1.45,2.72-1.45,3,0,.24.23,2.55.51,5.13.28,2.58.52,4.83.52,5,0,.28-.11.31-1.14.31-1.44,0-1.83.23-1.83,1.1,0,.81.35,1.03,1.93,1.15.67.05,1.26.13,1.3.17.05.04.26,1.67.48,3.61l.39,3.53-1.89,1.64-1.89,1.64-.11-.45c-.06-.25-1.3-7.83-2.75-16.86-1.45-9.03-2.67-16.55-2.71-16.72-.05-.23.57-1.03,2.44-3.15,1.37-1.55,2.55-2.98,2.61-3.16.08-.24,0-.44-.29-.74-.32-.33-.54-.41-1.18-.4h-.78s-.24-.71-.24-.71c-.4-1.2-.31-2.09.34-3.31.3-.58.72-1.21.92-1.39.55-.51,18.77-10.97,19.03-10.93.13.02.41.46.62.98h0Zm-35.16-.75l1.74.19-1.02,2.98c-.56,1.64-1.02,3.19-1.02,3.45,0,.27-.21.9-.46,1.43l-.46.95-2-.32c-1.11-.18-2.02-.34-2.04-.36-.02-.02.47-1.64,1.09-3.6,1.75-5.55,1.56-5.07,2.03-4.98.22.04,1.19.16,2.14.27h0Zm5.11.56c1.11.13,2.06.21,2.12.18.06-.03.23.03.39.14.25.19.14.3-1.27,1.29-3.35,2.34-5.42,3.76-5.47,3.76-.03,0,.38-1.26.9-2.8.52-1.54,1.03-2.8,1.13-2.8.1,0,1.08.11,2.19.24h0Zm-59.89.89s-1.3.74-2.8,1.56l-2.73,1.48-1.48-.52c-.81-.28-1.53-.56-1.6-.62-.06-.06.89-.46,2.11-.9,2.16-.77,2.27-.8,3.48-.7.89.07,1.45.03,1.95-.13.74-.23,1.2-.31,1.06-.17h0Zm-6.22,4.19c-.08.41-4.64,13.33-4.8,13.61-.14.23-.23-.91-.16-2,.03-.42,3.72-11.83,3.96-12.23.04-.06.28-.02.56.1.36.15.48.3.44.51h0Zm-5.46.6c.1.06-.33,1.76-.49,1.95-.09.1-1.58-.24-1.89-.43-.25-.16-.17-1.2.12-1.51.23-.25.4-.28,1.21-.18.51.06.99.14,1.05.18h0Zm99.62,1.32c.87.26,2.26,1.7,2.87,2.98.78,1.63,1.09,3.19,1.07,5.52-.01,1.75-.31,7.11-.4,7.19-.06.05-3.24-.4-3.37-.48-.07-.04-.16-.7-.2-1.45-.12-2.23-1.28-6.38-2.11-7.54-.59-.83-2-1.95-3.21-2.56l-.98-.49,1.1-1.21c1.16-1.27,1.9-1.82,2.61-1.94.23-.04.47-.1.5-.14.14-.14,1.48-.06,2.11.13h0Zm-76.25.43c.36.36.41,1.07.09,1.19-.34.13-1.97-.26-1.96-.47,0-.35.79-1.04,1.18-1.04.22,0,.53.14.7.32h0Zm50.05,1.44c-.05.19-.21.74-.35,1.21-.33,1.11-.25,2.71.21,4.04.33.95.33,1.01.07,1.72-.47,1.25-1.45,2.87-2.18,3.62-.67.68-.7.76-.55,1.21.12.35.31.52.73.63.31.08,1.72.47,3.14.85,2.29.63,2.58.74,2.69,1.08.06.21,1,5.86,2.08,12.56,1.08,6.7,2.3,14.26,2.72,16.78.41,2.53.73,4.61.71,4.64-.08.08-19.64.3-19.72.22-.04-.04.13-.5.39-1.01.26-.52.61-1.45.79-2.09.31-1.11.32-1.2.08-2.22-.24-1.03-.24-1.07.06-1.4.17-.19,1.39-2.22,2.71-4.5,1.32-2.29,2.45-4.16,2.51-4.15.06,0,.25.12.4.23.39.3,1.84.31,2.42.02.24-.12.65-.46.91-.75.46-.51.48-.61.77-3.48.35-3.43.37-4.56.09-4.82-.21-.2-2.71-.72-3.46-.72-.48,0-.37.68-1.23-7.67l-.65-6.34,1-2.55c.55-1.4,1.41-3.5,1.91-4.66.5-1.15.97-2.26,1.05-2.45.09-.22.27-.35.47-.35.26,0,.31.07.24.35h0Zm4.24.56c1.61.32,2.93.61,2.95.63.03.02-.22.56-.55,1.18-.51.98-.59,1.29-.59,2.16,0,1.7.95,3.43,1.78,3.26.2-.04.43-.1.52-.13.51-.19-.01.53-1.98,2.76-1.67,1.89-2.32,2.53-2.59,2.53-.28,0-4.49-1.08-5.33-1.37-.14-.05-.08-.19.21-.5,1.4-1.46,2.88-5.12,2.31-5.72-.24-.25-.63-1.81-.63-2.5,0-.89.63-2.88.91-2.88.04,0,1.38.26,2.99.59h0Zm-14.16,1.58c.16.12.28.28.28.37,0,.09-.39.97-.87,1.97l-.87,1.81-.45-.23c-1.12-.58-.94-2.68.32-3.73.53-.45,1.16-.52,1.59-.19h0Zm30.98.85c1.1.66,2.31,1.89,2.66,2.72.51,1.22,1.37,4.83,1.48,6.24l.1,1.3-.76-.05-.76-.05-.1-.94c-.38-3.67-2.03-6.59-4.44-7.9-1.03-.56-1.03-.58-.35-1.61l.38-.58.57.24c.31.13.86.41,1.22.63h0Zm-2.42,2.1c1.13.58,1.69,1.11,2.47,2.32.77,1.2,1.22,2.43,1.5,4.11.09.55.2,1.1.24,1.25.05.19-.16.42-.75.82-.46.31-2.07,1.45-3.57,2.54-3.18,2.3-2.95,2.35-2.95-.55,0-3.95.59-7.01,1.98-10.24.14-.33.29-.59.34-.59.05,0,.38.15.74.34h0Zm-23.45,12.68l.61,5.81-.9,1.24c-1.04,1.45-1.26,1.82-1.26,2.19,0,.15.42,1.35.94,2.64l.95,2.36-2.59,4.46c-1.43,2.46-2.63,4.41-2.68,4.35-.16-.19-1.53-6.02-1.59-6.75-.03-.39.01-1.26.09-1.95.08-.69.24-2.01.34-2.95.27-2.33,1.2-5.64,3.1-11,.41-1.15.93-2.67,1.15-3.35.68-2.1,1.04-3.04,1.12-2.96.05.05.37,2.7.71,5.91h0Zm28.08-2.9c.07.34.08,1.73,0,3.11-.07,1.38-.16,3.82-.21,5.46q-.09,3.34-1.25,2.66c-.68-.4-.68-.41-.6-1.15.05-.41.29-2.87.55-5.46.39-3.98.51-4.77.75-5.03.39-.43.59-.32.75.41h0Zm4.2-.35c2.48.33,2.68.33,3.09.09.87-.51.84-.8.69,6.79-.07,3.89-.17,7.08-.21,7.12s-1.21-.51-2.59-1.22l-2.52-1.28.11-1.2c.12-1.35-.08-4.45-.43-6.4-.24-1.33-.99-3.64-1.32-4.04-.24-.29-.04-.29,3.17.14h0Zm-6.36,1.85c-.05.45-.28,2.71-.5,5.02-.22,2.31-.46,4.25-.53,4.31-.24.21-6.24,4.22-6.43,4.29-.25.09-.29-.13-.58-2.93l-.23-2.26,1.33-2.33c.73-1.29,1.42-2.54,1.55-2.78.14-.28,1.16-1.13,2.73-2.27,1.38-1,2.57-1.83,2.63-1.83.07,0,.08.35.03.8h0Zm3.73,3.42c.12.9.21,2.52.21,3.6v1.96s-.47.17-.47.17c-.45.16-.46.15-.57-.39-.1-.52-.01-2.79.24-6.35.13-1.82.24-1.62.6,1.02h0Zm8.97.84c0,.2-.11.31-.31.31-.2,0-.31-.11-.31-.31,0-.2.11-.31.31-.31.2,0,.31.11.31.31h0Zm-104.14,2.38c0,.46.04,1.26.09,1.77.09.92.09.94-.31,1.01-.39.07-.4.05-.31-.59.09-.58.05-.72-.31-1.07-.68-.69-1.75-.51-2.21.36-.56,1.06-.07,2.03,1.04,2.04.5,0,.58.04.44.21-.09.11-.46.34-.81.49-.63.27-.64.27-1.05-.04-.5-.38-.78-.91-.93-1.8l-.11-.67,2.12-1.27c1.18-.7,2.18-1.27,2.24-1.27.06,0,.11.38.11.83h0Zm6.75,1.1c3.1.97,5.74,1.86,5.86,1.98.2.19,2.65,5.89,2.57,5.97-.02.02-.77-.25-1.66-.59-.9-.34-4.04-1.52-7-2.63-2.96-1.11-5.42-2.06-5.48-2.12-.19-.2-.29-4.39-.1-4.39.09,0,2.71.8,5.81,1.77h0Zm61.85.68c.69.11,1.3.25,1.37.31.16.15-1.27,1.53-1.7,1.63-.34.08-2.7-.18-2.84-.32-.04-.04.23-.51.61-1.02.52-.71.76-.92,1-.88.17.04.87.16,1.56.27h0Zm-70.07.11c.12.31-.22.7-.59.7-.33,0-.37-.19-.13-.64.19-.36.59-.39.72-.06h0Zm106.04.93c0,.12-.17.3-.39.4-.34.16-.39.14-.39-.11,0-.16.05-.34.11-.4.19-.19.67-.11.67.11h0Zm-34.41,1.26c-.05.24-.18,1.4-.29,2.59l-.2,2.15-.53.46c-.52.45-1.43.61-1.86.33-.19-.12-2.25-5.06-2.15-5.16.03-.03.53.03,1.12.11,1.89.28,2.3.23,3.06-.36.83-.65.95-.67.85-.13h0Zm-52.77,3.28c.73,1.57,1.29,2.89,1.25,2.93-.04.04-.53-.09-1.08-.3l-1-.38-1.04-2.4c-.57-1.31-1.04-2.45-1.04-2.51,0-.11.81-.24,1.3-.21.21.01.63.78,1.61,2.88h0Zm8.14-.35c4.52,1.41,8.3,2.64,8.41,2.72.1.08.19.26.19.38,0,.13.66,1.75,1.47,3.6s1.44,3.4,1.4,3.44c-.07.08-2.31-.74-13.22-4.83l-3.71-1.39-1.46-3.21c-.81-1.77-1.46-3.23-1.46-3.25,0-.08.45.05,8.38,2.53h0Zm13.41,7.63c.93,2.05,1.69,3.8,1.69,3.87,0,.12-1.5-.37-1.98-.64-.15-.08-.9-1.61-1.69-3.41l-1.42-3.26.71-.1c.39-.06.75-.14.8-.19.05-.05.11-.07.14-.04.03.03.82,1.74,1.75,3.79h0Zm5.55-1.67c3.01.94,5.48,1.73,5.52,1.76.08.07.22,1.24.39,3.1.08.84.04,1.23-.16,1.7-.35.83-.32,1.31.13,2.11.21.38.37.71.35.73-.02.02-2.06-.72-4.52-1.64-3.66-1.37-4.48-1.73-4.48-1.97,0-.16-.73-1.9-1.62-3.87-.89-1.97-1.62-3.63-1.62-3.68,0-.05.12-.06.27-.01.15.04,2.72.84,5.73,1.78h0Zm14.69,3.39c.61,2.56,1.09,4.9,1.08,5.2-.02.52-.02.51-.15-.16-.15-.81-.85-1.57-1.46-1.57-1,0-1.58.68-1.56,1.83.01.58.1.78.51,1.15.71.65,1.57.63,2.12-.05l.42-.51-.4,1.07c-.44,1.17-1.31,2.67-1.81,3.11-.32.29-.34.28-.7-.55-.2-.47-.68-1.53-1.07-2.37-.39-.85-.64-1.56-.57-1.6.07-.04.46-.5.85-1.01l.72-.93-.24-.57c-.21-.51-.21-.85.04-3.4.21-2.12.36-3.01.61-3.56.18-.4.37-.74.43-.74.05,0,.59,2.09,1.2,4.65h0Zm25.25-2.76c.14.15-.05.16-.83.08-.55-.06-1.31-.11-1.68-.11-.41,0-.68-.07-.68-.18,0-.25,2.94-.06,3.18.21h0Zm-30.86,2.22c1.25.4,2.3.75,2.34.78.03.03.01.37-.05.76-.16,1-.57,1.04-2.75.25-.95-.34-1.75-.64-1.77-.67-.1-.11-.24-1.84-.15-1.84.06,0,1.14.33,2.38.72h0Zm1.6,3.31c.53-.07.59-.04.73.39.11.34.11.48-.03.53-.1.04-1.09-.24-2.21-.62-1.67-.57-2.03-.75-2.07-1.02-.04-.31.02-.31,1.48.24,1.09.4,1.69.54,2.1.49h0Zm-1.65,1.28c1.15.38,1.56.58,1.5.74-.05.12-.12.22-.17.22-.36,0-3.61-1.39-3.61-1.55,0-.13.1-.15.35-.05.19.07,1.06.37,1.93.65h0Zm5.45.74c.28.44.23.84-.13,1.07-.38.24-.75-.15-.74-.78,0-.45.15-.64.52-.67.06,0,.22.16.36.38h0Zm-3.43,3.31c.53,1.17.94,2.14.92,2.16-.03.02-.71-.27-1.52-.65l-1.47-.69-1.11-2.01c-.61-1.11-1.11-2.06-1.12-2.11,0-.06.75.19,1.67.54l1.67.64.96,2.12h0Z"/>
      <path class="cls-2" d="m131.9,37.6c-.27.11-.64.4-.83.64-.43.54-.33,1.07.3,1.66,1.36,1.28,4.29-.42,3.16-1.83-.56-.7-1.64-.9-2.63-.48h0Zm1.68.9q.31.17-.04.54c-.52.55-1.71.47-1.71-.1,0-.51,1.11-.79,1.75-.44h0Z"/>
      <path class="cls-2" d="m121.33,39.85c-1,.28-2.37,1.2-2.94,1.98-.84,1.16-.55,2.24.85,3.12,1.52.96,6.08-.09,7.49-1.72.6-.7.78-1.17.65-1.71-.13-.53-.66-1.17-1.24-1.47-.66-.35-3.77-.47-4.81-.19h0Zm3.74.9c.61.12,1.37.6,1.21.76-.03.03-.39-.05-.78-.18-1.26-.43-3.48-.26-5.48.43-.17.06-.03-.09.31-.33.35-.24.94-.52,1.33-.62.82-.22,2.44-.24,3.4-.05h0Zm.15,1.5c.45.14.81.3.81.37,0,.21-1.72,1.04-2.87,1.39-1.34.4-3,.42-3.54.05-.47-.32-.62-.53-.51-.71.17-.27,1.37-.76,2.52-1.04,1.49-.36,2.55-.37,3.59-.05h0Z"/>
      <path class="cls-2" d="m79.06,44.23c-.76.45-1.13,1.16-1.14,2.15,0,.73.06.91.51,1.36.72.73,1.74.87,2.75.38,1.33-.65,1.82-2.06,1.13-3.21-.57-.94-2.23-1.29-3.24-.67h0Zm2.2.96c.47.38.54.99.17,1.52-.82,1.15-2.57.87-2.56-.41,0-1.19,1.46-1.86,2.4-1.11h0Z"/>
      <path class="cls-2" d="m87.02,45.54c-1.38.69-1.98,2.41-1.27,3.63.49.85,1.05,1.22,1.94,1.31.58.05.91-.01,1.45-.29.81-.41,1.18-.97,1.43-2.18.16-.76.14-.95-.1-1.47-.4-.83-.97-1.21-1.95-1.28-.62-.05-.99.02-1.5.27h0Zm2.35,1.07c.61.61.19,2.3-.69,2.75-.91.47-2.02-.08-2.27-1.11-.13-.52.34-1.43.92-1.79.63-.39,1.58-.32,2.04.15h0Z"/>
      <path class="cls-2" d="m95,46.65c-.84.39-1.44,1.18-1.65,2.21-.47,2.21,1.49,3.8,3.47,2.81,1.71-.86,2.51-2.79,1.68-4.04-.73-1.09-2.28-1.53-3.49-.98h0Zm1.87.88c.58.24,1.03.79,1.02,1.23,0,.6-.54,1.4-1.24,1.84-.8.5-1.11.54-1.73.21-.89-.47-.95-2.09-.11-2.84.8-.71,1.22-.8,2.06-.44h0Z"/>
      <path class="cls-2" d="m50.39,46.15c-.86.78-.29,2.27.86,2.28.61,0,1.38-.79,1.38-1.43,0-1.09-1.4-1.62-2.24-.85h0Zm1.24.73c.16.27-.37.7-.59.48-.09-.09-.13-.28-.08-.41.11-.28.51-.32.67-.07h0Z"/>
      <path class="cls-2" d="m58.87,47.72c-.81.32-1.05,1.32-.49,2.05.44.56,1,.66,1.61.29.71-.43.99-.98.77-1.48-.31-.69-1.25-1.11-1.89-.86h0Zm.85,1.23c0,.34-.61.28-.68-.07-.04-.22.03-.27.31-.22.2.03.37.16.37.29h0Z"/>
      <path class="cls-2" d="m108.37,48.83c-.26.12-.67.79-1.37,2.26-1.07,2.21-1.15,2.52-.79,2.88.32.32,2.96.81,3.34.61.32-.17,2.23-4.4,2.23-4.95,0-.46-.33-.61-1.56-.75-.56-.06-1.12-.14-1.25-.17-.13-.03-.4.02-.6.11h0Zm2.28,1.14c.07.07-1.37,3.38-1.54,3.55-.14.14-1.56,0-1.87-.2-.15-.09,0-.55.64-1.88l.84-1.75.94.11c.51.06.96.14.99.16h0Z"/>
      <path class="cls-2" d="m62.67,48.97c-.43.17-.85.76-.85,1.2,0,.54.62,1.14,1.27,1.25.5.08.64.03,1.05-.37.61-.6.69-1.59.15-1.98-.37-.27-1.09-.31-1.62-.09h0Zm1.02.99c0,.37-.33.58-.66.4-.23-.12-.26-.2-.11-.37.23-.28.77-.3.77-.03h0Z"/>
      <path class="cls-2" d="m53.32,49.28c-2.38.87-4.03,2.77-4.86,5.59-1.11,3.79.17,8.08,2.64,8.84.96.29,1.39.23,2.73-.41,1.55-.74,2.76-1.85,3.65-3.34,1.58-2.66,1.87-3.7,1.66-5.88-.23-2.42-1.1-3.96-2.67-4.76-.93-.48-1.92-.49-3.17-.03h0Zm3.19,1.15c.68.47,1.45,1.86,1.62,2.91.08.48.04.59-.22.68-.52.16-1.56,1.47-1.91,2.39-.5,1.32-.57,2.62-.18,3.37l.32.63-.82.75c-.45.41-1.33,1-1.96,1.31-1.05.51-1.18.54-1.74.37-.85-.26-1.29-.67-1.84-1.7-1.41-2.68-.77-7.01,1.37-9.26,1.75-1.85,3.94-2.43,5.37-1.43h0Zm.95,7.55c-.67,1.34-.76,1.44-.88,1.1-.3-.82.31-2.81,1.12-3.65l.42-.43.04.75c.04.63-.08.98-.7,2.23h0Z"/>
      <path class="cls-2" d="m71.85,51.09c-.71.75-.3,2.15.63,2.16.64,0,1.25-.63,1.26-1.3,0-.68-.29-1.02-1.01-1.14-.42-.07-.6-.01-.88.28h0Zm.88,1c-.23.27-.38.17-.24-.17.06-.14.17-.2.26-.15.12.07.11.16-.02.32h0Z"/>
      <path class="cls-2" d="m75.49,51.76c-.85.84-.29,2.12.92,2.13.71,0,1.17-.41,1.27-1.16.11-.78-.24-1.16-1.16-1.28-.53-.07-.69-.02-1.03.32h0Zm1.27.84c-.06.33-.75.47-.75.15,0-.29.16-.42.5-.42.2,0,.28.09.24.27h0Z"/>
      <path class="cls-2" d="m65.15,52.16c-2.78.91-4.48,3.06-5.34,6.77-.47,2.03-.48,2.29-.08,4.11.37,1.69.77,2.5,1.59,3.17.55.45.67.48,1.87.48,2.27,0,3.56-.75,5.32-3.08,1.67-2.22,2.65-4.87,2.7-7.32.03-1.23-.02-1.5-.38-2.19-.51-.97-.94-1.38-1.92-1.82-1.14-.51-2.42-.55-3.76-.12h0Zm3.51,1.06c.78.4,1.19.9,1.49,1.81.18.55.23,1.02.15,1.59-.1.73-.15.81-.58.89-.61.11-1.86,1.37-2.34,2.35-.5,1.03-.63,2.7-.25,3.29q.26.41-.42,1.11c-.78.8-1.31,1.1-2.41,1.39-2.24.57-3.17-.2-3.72-3.09-.23-1.22-.23-1.44,0-2.65.49-2.53,1.11-3.95,2.25-5.15,1.67-1.77,4.11-2.4,5.82-1.51h0Zm1.23,5.37s-.2.64-.46,1.37c-.46,1.34-1.19,2.63-1.49,2.63-.24,0-.03-1.73.28-2.32.43-.81,1.66-2.06,1.66-1.68h0Z"/>
      <path class="cls-2" d="m83.8,53.93c-.89.87-.37,2.19.86,2.2.83,0,1.56-.74,1.43-1.44-.21-1.16-1.47-1.57-2.29-.75h0Zm1.24.69c.12.14.11.26-.02.39-.4.39-.94.06-.59-.36.23-.28.39-.29.61-.03h0Z"/>
      <path class="cls-2" d="m77.88,54.34c-2.63.55-5.38,3.46-6.62,7.01-.45,1.29-.51,1.67-.5,2.96.01,1.39.05,1.56.6,2.64.66,1.32,1.9,2.69,2.75,3.06.31.13.98.28,1.5.33,1.34.13,2.41-.3,3.69-1.49,1.83-1.7,2.9-3.48,3.77-6.25.38-1.22.43-1.59.38-3.04-.06-1.81-.39-2.85-1.27-3.89-.95-1.14-2.66-1.67-4.29-1.34h0Zm2.07.99c.79.23,1.6.98,2.08,1.94.51,1.02.72,3.53.29,3.53-.45,0-1.49,1.07-1.93,1.99-.48,1-.71,2.86-.42,3.42.14.27.1.42-.26.86-1.28,1.55-2.59,2.28-4.09,2.28-1.26,0-2.55-1.09-3.44-2.89-.39-.8-.46-1.1-.45-2.17.01-2.34,1.34-5.25,3.25-7.15,1.24-1.22,2.28-1.71,4.22-1.95.09-.01.42.06.75.15h0Zm1.88,7.91c-.2.59-.52,1.36-.7,1.7l-.33.61v-.48c-.01-.75.43-2.03.88-2.55.22-.26.44-.45.47-.42.03.03-.11.55-.31,1.15h0Z"/>
      <path class="cls-2" d="m88.07,54.46c-1.14.3-1.52,1.65-.67,2.38.84.72,1.74.44,2.26-.7.26-.58.27-.68.07-1.05-.29-.53-1.02-.81-1.66-.64h0Zm.73,1.11c0,.11-.1.33-.23.51-.21.28-.25.28-.49.04-.22-.22-.23-.31-.07-.5.25-.29.79-.32.79-.04h0Z"/>
      <path class="cls-2" d="m91.13,57.01c-2.32.5-4.05,2.07-5.65,5.15-1.19,2.29-1.63,3.83-1.65,5.75-.02,2.68.59,4.6,1.99,6.18,1.47,1.66,3.5,2.15,5.91,1.43,3.13-.93,5.11-3.36,6.17-7.52.95-3.74.94-5.39-.05-7.57-.68-1.5-2.46-2.87-4.43-3.4-.95-.26-1.15-.26-2.29-.02h0Zm3.4,1.53c.81.41,1.45.87,1.8,1.28,1,1.17,1.48,3.07,1.25,4.83-.1.76-.17.88-.76,1.23-1.82,1.1-3.06,4.05-2.56,6.07.24.96.19,1.06-.98,1.8-1.8,1.14-4.03,1.41-5.56.66-.89-.43-1.96-1.78-2.47-3.11-.53-1.39-.58-4.25-.11-5.81,1.42-4.67,4.17-7.61,7.11-7.6.9,0,1.19.09,2.28.64h0Zm2.24,10.03c-.43,1.46-1.28,3.24-1.56,3.24-.3,0-.02-2.08.4-2.96.45-.95,1.43-2.16,1.53-1.88.03.1-.13.81-.36,1.61h0Z"/>
      <path class="cls-2" d="m100.64,58.14c-1.17.59-1.44,2.26-.5,3.11.8.72,1.74.6,2.78-.38.9-.84.59-1.93-.73-2.62-.7-.36-1-.38-1.54-.11h0Zm1.58,1.34c.34.3.1.86-.46,1.11-.52.23-.76.21-1.05-.07-.36-.36-.31-.81.15-1.26.41-.41.69-.36,1.36.22h0Z"/>
      <path class="cls-2" d="m44.83,60.27c-.47.55-.51.93-.15,1.54.69,1.19,2.15,1.03,2.7-.3.23-.55.02-.99-.66-1.41-.75-.46-1.41-.4-1.89.16h0Zm1.39.68c.25.18.26.26.09.47-.28.33-.59.32-.76-.02-.29-.58.12-.86.67-.45h0Z"/>
      <path class="cls-2" d="m41.75,62.03c-.52.28-.95,1.31-.83,1.95.13.65.73,1.1,1.48,1.1.52,0,.73-.1,1.24-.6.49-.48.61-.72.62-1.18,0-.76-.2-1.1-.79-1.31-.65-.23-1.23-.22-1.72.05h0Zm1.4.85c.32.21.09.93-.37,1.13-.73.33-1.11-.22-.7-.98.17-.32.69-.39,1.07-.15h0Z"/>
      <path class="cls-2" d="m54.72,63.54c-.42.35-.49.49-.41.88.21,1.08,1.19,1.39,1.99.63.57-.53.58-1.15.04-1.59-.55-.44-1.03-.42-1.62.08h0Zm.81.88c-.11.11-.19.12-.19.03,0-.2.19-.39.3-.29.05.04,0,.15-.11.26h0Z"/>
      <path class="cls-2" d="m57.85,64.13c-.2.1-.52.37-.68.59-.28.37-.29.45-.07.97.4.95,1.17,1.15,1.96.5.37-.31.49-.53.49-.92,0-.39-.11-.61-.48-.93-.53-.45-.68-.48-1.22-.21h0Zm.76,1.12c0,.27-.42.45-.55.25-.06-.09-.06-.22,0-.31.14-.23.55-.18.54.07h0Z"/>
      <path class="cls-2" d="m66.98,66.65c-.15.09-.38.37-.52.64-.52.98.47,1.98,1.46,1.48,1.05-.53,1.23-1.59.36-2.05-.53-.28-.91-.3-1.3-.07h0Zm.82.91c0,.19-.3.39-.41.28-.11-.12.08-.42.27-.42.08,0,.14.06.14.14h0Z"/>
      <path class="cls-2" d="m70.05,67.35c-.59.25-.93.96-.71,1.53.51,1.36,2.35.98,2.36-.49,0-.63-.15-.84-.79-1.09-.27-.11-.53-.09-.86.05h0Zm.68,1.13c-.06.33-.33.31-.4-.03-.03-.13.06-.23.2-.23.16,0,.23.09.2.27h0Z"/>
      <path class="cls-2" d="m79.44,69.84c-.31.24-.41.46-.41.93,0,.73.32,1.09.99,1.1,1.05,0,1.59-1.28.84-2-.45-.43-.89-.44-1.42-.03h0Zm.77,1.04c-.16.15-.28-.08-.16-.28.1-.16.14-.16.19,0,.03.11.02.24-.03.29h0Z"/>
      <path class="cls-2" d="m82.54,70.67c-1.15.62-.82,2.15.46,2.16.95,0,1.36-1.09.71-1.92-.35-.44-.67-.51-1.17-.24h0Zm.54,1.06c0,.09-.06.16-.16.16-.09,0-.16-.06-.16-.16,0-.09.06-.16.16-.16.09,0,.16.06.16.16h0Z"/>
      <path class="cls-2" d="m96.64,74.48c-1.03.43-1.43,1.35-1.04,2.4.2.55.4.76.94,1.02.58.28.78.31,1.28.18.67-.18,1.35-.79,1.61-1.45.21-.53-.15-1.41-.78-1.87-.47-.36-1.48-.49-2.01-.27h0Zm1.17.93c.58.22.79.89.42,1.3-.6.66-1.41.58-1.74-.17-.25-.57.04-1,.88-1.28.02,0,.22.06.44.15h0Z"/>
      <path class="cls-2" d="m141.24,39.38c-.59.25-.83.66-.84,1.37,0,.71.46,1.13,1.27,1.13.52,0,.7-.08,1.07-.49.59-.65.59-1.19.01-1.78-.5-.51-.79-.55-1.52-.23h0Zm.93.96c.16.16-.21.53-.53.53-.28,0-.39-.33-.18-.53.13-.12.59-.12.72,0h0Z"/>
      <path class="cls-2" d="m145.07,43.65c-1.16.45-1,2.3.23,2.61.51.13,1.42-.16,1.62-.53.57-1.04-.74-2.51-1.85-2.09h0Zm1,1.24c.05.14.01.32-.09.38-.26.16-.76-.11-.76-.4,0-.33.73-.31.85.02h0Z"/>
      <path class="cls-2" d="m147.68,47.5c-.41.34-.96,1.24-.9,1.47.02.07-.02.51-.09.98-.25,1.82.59,3.2,1.97,3.21.5,0,.69-.09,1.05-.52.81-.97,1.06-3.44.46-4.54-.55-.99-1.69-1.26-2.49-.6h0Zm1.66,1.1c.29.58.21,2.33-.14,3.06-.28.58-.93.66-1.27.16-.36-.52-.34-2.58.02-3.11.55-.79,1.03-.83,1.39-.12h0Z"/>
      <path class="cls-2" d="m124.98,48.24c-.46.21-.74.48-1.06,1.06-.52.93-.55,1.55-.13,2.39.57,1.13,1.69,1.37,2.93.62.62-.38,1.29-1.47,1.29-2.11,0-.63-.57-1.45-1.32-1.88-.75-.43-.9-.44-1.72-.07h0Zm1.7,1.29c.48.57.48.69.07,1.36-.35.56-1.23,1.02-1.64.86-.35-.14-.73-.98-.63-1.37.05-.18.24-.56.41-.84.44-.7,1.2-.7,1.78,0h0Z"/>
      <path class="cls-2" d="m147.18,58.01c-.43.54-.41,1.09.05,1.56.59.6,1.28.44,1.71-.38.3-.58.16-1.07-.39-1.36-.64-.34-1.01-.29-1.37.17h0Zm.92.69c0,.09-.07.16-.16.15-.09,0-.12-.07-.07-.16.06-.09.12-.16.16-.16.04,0,.07.06.07.16h0Z"/>
      <path class="cls-2" d="m125.89,60.89c-.94.59-1.51,1.34-1.87,2.51-.56,1.76-.25,3.22.82,3.89,1.02.64,2.02.37,2.97-.78,1.09-1.32,1.48-2.68,1.24-4.25-.27-1.75-1.6-2.33-3.15-1.37h0Zm1.96.73c.36.37.33,2.3-.06,3.14-.32.68-1.37,1.93-1.63,1.93-.08,0-.02-.2.13-.44.84-1.26,1.35-3.35,1.03-4.27-.09-.27-.17-.51-.17-.55,0-.16.47-.03.69.19h0Zm-1.49.58c.28.75-.42,3.16-1.1,3.77-.27.24-.29.22-.47-.31-.31-.95.12-2.57.91-3.38.23-.23.44-.43.47-.43.03,0,.11.16.18.36h0Z"/>
      <path class="cls-2" d="m124.61,75.26c-.54.33-.97,1.12-.98,1.79,0,.23.21.63.51.96.41.46.65.58,1.24.65.84.1,1.36-.16,1.83-.93.48-.78.41-1.55-.19-2.2-.44-.48-.63-.57-1.21-.57-.41,0-.9.12-1.2.31h0Zm.74,1.31c0,.62-.41,1.08-.64.71-.21-.33-.19-.5.1-.9.35-.49.54-.42.54.19h0Zm1.02.68l-.24.44.1-.47c.05-.26.13-.57.18-.7.07-.19.1-.19.15.03.03.14-.05.47-.18.7h0Z"/>
      <path class="cls-2" d="m126.51,88.78c-.44.23-.57.45-.78,1.31-.15.62,0,1.11.48,1.56.48.45,1.51.46,2,0,.39-.36.8-1.2.81-1.66,0-.52-1.24-1.46-1.91-1.44-.1,0-.38.1-.59.22h0Zm1.24,1.02c.32.17.28.82-.07,1.1-.3.25-.92.11-.98-.22-.16-.86.34-1.28,1.05-.89h0Z"/>
      <path class="cls-2" d="m118.86,54.23c-.09.03-.42.09-.75.14-.65.11-1.57.83-1.92,1.5-.12.24-.23.76-.23,1.15,0,.59.08.8.51,1.28.94,1.04,2.37.9,4.04-.41,1.38-1.07.72-3.23-1.1-3.62-.22-.05-.46-.06-.55-.04h0Zm.91,1.35c.55.44.54,1.1-.03,1.61-1.32,1.21-2.85,1.02-2.85-.35,0-.37.14-.61.63-1.04.75-.67,1.58-.75,2.25-.22h0Z"/>
    </g>
    <rect class="cls-1" width="190" height="130"/>
  </g>
</svg>