<?xml version="1.0" encoding="UTF-8"?>
<svg id="Layer_2" data-name="Layer 2" xmlns="http://www.w3.org/2000/svg" viewBox="0 0 190 130">
  <defs>
    <style>
      .cls-1 {
        fill: none;
      }

      .cls-2 {
        fill: #141414;
      }
    </style>
  </defs>
  <g id="Layer_1-2" data-name="Layer 1">
    <g>
      <g>
        <path class="cls-2" d="m154.61,106.58c-.07-.28-.16-.57-.32-.8-.56-.81-.89-1.73-1.29-2.62-.68-1.51-1.38-3.02-2-4.56-.97-2.41-1.86-4.85-2.84-7.26-1.33-3.27-2.71-6.53-4.08-9.79-.53-1.26-1.13-2.5-1.65-3.77-.91-2.2-1.78-4.42-2.67-6.63-.55-1.37-1.1-2.75-1.65-4.12-.34-.84-.68-1.67-1.05-2.49-.16-.36-.2-.72-.1-1.06.17-.57.17-1.13.2-1.71.06-1.12.2-2.23.28-3.35.12-1.69.3-3.38.31-5.08.02-2.24.12-4.47.29-6.71.11-1.51.27-3.02.37-4.53.08-1.22.1-2.45.19-3.68.15-2.09.33-4.18.49-6.26.02-.22.05-.43.04-.65-.11-3.37.24-6.71.48-10.06.06-.9-.15-1.71-.38-2.54-.05-.19-.21-.38-.37-.52-.74-.69-1.57-1.13-2.63-1.05-.57.05-1.15.05-1.73.02-1.19-.05-2.37-.13-3.56-.19-.29-.02-.58-.04-.87-.03-1.7.03-3.39.04-5.09.01-1.8-.03-3.6.02-5.4.01-1.88-.01-3.75-.31-5.62-.11-.1.01-.21-.03-.32-.03-1.34-.04-2.67-.08-4.01-.12-.61-.02-1.24.03-1.84-.06-.83-.12-1.66-.1-2.49-.07-.29.01-.57.03-.86.02-.79-.03-1.58-.1-2.37-.09-1.59.01-3.18.07-4.77.1-.9.02-1.8.08-2.7-.04-.6-.08-1.23-.08-1.84-.03-1.09.08-2.17.03-3.25-.05-.43-.03-.86-.11-1.29-.12-1.7-.05-3.39-.09-5.09-.12-.97-.02-1.95-.07-2.92-.02-1.19.07-2.38.13-3.57.09-1.01-.03-2.02.02-3.03.05-.5.02-1,.09-1.5.11-.72.03-1.44-.02-2.16.04-.97.08-1.93.24-2.9.06-.27-.05-.57.02-.86.04-.68.05-1.36.07-2.05-.02-.64-.08-1.31-.12-1.95-.04-1.36.19-2.73-.06-4.09.13-.14.02-.28-.04-.43-.05-.8-.07-1.58-.02-2.26.5-.2.15-.43.26-.65.39-.83.5-1.33,1.23-1.36,2.2-.05,1.4-.36,2.8-.04,4.21.05.2-.02.43-.01.65.04,1.26.07,2.52.14,3.78.05,1.08.26,2.17.2,3.24-.1,1.64.07,3.25.18,4.86.07,1.19.16,2.38.25,3.56.11,1.37.05,2.75.38,4.09.42,1.7.51,3.42.46,5.16-.01.5,0,1.01.03,1.52.12,1.87.26,3.74.37,5.61.07,1.33.12,2.67.4,3.98.09.42.11.84.06,1.28-.05.38,0,.8.12,1.16.16.49.09.91-.13,1.35-.3.62-.56,1.25-.85,1.87-.78,1.66-1.56,3.33-2.37,4.98-.74,1.49-1.54,2.94-2.28,4.43-1.05,2.1-1.96,4.26-3.11,6.31-.79,1.42-1.59,2.83-2.38,4.25-.28.5-.53,1.03-.77,1.55-.69,1.47-1.33,2.96-2.07,4.4-.54,1.06-1.2,2.06-1.81,3.08-.13.22-.25.44-.36.67-.26.52-.5,1.04-.75,1.55-.36.71-.71,1.42-1.08,2.12-.67,1.28-1.32,2.56-2.05,3.81-.3.52-.5,1.04-.55,1.62-.04.39-.09.79-.08,1.19.03.65.13,1.28.46,1.87.5.89,1.14,2.21,1.88,2.88.76.69,1.63,1.3,2.77,1.31,1.41.02,2.81.14,4.22.18.5.02,1.01-.07,1.51-.1.97-.05,1.95-.12,2.92-.13.98,0,1.94-.05,2.92-.14,1.29-.11,2.6-.11,3.9-.06,2.16.08,4.33-.06,6.49.17,1.72.18,3.46.19,5.19.28.22.01.43.05.65.07.61.05,1.22.1,1.83.13.4.02.8-.02,1.19,0,2.09.13,4.18.23,6.28.21,1.37,0,2.75.01,4.12,0,1.4-.02,2.81-.09,4.21-.1.97,0,1.95.08,2.92-.05.28-.04.58.03.86.05.29.02.59.09.86.04,1.04-.18,2.09-.1,3.14-.11,3.39-.03,6.79-.02,10.18.09,2.78.08,5.56.11,8.34.24,1.91.09,3.83-.07,5.74.21.14.02.29.03.43.01,1.41-.16,2.81.01,4.22.04,1.37.03,2.74.12,4.11.18,2.31.11,4.62.03,6.93.04,1.16,0,2.3-.14,3.45-.2,1.69-.09,3.39-.06,5.09-.08,0,.02,0,.04,0,.06,1.66,0,3.33-.04,4.99.01.87.03,1.65-.77,2.37-1.15,1.01-.54,1.93-1.25,2.83-1.98.73-.6,1.24-1.39,1.94-2.03.45-.41.51-1.02.37-1.62ZM55.96,52.11c-.06-.86-.15-1.73-.14-2.59.02-1.81-.1-3.6-.46-5.38-.24-1.2-.28-2.43-.39-3.66-.15-1.76-.3-3.53-.41-5.29-.06-.9-.05-1.81-.05-2.71,0-1.34-.03-2.66-.17-4-.13-1.28-.31-2.58-.12-3.88.03-.21.05-.45,0-.65-.27-1.01-.12-2.01-.03-3.02,0-.11,0-.22.02-.32.08-.53-.07-1.14.38-1.54.61-.55,1.22-1.13,2.04-1.39.1-.03.22-.07.32-.05.89.14,1.79-.05,2.68.02.36.03.72.03,1.07,0,1.3-.07,2.59-.17,3.89,0,.53.07,1.08-.02,1.62-.02.58,0,1.15.06,1.73.04.75-.03,1.51-.1,2.26-.16.32-.03.65-.11.97-.08,1.09.1,2.16.04,3.24-.09.61-.07,1.22-.05,1.83-.02,1.26.06,2.52.1,3.78-.1.6-.1,1.23-.06,1.84-.02,2.7.15,5.41.11,8.11.33.9.08,1.8.04,2.71.05.65,0,1.3.02,1.95.02.83,0,1.66.01,2.49.01,2.13,0,4.26,0,6.39-.01.83,0,1.66-.02,2.49,0,.61,0,1.22.06,1.84.08.61.03,1.23.11,1.84.06,1.12-.09,2.23,0,3.35.06.79.04,1.59,0,2.38.02.4,0,.79.07,1.19.08.9.03,1.8.05,2.7.07.54.01,1.08,0,1.62.04.86.06,1.72.16,2.59,0,.42-.08.87-.04,1.3-.04,1.81,0,3.61-.02,5.42.02,1.58.04,3.16.16,4.75.23.36.02.72.01,1.08-.03,1.82-.22,2.81,1.08,2.78,2.64-.02,1.19-.15,2.38-.21,3.57-.11,1.95-.29,3.89-.31,5.84-.02,2.31-.21,4.61-.46,6.91-.03.32-.05.65-.06.97-.04,2.85-.29,5.7-.56,8.54-.21,2.23-.28,4.46-.3,6.7-.02,1.62-.17,3.24-.28,4.87-.08,1.19-.21,2.37-.31,3.56-.04.43.04.87-.38,1.19-.11.08-.09.33-.14.55-1.49.1-2.89.23-4.3.05-.25-.03-.51-.06-.76-.04-2.45.26-4.91.02-7.36,0-1.59-.01-3.18.06-4.76.04-1.41-.01-2.82,0-4.23,0-.25,0-.51.02-.76-.01-2.19-.3-4.4-.15-6.6-.23-1.04-.04-2.09-.19-3.13-.02-.11.02-.22.02-.32,0-1.4-.26-2.81-.15-4.22-.16-.18,0-.36,0-.54-.02-3.64-.31-7.29-.18-10.94-.16-1.44,0-2.89-.04-4.33.12-.04,0-.07,0-.11,0-2.01-.35-4.04-.04-6.05-.14-.82-.04-1.66.04-2.48.12-1.41.14-2.82.08-4.22.04-.4-.01-.79-.02-1.19-.01-.76.02-1.51.03-2.27-.1-.46-.08-.94-.06-1.4-.07-1.45-.02-2.89-.05-4.34-.05-1.08,0-2.16.04-3.25.04-.46,0-.92-.09-1.34-.14-.24-.35-.28-.65-.23-.99.04-.24.06-.5,0-.74-.39-1.7-.43-3.43-.49-5.17-.04-1.26-.17-2.52-.25-3.78Zm95.93,57.34c-1.16.96-2.26,2.02-3.8,2.39-.21.05-.42.13-.62.13-1.15.02-2.31.03-3.46.02-2.17,0-4.33-.03-6.5-.01-.61,0-1.22.14-1.83.16-1.15.04-2.31.04-3.46.06-.83.01-1.66.05-2.49.03-1.55-.03-3.1-.09-4.66-.15-2.2-.09-4.4-.2-6.6-.15-.54.01-1.08-.05-1.62-.09-.32-.02-.65-.08-.97-.09-1.34-.02-2.68.04-4.01-.04-1.3-.08-2.59-.04-3.89-.13-1.69-.12-3.39-.07-5.09-.1-.54,0-1.08-.06-1.62-.06-1.4,0-2.81.01-4.21,0-1.55-.01-3.1-.05-4.65-.07-.14,0-.29-.03-.43,0-1.29.24-2.59.09-3.89.13-1.41.04-2.82.04-4.22.04-2.78.01-5.56.02-8.34.02-.9,0-1.81,0-2.7-.1-1.73-.19-3.47,0-5.19-.28-.6-.1-1.23,0-1.84-.05-1.55-.12-3.09-.29-4.64-.38-1.04-.06-2.09-.02-3.14-.02-.39,0-.79,0-1.18,0-.47,0-.95-.07-1.41,0-.87.13-1.73.1-2.59.03-.14-.01-.29-.04-.43-.02-1.18.25-2.37.15-3.56.18-1.01.03-2.02.14-3.02.19-.54.03-1.08.04-1.62.03-.83-.01-1.65-.15-2.48-.07-.39.04-.79-.06-1.18-.07-.97-.03-1.67-.61-2.37-1.17-.15-.12-.22-.33-.38-.59.39,0,.68-.05.95.01.54.13,1.07.09,1.61-.01.42-.08.86-.1,1.29-.12,2.2-.09,4.4-.17,6.6-.25,1.37-.05,2.74-.11,4.11-.15.61-.02,1.23.02,1.84.02.43,0,.86-.02,1.29,0,.5.01,1.01.04,1.51.08.65.04,1.29.1,1.94.14.72.04,1.44.06,2.16.08,1.55.04,3.1.08,4.65.1.76.01,1.51,0,2.27,0,1.7-.02,3.39-.07,5.09-.08,1.05,0,2.09.05,3.14.05,2.6.02,5.2.02,7.8.04.43,0,.86.05,1.3.08.18.01.36.06.54.06,1.62,0,3.24,0,4.87,0,1.12,0,2.24.04,3.36.05,1.73.01,3.47,0,5.2.02,3.47.02,6.94.06,10.4.08,1.44,0,2.89-.04,4.33-.03,1.59,0,3.17.07,4.76.08.9,0,1.8-.04,2.7-.04.61,0,1.22.02,1.84.04.5.01,1.01.07,1.51.05,1.3-.04,2.6-.11,3.89-.18,1.19-.06,2.38-.14,3.57-.22,1.7-.11,3.39-.02,5.09,0,1.52.02,3.03.13,4.55.2.18,0,.37.04.54,0,1.28-.34,2.59-.12,3.88-.19.14,0,.29,0,.43-.02.72-.09,1.43-.11,2.16-.08.57.02,1.15-.03,1.73-.08.47-.04.92-.05,1.5.13-.16.21-.21.31-.29.37Zm1.87-1.95c-.64.55-1.35.9-2.25.62-.16-.05-.36-.02-.54,0-.79.04-1.58.09-2.37.13-1.01.04-2.02.07-3.03.1-.29,0-.57-.01-.86-.02-.61-.02-1.22-.07-1.83.11-.33.1-.72.07-1.07.06-1.37-.05-2.74-.17-4.11-.18-2.31-.03-4.62-.16-6.93.15-.64.08-1.3.05-1.95.08-1.3.06-2.59.19-3.89.17-1.91-.03-3.82.02-5.73,0-2.41-.03-4.83-.11-7.24-.15-.58,0-1.15.06-1.73.09-.29.02-.58.04-.87.04-2.7-.06-5.41-.16-8.11-.18-1.44-.02-2.89.08-4.33.13-.14,0-.29.04-.43.03-2.2-.25-4.4-.08-6.6-.15-1.77-.06-3.54,0-5.3-.13-1.4-.11-2.82-.05-4.22-.06-1.77,0-3.54,0-5.31-.01-2.85-.01-5.7-.03-8.56-.03-1.66,0-3.32.01-4.98,0-.29,0-.57-.06-.86-.08-.43-.03-.86-.09-1.29-.07-.87.04-1.73,0-2.59-.16-.35-.06-.73-.11-1.07-.05-.65.12-1.29.05-1.94,0-.65-.06-1.3-.04-1.95-.02-1.98.06-3.97.12-5.95.2-.79.03-1.58.13-2.37.17-.61.03-1.23.02-1.84.03-.32,0-.66-.02-.97.07-.9.25-1.8.15-2.69.07-1.17-.1-1.89-.95-1.86-2.12,0-.43.03-.87.1-1.29.06-.35.13-.74.33-1.02.9-1.2,1.35-2.63,2.09-3.91.42-.72.78-1.46,1.16-2.2.25-.48.48-.97.73-1.45.15-.29.3-.57.46-.86.79-1.38,1.6-2.73,2.27-4.18.59-1.27,1.24-2.52,1.77-3.83.11-.26.29-.5.43-.75.8-1.41,1.63-2.81,2.38-4.25.9-1.72,1.73-3.49,2.6-5.23.97-1.94,1.98-3.85,2.93-5.8.98-2.01,1.91-4.04,2.86-6.06.27-.58.5-1.2.93-1.66,1.25-.07,2.37-.16,3.48-.18.83-.01,1.66.07,2.49.09.87.02,1.73.01,2.6.02.07,0,.15-.02.22-.01,1.58.18,3.17.07,4.75.17,1.59.1,3.17.1,4.76-.07,1.03-.11,2.09-.03,3.14-.04.65,0,1.3-.02,1.95-.03.47,0,.94-.01,1.41,0,.97.02,1.95.06,2.92.06,3.29,0,6.57,0,9.86-.02.43,0,.87-.02,1.3-.01.58,0,1.17-.03,1.73.06.97.16,1.94.17,2.92.13.4-.01.79,0,1.19.01,1.04.05,2.08.16,3.13.06.6-.06,1.22.08,1.83.1,1.12.03,2.24.03,3.36.06.97.03,1.95.08,2.92.12.61.02,1.23.12,1.83.05,1.01-.12,2.01-.05,3.02,0,.82.04,1.65-.07,2.48-.09.68-.02,1.37,0,2.05,0,.39,0,.79.05,1.18.06,1.52.03,3.03.06,4.55.09.22,0,.43.02.65.03.87.07,1.7-.25,2.59-.13.85.12,1.73.1,2.59.1.64,0,1.29-.07,1.95-.1.45.65.62,1.4.93,2.08,1.66,3.72,3,7.58,4.6,11.33.45,1.06.97,2.1,1.41,3.16.8,1.93,1.57,3.88,2.36,5.81.85,2.07,1.74,4.12,2.57,6.2.92,2.27,1.77,4.57,2.7,6.84.52,1.27,1.13,2.49,1.68,3.75.41.92.78,1.85,1.33,2.71.3.48.26.51.16,1.26Z"/>
        <path class="cls-2" d="m113.75,103.6c-1.21-2.17-2.45-4.33-3.64-6.52-.34-.62-.72-1.16-1.38-1.62-.35,0-.78,0-1.21,0-1.48,0-2.96.02-4.44,0-1.4-.03-2.81-.12-4.21-.18-.61-.03-1.23,0-1.84-.07-1.15-.13-2.31-.12-3.46-.07-2.05.07-4.1-.03-6.15.08-1.22.07-2.45.06-3.68.05-.64,0-1,.28-1.23.85-.28.7-.56,1.41-.9,2.09-1.06,2.13-1.99,4.33-2.9,6.52-.22.53-.37,1.08-.55,1.64.46.6.92.94,1.53.99.79.07,1.59.2,2.37.14,1.66-.13,3.31.14,4.97-.05.21-.02.43.04.65.06.36.03.72.08,1.08.08,1.55.01,3.1.03,4.65.01,2.49-.02,4.97-.06,7.46-.09.57,0,1.15,0,1.72-.01,1.05-.02,2.09-.07,3.14-.08,2.38-.02,4.77-.02,7.15-.05.43,0,.87-.05,1.28-.18.84-.26,1.07-.67.69-1.45-.35-.71-.71-1.42-1.1-2.11Zm-1.53,2.95c-1.88,0-3.75,0-5.63.02-1.72.03-3.45.13-5.17.14-3.17.02-6.34,0-9.52.01-1.23,0-2.46.05-3.68,0-1.47-.05-2.95-.05-4.42-.04-.68,0-1.36.02-2.04-.01-.65-.03-1.29-.09-1.93-.15-.17-.02-.34-.09-.49-.13-.24-.38-.13-.72.01-1.06.55-1.29,1.08-2.59,1.64-3.88.74-1.68,1.51-3.34,2.27-5.01.04-.1.12-.18.2-.29.16-.03.33-.08.51-.08.94,0,1.88.1,2.8-.12.96.23,1.93-.1,2.9.03.85.11,1.73-.03,2.59-.04,1.15-.01,2.31-.03,3.46,0,1.73.06,3.46.18,5.19.24.9.04,1.8.02,2.69.03,1.01.01,2.01.03,3.02.05.47,0,.94.05,1.4.02.5-.02.81.23,1.06.62.08.12.14.25.21.38.89,1.65,1.77,3.31,2.67,4.95.59,1.07,1.22,2.12,1.83,3.19.14.24.22.51.36.85-.74.23-1.34.28-1.95.28Z"/>
        <path class="cls-2" d="m62.3,93.67c-1.08-.04-2.16-.08-3.24-.11-.36,0-.72.02-1.08.02-.94.02-1.87.07-2.81,0-.86-.07-1.73-.03-2.6-.03-.18,0-.38,0-.53.08-.14.07-.29.22-.32.37-.05.2.13.31.32.35.11.02.21.03.32.03,1.84.01,3.68.02,5.52.03.9,0,1.8.03,2.71.05.68.02,1.37.05,2.1-.14,0-.54-.05-.64-.38-.65Z"/>
        <path class="cls-2" d="m54.15,106.11c-.07,0-.14,0-.22,0-1.37.05-2.73.11-4.1.16-.32.01-.65,0-.97-.03-.57-.04-1.15-.1-1.72-.12-.28-.01-.58.02-.85.09-.1.02-.22.21-.22.32,0,.11.11.26.21.32.11.07.27.07.42.08,1.19.04,2.38.07,3.56.11,0-.02,0-.05,0-.07.9,0,1.8,0,2.7,0,.4,0,.79,0,1.19-.05.22-.02.4-.16.43-.41.02-.19-.19-.37-.43-.39Z"/>
        <path class="cls-2" d="m149.7,105.89c-.29.14-.54.26-.81.39-.05-.16-.08-.3-.14-.43-.1-.19-.32-.25-.46-.17-.39.24-.77.51-1.12.82-.08.07-.06.35.01.49.09.2.3.16.47.06.28-.16.56-.33.88-.53.47.64.61.68,1.05.35.2-.16.41-.33.36-.61-.02-.12-.14-.23-.24-.37Z"/>
        <path class="cls-2" d="m38.55,104.84c.24-.37.43-.66.61-.97.09-.15-.07-.39-.26-.39-.14,0-.31,0-.41.08-.35.27-.61.62-.72,1.05-.19.74.44,1.38,1.2,1.19.11-.03.22-.18.27-.3.03-.07-.02-.23-.08-.28-.16-.13-.36-.23-.62-.39Z"/>
        <path class="cls-2" d="m134.33,105.68c-.62.24-1.06.65-1.45,1.12-.12.14-.1.36.07.47.1.06.3.09.39.03.39-.26.77-.52,1.11-.83.23-.22.25-.5-.12-.79Z"/>
        <path class="cls-2" d="m135.77,105.82c-.33.32-.66.64-.96.99-.05.06.01.27.08.37.04.07.2.12.28.1.55-.16.87-.59,1.07-1.09.04-.1-.14-.28-.2-.41-.13.02-.23,0-.27.04Z"/>
        <path class="cls-2" d="m137.92,105.92c-.1-.03-.24-.05-.31,0-.38.26-.74.55-1.09.84-.05.04-.05.22,0,.29.07.11.19.19.27.27.12-.02.2-.01.25-.05.37-.28.74-.57,1.09-.87.06-.05.06-.21.03-.29-.03-.08-.14-.16-.23-.19Z"/>
        <path class="cls-2" d="m48.35,93.28c-.35.11-.64.33-.8.67-.13.26-.08.49.38.65.28-.28.57-.54.82-.83.06-.08.05-.3-.01-.38-.07-.09-.27-.15-.38-.11Z"/>
        <path class="cls-2" d="m138.74,106.55c-.04.06,0,.23.06.28.1.08.26.16.37.13.39-.09.69-.33.89-.68.02-.03.02-.07.05-.17-.12-.08-.25-.24-.39-.24-.47,0-.77.29-.99.67Z"/>
        <path class="cls-2" d="m49.78,93.36c-.35.06-.64.43-.63.77,0,.1.14.27.25.29.36.08.84-.43.79-.9-.11-.05-.27-.18-.4-.16Z"/>
        <path class="cls-2" d="m151.38,106.92c-.08.05-.13.25-.1.37.04.2.21.29.41.24.24-.07.47-.16.68-.28.11-.06.16-.21.28-.38-.16-.12-.3-.32-.4-.3-.3.07-.6.2-.87.35Z"/>
        <path class="cls-2" d="m134.42,20.6c-.54,0-1.08,0-1.62-.01-1.33-.05-2.67-.16-4-.15-1.91.02-3.81-.37-5.73-.13-.1.01-.21-.04-.32-.04-1.44-.06-2.89-.13-4.33-.18-1.55-.05-3.1,0-4.65-.13-2.27-.19-4.54-.27-6.81-.21-.83.02-1.65-.09-2.48-.11-1.81-.04-3.61-.09-5.42-.09-1.84,0-3.68-.23-5.52-.01-.04,0-.07,0-.11,0-1.52-.16-3.01.24-4.53.13-.86-.06-1.73.1-2.6.13-1.4.05-2.81.29-4.21.02-.21-.04-.44-.03-.65.02-.65.16-1.29.08-1.94.01-.47-.05-.94-.07-1.41-.07-1.3.02-2.6.07-3.9.08-1.19,0-2.38-.15-3.57.09-1.37-.18-2.73-.04-4.1,0-1.04.03-2.09-.14-3.14,0-.14.02-.3.03-.43,0-.89-.27-1.8-.12-2.49-.16-.82,0-1.44-.05-2.04.01-.84.08-1.61.35-2.25.95-.25.24-.42.47-.46.82-.14,1.18-.37,2.35-.17,3.55.03.18.03.36.04.54.02.9-.06,1.81.19,2.69.05.17.04.36.02.54-.16,1.42.18,2.81.25,4.21.06,1.22.29,2.44.38,3.66.13,1.69.34,3.38.58,5.06.14.99.27,1.99.21,3.02-.09,1.4.01,2.81.22,4.21.15,1.03.33,2.07.29,3.12-.05,1.41.17,2.81.39,4.2.15.93.29,1.85.34,2.79,0,.22,0,.44.06.64.08.31.02.67.31.9.4.31.8.64,1.33.68.29.02.58.02.87.02.76,0,1.53-.1,2.27,0,.87.12,1.72.07,2.59,0,.4-.03.79-.04,1.19-.05,1.23-.03,2.46.03,3.67-.1,2.1-.22,4.18.13,6.27.15.14,0,.28.05.43.07.43.06.85.15,1.28.16,1.37.02,2.74.02,4.11.02.47,0,.94-.05,1.41-.08.68-.05,1.37-.1,2.05-.14.58-.03,1.15-.05,1.73-.07.75-.02,1.51-.05,2.26-.05,1.41.01,2.82.14,4.22.05,1.55-.11,3.11.15,4.65-.12.14-.02.29.02.43.03,1.62.11,3.24.22,4.86.32,1.12.07,2.24-.05,3.35.22.17.04.36.02.54.02,1.05,0,2.09-.02,3.13.17.42.08.86.05,1.3.05,1.59,0,3.18-.05,4.77,0,2.75.09,5.49-.06,8.23-.03.25,0,.51,0,.76-.04,1.5-.27,3.01-.33,4.52-.21.11,0,.22.01.32-.01.7-.17,1.4-.29,2.14-.19.31.04.56-.17.64-.48.06-.21.1-.42.11-.64.03-1.12.03-2.23.08-3.35.07-1.52.1-3.04.28-4.54.19-1.51.15-3.03.26-4.54.13-1.84.21-3.67.34-5.51.09-1.19.25-2.36.38-3.55.09-.86.18-1.72.23-2.59.15-2.34.14-4.69.47-7.01.17-1.18.26-2.37.37-3.55.12-1.3.12-2.59-.37-3.84-.27-.7-1.13-1.37-1.87-1.38Zm1.08,4.97c-.18,1.72-.2,3.45-.56,5.15-.03.14-.04.28-.05.42-.08,1.62-.14,3.24-.24,4.86-.08,1.23-.19,2.46-.3,3.69-.12,1.33-.19,2.67-.38,3.99-.24,1.68-.21,3.37-.31,5.06-.11,1.79-.23,3.59-.33,5.38-.1,1.79-.17,3.59-.25,5.38-.01.24-.06.48-.1.7-1.43.16-2.81.31-4.2.27-.86-.02-1.72,0-2.56.2-.24.06-.5.04-.75.04-1.57.01-3.15-.04-4.72.05-1.15.07-2.28-.01-3.42-.04-1.11-.02-2.22-.01-3.33-.02-1,0-2,0-3.01-.04-.71-.02-1.42-.12-2.14-.15-.71-.03-1.42-.04-2.13-.16-.63-.11-1.28-.02-1.93-.05-1.68-.08-3.35-.18-5.03-.26-.43-.02-.85,0-1.28,0-.18,0-.36.02-.54.02-2.58-.01-5.15-.03-7.73-.04-.72,0-1.43,0-2.15.03-1.53.09-3.07.21-4.6.31-.28.02-.57,0-.85,0-.46,0-.93-.03-1.39,0-1.29.08-2.57.11-3.83-.26-.03-.01-.07-.02-.11-.02-1.82.02-3.64-.38-5.45-.2-1.61.16-3.21.13-4.81.19-.5.02-.99.09-1.49.13-.28.02-.58.07-.85.02-1.07-.21-2.14-.13-3.21-.13-.29,0-.57,0-.86-.02-.56-.05-.91-.39-.97-.95-.03-.32,0-.64-.05-.95-.16-1.26-.35-2.51-.5-3.77-.1-.84-.25-1.68-.22-2.51.03-.79-.05-1.55-.17-2.31-.27-1.78-.36-3.57-.33-5.37.02-1.15-.19-2.31-.32-3.47-.09-.84-.25-1.67-.33-2.52-.12-1.23-.19-2.46-.3-3.69-.11-1.19-.26-2.38-.39-3.57-.02-.18-.07-.35-.06-.53.1-1.56-.19-3.09-.26-4.64-.04-.99.03-1.97.06-2.95.03-.89.39-1.27,1.29-1.6.59-.21,1.2-.21,1.8-.19,1.29.06,2.58-.07,3.86.15.24.04.5-.03.75-.03.64,0,1.28.02,1.93.03.43,0,.87.07,1.28,0,.82-.16,1.64-.12,2.46-.03.43.05.85.07,1.28-.02.28-.06.57-.05.86-.05,2.15,0,4.3-.04,6.44,0,1.11.02,2.21.15,3.32,0,.04,0,.07,0,.11,0,1.43.27,2.85,0,4.28-.01.61,0,1.21-.08,1.82-.13.18-.01.36-.04.53-.04,1.47-.03,2.93-.06,4.4-.1.43-.01.86-.04,1.29-.05.71-.02,1.43-.05,2.14-.04,1.68.02,3.35.06,5.03.11,1.5.05,3,.13,4.5.19.18,0,.36.04.54.01,1.75-.24,3.5.06,5.25.06,1.43,0,2.86.17,4.29.23,2.25.1,4.5.17,6.75.24.46.01.93-.06,1.39-.05,1.07.03,2.14.11,3.21.15,1.18.04,2.36.04,3.54.07.54.01,1.07.07,1.6.09.5.02.99,0,1.59,0,.92.53,1.09,1.44,1.21,2.34.06.45.04.92,0,1.37Z"/>
        <path class="cls-2" d="m84.52,97.29c-.08-.04-.32.13-.4.26-.19.3-.3.65-.48.96-.5.87-1.04,1.72-1.51,2.61-.34.63-.61,1.3-.88,1.96-.03.08.07.29.16.35.1.06.29.04.4-.02.12-.06.21-.19.27-.32.73-1.61,1.61-3.13,2.56-4.62.13-.2.19-.45.3-.73-.14-.17-.25-.37-.41-.45Z"/>
        <path class="cls-2" d="m80.8,104.96c-.1-.04-.31,0-.37.08-.24.3-.13.74.2.91.23.12.56-.05.57-.38,0-.22-.12-.48-.4-.61Z"/>
        <path class="cls-2" d="m66.12,58.83c-.78-.09-1.57-.18-2.43-.27-.65.09-1.36.17-2.07.29-.08.01-.16.22-.18.34,0,.07.1.22.17.23.28.04.57.07.85.06,1.08-.04,2.16-.12,3.23.11.13.03.31.04.42-.02.13-.08.26-.24.31-.38.06-.2-.1-.34-.3-.36Z"/>
        <path class="cls-2" d="m120.96,58.86c-.47.37-.91.78-1.33,1.2-.06.06-.04.3.03.38.07.08.27.14.37.1.19-.07.36-.22.53-.34.26-.18.52-.35.78-.53.06-.04.11-.09.16-.14,0-.11.03-.21.01-.32-.04-.37-.3-.55-.56-.35Z"/>
        <path class="cls-2" d="m122.56,58.88c-.35.22-.7.43-1.05.64-.05.05-.1.1-.16.14-.02.07-.02.14-.05.2-.11.22-.1.45.1.56.12.07.36.04.48-.04.34-.24.67-.52.96-.82.25-.25.18-.38-.28-.68Z"/>
        <path class="cls-2" d="m59.11,21.76c-.11-.06-.31-.12-.38-.07-.39.31-.75.65-1.11.99-.04.04-.07.14-.06.2.03.13.06.3.15.37.09.07.3.09.37.03.37-.33.72-.68,1.07-1.03.04-.04.05-.13.08-.23-.03-.07-.05-.2-.13-.24Z"/>
        <path class="cls-2" d="m129.54,58.82c-.37.2-.73.43-1.07.68-.16.12-.03.47.18.52.1.02.23.05.31,0,.31-.18.61-.38.89-.59.07-.05.09-.18.11-.22.04-.26-.23-.49-.42-.39Z"/>
        <path class="cls-2" d="m71.31,58.88c-.2-.06-.42-.05-.63-.07-.18.01-.36-.01-.52.05-.11.04-.22.19-.23.3-.01.11.07.3.16.35.43.22.88.23,1.31.02.1-.05.18-.24.16-.35-.02-.11-.15-.26-.26-.29Z"/>
        <path class="cls-2" d="m123.29,59.53c-.04.07,0,.22.05.3.06.07.19.15.27.13.47-.1.81-.42,1.1-.78.04-.05.02-.14.04-.28-.1-.08-.25-.27-.35-.25-.51.1-.88.43-1.12.88Z"/>
        <path class="cls-2" d="m62.96,21.59c-.4.03-1,.56-1.05.94-.02.15.19.38.33.34.48-.12.83-.4.99-.89.05-.15-.13-.41-.27-.4Z"/>
        <path class="cls-2" d="m60.76,22.01c-.12-.05-.32-.1-.39-.04-.23.21-.44.45-.62.71-.05.08.02.27.09.38.04.07.18.13.27.12.36-.07.75-.53.8-.93-.04-.07-.07-.2-.14-.24Z"/>
      </g>
      <path class="cls-2" d="m142.16,89.87c-.3-.94-.89-1.78-.89-2.82,0-.1-.07-.22-.15-.28-.33-.28-.41-.68-.57-1.05-.38-.91-.78-1.83-1.17-2.74-.17-.41-.36-.81-.5-1.23-.9-2.61-1.78-5.22-2.67-7.83-.17-.49-.34-.97-.5-1.46-.45-1.4-.88-2.81-1.33-4.21-.14-.45-.31-.9-.45-1.33.06-.09.09-.16.15-.2.19-.15.34-.33.2-.55-.08-.12-.3-.2-.46-.21-.86-.05-1.73-.08-2.59-.09-1.55-.02-3.1.1-4.65.03-2.67-.12-5.34-.08-8.01-.12-.07,0-.14,0-.22,0-1.3-.05-2.59-.12-3.89-.15-3.72-.08-7.44-.14-11.16-.22-.29,0-.58-.05-.86-.07-.36-.02-.72-.04-1.08-.05-1.15-.02-2.3-.04-3.46-.06-.22,0-.43,0-.65.02-1.15.05-2.3.12-3.45,0-.46-.05-.94,0-1.41.01-.61.02-1.22.08-1.84.1-2.24.04-4.48.07-6.72.11-.94.02-1.87.1-2.81.11-1.77.02-3.53.02-5.3-.14-.32-.03-.65.02-.97.03-.76.03-1.52.15-2.26.05-.94-.12-1.86-.15-2.8-.13-.22,0-.43,0-.65-.02-1.58-.09-3.15-.33-4.74-.3-1.04.02-2.09.14-3.12-.11-.2-.05-.43,0-.65,0-1.06.05-1.1.03-1.55,1.03-1.22,2.67-2.45,5.34-3.62,8.04-1.05,2.43-2.04,4.89-3.05,7.33-.35.85-.72,1.69-1.09,2.53-.62,1.41-1.26,2.81-1.88,4.22-.43.97-.87,1.94-1.23,2.95-.27.77.09,1.21.89,1.21.4,0,.8-.08,1.19-.03,1.29.16,2.59.16,3.88.19,1.84.03,3.68.06,5.52.09.07,0,.14.01.22.02,1.33.15,2.66.19,4,.06.25-.02.5.01.75.04,1.98.21,3.97.19,5.95-.04.83-.1,1.65-.11,2.48-.14,1.3-.04,2.6.08,3.9-.13.24-.04.5,0,.75.01.32.02.65.06.97.08,2.16.12,4.33-.06,6.49.19,1.46.17,2.95.2,4.42.23,1.77.04,3.54.12,5.3,0,1.26-.09,2.52-.01,3.77-.09,1.3-.08,2.6-.06,3.9-.09.11,0,.22,0,.32-.02,1.29-.21,2.59-.1,3.89-.08.32,0,.66.1.97.04,1.01-.19,2.02-.12,3.03-.12,3.87,0,7.73.02,11.6.05.76,0,1.51.12,2.27.11.97-.01,1.95.1,2.91-.15.17-.04.36-.01.54-.02,1.12,0,2.24-.02,3.36-.01,1.91.01,3.84-.06,5.74.09,1.6.13,3.17.03,4.75-.08.73-.05,1.01-.51.78-1.22-.15-.45-.35-.89-.49-1.35Zm-30.59-3.45c.31,1.47.67,2.93.88,4.44-.49.15-.92.1-1.34.11-1.12.04-2.23-.1-3.35.11-.49.09-1.01,0-1.51.01-1.88.01-3.75.02-5.63.05-.94.02-1.87.1-2.8.13-.43.01-.86-.04-1.29-.05-.18,0-.36-.03-.54-.01-2.7.28-5.41.09-8.11.11-.4,0-.79-.04-1.17-.34.26-1.5.51-3.02.77-4.52.39-.19.75-.09,1.1-.04.39.06.78.15,1.18.17,1.33.04,2.67.09,4,.05.94-.02,1.87-.07,2.81.09.18.03.36.04.54.01,1.47-.23,2.96-.07,4.43-.17.43-.03.86-.07,1.3-.08.65-.02,1.29-.05,1.94.03.51.07,1.05.26,1.56-.09.1-.07.28-.04.43-.04,1.41,0,2.82-.02,4.23-.02.18,0,.35.03.59.06Zm-39.27-5.47c.02.17.06.28.03.37-.44,1.37-.89,2.74-1.36,4.17-.68,0-1.33,0-1.98,0-.65,0-1.3,0-1.95-.02-.47-.02-.93-.07-1.4-.11-.36-.03-.72-.07-1.08-.07-3.65,0-7.3,0-10.95-.01-.47,0-.94-.01-1.41-.05-.2-.02-.4-.12-.68-.21.41-1.48,1.07-2.72,1.65-4,.13-.29.36-.46.67-.47.54-.02,1.08-.03,1.62,0,.25,0,.5.09.75.12,1,.11,1.99.35,3,.09.27-.07.58-.03.86,0,1.55.14,3.09.18,4.64.05.46-.04.93.05,1.39.06,1.19.02,2.38.02,3.58.03.86.01,1.73.03,2.6.05Zm64.29-3.76c.37,1.05.75,2.1,1.12,3.12-.22.32-.5.37-.79.38-1.29.07-2.58.22-3.88-.05-.41-.08-.85-.05-1.35-.08-.27-.75-.57-1.51-.83-2.29-.21-.65-.38-1.31-.55-1.97-.09-.35-.29-.57-.65-.64-.24-.05-.49-.11-.74-.11-1.15-.03-2.31-.04-3.46-.06-.32,0-.64-.04-1-.06-.43-1.32-.77-2.63-1.1-3.99.54-.27,1.08-.22,1.6-.21.47,0,.93.09,1.4.1.72,0,1.44-.04,2.16-.06.75-.01,1.51,0,2.26-.02.86-.02,1.72.04,2.57.11.25.02.5.03.76.04.32.02.53.17.64.49.61,1.77,1.21,3.54,1.83,5.3Zm-74.71,8.87c.64,0,1.29.04,2.01.06-.12.96-.65,1.7-.96,2.52-.32.84-.59,1.7-1.14,2.48-.36,0-.72,0-1.08,0-.68,0-1.37-.01-2.05-.02-.14,0-.29.02-.43,0-2.15-.3-4.32-.11-6.48-.22-.43-.02-.85-.1-1.28-.12-.46-.02-.93,0-1.58,0,.58-1.77,1.42-3.27,2.17-4.83.69.05,1.33.13,1.97.14,1.59.03,3.17.02,4.76.03.43,0,.86,0,1.3-.01.94,0,1.88-.02,2.81-.02Zm3.94-9.8c.54.02,1.07.11,1.66.17-.31,1.31-.92,2.43-1.53,3.58-2.14,0-4.23.16-6.32-.06-.39-.04-.79.04-1.18.07-.29.02-.59.09-.86.03-1.17-.25-2.35-.33-3.54-.41-.03,0-.06-.03-.1-.05.08-.65.72-2.24,1.45-3.59.48.02.98.07,1.47.07.72,0,1.44.02,2.16-.02.95-.06,1.87.12,2.8.21.6.06,1.22,0,1.83-.01.72,0,1.44-.01,2.16.02Zm13.18,14.55c-3,.2-5.87,0-8.87.32.49-1.66.94-3.17,1.39-4.7.58-.21,1.14-.25,1.72-.2.93.09,1.86.11,2.8-.05.53-.09,1.08-.05,1.62-.04.5,0,1,.06,1.53.09.2,1.57-.33,3.03-.2,4.59Zm41.06-4.33c.56,1.44.77,2.9,1.07,4.33-1.03.24-6.48.23-7.69,0-.25-.63-.91-3.64-.94-4.27.02-.03.04-.06.06-.08.03-.02.06-.04.1-.05.29-.03.57-.08.86-.08,2.06,0,4.11.03,6.17.05.1,0,.2.05.38.1Zm-56.42-16.32c1.99.06,3.86.11,5.79.16-.08.93-.53,1.72-.79,2.56-.26.86-.59,1.69-.88,2.5-.46.19-.86.15-1.24.08-1.08-.2-2.16-.19-3.23-.05-.66.09-1.29,0-1.99-.18.13-.95.72-1.69,1.07-2.53.35-.86.83-1.67,1.27-2.54Zm53.99,6.24c.5,1.36.67,2.8,1.07,4.25-.23.04-.42.09-.62.1-1.33.1-2.66.12-3.99.02-.79-.06-1.58-.01-2.53-.01-.36-1.44-.43-2.9-.45-4.35.54-.13,2.74-.24,3.26-.2,1.07.07,2.15.12,3.27.19Zm-37.78,4.76c.03.73-.23,1.37-.31,2.04-.08.64-.12,1.29-.18,1.94-.25.28-.58.3-.9.25-.87-.15-1.72-.09-2.58.03-.46.07-.94.07-1.4.06-.83,0-1.65-.04-2.56-.07.35-1.52.95-2.9,1.39-4.39,2.19-.09,4.33.03,6.54.14Zm-9.5,5.2c.06,0,.12.06.24.12-.32,1.53-.86,3.01-1.28,4.52-.33.23-.68.29-1.04.3-.43.01-.86.02-1.29,0-1.33-.07-2.65-.16-4.13-.25.68-1.69,1.37-3.29,2.1-4.95.37.05.69.09,1,.12.32.03.65.11.96.07,1.15-.15,2.3.09,3.44.07Zm16.18.03c.17.58-.13,1.09-.15,1.61-.02.5-.14,1-.28,1.48-.15.51-.03,1.09-.42,1.58-.15.02-.33.06-.5.05-1.75-.07-3.51-.16-5.33-.24-.1-1.57.23-3.08.31-4.63.74-.32,1.46-.06,2.16-.1.68-.03,1.37-.03,2.05.02.71.04,1.42.15,2.16.24Zm33.25-1.56c.05.2,0,.42,0,.72h-7.58c-.32-.61-.19-1.28-.31-1.91-.13-.63-.16-1.28-.24-1.9.11-.06.17-.12.23-.12.79-.02,1.59-.04,2.38-.04,1.51,0,3.02,0,4.55,0,.12.28.25.5.31.74.23.83.44,1.67.64,2.51Zm-31.73-14.29c.04.15.11.29.1.41-.09,1.26-.18,2.51-.28,3.77,0,.1-.06.2-.14.43-.69.02-1.34.08-1.98.05-.79-.04-1.58-.04-2.37.05-.53.06-1.07.01-1.63.01-.13-.58.03-1.1.1-1.62.12-.96.29-1.92.46-2.88.02-.13.13-.24.18-.34,1.88-.24,3.69.11,5.56.1Zm-12.32-.2c0,.19.07.37.02.52-.47,1.47-.97,2.94-1.46,4.4-.02.06-.08.12-.17.24-1.74-.03-3.53-.05-5.33-.08.09-.86,1.18-4.03,1.72-5.07,1.7,0,3.42-.13,5.21,0Zm62.15,11.05c.46.63,1.64,3.3,2.05,4.64-2.02.46-3.99.17-5.92.17-.38-.55-1.49-3.75-1.65-4.73.2-.02.41-.1.6-.07,1.5.31,3,.21,4.5,0,.14-.02.28,0,.42,0Zm-50.88-.24c.13.88.03,2.23-.31,4.28-1.05.18-2.11-.09-3.18-.11-1.04-.02-2.08-.05-3.1-.07-.17-.65-.18-1.18-.03-2.05.11-.67.24-1.34.37-2.06,2.11-.12,4.18-.05,6.24,0Zm29.4-9.94c.54,1.35.63,2.76.94,4.17-.25.04-.45.08-.66.11-.07.01-.14,0-.22,0-1.57-.07-3.15-.21-4.73-.13-.24.01-.49-.05-.73-.08-.21-1.35-.42-2.66-.63-3.96.78-.25,3.22-.29,6.01-.12Zm-28.78,4.81c.1,1.05-.11,3.1-.41,4.19-.66.15-1.34.07-2.02.08-.72,0-1.44,0-2.16-.02-.68-.01-1.36.06-2.1-.04.22-1.38.35-2.7.67-4.05,2.01-.05,3.98-.1,6.01-.15Zm-6.13-5.72c.03.87-.25,1.65-.33,2.46-.09.82-.24,1.63-.37,2.45-1.87.3-3.7.02-5.66.3.59-1.82,1.12-3.45,1.67-5.15.21-.02.46-.09.69-.05,1.11.23,2.2.28,3.31,0,.2-.05.42,0,.69,0Zm49.76,11.2c.55.88,1.33,3.19,1.56,4.46-.01.03-.02.07-.04.09-.02.02-.07.04-.1.04-.57,0-1.15.03-1.72,0-1.18-.06-2.36-.14-3.68-.22-.39-1.43-.76-2.81-1.16-4.25,1.76-.06,3.45-.46,5.14-.11Zm-50.54-5.22c-.26,1.31-.32,2.63-.68,3.95-.81.1-1.61.11-2.38.02-1.31-.17-2.64.18-3.98-.15.23-1.29.78-2.42,1.15-3.65.54-.22,1.12-.14,1.68-.19.57-.05,1.15.02,1.72.01.36,0,.71-.05,1.07-.08.46-.03.92-.15,1.41.08Zm12.59,5.29c.01.18.01.36,0,.54-.07,1.21-.14,2.43-.21,3.65-.14.03-.24.08-.34.07-.68-.02-1.36-.1-2.04-.08-1.01.03-2-.09-3.03-.32-.13-1.43.23-2.79.33-4.28.27-.03.44-.08.61-.07,1.4.03,2.8.07,4.2.13.13,0,.26.1.37.14.04.1.09.16.1.23Zm-30.77-11.09c-.74,1.55-1.49,3.1-2.22,4.61-3.37.23-3.8.22-4.56-.15.71-1.59,1.42-3.19,2.12-4.75,1.11-.14,3.95-.15,4.68-.02,0,.1.02.22-.02.31Zm61.33,5.99c.46,1.34.72,2.74.98,4.19-.63.14-1.2.21-1.77.15-1.01-.1-2.01-.1-3.02.07-.1.02-.21-.02-.46-.04-.35-1.47-.69-2.91-1.05-4.4,1.8-.19,3.53-.35,5.31.03Zm-24.66,5.01c.09,1.36.3,2.74.15,4.11-.43.23-.83.25-1.22.27-.65.03-1.31.1-1.94-.01-.71-.12-1.44.13-2.11-.15-.18-1.33-.11-3.25.14-4.22.82-.22,3.82-.23,4.98,0Zm26.34,1.17c.2,1.04.69,2.03.74,3.18-1.9-.16-3.67,0-5.47-.24-.3-1.23-.59-2.45-.89-3.66.19-.29.48-.31.77-.33.32-.03.65-.03.97-.03,1.12,0,2.23,0,3.37,0,.26.35.44.7.51,1.08Zm-2.05-7.46c.02.06-.03.13-.06.26-.84-.03-1.69-.09-2.54-.08-.82,0-1.64.26-2.55.07-.35-.63-.42-1.38-.52-2.11-.1-.7-.42-1.36-.39-2.16.39,0,.74-.02,1.09-.02.93.01,1.87.03,2.8.05.21,0,.43.04.64.05.32.03.54.19.62.51.3,1.14.6,2.29.9,3.44Zm-13.31,1.14c.15,1.44.29,2.83.43,4.28-.2.04-.4.12-.6.12-.72,0-1.44,0-2.16-.02-.68-.02-1.36-.06-2.08-.09-.31-1.42-.26-2.86-.55-4.33.26-.05.45-.13.65-.13.5,0,1.01.01,1.51.06.79.08,1.58.16,2.37.03.1-.02.21.04.43.08Zm-11.36-5.24c.04,1.36.08,2.73.12,4.16-.24.08-.47.19-.69.21-.43.03-.86.02-1.3,0-.86-.05-1.71-.13-2.56-.2-.24-.87-.24-2.37,0-4.39.63-.17,2.5-.23,4.34-.14.05.17.1.27.1.37Zm16.15-4.74c.64,1.23.74,2.57,1.24,3.88-.26.06-.36.1-.47.1-1.76,0-3.52,0-5.3,0-.32-.68-.2-1.38-.35-2.04-.14-.62-.18-1.28,0-1.95h4.87Zm-21.55,9.95c.22,1.17.15,3.15-.16,4.16-1.64-.39-3.34-.01-5.08-.28.14-1.33.27-2.64.41-3.92.87-.17,3.77-.15,4.84.04Zm39.48-9.58c.48.8,1.16,2.74,1.31,3.72-.49.08-4.68,0-5.45-.1-.37-1.15-.74-2.34-1.12-3.53.97-.26,3.81-.31,5.26-.1Zm-39.53,4.02c.28.76.05,1.51.03,2.25-.01.75-.03,1.5-.04,2.23-1.49.19-3.78.1-4.58-.18-.01-.13-.04-.27-.03-.41.09-1.29.19-2.59.29-3.94,1.08-.05,2.05-.11,3.02-.12.43,0,.85.1,1.31.16Zm11.53,10.89c.11,1.32.22,2.6.34,3.94-.2.04-.36.12-.53.11-1.33-.05-2.66,0-3.98.17-.1.01-.21-.02-.36-.03-.32-.67-.05-1.4-.17-2.1-.12-.71-.17-1.42-.03-2.19,1.53-.18,3.05-.27,4.73.1Zm4.66-10.49c.04,1.5.68,2.74.47,4.13-.55.27-1.13.21-1.7.19-.97-.04-1.94-.11-2.9-.18-.07,0-.13-.05-.19-.08-.27-.99-.42-3.29-.26-4.18,1.5-.26,2.97.23,4.58.12Zm-5.62-.17c.24,1.4.27,2.83.33,4.27-.74.37-1.48.04-2.17.18-.71.15-1.43.07-2.28-.02-.1-1.59-.24-3.08-.12-4.57,1.04-.2,3.2-.14,4.24.13Zm.36,5.41c.35,1.02.58,3.26.43,4.28-.2.01-.41.06-.61.03-.83-.14-1.65-.11-2.48-.04-.43.04-.86,0-1.29-.04-.23-.02-.41-.19-.43-.42-.09-1.25-.15-2.5-.07-3.74.98-.17,3.71-.2,4.46-.06Zm-30.33-.04c-.45,1.35-.85,2.53-1.25,3.74h-5.62c0-.17-.04-.31,0-.42.44-1.06.9-2.12,1.37-3.21.28-.2.65-.21,1-.2,1.26.02,2.52.06,3.78.1.18,0,.35,0,.72,0Zm55.57.24c.28,1.39.83,2.6,1.2,3.8-.42.29-.74.2-1.06.18-.5-.04-.99-.02-1.49.07-.77.14-1.57.14-2.4.05-.46-1.39-.62-2.81-1.03-4.24.84-.25,1.62-.05,2.38-.07.78-.02,1.57-.03,2.4.2Zm-18.81,5.04c.28,1.24.39,2.48.51,3.8-1.74.19-3.42.12-5.07.12-.22-.67-.39-2.52-.38-3.98.3-.05.55-.14.79-.13,1.36.05,2.72.12,4.15.19Zm10.35-15.07c.32,1.21.64,2.45.98,3.75-1.64.27-3.21-.14-4.82,0-.71-1.26-.78-2.57-1.21-3.79.74-.18,3.63-.16,5.06.03Zm-22.24,9.81c.16.56.27,2.95.19,4.02-.74.15-3.6.16-4.74,0-.02-1.37.11-2.75.1-4.11.61-.1,3.64-.03,4.45.09Zm-27.85-10.18c.01.14.06.29.02.41-.31.95-.68,1.89-1.16,2.78-1.9.3-3.76-.08-5.79,0,.49-1.35,1.15-2.41,1.67-3.54,1.78.12,3.49.23,5.26.34Zm69.43,20.86c.08.23.16.46.26.76-.34.03-.62.08-.9.08-3.32-.01-6.65-.03-9.97-.05-1.55-.01-3.11-.15-4.65-.07-1.16.07-2.3.03-3.45-.1-.11-.01-.21-.04-.34-.07-.16-.35-.34-.69-.18-1.14.3,0,.58,0,.86,0,.76.03,1.51.08,2.27.09.79.01,1.59-.04,2.37.17.1.03.21.03.32.03,1.66.06,3.32.04,4.97.2,1.76.17,3.54-.1,5.3.22.31.06.64-.03.96-.08.71-.12,1.42-.19,2.18-.03Zm-52.12-20.89c.18,1.16.06,2.25-.04,3.4-.94.27-1.87.05-2.78.04-.92-.02-1.85-.01-2.93-.02.22-1.21.42-2.26.62-3.36,1.72-.15,3.4-.05,5.13-.06Zm38.21.46c.51.87,1.23,2.96,1.31,3.82-.78.16-1.56.05-2.34,0-.75-.04-1.51,0-2.26,0-.52-.74-.76-1.54-1.17-3.9,1.56.03,3.03.06,4.47.08Zm-17.48-.24c.2,1.28.35,2.52.42,3.76-.83.21-3.15.12-4.57-.16-.12-1.23-.22-2.47-.19-3.71.92-.17,3.24-.12,4.35.11Zm-10.53-.34c.39.95.52,2.63.27,3.73-1.41.2-2.84.16-4.32.07-.19-.65-.02-1.29-.04-1.93-.02-.61-.07-1.21.07-1.8.79-.16,3.12-.2,4.02-.08Zm-21.69.26c-.02.53-.12,1.05-.28,1.57-.15.48-.25.97-.38,1.51-.65.17-1.23.06-1.8.06-.58,0-1.15.03-1.73.06-.57.03-1.14.16-1.76.02,0-.62.38-1.09.55-1.63.17-.55.41-1.07.61-1.58,1.02-.19,3.94-.2,4.78-.02Zm16.62-.29c.2,1.05.2,2.81-.02,3.79-.19.01-.41.06-.61.03-1.17-.18-2.36.2-3.58-.13-.24-.59,0-1.19,0-1.79,0-.57.01-1.14.02-1.76.51-.06.97-.13,1.42-.16.46-.03.93,0,1.39-.01.46-.01.92-.13,1.36.02Zm-33.36-.32c1.52.03,3.02.07,4.61.1-.3,1.28-1.07,2.25-1.52,3.39-.83.02-1.62.09-2.4.04-.74-.05-1.5.16-2.23-.06-.02-.11-.07-.19-.05-.24.52-1.06.95-2.17,1.59-3.24Zm43.77,1.11c0,1.03.24,2.06.07,3.16-.71.11-1.37-.12-2.04-.09-.67.03-1.36.06-1.97-.08-.07-.08-.1-.11-.11-.14-.03-.1-.07-.2-.08-.31-.04-1.07-.08-2.14-.12-3.25.65-.28,1.33-.12,2-.11.68.01,1.35.1,2.04.16.09.25.21.45.22.65Zm-21.61-.39c-.03,1-.3,1.95-.52,2.94-1.55.32-3.06.48-4.57-.02.02-.63.43-2.4.69-3.03.72-.13,3.58-.06,4.39.1Zm58.84,22.26c.3.75.56,1.4.86,2.14-.35.09-.61.21-.88.22-1.04.04-2.08.06-3.12.05-.57,0-1.14-.08-1.79-.12-.43-.66-.74-1.44-1.04-2.33,1.03-.1,1.99.07,2.94.05.97-.02,1.94,0,3.03,0Zm-13.99.03c.24.7.49,1.4.75,2.13-1.88.54-3.73.15-5.61.22-.36-.79-.5-1.61-.62-2.49.23-.02.41-.07.58-.05,1.6.23,3.23-.07,4.9.19Zm7.72,1.48c.08.19.13.4.18.56-.05.07-.07.11-.09.13-.03.02-.07.04-.1.04-.43,0-.86,0-1.3.01-1.54.02-3.09.03-4.68.05-.17-.42-.35-.81-.49-1.21-.12-.33-.18-.68-.26-.98.07-.08.09-.12.12-.13.1-.03.2-.08.3-.08,1.86.03,3.73.07,5.61.11.25.53.48,1.02.7,1.51Z"/>
      <path class="cls-2" d="m94.92,54.13c-.96-.22-1.94-.35-2.86-.68-5.57-2-8.96-5.9-9.79-11.79-1.08-7.69,4.18-14.75,11.89-16,8.05-1.31,15.1,4.21,16.41,11.61,1.38,7.85-3.77,15.24-11.61,16.65-.32.06-.63.14-.95.21h-3.08Zm1.53-28.08c-7.5,0-13.7,6.16-13.77,13.55-.08,7.6,6.05,13.98,13.79,13.98,7.55,0,13.76-6.19,13.76-13.73,0-7.63-6.16-13.8-13.78-13.8Z"/>
      <path class="cls-2" d="m98.47,28.77c4.58,1.22,7.66,3.96,8.79,8.65,1.1,4.57-1.01,9.42-5.06,11.88-.28.17-.54.48-.68.78-.86,1.82-2.4,2.6-4.29,2.82-.7.08-1.42.02-2.13.02-.36,0-.69-.09-.71-.52-.01-.42.32-.48.65-.5.94-.08,1.82-.34,2.65-1.07-.8,0-1.49.04-2.16,0-4.7-.32-8.84-3.87-9.85-8.47-.87-3.97.15-7.42,2.93-10.37.13-.14.27-.34.26-.5-.1-2.25,1.9-4.25,4.48-4.36,1.61-.07,3.12.32,4.54,1.07.23.12.38.38.56.57Zm-5.67,3.54c.02-.54.34-.64.8-.64,1.12.02,2.24-.02,3.36.02.24,0,.47.24.7.37-.14.21-.23.53-.42.61-.68.27-.85.79-.87,1.44,1.48.88,2.57,2.05,2.5,3.89-.06,1.75-.96,3.03-2.49,3.86v1.61c.91.04,1.79.08,2.69.13.02-.16.04-.23.04-.3,0-1.85.02-3.7,0-5.56,0-.68-.1-1.34-.53-1.93-.31-.42-.12-.73.41-.73,1.21-.01,2.42-.02,3.63.01.19,0,.37.19.56.29-.13.19-.22.49-.4.56-.61.24-.82.67-.82,1.28,0,1.06,0,2.13,0,3.19,0,.74,0,1.49,0,2.29.19-.07.3-.14.42-.15.27-.02.54-.02.8-.03,0,.27.07.57-.02.81-.18.53-.45,1.04-.67,1.56-.19.43-.47.86-.51,1.31-.08.83-.02,1.67-.02,2.5,3.12-1.7,5.77-5.98,4.83-10.88-.96-5.05-5.16-7.9-8.45-8.32-.04.36-.05.73-.13,1.08-.05.23-.16.57-.3.61-.2.05-.5-.09-.7-.22-.61-.39-1.17-.89-1.81-1.22-.8-.4-1.65-.44-2.47.03-1.07.61-1.15,1.74-.14,2.52Zm.67,4.15c-1.85-.94-3.56-2.03-4.49-4.18-.12.18-.17.3-.26.4-2.44,2.78-3.3,5.98-2.49,9.6,1.16,5.23,6.57,8.85,11.77,7.9.21-.04.46-.22.57-.4.71-1.11.53-2.34.51-3.58-.21,0-.35,0-.5,0-1.71,0-3.41,0-5.12-.01-.2,0-.46-.14-.58-.29-.08-.11-.04-.42.07-.55.71-.84.5-1.81.54-2.78-1.6-.03-2.97-.53-4.23-1.37-.39-.26-.56-.59-.6-1.04-.09-1.02-.23-2.04-.3-3.06-.01-.22.19-.45.3-.68.22.11.51.17.65.35.34.43.59.93.92,1.36.81,1.06,1.82,1.8,3.23,1.9v-3.57Zm2.39,7.38c-.02-.07-.04-.12-.04-.17,0-3.17-.02-6.34,0-9.52,0-.75.16-1.5,1.14-1.9h-3.58c.65.94.66,1.96.65,2.99,0,2.6,0,5.21,0,7.81,0,.9-.04,1.79-.61,2.61,2.7,0,5.31,0,7.93,0,.1,0,.25-.09.29-.17.37-.8.73-1.61,1.14-2.53-2.28,1.11-4.53,1.46-6.93.89Zm-2.36-7.96c0-.3-.01-.51,0-.73.07-1.02-.06-1.82-1.09-2.49-1.37-.9-1.08-2.68.42-3.4,1.1-.53,2.19-.33,3.21.21.57.31,1.08.73,1.69,1.16.03-.59.06-1.15.07-1.71,0-.1-.1-.25-.19-.29-1.81-.86-3.68-1.39-5.67-.68-2.12.76-3.13,3.04-2.14,4.81.82,1.47,2.17,2.33,3.7,3.12Zm8.83-.28h-3.2c.99,2.57.23,5.25.58,7.88.4-.11.77-.24,1.14-.3.46-.08.6-.3.59-.77-.03-1.61-.02-3.22,0-4.84,0-.77.1-1.52.9-1.96Zm-6.82,16.83c4.8.27,6.38-2.55,5.82-6.18h-1.74c.35,3.17-.75,5.37-4.08,6.18Zm.86-17.67v6.51c1.18-.78,1.85-1.79,1.96-3.13.12-1.52-.7-2.54-1.96-3.39Zm-2.9,5.82c-2.22-.15-3.46-1.65-4.54-3.37.06,1,.14,1.97.27,2.92.03.22.18.53.36.61.9.43,1.81.83,2.74,1.17.35.13.77.09,1.17.13v-1.48Z"/>
      <path class="cls-2" d="m87.62,31.51c.14.03.29.05.44.08-.08.68-.68.11-.97.43.11.13.21.25.34.4-.08.1-.17.21-.28.36-.38-.33-.75-.64-1.15-.99.18-.21.33-.44.54-.61.2-.16.47-.37.67-.34.18.03.31.36.46.56-.01.04-.02.07-.04.11Z"/>
      <path class="cls-2" d="m104.99,30.74c.18-.2.31-.34.45-.49.1.09.21.18.32.27-.33.37-.65.73-.99,1.11-.58-.32-.09-.92-.35-1.36-.18.19-.35.37-.54.58-.1-.09-.21-.2-.32-.29.34-.38.66-.73.97-1.08.63.21.31.76.46,1.26Z"/>
      <path class="cls-2" d="m106.54,31.39c.3.39.59.75.88,1.13-.1.08-.2.17-.31.25-.2-.25-.38-.48-.56-.71-.03.02-.06.04-.09.06.1.16.19.32.3.49-.13.09-.26.18-.39.28.03.01.07.02.1.04-.05.17-.1.35-.19.63-.37-.5-.64-.86-.93-1.25.4-.31.78-.6,1.19-.91Z"/>
      <path class="cls-2" d="m108.08,40.75c-.15-.65.65-.65.76-1.1-.17-.24-.81.25-.7-.47h1.4c.3.64-.41.73-.63,1.16.23.01.41.03.6.04.19.52.19.43-1.43.37Z"/>
      <path class="cls-2" d="m84.77,40.08v.39h-1.43c-.35-.67.45-.7.58-1.1-.15-.22-.82.19-.6-.49h1.43c.23.65-.58.68-.69,1.16.23.02.46.03.7.05Z"/>
      <path class="cls-2" d="m84.47,34.33c.21-.41.41-.81.63-1.25.12.05.24.1.37.14-.14.3-.27.56-.45.92.27-.21.43-.34.59-.47v.82c.2-.36.34-.62.5-.92.09.04.21.1.36.18-.23.44-.45.85-.67,1.27-.45-.24-.88-.46-1.33-.7Z"/>
      <path class="cls-2" d="m109.43,41.93c-.09.47-.18.91-.28,1.43-.72-.17-.02-.75-.31-1.03-.07.18-.13.35-.2.53-.05.01-.1.03-.15.04-.05-.22-.11-.43-.19-.76-.1.36-.17.64-.25.93-.41.02-.5.2-.06-1.46.47.1.94.21,1.44.31Z"/>
      <path class="cls-2" d="m83.44,42.05c.13-.04.25-.08.37-.12.08.31.16.6.24.91.25-.2-.26-.71.35-.68.06.17.12.35.18.55.31-.32-.38-.84.33-1.05.11.48.2.91.32,1.41-.48.12-.96.23-1.46.35-.11-.47-.22-.91-.33-1.37Z"/>
      <path class="cls-2" d="m85.95,47.24c.21.24.42.49.63.73.03-.02.05-.03.08-.05-.1-.18-.24-.35-.28-.54-.04-.19-.04-.51.07-.57.16-.09.49-.1.62.02.29.26.49.61.76.96-.23.07-.36.11-.46.15-.16-.29-.32-.57-.48-.85-.05.03-.1.05-.15.08.11.21.26.42.33.65.04.15.03.43-.06.48-.14.08-.43.1-.54,0-.27-.25-.48-.57-.71-.87.07-.06.13-.13.2-.19Z"/>
      <path class="cls-2" d="m108.64,38.31c-.46,0-.79-.37-.8-.92-.01-.48.3-.84.74-.84.45,0,.78.39.8.93.01.49-.28.82-.74.83Zm0-.25c.17-.33.35-.51.31-.63-.05-.16-.26-.26-.41-.39-.1.13-.29.26-.28.38.02.17.18.32.37.64Z"/>
      <path class="cls-2" d="m107.53,43.62c.21.17.31.25.36.29-.18.33-.34.6-.49.87l.14.08c.13-.19.22-.42.39-.57.12-.11.38-.22.49-.17.13.06.27.34.24.47-.09.34-.27.66-.45,1.06-.59-.45.3-.71.02-1.08-.12.18-.2.39-.35.51-.15.12-.41.25-.54.2-.14-.06-.3-.36-.26-.51.09-.38.29-.72.47-1.15Z"/>
      <path class="cls-2" d="m103.56,49.08c.27.39.52.77.78,1.14-.9.78-1.39.89-1.73.38-.33-.5-.09-.89.95-1.52Zm-.17.61l-.23-.02c-.05.22-.1.44-.15.66h.83c-.22-.32-.33-.48-.44-.64Z"/>
      <path class="cls-2" d="m85.99,44.98c.1.21.17.35.23.49-.45.22-.87.42-1.34.65-.14-.28-.33-.54-.38-.83-.04-.22.01-.58.16-.69.28-.21.57-.03.7.28.14.34.31.44.63.1Z"/>
      <path class="cls-2" d="m102.82,30.11c-.17-.24-.29-.55-.52-.69-.22-.13-.54-.07-.97-.1.46-.39.78-.68,1.13-.92.11-.08.33-.09.45-.03.12.06.25.26.24.39-.03.43-.12.86-.18,1.29-.05.02-.09.04-.14.06Z"/>
      <path class="cls-2" d="m84.83,36.16c.08-.02.21-.07.54-.17-.18.55-.25.99-.47,1.35-.2.33-.58.35-.92.13-.41-.27-.41-.85,0-1.67.26.11.45.21.22.54-.08.11-.11.28-.09.41.02.12.13.29.23.3.1.02.3-.08.34-.17.08-.21.09-.45.13-.73Z"/>
      <path class="cls-2" d="m99.88,27.11c.18.07.32.12.45.17-.11.35-.22.67-.33,1.02.32.11.63.22.96.33-.04.12-.08.23-.13.38-.47-.16-.93-.31-1.41-.47.15-.47.29-.91.46-1.43Z"/>
      <path class="cls-2" d="m105.04,49.12c-.22-.24-.44-.46-.68-.72.08-.1.18-.22.33-.39.23.28.43.53.65.81.19-.16.31-.26.45-.39.08.07.17.15.27.24-.38.36-.74.71-1.13,1.08-.04-.03-.13-.11-.26-.22.13-.14.24-.27.37-.41Z"/>
      <path class="cls-2" d="m105.4,47.88c-.31-.3-.16-.6.66-1.38.35.28.71.56,1.08.85-.09.13-.17.24-.27.38-.27-.2-.52-.4-.84-.63-.21.26-.4.51-.63.78Z"/>
      <path class="cls-2" d="m107.02,35c.78-.29.42.38.77.49.24-.09.56-.21.91-.35.06.14.13.28.23.49-.47.12-.92.35-1.32.28-.23-.04-.38-.56-.59-.9Z"/>
    </g>
    <rect class="cls-1" width="190" height="130"/>
  </g>
</svg>