<?xml version="1.0" encoding="UTF-8"?>
<svg id="Layer_2" data-name="Layer 2" xmlns="http://www.w3.org/2000/svg" viewBox="0 0 386 114.91">
  <defs>
    <style>
      .cls-1 {
        fill: #e3ddcd;
      }
    </style>
  </defs>
  <g id="Layer_1-2" data-name="Layer 1">
    <g>
      <path class="cls-1" d="m364.92,1.31h21.08v113.57h-21.08V1.31Zm-41.72,0h-1.6v.06l-36.36,56.66L248.85,1.31h-21.08v113.57h21.08V36.51l31.98,46.79,4.41-.03,4.42.03,31.94-46.73v78.31h21.08V1.31h-19.48Zm-159.73,52.03h-12.09V18.79h14.29c6.24,0,15.04,5.86,15.04,17.04.29,9.37-7.06,17.2-16.43,17.5-.27,0-.53.01-.8,0m23.73,17.55c-1.73-2.81-3.97-5.28-6.6-7.28,9.98-4.99,20.72-12.14,20.72-30.66,0-29.95-32.17-31.43-38.12-31.43h-11.82v-.21h-21.08v113.57h21.08v-43.77h10.98c1.11.96,2.12,2.03,3,3.21,4.67,5.99,24.96,40.42,24.96,40.42h23.96s-21.85-36.01-27.08-43.84"/>
      <path class="cls-1" d="m40.64,40.64h33.64v33.64h-33.64v-33.64Z"/>
      <path class="cls-1" d="m89.64,47.56l6.49-6.32v-10.35l-16.49,16.67v7.43h35.28v-7.43h-25.27Z"/>
      <path class="cls-1" d="m89.64,67.36l6.49,6.32v10.35l-16.49-16.67v-7.43h35.28v7.43s-25.27,0-25.27,0Z"/>
      <path class="cls-1" d="m25.28,47.56l-6.49-6.32v-10.35l16.49,16.67v7.43H0v-7.43h25.28Z"/>
      <path class="cls-1" d="m25.28,67.36l-6.49,6.32v10.35l16.49-16.67v-7.43H0v7.43s25.28,0,25.28,0Z"/>
      <path class="cls-1" d="m67.36,25.28l6.32-6.49h10.35l-16.67,16.49h-7.43V0h7.43s0,25.28,0,25.28Z"/>
      <path class="cls-1" d="m47.56,25.28l-6.32-6.49h-10.35l16.67,16.49h7.43V0h-7.43v25.28Z"/>
      <path class="cls-1" d="m67.36,89.64l6.32,6.49h10.35l-16.67-16.49h-7.43v35.28h7.43s0-25.27,0-25.27Z"/>
      <path class="cls-1" d="m47.56,89.64l-6.32,6.49h-10.35l16.67-16.49h7.43v35.28h-7.43v-25.27Z"/>
    </g>
  </g>
</svg>