<?xml version="1.0" encoding="UTF-8"?>
<svg id="Layer_2" data-name="Layer 2" xmlns="http://www.w3.org/2000/svg" viewBox="0 0 863.41 180.75">
  <defs>
    <style>
      .cls-1 {
        fill: #e3ddcd;
      }
    </style>
  </defs>
  <g id="Layer_1-2" data-name="Layer 1">
    <g>
      <path class="cls-1" d="m217.95,79.51c-4.33,0-8.21.34-11.63,1.03-11.97,2.28-21.49,6.78-28.56,13.51-6.73,6.39-10.09,13.17-10.09,20.35s3.08,12.31,9.23,16.42c6.04,4.1,14.25,6.16,24.62,6.16,9.8,0,18.87-1.17,27.19-3.51,8.32-2.34,15.96-5.62,22.91-9.83,11.4-6.95,17.1-16.19,17.1-27.7,0-13.22-8.27-25.14-24.8-35.74-4.22-2.74-7.75-5.16-10.6-7.27-2.85-2.11-5.07-3.9-6.67-5.39-6.04-5.81-9.06-11.97-9.06-18.47,0-1.71.17-3.3.51-4.79,1.6-7.41,6.55-13.39,14.88-17.96,7.64-4.22,15.9-6.33,24.79-6.33,10.15,0,17.84,1.77,23.08,5.3,3.76,2.51,5.64,6.33,5.64,11.46,0,3.31-.97,6.39-2.91,9.23-1.83,2.74-4.22,4.1-7.18,4.1-2.17,0-4.1-.85-5.81-2.56-1.48-1.48-2.22-3.25-2.22-5.3,0-5.47,2.68-8.21,8.04-8.21,3.19,0,5.13,1.03,5.81,3.08.57-3.08-.63-5.75-3.59-8.04-4.68-3.65-10.77-5.47-18.3-5.47s-15.05,2.22-21.55,6.67c-6.96,4.68-10.43,10.09-10.43,16.25,0,7.98,7.29,16.19,21.89,24.62,20.41,11.63,30.61,25.08,30.61,40.36,0,6.73-2.17,13.23-6.5,19.49-4.33,6.39-10.09,11.63-17.27,15.73-16.42,9.58-35.05,14.36-55.92,14.36-13,0-23.26-2.28-30.78-6.84-7.41-4.68-11.12-10.77-11.12-18.3,0-8.32,4.1-16.13,12.31-23.43,8.78-7.75,20.29-13,34.54-15.73,1.94-.34,3.99-.62,6.16-.85,2.16-.23,4.33-.39,6.5-.34,17.54.38,36.15,6.53,34.8,19.35-1.7,16.13-18.96,30-48.97,30-41.33,0-79.82-40.48-131.62-40.48C30.85,84.46,0,112.48,0,112.48l3.4-12.17s30-20.38,69.91-20.38c56.04,0,85.2,41.33,129.64,41.33s46.7-21.51,46.7-26.32-3.95-15.41-31.7-15.41Z"/>
      <path class="cls-1" d="m684.78,123.5c37.21,0,55.49-43.57,108.93-43.57,39.91,0,66.3,20.38,66.3,20.38l3.4,12.17s-27.24-28.02-69.41-28.02c-51.8,0-69.14,41.4-110.47,41.4"/>
      <path class="cls-1" d="m282.25,180.75c-.8-.57-1.65-1.28-2.56-2.14-.91-.86-1.99-1.85-3.25-2.99-2.39-2.39-3.59-5.25-3.59-8.55,0-2.39.68-5.7,2.05-9.92,1.14-3.31,2.99-8.27,5.56-14.88,2.56-6.61,5.96-14.88,10.17-24.79,1.25-2.96,2.68-6.47,4.27-10.52,1.6-4.04,3.31-8.69,5.13-13.94.45-1.25.91-2.71,1.37-4.36.45-1.65.91-3.56,1.37-5.73.23-1.25.43-2.42.6-3.5.17-1.08.26-2.02.26-2.82,0-3.99-1.26-6.84-3.76-8.55l8.38-1.37c.91-.11,1.65-.17,2.22-.17h1.03c1.94,0,2.91,2,2.91,5.99,0,5.59-1.6,12.83-4.79,21.72,11.86-19.38,21.32-29.07,28.39-29.07,3.42,0,6.16,1.43,8.21,4.28,1.71,2.39,2.56,5.42,2.56,9.06,0,5.02-1.37,10.72-4.1,17.1-2.97,6.5-6.39,12.08-10.26,16.76-7.41,8.78-15.73,13.17-24.97,13.17-4.22,0-8.1-1.08-11.63-3.25-2.17,5.47-4.13,11.03-5.9,16.67-1.77,5.64-3.45,11.43-5.04,17.36-3.31,11.85-4.84,20.01-4.62,24.45Zm22.4-59c7.07,0,14.93-6.04,23.6-18.13,8.44-11.74,12.65-21.15,12.65-28.21,0-3.65-1.54-5.47-4.62-5.47-4.33,0-9.12,3.65-14.36,10.94-2.85,4.1-6.19,9.41-10,15.9-3.82,6.5-8.07,14.14-12.74,22.91,1.37,1.37,3.19,2.05,5.47,2.05Z"/>
      <path class="cls-1" d="m365.01,126.03c-4.45,0-8.27-1.42-11.46-4.27-1.71-1.6-2.94-3.45-3.68-5.56-.74-2.11-1.11-4.53-1.11-7.27,0-10.49,4.33-20.92,13-31.29,7.29-8.78,14.88-13.17,22.74-13.17,2.62,0,4.84.68,6.67,2.05,1.94,1.6,2.91,3.65,2.91,6.16,0,6.27-4.16,12.54-12.48,18.81-2.62,1.94-6.1,3.65-10.43,5.13-4.79,1.6-8.27,2.39-10.43,2.39-1.6,3.88-2.39,7.98-2.39,12.31,0,7.41,2.74,11.12,8.21,11.12,7.18,0,13.91-4.67,20.18-14.02l.68-1.03,2.91,1.2-.51,1.03c-2.85,5.7-6.44,9.86-10.77,12.48-4.33,2.62-9.01,3.93-14.02,3.93Zm-3.25-29.92c1.94,0,4.62-.62,8.04-1.88,1.94-.8,3.79-1.65,5.56-2.56,1.77-.91,3.33-1.94,4.7-3.08,6.27-5.24,9.41-10.77,9.41-16.59,0-2.51-.91-3.76-2.74-3.76-3.19,0-8.04,3.93-14.53,11.8-3.31,3.99-6.78,9.35-10.43,16.07Z"/>
      <path class="cls-1" d="m412.38,126.03c-11.4,0-17.1-5.7-17.1-17.1,0-9.58,3.31-19.04,9.92-28.39,7.18-10.26,15.45-15.39,24.79-15.39,8.66,0,12.54,3.93,11.63,11.8-.11,2.05-1.2,4.27-3.25,6.67-1.94,2.28-3.82,3.42-5.64,3.42-1.03,0-1.88-.34-2.56-1.03,2.85-2.85,4.62-5.75,5.3-8.72.23-.8.4-1.51.51-2.14.11-.62.17-1.22.17-1.8,0-2.96-1.37-4.45-4.1-4.45-3.99,0-9.58,4.85-16.76,14.54-6.84,9.23-10.26,18.24-10.26,27.02,0,8.32,3.19,12.48,9.58,12.48s12.14-3.88,17.96-11.63l1.03-1.37,2.39,1.37-1.2,1.71c-6.04,8.66-13.51,13-22.4,13Z"/>
      <path class="cls-1" d="m444.53,125.34c-3.31,0-4.96-1.65-4.96-4.96,0-2.05.68-4.84,2.05-8.38,2.96-7.29,5.76-14.02,8.38-20.18,2.62-6.16,5.07-11.74,7.35-16.76.34-.57.51-1.2.51-1.88,0-1.59-.74-3.3-2.22-5.13l9.4-.17c3.19,0,4.79.8,4.79,2.39,0,.46-.11.94-.34,1.45-.23.51-.51,1.23-.85,2.14l-15.73,36.42c-1.6,3.76-2.39,6.96-2.39,9.58s.85,4.56,2.56,5.47h-8.55Zm23.26-66.18c-3.88,0-5.81-1.88-5.81-5.64s1.82-5.64,5.47-5.64c3.87,0,5.81,1.88,5.81,5.64s-1.82,5.64-5.47,5.64Z"/>
      <path class="cls-1" d="m511.22,125.68c-2.51,0-4.56-.74-6.16-2.22-2.28-1.94-3.42-5.19-3.42-9.75,0-2.96.51-6.33,1.54-10.09-3.88,6.5-7.92,11.8-12.14,15.9-4.33,3.99-8.21,5.99-11.63,5.99-2.97,0-5.3-1.31-7.01-3.93-1.83-2.51-2.74-5.99-2.74-10.43,0-10.83,4.84-22,14.54-33.52,1.59-1.94,3.42-3.7,5.47-5.3,2.05-1.6,4.28-3.02,6.67-4.28,4.9-2.51,9.63-3.76,14.19-3.76,5.58,0,10.03,1.83,13.34,5.47.8.8,1.2,1.71,1.2,2.74,0,1.94-1.03,2.68-3.08,2.22-1.14-4.1-3.82-6.16-8.04-6.16-4.79,0-10.43,3.36-16.93,10.09-2.28,2.51-4.45,5.1-6.5,7.78-2.05,2.68-3.99,5.5-5.81,8.46-4.9,8.21-7.35,14.88-7.35,20.01,0,3.88,1.48,5.81,4.45,5.81,3.3,0,7.12-2.51,11.46-7.52,2.39-2.74,4.84-6.1,7.35-10.09,2.51-3.99,5.13-8.61,7.87-13.85,1.14-2.16,2.16-3.93,3.08-5.3.91-1.37,1.65-2.39,2.22-3.08,1.82-1.82,3.99-2.68,6.5-2.57l3.42.51c1.48.34,2.74.4,3.76.17-1.03,1.03-2.25,2.65-3.68,4.87-1.43,2.22-3.05,5.1-4.87,8.64-1.94,3.76-3.54,7.18-4.79,10.26-1.26,3.08-2.11,5.81-2.56,8.21-.23,1.14-.4,2.2-.51,3.16-.11.97-.17,1.85-.17,2.65,0,2.97.8,4.45,2.39,4.45,2.28,0,5.41-2.51,9.4-7.52l.68-.86,2.39,1.54-.68,1.03c-4.68,6.84-9.29,10.26-13.85,10.26Z"/>
      <path class="cls-1" d="m536.18,125.34c-3.31,0-4.96-1.65-4.96-4.96,0-2.05.68-4.84,2.05-8.38l33.17-84.82c.23-.34.34-.68.34-1.03v-.86c0-1.71-.68-3.48-2.05-5.3h9.23c3.19,0,4.79.74,4.79,2.22,0,.68-.34,1.88-1.03,3.59l-33.17,84.47c-1.48,3.65-2.22,6.9-2.22,9.75,0,2.62.8,4.39,2.39,5.3h-8.55Z"/>
      <path class="cls-1" d="m565.08,125.34c-3.31,0-4.96-1.65-4.96-4.96,0-2.05.68-4.84,2.05-8.38,2.96-7.29,5.75-14.02,8.38-20.18,2.62-6.16,5.07-11.74,7.35-16.76.34-.57.51-1.2.51-1.88,0-1.59-.74-3.3-2.22-5.13l9.41-.17c3.19,0,4.79.8,4.79,2.39,0,.46-.12.94-.34,1.45-.23.51-.51,1.23-.86,2.14l-15.73,36.42c-1.6,3.76-2.39,6.96-2.39,9.58s.86,4.56,2.57,5.47h-8.55Zm23.26-66.18c-3.88,0-5.81-1.88-5.81-5.64s1.82-5.64,5.47-5.64c3.87,0,5.81,1.88,5.81,5.64s-1.82,5.64-5.47,5.64Z"/>
      <path class="cls-1" d="m604.58,126.03c-5.7,0-10.09-1.71-13.17-5.13-2.51-2.85-3.76-6.27-3.76-10.26,0-5.81,1.82-8.72,5.47-8.72,1.37,0,2.62.51,3.76,1.54,1.14,1.14,1.71,2.45,1.71,3.93,0,.91-.23,1.65-.68,2.22-1.48,1.83-2.22,3.82-2.22,5.99s.68,3.93,2.05,5.3c1.48,1.48,3.36,2.22,5.64,2.22,2.39,0,4.56-.8,6.5-2.39,2.62-2.39,3.93-5.7,3.93-9.92,0-3.65-.97-7.75-2.91-12.31-.8-1.14-1.74-2.62-2.82-4.45-1.08-1.82-2.31-3.99-3.68-6.5-.8-1.37-1.34-2.76-1.62-4.19-.29-1.42-.43-2.82-.43-4.19,0-4.79,1.77-8.61,5.3-11.46,3.65-2.96,8.32-4.45,14.02-4.45,1.6,0,3.16.17,4.7.51,1.54.34,2.93.97,4.19,1.88,2.62,1.94,3.93,4.33,3.93,7.18,0,1.26-.23,2.39-.68,3.42-1.03,2.97-3.25,4.45-6.67,4.45-3.76,0-5.64-1.94-5.64-5.81,0-1.14.17-2.11.51-2.91.34-1.14,1.6-2.28,3.76-3.42-.8-1.48-2.28-2.22-4.45-2.22-1.94,0-3.36.46-4.28,1.37-2.74,2.39-4.1,5.42-4.1,9.06,0,2.51.68,5.25,2.05,8.21.23.46,2.45,4.05,6.67,10.77,2.85,4.56,4.28,8.38,4.28,11.46,0,4.9-2.28,9.23-6.84,13-4.56,3.88-9.41,5.81-14.54,5.81Z"/>
      <path class="cls-1" d="m648.19,125.34c-7.41,0-11.11-4.04-11.11-12.14,0-1.6.14-3.25.43-4.96.28-1.71.77-3.42,1.45-5.13,6.04-15.96,11.17-28.96,15.39-38.99h-11.12l2.05-3.76h10.6l4.1-11.97c1.48-4.22,2.74-6.72,3.76-7.52.8-.57,2.62-.86,5.47-.86l7.35.17c-2.28,1.94-3.99,4.28-5.13,7.01l-5.64,13.17h13l-2.05,3.76h-12.48c-.8,1.82-1.57,3.65-2.31,5.47-.74,1.83-1.57,3.71-2.48,5.64-2.39,5.24-4.45,10.2-6.16,14.88-2.05,5.36-3.68,9.98-4.87,13.85-1.2,3.88-1.91,6.96-2.14,9.23-.46,5.59,1.03,8.38,4.45,8.38,3.19,0,7.07-3.42,11.63-10.26l2.05,2.39c-5.47,7.75-10.89,11.63-16.25,11.63Z"/>
      <path class="cls-1" d="m684.61,126.03c-5.7,0-10.09-1.71-13.17-5.13-2.51-2.85-3.76-6.27-3.76-10.26,0-5.81,1.82-8.72,5.47-8.72,1.37,0,2.62.51,3.76,1.54,1.14,1.14,1.71,2.45,1.71,3.93,0,.91-.23,1.65-.68,2.22-1.48,1.83-2.22,3.82-2.22,5.99s.68,3.93,2.05,5.3c1.48,1.48,3.36,2.22,5.64,2.22,2.39,0,4.56-.8,6.5-2.39,2.62-2.39,3.93-5.7,3.93-9.92,0-3.65-.97-7.75-2.91-12.31-.8-1.14-1.74-2.62-2.82-4.45-1.08-1.82-2.31-3.99-3.68-6.5-.8-1.37-1.34-2.76-1.62-4.19-.29-1.42-.43-2.82-.43-4.19,0-4.79,1.77-8.61,5.3-11.46,3.65-2.96,8.32-4.45,14.02-4.45,1.6,0,3.16.17,4.7.51,1.54.34,2.93.97,4.19,1.88,2.62,1.94,3.93,4.33,3.93,7.18,0,1.26-.23,2.39-.68,3.42-1.03,2.97-3.25,4.45-6.67,4.45-3.76,0-5.64-1.94-5.64-5.81,0-1.14.17-2.11.51-2.91.34-1.14,1.6-2.28,3.76-3.42-.8-1.48-2.28-2.22-4.45-2.22-1.94,0-3.36.46-4.28,1.37-2.74,2.39-4.1,5.42-4.1,9.06,0,2.51.68,5.25,2.05,8.21.23.46,2.45,4.05,6.67,10.77,2.85,4.56,4.28,8.38,4.28,11.46,0,4.9-2.28,9.23-6.84,13-4.56,3.88-9.41,5.81-14.54,5.81Z"/>
    </g>
  </g>
</svg>